<svg xmlns="http://www.w3.org/2000/svg" viewBox="0 0 1920 573.09"><defs><style>.cls-1{fill:#fff;}.cls-2{fill:none;stroke:#000;stroke-miterlimit:10;stroke-width:11px;}</style></defs><g id="Layer_2" data-name="Layer 2"><g id="Layer_1-2" data-name="Layer 1"><rect class="cls-1" width="1920" height="573.09"/><path d="M534.73,371v-1.32c0-11.4-6-15.24-13.92-15.24-8.64,0-13.56,4.44-14,12.36h-12.6c1.08-13.68,12.36-22,27.12-22,16.68,0,26.28,8,26,27.36,0,1.56-.24,12.72-.24,15.48,0,9.6.6,17.52,1.8,23.28h-12a56.05,56.05,0,0,1-1.08-8.52c-3.84,6.47-11.16,10.07-21.6,10.07-13.08,0-23-7.2-23-18.95C491.17,377.79,509.65,373.59,534.73,371Zm-30,22.32c0,5.88,4.68,9.6,12.24,9.6,10.32,0,18.36-5.16,18.36-18v-4.68C515.29,382.11,504.73,384.87,504.73,393.27Z"/><path d="M575.17,355.83c4-6.6,10.68-10.68,20.16-10.68,15,0,27.84,12.6,27.84,33.6s-12.84,33.71-27.84,33.71c-9.48,0-16.2-4.08-20.16-10.67V431.9H562.69V346.35h12.48Zm34.68,22.92c0-14.52-7.08-23.16-17.4-23.16-9.6,0-17.76,7.2-17.76,23.16S582.85,402,592.45,402C602.77,402,609.85,393.27,609.85,378.75Z"/><path d="M648,355.83c4-6.6,10.68-10.68,20.16-10.68,15,0,27.83,12.6,27.83,33.6s-12.83,33.71-27.83,33.71c-9.48,0-16.2-4.08-20.16-10.67V431.9H635.53V346.35H648Zm34.68,22.92c0-14.52-7.08-23.16-17.4-23.16-9.6,0-17.76,7.2-17.76,23.16S655.69,402,665.29,402C675.61,402,682.69,393.27,682.69,378.75Z"/><path d="M708.37,410.91v-87h12.48v87Z"/><path d="M734.41,421.94h4.92c6.72,0,9.59-.48,12.71-9.72l.49-1.44-23.28-64.43h13.8l15.59,48.12,15.24-48.12h13l-22.8,66c-5.28,15.24-9.12,19.56-23.63,19.56h-6Z"/><path d="M838.32,329.79v16.56H851v9.48H838.32v36.84c0,6.59,1.08,8.28,7.32,8.28h5.28v10H841.8c-13.08,0-16-3.24-16-16.56V355.83H816v-9.48h9.84V329.79Z"/><path d="M919.32,392c-3,10.68-12.6,20.51-29,20.51-20.88,0-32.16-15.23-32.16-33.95,0-20,13.44-33.36,31.8-33.36,19.92,0,31.56,16.32,30.24,37.32H871c1.2,11.88,8.76,19.32,18.84,19.32,9,0,14.28-3.72,16.92-9.84ZM907.2,372.63c-.36-9.6-7.08-17.28-17.4-17.28-9.72,0-16.92,5-18.6,17.28Z"/><path d="M975.24,368.19c-1.32-7.32-7.92-12.36-16.08-12.36-9,0-17.28,7.08-17.28,22.8,0,16,8.4,23.16,17.28,23.16,7.92,0,14.88-4.68,16.56-12.36h12.6c-2.52,13.56-15.12,23-29.4,23-18.6,0-30.36-14.27-30.36-33.71,0-19.2,12.12-33.6,31.2-33.6,14.76,0,26,10.44,28,23Z"/><path d="M1032.84,345.15c15.6,0,21.6,10.08,21.6,25.08v40.68H1042V373.59c0-9.36-1.56-18-13.32-18-10.8,0-16.08,7.8-16.08,20.64v34.68h-12.48v-87h12.48v31.8C1016.28,349.35,1022.76,345.15,1032.84,345.15Z"/><path d="M1102.8,345.15c15.6,0,21.6,10.08,21.6,25.08v40.68h-12.48V373.59c0-9.36-1.56-18-13.32-18-10.8,0-16.08,7.8-16.08,20.64v34.68H1070V346.35h12.48v9.36C1086.24,349.35,1092.72,345.15,1102.8,345.15Z"/><path d="M1167,412.46c-15.24,0-31.32-10.31-31.32-33.59s16.08-33.72,31.32-33.72,31.44,10.32,31.44,33.72S1182.36,412.46,1167,412.46Zm18.24-33.59c0-16.08-8.76-23.16-18.24-23.16s-18.12,6.84-18.12,23.16c0,16,8.76,23,18.12,23S1185.24,394.59,1185.24,378.87Z"/><path d="M1210.92,410.91v-87h12.48v87Z"/><path d="M1267.19,412.46c-15.24,0-31.31-10.31-31.31-33.59s16.07-33.72,31.31-33.72,31.44,10.32,31.44,33.72S1282.55,412.46,1267.19,412.46Zm18.24-33.59c0-16.08-8.76-23.16-18.24-23.16s-18.11,6.84-18.11,23.16c0,16,8.75,23,18.11,23S1285.43,394.59,1285.43,378.87Z"/><path d="M1367.51,346.35v57c0,11.88-2.52,18.25-7,22.68-4.92,5.16-12.72,7.8-22.56,7.8-14.4,0-25-6.24-27-19.8h12.84c1.32,5.88,5,9.36,14.4,9.36,6.12,0,10.32-1.68,13-4.68,2.52-2.76,3.84-6.11,3.84-12.71v-6.84c-4,6.6-10.44,10.68-19.92,10.68-15,0-27.48-11.88-27.48-32.4s12.48-32.28,27.48-32.28c9.48,0,16,4.08,19.92,10.68v-9.48ZM1321,377.43c0,14,6.72,22.2,17,22.2,9.6,0,17.52-6.72,17.52-22.2s-7.92-22-17.52-22C1327.67,355.47,1321,363.63,1321,377.43Z"/><path d="M1381,421.94h4.92c6.72,0,9.6-.48,12.72-9.72l.48-1.44-23.28-64.43h13.8l15.6,48.12,15.24-48.12h13l-22.8,66c-5.28,15.24-9.12,19.56-23.64,19.56h-6Z"/><polyline class="cls-2" points="1670 573.09 1670 540 254.01 540 254.01 573.09"/><line class="cls-2" x1="1670" y1="506.9" x2="1670" y2="540"/><line class="cls-2" x1="254.01" y1="506.9" x2="254.01" y2="540"/></g></g></svg>