<svg xmlns="http://www.w3.org/2000/svg" xmlns:xlink="http://www.w3.org/1999/xlink" viewBox="0 0 1920 944.26"><defs><style>.cls-1{fill:#fff;}</style></defs><g id="Layer_2" data-name="Layer 2"><g id="Layer_1-2" data-name="Layer 1"><rect class="cls-1" width="1920" height="944.26"/><image width="387" height="453" transform="translate(724.41 108.45) scale(1.22 1.28)" xlink:href="../../../sources/Our-approach-result-on-Stanford-bunny-example-Left-the-bunny-initial-point-clouds.png"/><rect x="997.95" y="653.28" width="20.05" height="20.35" rx="10.03"/><rect x="917.74" y="653.28" width="20.05" height="20.35" rx="10.03"/><rect x="877.64" y="653.28" width="20.05" height="20.35" rx="10.03"/><rect x="1058.1" y="632.93" width="20.05" height="20.35" rx="10.03"/><rect x="1018" y="632.93" width="20.05" height="20.35" rx="10.03"/><rect x="977.9" y="632.93" width="20.05" height="20.35" rx="10.03"/><rect x="897.69" y="632.93" width="20.05" height="20.35" rx="10.03"/><rect x="857.59" y="632.93" width="20.05" height="20.35" rx="10.03"/><rect x="837.54" y="632.93" width="20.05" height="20.35" rx="10.03"/><rect x="1038.05" y="612.58" width="20.05" height="20.35" rx="10.03"/><rect x="997.95" y="612.58" width="20.05" height="20.35" rx="10.03"/><rect x="957.85" y="612.58" width="20.05" height="20.35" rx="10.03"/><rect x="1078.15" y="592.23" width="20.05" height="20.35" rx="10.03"/><rect x="1058.1" y="592.23" width="20.05" height="20.35" rx="10.03"/><rect x="1038.05" y="592.23" width="20.05" height="20.35" rx="10.03"/><rect x="1018" y="592.23" width="20.05" height="20.35" rx="10.03"/><rect x="977.9" y="592.23" width="20.05" height="20.35" rx="10.03"/><rect x="937.79" y="592.23" width="20.05" height="20.35" rx="10.03"/><rect x="897.69" y="592.23" width="20.05" height="20.35" rx="10.03"/><rect x="857.59" y="592.23" width="20.05" height="20.35" rx="10.03"/><rect x="837.54" y="592.23" width="20.05" height="20.35" rx="10.03"/><rect x="797.44" y="592.23" width="20.05" height="20.35" rx="10.03"/><rect x="1098.2" y="571.88" width="20.05" height="20.35" rx="10.03"/><rect x="1038.05" y="571.88" width="20.05" height="20.35" rx="10.03"/><rect x="997.95" y="571.88" width="20.05" height="20.35" rx="10.03"/><rect x="957.85" y="571.88" width="20.05" height="20.35" rx="10.03"/><rect x="917.74" y="571.88" width="20.05" height="20.35" rx="10.03"/><rect x="877.64" y="571.88" width="20.05" height="20.35" rx="10.03"/><rect x="817.49" y="571.88" width="20.05" height="20.35" rx="10.03"/><rect x="777.39" y="571.88" width="20.05" height="20.35" rx="10.03"/><rect x="1098.2" y="551.53" width="20.05" height="20.35" rx="10.03"/><rect x="1038.05" y="551.53" width="20.05" height="20.35" rx="10.03"/><rect x="997.95" y="551.53" width="20.05" height="20.35" rx="10.03"/><rect x="957.85" y="551.53" width="20.05" height="20.35" rx="10.03"/><rect x="917.74" y="551.53" width="20.05" height="20.35" rx="10.03"/><rect x="877.64" y="551.53" width="20.05" height="20.35" rx="10.03"/><rect x="817.49" y="551.53" width="20.05" height="20.35" rx="10.03"/><rect x="1158.36" y="531.18" width="20.05" height="20.35" rx="10.03"/><rect x="1118.25" y="531.18" width="20.05" height="20.35" rx="10.03"/><rect x="1078.15" y="531.18" width="20.05" height="20.35" rx="10.03"/><rect x="1058.1" y="531.18" width="20.05" height="20.35" rx="10.03"/><rect x="1018" y="531.18" width="20.05" height="20.35" rx="10.03"/><rect x="977.9" y="531.18" width="20.05" height="20.35" rx="10.03"/><rect x="937.79" y="531.18" width="20.05" height="20.35" rx="10.03"/><rect x="897.69" y="531.18" width="20.05" height="20.35" rx="10.03"/><rect x="857.59" y="531.18" width="20.05" height="20.35" rx="10.03"/><rect x="837.54" y="531.18" width="20.05" height="20.35" rx="10.03"/><rect x="797.44" y="531.18" width="20.05" height="20.35" rx="10.03"/><rect x="777.39" y="531.18" width="20.05" height="20.35" rx="10.03"/><rect x="1138.3" y="510.83" width="20.05" height="20.35" rx="10.03"/><rect x="917.74" y="510.83" width="20.05" height="20.35" rx="10.03"/><rect x="877.64" y="510.83" width="20.05" height="20.35" rx="10.03"/><rect x="777.39" y="510.83" width="20.05" height="20.35" rx="10.03"/><rect x="1118.25" y="490.48" width="20.05" height="20.35" rx="10.03"/><rect x="1078.15" y="490.48" width="20.05" height="20.35" rx="10.03"/><rect x="1058.1" y="490.48" width="20.05" height="20.35" rx="10.03"/><rect x="1018" y="490.48" width="20.05" height="20.35" rx="10.03"/><rect x="977.9" y="490.48" width="20.05" height="20.35" rx="10.03"/><rect x="937.79" y="490.48" width="20.05" height="20.35" rx="10.03"/><rect x="897.69" y="490.48" width="20.05" height="20.35" rx="10.03"/><rect x="857.59" y="490.48" width="20.05" height="20.35" rx="10.03"/><rect x="837.54" y="490.48" width="20.05" height="20.35" rx="10.03"/><rect x="797.44" y="490.48" width="20.05" height="20.35" rx="10.03"/><rect x="757.34" y="490.48" width="20.05" height="20.35" rx="10.03"/><rect x="1138.3" y="470.14" width="20.05" height="20.35" rx="10.03"/><rect x="1098.2" y="470.14" width="20.05" height="20.35" rx="10.03"/><rect x="877.64" y="470.14" width="20.05" height="20.35" rx="10.03"/><rect x="1138.3" y="449.79" width="20.05" height="20.35" rx="10.03"/><rect x="1118.25" y="449.79" width="20.05" height="20.35" rx="10.03"/><rect x="1098.2" y="449.79" width="20.05" height="20.35" rx="10.03"/><rect x="1078.15" y="449.79" width="20.05" height="20.35" rx="10.03"/><rect x="1058.1" y="449.79" width="20.05" height="20.35" rx="10.03"/><rect x="1018" y="449.79" width="20.05" height="20.35" rx="10.03"/><rect x="977.9" y="449.79" width="20.05" height="20.35" rx="10.03"/><rect x="937.79" y="449.79" width="20.05" height="20.35" rx="10.03"/><rect x="897.69" y="449.79" width="20.05" height="20.35" rx="10.03"/><rect x="857.59" y="449.79" width="20.05" height="20.35" rx="10.03"/><rect x="837.54" y="449.79" width="20.05" height="20.35" rx="10.03"/><rect x="817.49" y="449.79" width="20.05" height="20.35" rx="10.03"/><rect x="797.44" y="449.79" width="20.05" height="20.35" rx="10.03"/><rect x="757.34" y="449.79" width="20.05" height="20.35" rx="10.03"/><rect x="1098.2" y="429.44" width="20.05" height="20.35" rx="10.03"/><rect x="1038.05" y="429.44" width="20.05" height="20.35" rx="10.03"/><rect x="957.85" y="429.44" width="20.05" height="20.35" rx="10.03"/><rect x="877.64" y="429.44" width="20.05" height="20.35" rx="10.03"/><rect x="817.49" y="429.44" width="20.05" height="20.35" rx="10.03"/><rect x="777.39" y="429.44" width="20.05" height="20.35" rx="10.03"/><rect x="1118.25" y="409.09" width="20.05" height="20.35" rx="10.03"/><rect x="1078.15" y="409.09" width="20.05" height="20.35" rx="10.03"/><rect x="1058.1" y="409.09" width="20.05" height="20.35" rx="10.03"/><rect x="1018" y="409.09" width="20.05" height="20.35" rx="10.03"/><rect x="937.79" y="409.09" width="20.05" height="20.35" rx="10.03"/><rect x="897.69" y="409.09" width="20.05" height="20.35" rx="10.03"/><rect x="857.59" y="409.09" width="20.05" height="20.35" rx="10.03"/><rect x="837.54" y="409.09" width="20.05" height="20.35" rx="10.03"/><rect x="797.44" y="409.09" width="20.05" height="20.35" rx="10.03"/><rect x="777.39" y="409.09" width="20.05" height="20.35" rx="10.03"/><rect x="757.34" y="409.09" width="20.05" height="20.35" rx="10.03"/><rect x="1098.2" y="388.74" width="20.05" height="20.35" rx="10.03"/><rect x="777.39" y="388.74" width="20.05" height="20.35" rx="10.03"/><rect x="1038.05" y="368.39" width="20.05" height="20.35" rx="10.03"/><rect x="997.95" y="368.39" width="20.05" height="20.35" rx="10.03"/><rect x="957.85" y="368.39" width="20.05" height="20.35" rx="10.03"/><rect x="917.74" y="368.39" width="20.05" height="20.35" rx="10.03"/><rect x="877.64" y="368.39" width="20.05" height="20.35" rx="10.03"/><rect x="777.39" y="368.39" width="20.05" height="20.35" rx="10.03"/><rect x="1058.1" y="348.04" width="20.05" height="20.35" rx="10.03"/><rect x="1018" y="348.04" width="20.05" height="20.35" rx="10.03"/><rect x="977.9" y="348.04" width="20.05" height="20.35" rx="10.03"/><rect x="957.85" y="348.04" width="20.05" height="20.35" rx="10.03"/><rect x="937.79" y="348.04" width="20.05" height="20.35" rx="10.03"/><rect x="917.74" y="348.04" width="20.05" height="20.35" rx="10.03"/><rect x="897.69" y="348.04" width="20.05" height="20.35" rx="10.03"/><rect x="857.59" y="348.04" width="20.05" height="20.35" rx="10.03"/><rect x="837.54" y="348.04" width="20.05" height="20.35" rx="10.03"/><rect x="797.44" y="348.04" width="20.05" height="20.35" rx="10.03"/><rect x="777.39" y="348.04" width="20.05" height="20.35" rx="10.03"/><rect x="877.64" y="327.69" width="20.05" height="20.35" rx="10.03"/><rect x="817.49" y="327.69" width="20.05" height="20.35" rx="10.03"/><rect x="777.39" y="327.69" width="20.05" height="20.35" rx="10.03"/><rect x="877.64" y="307.34" width="20.05" height="20.35" rx="10.03"/><rect x="857.59" y="307.34" width="20.05" height="20.35" rx="10.03"/><rect x="837.54" y="307.34" width="20.05" height="20.35" rx="10.03"/><rect x="797.44" y="307.34" width="20.05" height="20.35" rx="10.03"/><rect x="877.64" y="286.99" width="20.05" height="20.35" rx="10.03"/><rect x="817.49" y="286.99" width="20.05" height="20.35" rx="10.03"/><rect x="897.69" y="266.64" width="20.05" height="20.35" rx="10.03"/><rect x="857.59" y="266.64" width="20.05" height="20.35" rx="10.03"/><rect x="837.54" y="266.64" width="20.05" height="20.35" rx="10.03"/><rect x="797.44" y="266.64" width="20.05" height="20.35" rx="10.03"/><rect x="917.74" y="246.29" width="20.05" height="20.35" rx="10.03"/><rect x="937.79" y="225.94" width="20.05" height="20.35" rx="10.03"/><rect x="917.74" y="225.94" width="20.05" height="20.35" rx="10.03"/><rect x="897.69" y="225.94" width="20.05" height="20.35" rx="10.03"/><rect x="877.64" y="225.94" width="20.05" height="20.35" rx="10.03"/><rect x="797.44" y="225.94" width="20.05" height="20.35" rx="10.03"/><rect x="777.39" y="225.94" width="20.05" height="20.35" rx="10.03"/><rect x="917.74" y="205.59" width="20.05" height="20.35" rx="10.03"/><rect x="817.49" y="205.59" width="20.05" height="20.35" rx="10.03"/><rect x="777.39" y="205.59" width="20.05" height="20.35" rx="10.03"/><rect x="957.85" y="185.24" width="20.05" height="20.35" rx="10.03"/><rect x="757.34" y="164.9" width="20.05" height="20.35" rx="10.03"/><rect x="777.39" y="144.55" width="20.05" height="20.35" rx="10.03"/><rect x="777.39" y="124.2" width="20.05" height="20.35" rx="10.03"/></g></g></svg>