<svg xmlns="http://www.w3.org/2000/svg" xmlns:xlink="http://www.w3.org/1999/xlink" viewBox="0 0 471.19 581.18"><g id="Layer_2" data-name="Layer 2"><g id="Layer_1-2" data-name="Layer 1"><image width="387" height="453" transform="scale(1.22 1.28)" xlink:href="../../../../../!Phygitalism/hse/web_machine_vision/sources/Our-approach-result-on-Stanford-bunny-example-Left-the-bunny-initial-point-clouds.png"/><rect x="273.54" y="544.83" width="20.05" height="20.35" rx="10.03"/><rect x="193.34" y="544.83" width="20.05" height="20.35" rx="10.03"/><rect x="153.24" y="544.83" width="20.05" height="20.35" rx="10.03"/><rect x="333.7" y="524.48" width="20.05" height="20.35" rx="10.03"/><rect x="293.59" y="524.48" width="20.05" height="20.35" rx="10.03"/><rect x="253.49" y="524.48" width="20.05" height="20.35" rx="10.03"/><rect x="173.29" y="524.48" width="20.05" height="20.35" rx="10.03"/><rect x="133.19" y="524.48" width="20.05" height="20.35" rx="10.03"/><rect x="113.13" y="524.48" width="20.05" height="20.35" rx="10.03"/><rect x="313.64" y="504.13" width="20.05" height="20.35" rx="10.03"/><rect x="273.54" y="504.13" width="20.05" height="20.35" rx="10.03"/><rect x="233.44" y="504.13" width="20.05" height="20.35" rx="10.03"/><rect x="353.75" y="483.78" width="20.05" height="20.35" rx="10.03"/><rect x="333.7" y="483.78" width="20.05" height="20.35" rx="10.03"/><rect x="313.64" y="483.78" width="20.05" height="20.35" rx="10.03"/><rect x="293.59" y="483.78" width="20.05" height="20.35" rx="10.03"/><rect x="253.49" y="483.78" width="20.05" height="20.35" rx="10.03"/><rect x="213.39" y="483.78" width="20.05" height="20.35" rx="10.03"/><rect x="173.29" y="483.78" width="20.05" height="20.35" rx="10.03"/><rect x="133.19" y="483.78" width="20.05" height="20.35" rx="10.03"/><rect x="113.13" y="483.78" width="20.05" height="20.35" rx="10.03"/><rect x="73.03" y="483.78" width="20.05" height="20.35" rx="10.03"/><rect x="373.8" y="463.43" width="20.05" height="20.35" rx="10.03"/><rect x="313.64" y="463.43" width="20.05" height="20.35" rx="10.03"/><rect x="273.54" y="463.43" width="20.05" height="20.35" rx="10.03"/><rect x="233.44" y="463.43" width="20.05" height="20.35" rx="10.03"/><rect x="193.34" y="463.43" width="20.05" height="20.35" rx="10.03"/><rect x="153.24" y="463.43" width="20.05" height="20.35" rx="10.03"/><rect x="93.08" y="463.43" width="20.05" height="20.35" rx="10.03"/><rect x="52.98" y="463.43" width="20.05" height="20.35" rx="10.03"/><rect x="373.8" y="443.08" width="20.05" height="20.35" rx="10.03"/><rect x="313.64" y="443.08" width="20.05" height="20.35" rx="10.03"/><rect x="273.54" y="443.08" width="20.05" height="20.35" rx="10.03"/><rect x="233.44" y="443.08" width="20.05" height="20.35" rx="10.03"/><rect x="193.34" y="443.08" width="20.05" height="20.35" rx="10.03"/><rect x="153.24" y="443.08" width="20.05" height="20.35" rx="10.03"/><rect x="93.08" y="443.08" width="20.05" height="20.35" rx="10.03"/><rect x="433.95" y="422.73" width="20.05" height="20.35" rx="10.03"/><rect x="393.85" y="422.73" width="20.05" height="20.35" rx="10.03"/><rect x="353.75" y="422.73" width="20.05" height="20.35" rx="10.03"/><rect x="333.7" y="422.73" width="20.05" height="20.35" rx="10.03"/><rect x="293.59" y="422.73" width="20.05" height="20.35" rx="10.03"/><rect x="253.49" y="422.73" width="20.05" height="20.35" rx="10.03"/><rect x="213.39" y="422.73" width="20.05" height="20.35" rx="10.03"/><rect x="173.29" y="422.73" width="20.05" height="20.35" rx="10.03"/><rect x="133.19" y="422.73" width="20.05" height="20.35" rx="10.03"/><rect x="113.13" y="422.73" width="20.05" height="20.35" rx="10.03"/><rect x="73.03" y="422.73" width="20.05" height="20.35" rx="10.03"/><rect x="52.98" y="422.73" width="20.05" height="20.35" rx="10.03"/><rect x="413.9" y="402.38" width="20.05" height="20.35" rx="10.03"/><rect x="193.34" y="402.38" width="20.05" height="20.35" rx="10.03"/><rect x="153.24" y="402.38" width="20.05" height="20.35" rx="10.03"/><rect x="52.98" y="402.38" width="20.05" height="20.35" rx="10.03"/><rect x="393.85" y="382.04" width="20.05" height="20.35" rx="10.03"/><rect x="353.75" y="382.04" width="20.05" height="20.35" rx="10.03"/><rect x="333.7" y="382.04" width="20.05" height="20.35" rx="10.03"/><rect x="293.59" y="382.04" width="20.05" height="20.35" rx="10.03"/><rect x="253.49" y="382.04" width="20.05" height="20.35" rx="10.03"/><rect x="213.39" y="382.04" width="20.05" height="20.35" rx="10.03"/><rect x="173.29" y="382.04" width="20.05" height="20.35" rx="10.03"/><rect x="133.19" y="382.04" width="20.05" height="20.35" rx="10.03"/><rect x="113.13" y="382.04" width="20.05" height="20.35" rx="10.03"/><rect x="73.03" y="382.04" width="20.05" height="20.35" rx="10.03"/><rect x="32.93" y="382.04" width="20.05" height="20.35" rx="10.03"/><rect x="413.9" y="361.69" width="20.05" height="20.35" rx="10.03"/><rect x="373.8" y="361.69" width="20.05" height="20.35" rx="10.03"/><rect x="153.24" y="361.69" width="20.05" height="20.35" rx="10.03"/><rect x="413.9" y="341.34" width="20.05" height="20.35" rx="10.03"/><rect x="393.85" y="341.34" width="20.05" height="20.35" rx="10.03"/><rect x="373.8" y="341.34" width="20.05" height="20.35" rx="10.03"/><rect x="353.75" y="341.34" width="20.05" height="20.35" rx="10.03"/><rect x="333.7" y="341.34" width="20.05" height="20.35" rx="10.03"/><rect x="293.59" y="341.34" width="20.05" height="20.35" rx="10.03"/><rect x="253.49" y="341.34" width="20.05" height="20.35" rx="10.03"/><rect x="213.39" y="341.34" width="20.05" height="20.35" rx="10.03"/><rect x="173.29" y="341.34" width="20.05" height="20.35" rx="10.03"/><rect x="133.19" y="341.34" width="20.05" height="20.35" rx="10.03"/><rect x="113.13" y="341.34" width="20.05" height="20.35" rx="10.03"/><rect x="93.08" y="341.34" width="20.05" height="20.35" rx="10.03"/><rect x="73.03" y="341.34" width="20.05" height="20.35" rx="10.03"/><rect x="32.93" y="341.34" width="20.05" height="20.35" rx="10.03"/><rect x="373.8" y="320.99" width="20.05" height="20.35" rx="10.03"/><rect x="313.64" y="320.99" width="20.05" height="20.35" rx="10.03"/><rect x="233.44" y="320.99" width="20.05" height="20.35" rx="10.03"/><rect x="153.24" y="320.99" width="20.05" height="20.35" rx="10.03"/><rect x="93.08" y="320.99" width="20.05" height="20.35" rx="10.03"/><rect x="52.98" y="320.99" width="20.05" height="20.35" rx="10.03"/><rect x="393.85" y="300.64" width="20.05" height="20.35" rx="10.03"/><rect x="353.75" y="300.64" width="20.05" height="20.35" rx="10.03"/><rect x="333.7" y="300.64" width="20.05" height="20.35" rx="10.03"/><rect x="293.59" y="300.64" width="20.05" height="20.35" rx="10.03"/><rect x="213.39" y="300.64" width="20.05" height="20.35" rx="10.03"/><rect x="173.29" y="300.64" width="20.05" height="20.35" rx="10.03"/><rect x="133.19" y="300.64" width="20.05" height="20.35" rx="10.03"/><rect x="113.13" y="300.64" width="20.05" height="20.35" rx="10.03"/><rect x="73.03" y="300.64" width="20.05" height="20.35" rx="10.03"/><rect x="52.98" y="300.64" width="20.05" height="20.35" rx="10.03"/><rect x="32.93" y="300.64" width="20.05" height="20.35" rx="10.03"/><rect x="373.8" y="280.29" width="20.05" height="20.35" rx="10.03"/><rect x="52.98" y="280.29" width="20.05" height="20.35" rx="10.03"/><rect x="313.64" y="259.94" width="20.05" height="20.35" rx="10.03"/><rect x="273.54" y="259.94" width="20.05" height="20.35" rx="10.03"/><rect x="233.44" y="259.94" width="20.05" height="20.35" rx="10.03"/><rect x="193.34" y="259.94" width="20.05" height="20.35" rx="10.03"/><rect x="153.24" y="259.94" width="20.05" height="20.35" rx="10.03"/><rect x="52.98" y="259.94" width="20.05" height="20.35" rx="10.03"/><rect x="333.7" y="239.59" width="20.05" height="20.35" rx="10.03"/><rect x="293.59" y="239.59" width="20.05" height="20.35" rx="10.03"/><rect x="253.49" y="239.59" width="20.05" height="20.35" rx="10.03"/><rect x="233.44" y="239.59" width="20.05" height="20.35" rx="10.03"/><rect x="213.39" y="239.59" width="20.05" height="20.35" rx="10.03"/><rect x="193.34" y="239.59" width="20.05" height="20.35" rx="10.03"/><rect x="173.29" y="239.59" width="20.05" height="20.35" rx="10.03"/><rect x="133.19" y="239.59" width="20.05" height="20.35" rx="10.03"/><rect x="113.13" y="239.59" width="20.05" height="20.35" rx="10.03"/><rect x="73.03" y="239.59" width="20.05" height="20.35" rx="10.03"/><rect x="52.98" y="239.59" width="20.05" height="20.35" rx="10.03"/><rect x="153.24" y="219.24" width="20.05" height="20.35" rx="10.03"/><rect x="93.08" y="219.24" width="20.05" height="20.35" rx="10.03"/><rect x="52.98" y="219.24" width="20.05" height="20.35" rx="10.03"/><rect x="153.24" y="198.89" width="20.05" height="20.35" rx="10.03"/><rect x="133.19" y="198.89" width="20.05" height="20.35" rx="10.03"/><rect x="113.13" y="198.89" width="20.05" height="20.35" rx="10.03"/><rect x="73.03" y="198.89" width="20.05" height="20.35" rx="10.03"/><rect x="153.24" y="178.54" width="20.05" height="20.35" rx="10.03"/><rect x="93.08" y="178.54" width="20.05" height="20.35" rx="10.03"/><rect x="173.29" y="158.19" width="20.05" height="20.35" rx="10.03"/><rect x="133.19" y="158.19" width="20.05" height="20.35" rx="10.03"/><rect x="113.13" y="158.19" width="20.05" height="20.35" rx="10.03"/><rect x="73.03" y="158.19" width="20.05" height="20.35" rx="10.03"/><rect x="193.34" y="137.84" width="20.05" height="20.35" rx="10.03"/><rect x="213.39" y="117.49" width="20.05" height="20.35" rx="10.03"/><rect x="193.34" y="117.49" width="20.05" height="20.35" rx="10.03"/><rect x="173.29" y="117.49" width="20.05" height="20.35" rx="10.03"/><rect x="153.24" y="117.49" width="20.05" height="20.35" rx="10.03"/><rect x="73.03" y="117.49" width="20.05" height="20.35" rx="10.03"/><rect x="52.98" y="117.49" width="20.05" height="20.35" rx="10.03"/><rect x="193.34" y="97.14" width="20.05" height="20.35" rx="10.03"/><rect x="93.08" y="97.14" width="20.05" height="20.35" rx="10.03"/><rect x="52.98" y="97.14" width="20.05" height="20.35" rx="10.03"/><rect x="233.44" y="76.8" width="20.05" height="20.35" rx="10.03"/><rect x="32.93" y="56.45" width="20.05" height="20.35" rx="10.03"/><rect x="52.98" y="36.1" width="20.05" height="20.35" rx="10.03"/><rect x="52.98" y="15.75" width="20.05" height="20.35" rx="10.03"/></g></g></svg>