<svg xmlns="http://www.w3.org/2000/svg" viewBox="0 0 757.07 119.87"><defs><style>.cls-1{fill:none;stroke:#000;stroke-miterlimit:10;stroke-width:11px;}</style></defs><g id="Layer_2" data-name="Layer 2"><g id="Layer_1-2" data-name="Layer 1"><path d="M27.84,33V43.5h-6.3V33H0V27.48L21.54,0h6.3V27.36h7.8V33Zm-6.3-5.64v-19L6.9,27.36Z"/><path d="M39.48,36H47v7.5h-7.5Z"/><path d="M79.8,15.6c-3.06,0-6.36,1.26-6.36,3.9,0,2.4,1.56,3.42,4.5,4l4.62.9C88.68,25.62,94,27.72,94,34c0,6.54-6.12,10.26-13.56,10.26-8.16,0-13.14-4.74-13.92-10.8H72.9c.84,3.66,3.24,5.82,7.74,5.82,4,0,7.14-1.68,7.14-4.56S85,30.54,81.6,29.88l-4.86-1c-4.86-1-9.42-3.12-9.42-9.18,0-5.7,6-9.18,13.08-9.18,6.48,0,11.7,3.42,12.9,9.66H87.12C86.22,16.92,83.46,15.6,79.8,15.6Z"/><path d="M120.12,23.52v-.66c0-5.7-3-7.62-7-7.62-4.32,0-6.78,2.22-7,6.18h-6.3c.54-6.84,6.18-11,13.56-11,8.34,0,13.14,4,13,13.68,0,.78-.12,6.36-.12,7.74a60.15,60.15,0,0,0,.9,11.64h-6a27.85,27.85,0,0,1-.54-4.26c-1.92,3.24-5.58,5-10.8,5-6.54,0-11.52-3.6-11.52-9.48C98.34,26.94,107.58,24.84,120.12,23.52Zm-15,11.16c0,2.94,2.34,4.8,6.12,4.8,5.16,0,9.18-2.58,9.18-9V28.14C110.4,29.1,105.12,30.48,105.12,34.68Z"/><path d="M152.76,11.22h6.48L147.3,43.5h-5.7l-12-32.28h6.9l8.16,23.94Z"/><path d="M191.22,34c-1.5,5.34-6.3,10.26-14.52,10.26-10.44,0-16.08-7.62-16.08-17,0-10,6.72-16.68,15.9-16.68,10,0,15.78,8.16,15.12,18.66H167c.6,5.94,4.38,9.66,9.42,9.66,4.5,0,7.14-1.86,8.46-4.92Zm-6.06-9.66c-.18-4.8-3.54-8.64-8.7-8.64-4.86,0-8.46,2.52-9.3,8.64Z"/><path d="M218,6.9H211.8V0H218Zm0,36.6H211.8V11.22H218Z"/><path d="M233.94,2.94v8.28h6.36V16h-6.36V34.38c0,3.3.54,4.14,3.66,4.14h2.64v5h-4.56c-6.54,0-8-1.62-8-8.28V16h-4.92V11.22h4.92V2.94Z"/><path d="M266.63,6.9H260.4V0h6.23Zm0,36.6H260.4V11.22h6.23Z"/><path d="M291.41,10.62c7.8,0,10.8,5,10.8,12.54V43.5H296V24.84c0-4.68-.78-9-6.66-9-5.4,0-8,3.9-8,10.32V43.5H275V11.22h6.23V15.9C283.13,12.72,286.37,10.62,291.41,10.62Z"/><path d="M322.43,49h2.46c3.36,0,4.8-.24,6.36-4.86l.24-.72L319.85,11.22h6.9l7.8,24.06,7.62-24.06h6.48l-11.4,33c-2.64,7.62-4.56,9.78-11.82,9.78h-3Z"/><path d="M365.75,44.28c-7.62,0-15.66-5.16-15.66-16.8s8-16.86,15.66-16.86,15.72,5.16,15.72,16.86S373.43,44.28,365.75,44.28Zm9.12-16.8c0-8-4.38-11.58-9.12-11.58s-9.06,3.42-9.06,11.58c0,8,4.38,11.52,9.06,11.52S374.87,35.34,374.87,27.48Z"/><path d="M397.79,44.28c-7.62,0-10.56-4.74-10.56-12.54V11.22h6.24V30.06c0,4.68.78,8.94,6.42,8.94,5.22,0,7.8-3.9,7.8-10.26V11.22h6.24V43.5h-6.3V38.94C405.77,42.18,402.65,44.28,397.79,44.28Z"/><path d="M435.83,17.46c-4.8,0-7.32,2.34-7.32,9.12V43.5h-6.24V11.22h6.12v5.7a9.64,9.64,0,0,1,8.94-5.82,16.86,16.86,0,0,1,1.74.06v6.48A31,31,0,0,0,435.83,17.46Z"/><path d="M458,43.5V11.22h6.24V15.9a10.36,10.36,0,0,1,9.54-5.28c5,0,7.92,2.1,9.36,5.7a12.27,12.27,0,0,1,10.68-5.7c7.56,0,10.5,5,10.5,12.54V43.5h-6.24V24.84c0-4.68-.72-9-6.36-9-4.92,0-7.44,3.9-7.44,10.32V43.5h-6.24V24.84c0-4.68-.72-9-6.36-9-5,0-7.44,3.9-7.44,10.32V43.5Z"/><path d="M540.59,34c-1.5,5.34-6.3,10.26-14.52,10.26-10.44,0-16.08-7.62-16.08-17,0-10,6.72-16.68,15.9-16.68,10,0,15.78,8.16,15.12,18.66h-24.6c.6,5.94,4.38,9.66,9.42,9.66,4.5,0,7.14-1.86,8.46-4.92Zm-6.06-9.66c-.18-4.8-3.54-8.64-8.7-8.64-4.86,0-8.46,2.52-9.3,8.64Z"/><path d="M547.13,43.5V11.22h6.24V15.9a10.36,10.36,0,0,1,9.54-5.28c5,0,7.92,2.1,9.36,5.7A12.27,12.27,0,0,1,583,10.62c7.56,0,10.5,5,10.5,12.54V43.5h-6.24V24.84c0-4.68-.72-9-6.36-9-4.92,0-7.44,3.9-7.44,10.32V43.5h-6.24V24.84c0-4.68-.72-9-6.36-9-5,0-7.44,3.9-7.44,10.32V43.5Z"/><path d="M614.81,44.28c-7.62,0-15.66-5.16-15.66-16.8s8-16.86,15.66-16.86,15.72,5.16,15.72,16.86S622.49,44.28,614.81,44.28Zm9.12-16.8c0-8-4.38-11.58-9.12-11.58s-9.06,3.42-9.06,11.58c0,8,4.38,11.52,9.06,11.52S623.93,35.34,623.93,27.48Z"/><path d="M650.33,17.46c-4.8,0-7.32,2.34-7.32,9.12V43.5h-6.24V11.22h6.12v5.7a9.64,9.64,0,0,1,8.94-5.82,16.86,16.86,0,0,1,1.74.06v6.48A31,31,0,0,0,650.33,17.46Z"/><path d="M656.87,49h2.46c3.36,0,4.8-.24,6.36-4.86l.24-.72L654.29,11.22h6.9L669,35.28l7.62-24.06h6.48l-11.4,33c-2.64,7.62-4.56,9.78-11.82,9.78h-3Z"/><line class="cls-1" y1="92.44" x2="717.6" y2="92.44"/><polygon points="709.58 119.87 757.07 92.44 709.58 65.02 709.58 119.87"/></g></g></svg>