<svg xmlns="http://www.w3.org/2000/svg" viewBox="0 0 1920 1038.79"><defs><style>.cls-1{fill:#fff;}.cls-2,.cls-3{font-size:60px;font-family:SuisseIntl-Book, Suisse Intl;}.cls-3{letter-spacing:-0.03em;}.cls-4{letter-spacing:0em;}.cls-5{letter-spacing:0.02em;}.cls-6{fill:none;stroke:#000;stroke-width:11px;}</style></defs><g id="Layer_2" data-name="Layer 2"><g id="Layer_1-2" data-name="Layer 1"><rect class="cls-1" y="7.47" width="1920" height="1031.32"/><text class="cls-2" transform="translate(1164.33 260.28)">2</text><text class="cls-2" transform="translate(1272 338.33)">3</text><text class="cls-2" transform="translate(1229.29 467.13)">4</text><text class="cls-2" transform="translate(1095.05 467.13)">5</text><text class="cls-2" transform="translate(1366.03 836.61)">28</text><text class="cls-2" transform="translate(1205.92 679.52)">27</text><text class="cls-2" transform="translate(859.21 652.04)">25</text><text class="cls-3" transform="translate(692.01 496.87)">2<tspan class="cls-4" x="33.18" y="0">4</tspan></text><text class="cls-2" transform="translate(523.31 667.34)">23</text><text class="cls-2" transform="translate(355.39 837.81)">22</text><text class="cls-2" transform="translate(277.3 1007.37)">19</text><text class="cls-2" transform="translate(277.3 689.44)">20</text><text class="cls-2" transform="translate(277.3 370.59)">21</text><text class="cls-2" transform="translate(555.19 1007.37)">18</text><text class="cls-2" transform="translate(832.63 1007.37)">17</text><text class="cls-2" transform="translate(1110.98 1007.37)">16</text><text class="cls-2" transform="translate(1388.88 1007.37)">15</text><text class="cls-2" transform="translate(1589.41 689.44)">13</text><text class="cls-2" transform="translate(1587.73 1008.29)">14</text><text class="cls-2" transform="translate(1027.73 822.51)">26</text><text class="cls-2" transform="translate(1590.07 370.59)">12</text><text class="cls-2" transform="translate(1602.13 51.75)"><tspan class="cls-5">1</tspan><tspan x="22.92" y="0">1</tspan></text><text class="cls-2" transform="translate(1388.88 51.75)">10</text><text class="cls-2" transform="translate(1110.98 51.75)">9</text><text class="cls-2" transform="translate(833.09 51.75)">8</text><text class="cls-2" transform="translate(555.19 51.75)">7</text><text class="cls-2" transform="translate(277.3 51.75)">6</text><path d="M268.12,78.25H1655.77v945.58H268.12V78.25m-11-11v967.58H1666.77V67.25Z"/><path d="M1209.69,285.12a109.7,109.7,0,1,1-77.56,32.13,109,109,0,0,1,77.56-32.13m0-11a120.69,120.69,0,1,0,120.7,120.69,120.69,120.69,0,0,0-120.7-120.69Z"/><polyline class="cls-6" points="267.3 1028.79 772.5 517.37 1109.66 843.01 1281.26 698.14 1629.2 1028.79"/><circle cx="1656.77" cy="72.25" r="10"/><circle cx="1656.77" cy="391.1" r="10"/><circle cx="1656.77" cy="709.94" r="10"/><circle cx="1656.77" cy="1028.79" r="10"/><circle cx="1378.88" cy="1028.79" r="10"/><circle cx="1100.98" cy="1028.79" r="10"/><circle cx="823.09" cy="1028.79" r="10"/><circle cx="545.19" cy="1028.79" r="10"/><circle cx="267.3" cy="1028.79" r="10"/><circle cx="267.3" cy="709.94" r="10"/><circle cx="267.3" cy="391.1" r="10"/><circle cx="545.19" cy="72.25" r="10"/><circle cx="267.3" cy="72.25" r="10"/><circle cx="823.09" cy="72.25" r="10"/><circle cx="1100.98" cy="72.25" r="10"/><circle cx="1378.88" cy="72.25" r="10"/><circle cx="1448.81" cy="857.11" r="10"/><circle cx="1281.26" cy="700.02" r="10"/><circle cx="1109.67" cy="843.01" r="10"/><circle cx="941.09" cy="672.54" r="10"/><circle cx="772.51" cy="517.37" r="10"/><circle cx="603.93" cy="687.84" r="10"/><circle cx="435.35" cy="858.31" r="10"/><circle cx="266.76" cy="1028.79" r="10"/><circle cx="1209.31" cy="280.79" r="10"/><circle cx="1317.64" cy="359.07" r="10"/><circle cx="1276.61" cy="487.63" r="10"/><circle cx="1141.41" cy="487.63" r="10"/><circle cx="1100.98" cy="359.07" r="10"/><text class="cls-2" transform="translate(1069.26 338.31)">1</text></g></g></svg>