<svg xmlns="http://www.w3.org/2000/svg" viewBox="0 0 1920 192.16"><defs><style>.cls-1{fill:#fff;}</style></defs><g id="Layer_2" data-name="Layer 2"><g id="Layer_1-2" data-name="Layer 1"><rect class="cls-1" width="1920" height="192.16"/><path d="M696.19,96.34c-.66-3.66-4-6.18-8-6.18-4.5,0-8.64,3.54-8.64,11.4s4.2,11.58,8.64,11.58c4,0,7.43-2.34,8.27-6.18h6.3c-1.26,6.78-7.56,11.52-14.69,11.52-9.3,0-15.18-7.14-15.18-16.86s6.06-16.8,15.6-16.8a13.88,13.88,0,0,1,14,11.52Z"/><path d="M722.4,118.48c-7.62,0-15.65-5.16-15.65-16.8s8-16.86,15.65-16.86,15.72,5.16,15.72,16.86S730.08,118.48,722.4,118.48Zm9.12-16.8c0-8-4.38-11.58-9.12-11.58s-9.06,3.42-9.06,11.58c0,8,4.38,11.52,9.06,11.52S731.52,109.54,731.52,101.68Z"/><path d="M744.36,117.7V85.42h6.24V90.1a10.36,10.36,0,0,1,9.54-5.28c5,0,7.92,2.1,9.36,5.7a12.27,12.27,0,0,1,10.68-5.7c7.56,0,10.5,5,10.5,12.54V117.7h-6.24V99c0-4.68-.72-9-6.36-9-4.92,0-7.44,3.9-7.44,10.32V117.7H764.4V99c0-4.68-.72-9-6.36-9-5,0-7.44,3.9-7.44,10.32V117.7Z"/><path d="M804.78,90.16c2-3.3,5.34-5.34,10.08-5.34,7.5,0,13.92,6.3,13.92,16.8s-6.42,16.86-13.92,16.86c-4.74,0-8.1-2-10.08-5.34V128.2h-6.24V85.42h6.24Zm17.34,11.46c0-7.26-3.54-11.58-8.7-11.58-4.8,0-8.88,3.6-8.88,11.58s4.08,11.64,8.88,11.64C818.58,113.26,822.12,108.88,822.12,101.62Z"/><path d="M845,118.48c-7.62,0-10.56-4.74-10.56-12.54V85.42h6.24v18.84c0,4.68.78,8.94,6.42,8.94,5.22,0,7.8-3.9,7.8-10.26V85.42h6.24V117.7h-6.3v-4.56C853,116.38,849.9,118.48,845,118.48Z"/><path d="M877,77.14v8.28h6.36v4.74H877v18.42c0,3.3.54,4.14,3.66,4.14h2.64v5h-4.56c-6.54,0-8-1.62-8-8.28V90.16h-4.92V85.42h4.92V77.14Z"/><path d="M909.3,97.72v-.66c0-5.7-3-7.62-7-7.62-4.32,0-6.78,2.22-7,6.18H889c.54-6.84,6.18-11,13.56-11,8.34,0,13.14,4,13,13.68,0,.78-.12,6.36-.12,7.74a60.15,60.15,0,0,0,.9,11.64h-6a27.85,27.85,0,0,1-.54-4.26c-1.92,3.24-5.58,5-10.8,5-6.54,0-11.52-3.6-11.52-9.48C887.52,101.14,896.76,99,909.3,97.72Zm-15,11.16c0,2.94,2.34,4.8,6.12,4.8,5.16,0,9.18-2.58,9.18-9v-2.34C899.58,103.3,894.3,104.68,894.3,108.88Z"/><path d="M930.78,77.14v8.28h6.36v4.74h-6.36v18.42c0,3.3.54,4.14,3.66,4.14h2.64v5h-4.56c-6.54,0-8-1.62-8-8.28V90.16h-4.92V85.42h4.92V77.14Z"/><path d="M950,81.1H943.8V74.2H950Zm0,36.6H943.8V85.42H950Z"/><path d="M971.94,118.48c-7.62,0-15.66-5.16-15.66-16.8s8-16.86,15.66-16.86,15.72,5.16,15.72,16.86S979.62,118.48,971.94,118.48Zm9.12-16.8c0-8-4.38-11.58-9.12-11.58s-9.06,3.42-9.06,11.58c0,8,4.38,11.52,9.06,11.52S981.06,109.54,981.06,101.68Z"/><path d="M1010.28,84.82c7.8,0,10.8,5,10.8,12.54V117.7h-6.24V99c0-4.68-.78-9-6.66-9-5.4,0-8,3.9-8,10.32V117.7H993.9V85.42h6.24V90.1C1002,86.92,1005.24,84.82,1010.28,84.82Z"/><path d="M1048.74,97.72v-.66c0-5.7-3-7.62-7-7.62-4.32,0-6.78,2.22-7,6.18h-6.3c.54-6.84,6.18-11,13.56-11,8.34,0,13.14,4,13,13.68,0,.78-.12,6.36-.12,7.74a60.15,60.15,0,0,0,.9,11.64h-6a27.85,27.85,0,0,1-.54-4.26c-1.92,3.24-5.58,5-10.8,5-6.54,0-11.52-3.6-11.52-9.48C1027,101.14,1036.2,99,1048.74,97.72Zm-15,11.16c0,2.94,2.34,4.8,6.12,4.8,5.16,0,9.18-2.58,9.18-9v-2.34C1039,103.3,1033.74,104.68,1033.74,108.88Z"/><path d="M1062.72,117.7V74.2H1069v43.5Z"/><path d="M1097.64,90.16c2-3.3,5.34-5.34,10.08-5.34,7.5,0,13.92,6.3,13.92,16.8s-6.42,16.86-13.92,16.86c-4.74,0-8.1-2-10.08-5.34V128.2h-6.24V85.42h6.24ZM1115,101.62c0-7.26-3.54-11.58-8.7-11.58-4.8,0-8.88,3.6-8.88,11.58s4.08,11.64,8.88,11.64C1111.44,113.26,1115,108.88,1115,101.62Z"/><path d="M1144.2,84.82c7.8,0,10.8,5,10.8,12.54V117.7h-6.24V99c0-4.68-.78-9-6.66-9-5.4,0-8,3.9-8,10.32V117.7h-6.24V74.2h6.24V90.1C1135.92,86.92,1139.16,84.82,1144.2,84.82Z"/><path d="M1176.3,118.48c-7.62,0-15.66-5.16-15.66-16.8s8-16.86,15.66-16.86S1192,90,1192,101.68,1184,118.48,1176.3,118.48Zm9.12-16.8c0-8-4.38-11.58-9.12-11.58s-9.06,3.42-9.06,11.58c0,8,4.38,11.52,9.06,11.52S1185.42,109.54,1185.42,101.68Z"/><path d="M1205.76,77.14v8.28h6.36v4.74h-6.36v18.42c0,3.3.54,4.14,3.66,4.14h2.64v5h-4.56c-6.54,0-8-1.62-8-8.28V90.16h-4.92V85.42h4.92V77.14Z"/><path d="M1231.37,118.48c-7.62,0-15.65-5.16-15.65-16.8s8-16.86,15.65-16.86,15.72,5.16,15.72,16.86S1239.05,118.48,1231.37,118.48Zm9.13-16.8c0-8-4.38-11.58-9.13-11.58s-9,3.42-9,11.58c0,8,4.38,11.52,9,11.52S1240.5,109.54,1240.5,101.68Z"/></g></g></svg>