<svg xmlns="http://www.w3.org/2000/svg" viewBox="0 0 1410.01 1031.32"><g id="Layer_2" data-name="Layer 2"><g id="Layer_1-2" data-name="Layer 1"><path d="M917.29,247.17h23.39v5.64H909.19v-5.4C924.13,236.07,933,228.15,933,220.65c0-4.38-2.94-7.14-7.61-7.14-4.44,0-8.7,2.52-8.76,9.54h-6.36c-.12-8.7,5.94-14.52,15.3-14.52,8,0,14,4.08,14,11.46C939.54,229.53,930,238.23,917.29,247.17Z"/><path d="M1030.05,310.76h-1.5V305.3h1.26c7.2,0,10.86-2.16,10.86-7,0-4.56-3.66-6.78-8-6.78-5.52,0-8.58,3.36-9.18,8.4h-6.24c.66-8,6.3-13.38,15.72-13.38,7.38,0,14.28,3.12,14.28,11.22a10.72,10.72,0,0,1-6.78,10c5.88,2,7.92,6.3,7.92,10.8,0,8.82-7.5,13.07-16,13.07-10.14,0-15.18-6.47-15.72-13.92h6.24c.66,5.05,3.66,8.89,9.6,8.89,5.4,0,9.36-2.89,9.36-7.92C1041.81,312.74,1036.77,310.76,1030.05,310.76Z"/><path d="M1001.14,449.16v10.5h-6.3v-10.5H973.31v-5.52l21.53-27.48h6.3v27.36h7.8v5.64Zm-6.3-5.64v-19l-14.63,19Z"/><path d="M856.16,435.6c-4.26,0-7.2,2.34-8.16,4.68l-6.06-.36,2.88-23.76h25.44v5.7H849.92l-1.44,11.64a13.63,13.63,0,0,1,9.18-3c7.56,0,14.34,5.22,14.34,14.94s-7.44,15-15.78,15c-10.08,0-14.94-6.48-15.66-13.74h6.24c.72,5.28,3.6,8.7,9.48,8.7,5,0,9.18-3.6,9.18-9.9C865.46,438.66,860.72,435.6,856.16,435.6Z"/><path d="M1119,823.5h23.4v5.64h-31.5v-5.4c14.94-11.34,23.82-19.26,23.82-26.76,0-4.38-2.94-7.14-7.62-7.14-4.44,0-8.7,2.52-8.76,9.54H1112c-.12-8.7,5.94-14.52,15.3-14.52,8,0,14,4.08,14,11.46C1141.24,805.86,1131.64,814.56,1119,823.5Z"/><path d="M1172,806a11.3,11.3,0,0,1,7.08,10.86c0,8.4-7,13.08-16,13.08s-16-4.68-16-13.08A11.36,11.36,0,0,1,1154.2,806a11.3,11.3,0,0,1-5.76-10c0-6.42,5.64-11.1,14.64-11.1s14.7,4.68,14.7,11.1A11.25,11.25,0,0,1,1172,806Zm-8.94,18.9c5.76,0,9.48-3.12,9.48-8.16s-3.72-8.28-9.48-8.28-9.42,3.3-9.42,8.28S1157.32,824.88,1163.08,824.88Zm-8.46-28.14c0,4.26,3.42,7.32,8.46,7.32s8.46-3.06,8.46-7.32-3.36-6.9-8.46-6.9S1154.62,792.54,1154.62,796.74Z"/><path d="M958.87,666.41h23.4v5.64h-31.5v-5.4c14.94-11.34,23.82-19.26,23.82-26.76,0-4.38-2.94-7.14-7.62-7.14-4.44,0-8.7,2.52-8.76,9.54h-6.36c-.12-8.7,5.94-14.52,15.3-14.52,8,0,14,4.08,14,11.46C981.13,648.77,971.53,657.47,958.87,666.41Z"/><path d="M1015,628.55v5.7c-10.86,9.54-17.22,21.66-18.18,37.8h-7.32a54,54,0,0,1,18.6-37.8H984.37v-5.7Z"/><path d="M612.16,638.93h23.4v5.64h-31.5v-5.4c14.94-11.34,23.82-19.26,23.82-26.76,0-4.38-2.94-7.14-7.62-7.14-4.44,0-8.7,2.52-8.76,9.54h-6.36c-.12-8.7,5.94-14.52,15.3-14.52,8,0,14,4.08,14,11.46C634.42,621.29,624.82,630,612.16,638.93Z"/><path d="M655.3,620.51c-4.26,0-7.2,2.34-8.16,4.68l-6.06-.36L644,601.07H669.4v5.7H649.06l-1.44,11.64a13.63,13.63,0,0,1,9.18-3c7.56,0,14.34,5.22,14.34,14.94s-7.44,15-15.78,15c-10.08,0-14.94-6.48-15.66-13.74h6.24c.72,5.28,3.6,8.7,9.48,8.7,5,0,9.18-3.6,9.18-9.9C664.6,623.57,659.86,620.51,655.3,620.51Z"/><path d="M445,483.76h23.4v5.64h-31.5V484c14.94-11.34,23.82-19.26,23.82-26.76,0-4.38-2.94-7.14-7.62-7.14-4.44,0-8.7,2.52-8.76,9.54h-6.36c-.12-8.7,5.94-14.52,15.3-14.52,8,0,14,4.08,14,11.46C467.22,466.12,457.62,474.82,445,483.76Z"/><path d="M497,478.9v10.5h-6.3V478.9H469.2v-5.52l21.54-27.48H497v27.36h7.8v5.64Zm-6.3-5.64v-19l-14.64,19Z"/><path d="M276.26,654.23h23.4v5.64h-31.5v-5.4C283.1,643.13,292,635.21,292,627.71c0-4.38-2.94-7.14-7.62-7.14-4.44,0-8.7,2.52-8.76,9.54h-6.36c-.12-8.7,5.94-14.52,15.3-14.52,8,0,14,4.08,14,11.46C298.52,636.59,288.92,645.29,276.26,654.23Z"/><path d="M316.34,639.77h-1.5v-5.46h1.26c7.2,0,10.86-2.16,10.86-7,0-4.56-3.66-6.78-8-6.78-5.52,0-8.58,3.36-9.18,8.4H303.5c.66-8,6.3-13.38,15.72-13.38,7.38,0,14.28,3.12,14.28,11.22a10.72,10.72,0,0,1-6.78,10c5.88,2,7.92,6.3,7.92,10.8,0,8.82-7.5,13.08-16,13.08-10.14,0-15.18-6.48-15.72-13.92h6.24c.66,5,3.66,8.88,9.6,8.88,5.4,0,9.36-2.88,9.36-7.92C328.1,641.75,323.06,639.77,316.34,639.77Z"/><path d="M108.34,824.7h23.4v5.64h-31.5v-5.4c14.94-11.34,23.82-19.26,23.82-26.76,0-4.38-2.94-7.14-7.62-7.14-4.44,0-8.7,2.52-8.76,9.54h-6.36c-.12-8.7,5.94-14.52,15.3-14.52,8,0,14,4.08,14,11.46C130.6,807.06,121,815.76,108.34,824.7Z"/><path d="M143.32,824.7h23.4v5.64h-31.5v-5.4C150.16,813.6,159,805.68,159,798.18c0-4.38-2.94-7.14-7.62-7.14-4.44,0-8.7,2.52-8.76,9.54H136.3c-.12-8.7,5.94-14.52,15.3-14.52,8,0,14,4.08,14,11.46C165.58,807.06,156,815.76,143.32,824.7Z"/><path d="M30.79,966.3h-9.9V962c6.3-.24,9.42-.9,11.7-5.64h4.5v43.5h-6.3Z"/><path d="M58.75,985.38c-8,0-14.22-5.94-14.22-14.88,0-8.34,6.24-14.88,15.54-14.88,11,0,16.08,8,16.08,21.12,0,12.42-4.56,23.94-17.16,23.94-8.76,0-13-5.58-13.68-11.28h6.54c.6,4.08,3.54,6.24,7.74,6.24,6.3,0,9.9-6.3,10.14-15.84C67.75,982.92,64.09,985.38,58.75,985.38Zm-7.68-15.06c0,5.88,3.72,9.84,9,9.84s9-4,9-9.84-3.6-9.72-8.94-9.72S51.07,964.44,51.07,970.32Z"/><path d="M30.25,676.33h23.4V682H22.15v-5.4C37.09,665.23,46,657.31,46,649.81c0-4.38-2.94-7.14-7.62-7.14-4.44,0-8.7,2.52-8.76,9.54H23.23c-.12-8.7,5.94-14.52,15.3-14.52,8,0,14,4.08,14,11.46C52.51,658.69,42.91,667.39,30.25,676.33Z"/><path d="M75.25,637.69c11.64,0,17.1,8.94,17.1,22.5s-5.46,22.56-17.1,22.56-17.1-8.94-17.1-22.56S63.67,637.69,75.25,637.69Zm0,5c-6.54,0-10.5,6-10.5,17.52s4,17.52,10.5,17.52,10.5-5.94,10.5-17.52S81.85,642.67,75.25,642.67Z"/><path d="M30.25,357.48h23.4v5.64H22.15v-5.4C37.09,346.38,46,338.46,46,331c0-4.38-2.94-7.13-7.62-7.13-4.44,0-8.7,2.52-8.76,9.54H23.23c-.12-8.7,5.94-14.52,15.3-14.52,8,0,14,4.08,14,11.45C52.51,339.84,42.91,348.54,30.25,357.48Z"/><path d="M65.77,329.53h-9.9v-4.26c6.3-.24,9.42-.9,11.7-5.64h4.5v43.49h-6.3Z"/><path d="M308.69,966.3h-9.9V962c6.3-.24,9.42-.9,11.7-5.64H315v43.5h-6.3Z"/><path d="M347.93,976.74A11.3,11.3,0,0,1,355,987.6c0,8.4-7,13.08-16,13.08S323,996,323,987.6a11.36,11.36,0,0,1,7.14-10.86,11.3,11.3,0,0,1-5.76-10c0-6.42,5.64-11.1,14.64-11.1s14.7,4.68,14.7,11.1A11.25,11.25,0,0,1,347.93,976.74ZM339,995.64c5.76,0,9.48-3.12,9.48-8.16s-3.72-8.28-9.48-8.28-9.42,3.3-9.42,8.28S333.23,995.64,339,995.64Zm-8.46-28.14c0,4.26,3.42,7.32,8.46,7.32s8.46-3.06,8.46-7.32-3.36-6.9-8.46-6.9S330.53,963.3,330.53,967.5Z"/><path d="M586.12,966.3h-9.9V962c6.3-.24,9.42-.9,11.7-5.64h4.5v43.5h-6.3Z"/><path d="M628.48,956.4v5.7c-10.86,9.54-17.22,21.66-18.18,37.8H603a54,54,0,0,1,18.6-37.8H597.82v-5.7Z"/><path d="M864.48,966.3h-9.9V962c6.3-.24,9.42-.9,11.7-5.64h4.5v43.5h-6.3Z"/><path d="M896,970.92c8,0,14.22,5.94,14.22,14.82,0,8.4-6.24,14.94-15.54,14.94-11,0-16.08-8-16.08-21.12,0-12.42,4.5-23.94,17.16-23.94,8.76,0,13,5.58,13.68,11.28h-6.54c-.6-4.08-3.6-6.3-7.74-6.3-6.36,0-9.9,6.36-10.14,15.9C887,973.38,890.58,970.92,896,970.92ZM903.66,986c0-5.88-3.72-9.84-9-9.84s-9.06,4-9.06,9.84,3.66,9.66,9,9.66S903.66,991.8,903.66,986Z"/><path d="M1142.37,966.3h-9.9V962c6.3-.24,9.42-.9,11.7-5.64h4.5v43.5h-6.3Z"/><path d="M1171.71,975.84c-4.26,0-7.2,2.34-8.16,4.68l-6.06-.36,2.88-23.76h25.44v5.7h-20.34L1164,973.74a13.63,13.63,0,0,1,9.18-3c7.56,0,14.34,5.22,14.34,14.94s-7.44,15-15.78,15c-10.08,0-14.94-6.48-15.66-13.74h6.24c.72,5.28,3.6,8.7,9.48,8.7,5,0,9.18-3.6,9.18-9.9C1181,978.9,1176.27,975.84,1171.71,975.84Z"/><path d="M1342.91,648.37H1333v-4.26c6.3-.24,9.42-.9,11.69-5.64h4.5V682h-6.29Z"/><path d="M1369.18,661.87h-1.5v-5.46h1.26c7.2,0,10.86-2.16,10.86-7,0-4.56-3.66-6.78-8-6.78-5.52,0-8.57,3.36-9.18,8.4h-6.23c.66-8,6.3-13.38,15.71-13.38,7.38,0,14.28,3.12,14.28,11.22a10.72,10.72,0,0,1-6.78,10c5.88,2,7.92,6.3,7.92,10.8,0,8.82-7.5,13.08-16,13.08-10.13,0-15.17-6.48-15.71-13.92H1362c.66,5,3.66,8.88,9.59,8.88,5.4,0,9.36-2.88,9.36-7.92C1380.94,663.85,1375.9,661.87,1369.18,661.87Z"/><path d="M1341.22,967.21h-9.89V963c6.29-.25,9.41-.9,11.69-5.64h4.5v43.49h-6.3Z"/><path d="M1381.3,990.31v10.5H1375v-10.5h-21.53v-5.52L1375,957.32h6.3v27.35h7.8v5.64Zm-6.3-5.64v-19l-14.64,19Z"/><path d="M780.68,809.4h23.4V815h-31.5v-5.4c14.94-11.34,23.82-19.26,23.82-26.76,0-4.38-2.94-7.14-7.62-7.14-4.44,0-8.7,2.52-8.76,9.54h-6.36c-.12-8.7,5.94-14.52,15.3-14.52,8,0,14,4.08,14,11.46C802.94,791.76,793.34,800.46,780.68,809.4Z"/><path d="M826,786.06c8,0,14.22,5.94,14.22,14.82,0,8.4-6.24,14.94-15.54,14.94-11,0-16.08-8-16.08-21.12,0-12.42,4.5-23.94,17.16-23.94,8.76,0,13,5.58,13.68,11.28h-6.54c-.6-4.08-3.6-6.3-7.74-6.3-6.36,0-9.9,6.36-10.14,15.9C817,788.52,820.58,786.06,826,786.06Zm7.68,15.06c0-5.88-3.72-9.84-9-9.84s-9.06,4-9.06,9.84,3.66,9.66,9,9.66S833.66,806.94,833.66,801.12Z"/><path d="M1343.56,329.53h-9.89v-4.26c6.3-.24,9.41-.9,11.69-5.64h4.5v43.49h-6.3Z"/><path d="M1364.75,357.48h23.39v5.64h-31.49v-5.4c14.93-11.34,23.81-19.26,23.81-26.76,0-4.38-2.94-7.13-7.62-7.13-4.44,0-8.69,2.52-8.76,9.54h-6.35c-.12-8.7,5.94-14.52,15.29-14.52,8,0,14,4.08,14,11.45C1387,339.84,1377.4,348.54,1364.75,357.48Z"/><path d="M1355.63,10.68h-9.9V6.42c6.3-.24,9.42-.9,11.7-5.64h4.5v43.5h-6.3Z"/><path d="M1378.54,10.68h-9.89V6.42c6.29-.24,9.41-.9,11.69-5.64h4.5v43.5h-6.3Z"/><path d="M1142.37,10.68h-9.9V6.42c6.3-.24,9.42-.9,11.7-5.64h4.5v43.5h-6.3Z"/><path d="M1173.57,0c11.64,0,17.1,8.94,17.1,22.5s-5.46,22.56-17.1,22.56-17.1-8.94-17.1-22.56S1162,0,1173.57,0Zm0,5c-6.54,0-10.5,6-10.5,17.52S1167,40,1173.57,40s10.5-5.94,10.5-17.52S1180.17,5,1173.57,5Z"/><path d="M870.72,29.76c-8,0-14.22-5.94-14.22-14.88C856.5,6.54,862.74,0,872,0c11,0,16.08,8,16.08,21.12,0,12.42-4.56,23.94-17.16,23.94-8.76,0-13-5.58-13.68-11.28h6.54c.6,4.08,3.54,6.24,7.74,6.24,6.3,0,9.9-6.3,10.14-15.84C879.72,27.3,876.06,29.76,870.72,29.76ZM863,14.7c0,5.88,3.72,9.84,9,9.84s9-4,9-9.84S877.44,5,872.1,5,863,8.82,863,14.7Z"/><path d="M604.1,21.12A11.3,11.3,0,0,1,611.18,32c0,8.4-7,13.08-16,13.08s-16-4.68-16-13.08a11.36,11.36,0,0,1,7.14-10.86,11.3,11.3,0,0,1-5.76-10c0-6.42,5.64-11.1,14.64-11.1s14.7,4.68,14.7,11.1A11.25,11.25,0,0,1,604.1,21.12ZM595.16,40c5.76,0,9.48-3.12,9.48-8.16s-3.72-8.28-9.48-8.28-9.42,3.3-9.42,8.28S589.4,40,595.16,40ZM586.7,11.88c0,4.26,3.42,7.32,8.46,7.32s8.46-3.06,8.46-7.32S600.26,5,595.16,5,586.7,7.68,586.7,11.88Z"/><path d="M329.33.78v5.7c-10.86,9.54-17.22,21.66-18.18,37.8h-7.32a54,54,0,0,1,18.6-37.8H298.67V.78Z"/><path d="M40.57,15.3c8,0,14.22,5.94,14.22,14.82,0,8.4-6.24,14.94-15.54,14.94-11,0-16.08-8-16.08-21.12C23.17,11.52,27.67,0,40.33,0c8.76,0,13,5.58,13.68,11.28H47.47C46.87,7.2,43.87,5,39.73,5c-6.36,0-9.9,6.36-10.14,15.9C31.57,17.76,35.17,15.3,40.57,15.3Zm7.68,15.06c0-5.88-3.72-9.84-9-9.84s-9.06,4-9.06,9.84,3.66,9.66,9,9.66S48.25,36.18,48.25,30.36Z"/><circle cx="1400.01" cy="64.78" r="10"/><circle cx="1400.01" cy="383.63" r="10"/><circle cx="1400.01" cy="702.47" r="10"/><circle cx="1400.01" cy="1021.32" r="10"/><circle cx="1122.11" cy="1021.32" r="10"/><circle cx="844.22" cy="1021.32" r="10"/><circle cx="566.32" cy="1021.32" r="10"/><circle cx="288.43" cy="1021.32" r="10"/><circle cx="10.54" cy="1021.32" r="10"/><circle cx="10.54" cy="702.47" r="10"/><circle cx="10.54" cy="383.63" r="10"/><circle cx="288.43" cy="64.78" r="10"/><circle cx="10.54" cy="64.78" r="10"/><circle cx="566.32" cy="64.78" r="10"/><circle cx="844.22" cy="64.78" r="10"/><circle cx="1122.11" cy="64.78" r="10"/><circle cx="1192.04" cy="849.64" r="10"/><circle cx="1024.49" cy="692.55" r="10"/><circle cx="852.9" cy="835.54" r="10"/><circle cx="684.32" cy="665.07" r="10"/><circle cx="515.74" cy="509.9" r="10"/><circle cx="347.16" cy="680.37" r="10"/><circle cx="178.58" cy="850.84" r="10"/><circle cx="10" cy="1021.32" r="10"/><circle cx="952.55" cy="273.31" r="10"/><circle cx="1060.87" cy="351.6" r="10"/><circle cx="1019.85" cy="480.16" r="10"/><circle cx="884.64" cy="480.16" r="10"/><circle cx="844.22" cy="351.6" r="10"/><path d="M822.76,297.24h-9.9V293c6.3-.24,9.42-.9,11.7-5.64h4.5v43.49h-6.3Z"/></g></g></svg>