<svg xmlns="http://www.w3.org/2000/svg" viewBox="0 0 784.28 539.91"><defs><style>.cls-1{fill:#fff;}</style></defs><g id="Layer_2" data-name="Layer 2"><g id="Layer_1-2" data-name="Layer 1"><path d="M11,11H773.28V528.91H11V11M0,0V539.91H784.28V0Z"/><path class="cls-1" d="M531.54,241.43a59.11,59.11,0,1,1,59.11-59.11A59.18,59.18,0,0,1,531.54,241.43Z"/><path d="M531.54,128.71a53.61,53.61,0,1,1-53.61,53.61,53.67,53.67,0,0,1,53.61-53.61m0-11a64.61,64.61,0,1,0,64.61,64.61,64.61,64.61,0,0,0-64.61-64.61Z"/><polygon class="cls-1" points="13.16 534.41 286.54 257.42 477.17 444.77 570.17 353.73 740.38 534.41 13.16 534.41"/><path d="M286.6,265.19,469.47,444.91l7.69,7.56,7.71-7.54L570,361.58,727.64,528.91H26.31L286.6,265.19m-.12-15.54L0,539.91H753.12l-182.79-194-93.15,91.2L286.48,249.65Z"/></g></g></svg>