<svg xmlns="http://www.w3.org/2000/svg" viewBox="0 0 1920 255.69"><defs><style>.cls-1{fill:#fff;}.cls-2{fill:none;stroke:#000;stroke-miterlimit:10;stroke-width:11px;}</style></defs><g id="Layer_2" data-name="Layer 2"><g id="Layer_1-2" data-name="Layer 1"><rect class="cls-1" width="1920" height="255.69"/><line class="cls-2" x1="655.47" y1="220.49" x2="1225.06" y2="220.49"/><polygon points="1217.03 247.91 1264.53 220.49 1217.03 193.06 1217.03 247.91"/><path d="M819.9,119.58c-7.62,0-15.66-5.16-15.66-16.8s8-16.86,15.66-16.86,15.72,5.16,15.72,16.86S827.58,119.58,819.9,119.58Zm9.12-16.8c0-8-4.38-11.58-9.12-11.58s-9.06,3.42-9.06,11.58c0,8,4.38,11.51,9.06,11.51S829,110.64,829,102.78Z"/><path d="M848.1,91.26c2-3.3,5.34-5.34,10.08-5.34,7.5,0,13.92,6.3,13.92,16.8s-6.42,16.86-13.92,16.86c-4.74,0-8.1-2-10.08-5.34v15h-6.24V86.52h6.24Zm17.34,11.46c0-7.26-3.54-11.58-8.7-11.58-4.8,0-8.88,3.6-8.88,11.58s4.08,11.63,8.88,11.63C861.9,114.35,865.44,110,865.44,102.72Z"/><path d="M885.78,78.24v8.28h6.36v4.74h-6.36v18.41c0,3.31.54,4.15,3.66,4.15h2.64v5h-4.56c-6.54,0-8-1.62-8-8.28V91.26h-4.92V86.52h4.92V78.24Z"/><path d="M905,82.2H898.8V75.3H905Zm0,36.59H898.8V86.52H905Z"/><path d="M934.56,97.44c-.66-3.66-4-6.18-8-6.18-4.5,0-8.64,3.54-8.64,11.4s4.2,11.58,8.64,11.58c4,0,7.44-2.34,8.28-6.18h6.3c-1.26,6.78-7.56,11.52-14.7,11.52-9.3,0-15.18-7.15-15.18-16.86s6.06-16.8,15.6-16.8a13.89,13.89,0,0,1,14,11.52Z"/><path d="M966.84,98.82v-.66c0-5.7-3-7.62-7-7.62-4.32,0-6.78,2.22-7,6.18h-6.3c.54-6.84,6.18-11,13.56-11,8.34,0,13.14,4,13,13.68,0,.78-.12,6.36-.12,7.74a60,60,0,0,0,.9,11.63h-6a27.52,27.52,0,0,1-.54-4.25c-1.92,3.23-5.58,5-10.8,5-6.54,0-11.52-3.6-11.52-9.49C945.06,102.24,954.3,100.14,966.84,98.82Zm-15,11.16c0,2.94,2.34,4.8,6.12,4.8,5.16,0,9.18-2.58,9.18-9v-2.34C957.12,104.4,951.84,105.78,951.84,110Z"/><path d="M980.82,118.79V75.3h6.24v43.49Z"/><path d="M1020.3,75.3h2.82v5h-2.4c-3.18,0-3.84.66-3.84,4v2.22h6.24v4.74h-6.24v27.53h-6.24V91.26h-4.5V86.52h4.5V84.36C1010.64,77.22,1012.74,75.3,1020.3,75.3Z"/><path d="M1028.58,118.79V75.3h6.24v43.49Z"/><path d="M1056.72,119.58c-7.62,0-15.66-5.16-15.66-16.8s8-16.86,15.66-16.86,15.72,5.16,15.72,16.86S1064.4,119.58,1056.72,119.58Zm9.12-16.8c0-8-4.38-11.58-9.12-11.58s-9.06,3.42-9.06,11.58c0,8,4.38,11.51,9.06,11.51S1065.84,110.64,1065.84,102.78Z"/><path d="M1099.2,86.52l6,23.4,5.52-23.4h6.78l-9,32.27h-5.82l-6.78-25-6.6,25h-5.88l-8.94-32.27h6.78l5.46,23.4,6-23.4Z"/></g></g></svg>