<svg xmlns="http://www.w3.org/2000/svg" viewBox="0 0 1920 1223.48"><defs><style>.cls-1{fill:#fff;}.cls-2,.cls-3{font-size:60px;font-family:SuisseIntl-Book, Suisse Intl;}.cls-3{letter-spacing:-0.03em;}.cls-4{letter-spacing:0em;}.cls-5{letter-spacing:0.02em;}.cls-6{letter-spacing:0em;}.cls-7{letter-spacing:0.01em;}.cls-8{letter-spacing:0em;}.cls-9{fill:none;}</style></defs><g id="Layer_2" data-name="Layer 2"><g id="Layer_1-2" data-name="Layer 1"><rect class="cls-1" y="192.16" width="1920" height="1031.32"/><text class="cls-2" transform="translate(1164.33 444.97)">2</text><text class="cls-2" transform="translate(1272 523.02)">3</text><text class="cls-2" transform="translate(1229.29 651.82)">4</text><text class="cls-2" transform="translate(1095.05 651.82)">5</text><text class="cls-2" transform="translate(1366.03 1021.3)">28</text><text class="cls-2" transform="translate(1205.92 864.21)">27</text><text class="cls-2" transform="translate(859.21 836.73)">25</text><text class="cls-3" transform="translate(692.01 681.56)">2<tspan class="cls-4" x="33.18" y="0">4</tspan></text><text class="cls-2" transform="translate(523.31 852.03)">23</text><text class="cls-2" transform="translate(355.39 1022.5)">22</text><text class="cls-2" transform="translate(277.3 1192.06)">19</text><text class="cls-2" transform="translate(277.3 874.13)">20</text><text class="cls-2" transform="translate(277.3 555.29)">21</text><text class="cls-2" transform="translate(555.19 1192.06)">18</text><text class="cls-2" transform="translate(832.63 1192.06)">17</text><text class="cls-2" transform="translate(1110.98 1192.06)">16</text><text class="cls-2" transform="translate(1388.88 1192.06)">15</text><text class="cls-2" transform="translate(1589.41 874.13)">13</text><text class="cls-2" transform="translate(1587.73 1192.98)">14</text><text class="cls-2" transform="translate(1027.73 1007.2)">26</text><text class="cls-2" transform="translate(1590.07 555.29)">12</text><text class="cls-2" transform="translate(1602.13 236.44)"><tspan class="cls-5">1</tspan><tspan x="22.92" y="0">1</tspan></text><text class="cls-2" transform="translate(1388.88 236.44)">10</text><text class="cls-2" transform="translate(1110.98 236.44)">9</text><text class="cls-2" transform="translate(833.09 236.44)">8</text><text class="cls-2" transform="translate(555.19 236.44)">7</text><text class="cls-2" transform="translate(277.3 236.44)">6</text><circle cx="1656.77" cy="256.94" r="10"/><circle cx="1656.77" cy="575.79" r="10"/><circle cx="1656.77" cy="894.63" r="10"/><circle cx="1656.77" cy="1213.48" r="10"/><circle cx="1378.88" cy="1213.48" r="10"/><circle cx="1100.98" cy="1213.48" r="10"/><circle cx="823.09" cy="1213.48" r="10"/><circle cx="545.19" cy="1213.48" r="10"/><circle cx="267.3" cy="1213.48" r="10"/><circle cx="267.3" cy="894.63" r="10"/><circle cx="267.3" cy="575.79" r="10"/><circle cx="545.19" cy="256.94" r="10"/><circle cx="267.3" cy="256.94" r="10"/><circle cx="823.09" cy="256.94" r="10"/><circle cx="1100.98" cy="256.94" r="10"/><circle cx="1378.88" cy="256.94" r="10"/><circle cx="1448.81" cy="1041.8" r="10"/><circle cx="1281.26" cy="884.71" r="10"/><circle cx="1109.67" cy="1027.7" r="10"/><circle cx="941.09" cy="857.23" r="10"/><circle cx="772.51" cy="702.06" r="10"/><circle cx="603.93" cy="872.53" r="10"/><circle cx="435.35" cy="1043.01" r="10"/><circle cx="266.76" cy="1213.48" r="10"/><circle cx="1209.31" cy="465.48" r="10"/><circle cx="1317.64" cy="543.76" r="10"/><circle cx="1276.61" cy="672.32" r="10"/><circle cx="1141.41" cy="672.32" r="10"/><circle cx="1100.98" cy="543.76" r="10"/><text class="cls-2" transform="translate(1069.26 523)">1</text><text class="cls-2" transform="translate(674.12 117.7) scale(0.99 1)"><tspan class="cls-6">c</tspan><tspan x="33.84" y="0">omputa</tspan><tspan class="cls-7" x="248.22" y="0">t</tspan><tspan x="268.73" y="0">ional pho</tspan><tspan class="cls-8" x="523.19" y="0">t</tspan><tspan x="542.81" y="0">o</tspan></text><rect class="cls-9" width="1920" height="192.16"/></g></g></svg>