<svg xmlns="http://www.w3.org/2000/svg" viewBox="0 0 1920 824.72"><defs><style>.cls-1{fill:#fff;}.cls-2{fill:none;stroke:#000;stroke-miterlimit:10;stroke-width:11px;}</style></defs><g id="Layer_2" data-name="Layer 2"><g id="Layer_1-2" data-name="Layer 1"><rect class="cls-1" width="1920" height="824.72"/><polyline class="cls-2" points="1670 573.09 1670 540 254.01 540 254.01 573.09"/><line class="cls-2" x1="1670" y1="506.9" x2="1670" y2="540"/><line class="cls-2" x1="254.01" y1="506.9" x2="254.01" y2="540"/><path d="M613.14,346.35v57c0,11.87-2.51,18.23-6.95,22.67-4.92,5.16-12.72,7.8-22.56,7.8-14.4,0-25-6.24-27-19.8h12.84c1.32,5.88,5,9.36,14.4,9.36,6.12,0,10.32-1.68,13-4.68,2.52-2.76,3.84-6.12,3.84-12.72v-6.83c-4,6.59-10.44,10.67-19.92,10.67-15,0-27.48-11.88-27.48-32.39s12.48-32.28,27.48-32.28c9.48,0,16,4.08,19.92,10.68v-9.48Zm-46.55,31.08c0,14,6.72,22.19,17,22.19,9.6,0,17.52-6.72,17.52-22.19s-7.92-22-17.52-22C573.31,355.47,566.59,363.63,566.59,377.43Z"/><path d="M656.83,412.46c-15.24,0-31.32-10.32-31.32-33.59s16.08-33.72,31.32-33.72,31.43,10.32,31.43,33.72S672.19,412.46,656.83,412.46Zm18.24-33.59c0-16.08-8.76-23.16-18.24-23.16s-18.12,6.84-18.12,23.16c0,15.95,8.76,23,18.12,23S675.07,394.59,675.07,378.87Z"/><path d="M743.82,329.79v16.56h12.72v9.48H743.82v36.84c0,6.6,1.08,8.27,7.32,8.27h5.28v10H747.3c-13.08,0-16-3.24-16-16.55V355.83h-9.83v-9.48h9.83V329.79Z"/><path d="M795.06,412.46c-15.24,0-31.31-10.32-31.31-33.59s16.07-33.72,31.31-33.72,31.44,10.32,31.44,33.72S810.42,412.46,795.06,412.46Zm18.24-33.59c0-16.08-8.76-23.16-18.24-23.16s-18.12,6.84-18.12,23.16c0,15.95,8.76,23,18.12,23S813.3,394.59,813.3,378.87Z"/><path d="M882.06,329.79v16.56h12.72v9.48H882.06v36.84c0,6.6,1.08,8.27,7.32,8.27h5.28v10h-9.12c-13.08,0-16-3.24-16-16.55V355.83h-9.84v-9.48h9.84V329.79Z"/><path d="M940.86,345.15c15.6,0,21.6,10.08,21.6,25.08V410.9H950V373.59c0-9.36-1.56-18-13.32-18-10.8,0-16.08,7.8-16.08,20.64V410.9H908.1v-87h12.48v31.8C924.3,349.35,930.78,345.15,940.86,345.15Z"/><path d="M1034.82,391.94c-3,10.68-12.6,20.52-29,20.52-20.88,0-32.16-15.23-32.16-33.95,0-20,13.44-33.36,31.8-33.36,19.92,0,31.56,16.32,30.24,37.32h-49.2c1.2,11.88,8.76,19.31,18.84,19.31,9,0,14.28-3.71,16.92-9.84Zm-12.12-19.31c-.36-9.6-7.08-17.28-17.4-17.28-9.72,0-16.92,5-18.6,17.28Z"/><path d="M1117.61,346.35l12,46.8,11-46.8h13.56l-18,64.55h-11.64L1111,361l-13.2,49.91h-11.75l-17.88-64.55h13.56l10.92,46.8,12-46.8Z"/><path d="M1189.62,412.46c-15.24,0-31.32-10.32-31.32-33.59s16.08-33.72,31.32-33.72,31.43,10.32,31.43,33.72S1205,412.46,1189.62,412.46Zm18.23-33.59c0-16.08-8.76-23.16-18.23-23.16s-18.12,6.84-18.12,23.16c0,15.95,8.76,23,18.12,23S1207.85,394.59,1207.85,378.87Z"/><path d="M1260.65,358.83c-9.6,0-14.64,4.68-14.64,18.24V410.9h-12.48V346.35h12.24v11.4a19.28,19.28,0,0,1,17.88-11.64,33.72,33.72,0,0,1,3.48.12v13A62,62,0,0,0,1260.65,358.83Z"/><path d="M1277,410.9v-87h12.48v87Z"/><path d="M1362.29,323.91v87h-12.48v-9.12c-4,6.6-10.68,10.68-20.16,10.68-15,0-27.84-12.6-27.84-33.71s12.84-33.6,27.84-33.6c9.48,0,16.2,4.08,20.16,10.68V323.91Zm-47.16,54.84c0,14.52,7.08,23.27,17.4,23.27,9.6,0,17.76-7.32,17.76-23.27s-8.16-23.16-17.76-23.16C1322.21,355.59,1315.13,364.23,1315.13,378.75Z"/><path d="M727.77,675.1c-4.8,0-7.32,2.34-7.32,9.12v16.92h-6.23V668.86h6.11v5.7a9.64,9.64,0,0,1,8.94-5.82,16.86,16.86,0,0,1,1.74.06v6.48A31,31,0,0,0,727.77,675.1Z"/><path d="M748.83,701.92c-7.62,0-15.65-5.16-15.65-16.8s8-16.86,15.65-16.86,15.72,5.16,15.72,16.86S756.51,701.92,748.83,701.92Zm9.12-16.8c0-8-4.38-11.58-9.12-11.58s-9.06,3.42-9.06,11.58c0,8,4.38,11.52,9.06,11.52S758,693,758,685.12Z"/><path d="M777,673.6c2-3.3,5.34-5.34,10.08-5.34,7.5,0,13.92,6.3,13.92,16.8s-6.42,16.86-13.92,16.86c-4.74,0-8.1-2-10.08-5.34v4.56H770.8V657.65H777Zm17.34,11.46c0-7.26-3.54-11.58-8.7-11.58-4.8,0-8.88,3.6-8.88,11.58s4.08,11.64,8.88,11.64C790.83,696.7,794.37,692.32,794.37,685.06Z"/><path d="M821.19,701.92c-7.62,0-15.66-5.16-15.66-16.8s8-16.86,15.66-16.86,15.72,5.16,15.72,16.86S828.87,701.92,821.19,701.92Zm9.12-16.8c0-8-4.38-11.58-9.12-11.58s-9.06,3.42-9.06,11.58c0,8,4.38,11.52,9.06,11.52S830.31,693,830.31,685.12Z"/><path d="M850.65,660.58v8.28H857v4.74h-6.36V692c0,3.3.54,4.14,3.66,4.14H857v5h-4.56c-6.54,0-8-1.62-8-8.28V673.6h-4.92v-4.74h4.92v-8.28Z"/><path d="M869.91,664.54h-6.24v-6.89h6.24Zm0,36.6h-6.24V668.86h6.24Z"/><path d="M899.43,679.78c-.66-3.66-4-6.18-8-6.18-4.5,0-8.64,3.54-8.64,11.4s4.2,11.58,8.64,11.58c4,0,7.44-2.34,8.28-6.18H906c-1.26,6.78-7.56,11.52-14.7,11.52-9.3,0-15.18-7.14-15.18-16.86s6.06-16.8,15.6-16.8a13.89,13.89,0,0,1,14,11.52Z"/><path d="M942.27,668.26c7.8,0,10.8,5,10.8,12.54v20.34h-6.24V682.48c0-4.68-.78-9-6.66-9-5.4,0-8,3.9-8,10.32v17.34h-6.24V668.86h6.24v4.68C934,670.36,937.23,668.26,942.27,668.26Z"/><path d="M980.73,681.16v-.66c0-5.7-3-7.62-7-7.62-4.32,0-6.78,2.22-7,6.18h-6.3c.54-6.84,6.18-11,13.56-11,8.34,0,13.14,4,13,13.68,0,.78-.12,6.36-.12,7.74a60.15,60.15,0,0,0,.9,11.64h-6a27.85,27.85,0,0,1-.54-4.26c-1.92,3.24-5.58,5-10.8,5-6.54,0-11.52-3.6-11.52-9.48C959,684.58,968.19,682.48,980.73,681.16Zm-15,11.16c0,2.94,2.34,4.8,6.12,4.8,5.16,0,9.18-2.58,9.18-9v-2.34C971,686.74,965.73,688.12,965.73,692.32Z"/><path d="M1013.37,668.86h6.48l-11.94,32.28h-5.7l-12-32.28h6.9l8.16,23.94Z"/><path d="M1030.29,664.54h-6.24v-6.89h6.24Zm0,36.6h-6.24V668.86h6.24Z"/><path d="M1066.41,668.86v28.5c0,5.94-1.26,9.12-3.48,11.34-2.46,2.58-6.36,3.9-11.28,3.9-7.2,0-12.48-3.12-13.5-9.9h6.42c.66,2.94,2.52,4.68,7.2,4.68,3.06,0,5.16-.84,6.48-2.34s1.92-3.06,1.92-6.36v-3.42c-2,3.3-5.22,5.34-10,5.34-7.5,0-13.74-5.94-13.74-16.2s6.24-16.14,13.74-16.14c4.74,0,8,2,10,5.34v-4.74Zm-23.28,15.54c0,7,3.36,11.1,8.52,11.1,4.8,0,8.76-3.36,8.76-11.1s-4-11-8.76-11C1046.49,673.42,1043.13,677.5,1043.13,684.4Z"/><path d="M1094.61,681.16v-.66c0-5.7-3-7.62-7-7.62-4.32,0-6.78,2.22-7,6.18h-6.3c.54-6.84,6.18-11,13.56-11,8.34,0,13.14,4,13,13.68,0,.78-.12,6.36-.12,7.74a60.15,60.15,0,0,0,.9,11.64h-6a27.85,27.85,0,0,1-.54-4.26c-1.92,3.24-5.58,5-10.8,5-6.54,0-11.52-3.6-11.52-9.48C1072.83,684.58,1082.07,682.48,1094.61,681.16Zm-15,11.16c0,2.94,2.34,4.8,6.12,4.8,5.16,0,9.18-2.58,9.18-9v-2.34C1084.89,686.74,1079.61,688.12,1079.61,692.32Z"/><path d="M1116.09,660.58v8.28h6.36v4.74h-6.36V692c0,3.3.54,4.14,3.66,4.14h2.64v5h-4.56c-6.54,0-8-1.62-8-8.28V673.6h-4.92v-4.74h4.92v-8.28Z"/><path d="M1135.35,664.54h-6.24v-6.89h6.24Zm0,36.6h-6.24V668.86h6.24Z"/><path d="M1157.25,701.92c-7.62,0-15.66-5.16-15.66-16.8s8-16.86,15.66-16.86,15.72,5.16,15.72,16.86S1164.93,701.92,1157.25,701.92Zm9.12-16.8c0-8-4.38-11.58-9.12-11.58s-9.06,3.42-9.06,11.58c0,8,4.38,11.52,9.06,11.52S1166.37,693,1166.37,685.12Z"/><path d="M1195.59,668.26c7.8,0,10.8,5,10.8,12.54v20.34h-6.25V682.48c0-4.68-.77-9-6.65-9-5.4,0-8,3.9-8,10.32v17.34h-6.24V668.86h6.24v4.68C1187.31,670.36,1190.55,668.26,1195.59,668.26Z"/></g></g></svg>