<svg xmlns="http://www.w3.org/2000/svg" xmlns:xlink="http://www.w3.org/1999/xlink" viewBox="0 0 1920 2974.8"><defs><style>.cls-1{fill:#fff;}.cls-2,.cls-3{fill:none;stroke-miterlimit:10;stroke-width:11px;}.cls-2{stroke:lime;}.cls-3{stroke:#000;}.cls-4{font-size:120px;}.cls-17,.cls-4,.cls-9{font-family:SuisseIntl-Book, Suisse Intl;}.cls-5{letter-spacing:0em;}.cls-6{letter-spacing:0em;}.cls-7{letter-spacing:0.01em;}.cls-8{letter-spacing:0em;}.cls-17,.cls-9{font-size:60px;}.cls-10{letter-spacing:-0.01em;}.cls-11{letter-spacing:0em;}.cls-12{letter-spacing:0.01em;}.cls-13{letter-spacing:0.01em;}.cls-14{letter-spacing:0em;}.cls-15{letter-spacing:0.01em;}.cls-16{letter-spacing:0em;}.cls-17{fill:lime;}.cls-18{fill:#f0f;}</style></defs><g id="Layer_2" data-name="Layer 2"><g id="Layer_1-2" data-name="Layer 1"><rect class="cls-1" width="1920" height="2974.8"/><image width="700" height="524" transform="translate(539.81 2285.59) rotate(-90) scale(1.6)" xlink:href="../../../../../!Phygitalism/hse/web_machine_vision/sources/stanford_dragon.jpg"/><polyline class="cls-2" points="960 2285.59 688.59 2165.62 766.82 1841.18 1197.67 2014.88 1197.67 1817.34 840.89 1560.65 960 1451.88 1197.67 1550.65 1197.67 1319.2 960 1319.2 960 1017.58"/><polyline class="cls-3" points="1670 573.09 1670 540 254.01 540 254.01 573.09"/><line class="cls-3" x1="1670" y1="506.9" x2="1670" y2="540"/><line class="cls-3" x1="254.01" y1="506.9" x2="254.01" y2="540"/><text class="cls-4" transform="translate(549.31 410.9)">go <tspan class="cls-5" x="171.12" y="0">t</tspan><tspan class="cls-6" x="210.36" y="0">o </tspan><tspan class="cls-7" x="309.35" y="0">t</tspan><tspan x="350.39" y="0">he </tspan><tspan class="cls-8" x="518.27" y="0">w</tspan><tspan class="cls-6" x="604.91" y="0">orld</tspan></text><text class="cls-9" transform="translate(710.01 701.14)"><tspan class="cls-10">r</tspan><tspan class="cls-11" x="21.12" y="0">o</tspan><tspan class="cls-12" x="56.58" y="0">b</tspan><tspan class="cls-11" x="93.48" y="0">o</tspan><tspan class="cls-13" x="128.94" y="0">t</tspan><tspan x="149.46" y="0">ic n</tspan><tspan class="cls-14" x="246.66" y="0">a</tspan><tspan x="280.2" y="0">viga</tspan><tspan class="cls-15" x="394.37" y="0">t</tspan><tspan class="cls-16" x="414.89" y="0">ion</tspan></text><text class="cls-17" transform="translate(896.55 1026.8)">start</text><text class="cls-9" transform="translate(898.5 2451.19)">s<tspan class="cls-14" x="31.5" y="0">t</tspan><tspan class="cls-11" x="51.12" y="0">op</tspan></text><text class="cls-9" transform="translate(898.5 2836.2)">base</text><circle cx="960" cy="1017.58" r="10"/><circle cx="960" cy="1319.2" r="10"/><circle cx="1197.67" cy="1319.2" r="10"/><circle cx="1197.67" cy="1550.65" r="10"/><circle cx="960" cy="1451.88" r="10"/><circle cx="840.89" cy="1560.65" r="10"/><circle cx="1197.67" cy="1817.34" r="10"/><circle cx="1197.67" cy="2014.88" r="10"/><circle cx="766.81" cy="1841.18" r="10"/><circle cx="688.59" cy="2165.62" r="10"/><circle cx="960" cy="2285.59" r="10"/><rect class="cls-18" x="1089.69" y="1037.04" width="20" height="20"/><rect class="cls-18" x="1089.69" y="1170.11" width="20" height="20"/><rect class="cls-18" x="1326.89" y="1170.11" width="20" height="20"/><rect class="cls-18" x="1326.89" y="1612.84" width="20" height="20"/><rect class="cls-18" x="1074.61" y="1605" width="20" height="20"/><rect class="cls-18" x="1326.89" y="1807.34" width="20" height="20"/><rect class="cls-18" x="1326.89" y="2145.62" width="20" height="20"/><rect class="cls-18" x="950" y="2094.57" width="20" height="20"/><rect class="cls-18" x="1093.76" y="2275.59" width="20" height="20"/><rect class="cls-18" x="806.64" y="2422.46" width="20" height="20"/><rect class="cls-18" x="896.55" y="2564.09" width="20" height="20"/><rect class="cls-18" x="1003.22" y="2564.09" width="20" height="20"/><rect class="cls-18" x="1003.22" y="2670.75" width="20" height="20"/><rect class="cls-18" x="896.55" y="2670.75" width="20" height="20"/><rect class="cls-18" x="535.24" y="2155.62" width="20" height="20"/><rect class="cls-18" x="613.46" y="1689.8" width="20" height="20"/><rect class="cls-18" x="687.53" y="1550.65" width="20" height="20"/><rect class="cls-18" x="726.05" y="1299.2" width="20" height="20"/><rect class="cls-18" x="801.88" y="1170.11" width="20" height="20"/><rect class="cls-18" x="801.88" y="1037.04" width="20" height="20"/><rect class="cls-18" x="950" y="1808.38" width="20" height="20"/><line class="cls-3" x1="960" y1="2595.26" x2="960" y2="2659.9"/><line class="cls-3" x1="992.32" y1="2627.58" x2="927.68" y2="2627.58"/></g></g></svg>