<svg xmlns="http://www.w3.org/2000/svg" viewBox="0 0 609.06 119.87"><defs><style>.cls-1{fill:none;stroke:#000;stroke-miterlimit:10;stroke-width:11px;}</style></defs><g id="Layer_2" data-name="Layer 2"><g id="Layer_1-2" data-name="Layer 1"><path d="M74.05,43.5V0h6.24V43.5Z"/><path d="M117.07,34c-1.5,5.34-6.3,10.26-14.52,10.26-10.44,0-16.08-7.62-16.08-17,0-10,6.72-16.68,15.9-16.68,10,0,15.78,8.16,15.12,18.66H92.89c.6,5.94,4.38,9.66,9.42,9.66,4.5,0,7.14-1.86,8.46-4.92ZM111,24.36c-.18-4.8-3.54-8.64-8.7-8.64-4.86,0-8.46,2.52-9.3,8.64Z"/><path d="M143.17,23.52v-.66c0-5.7-3-7.62-7-7.62-4.32,0-6.78,2.22-7,6.18h-6.3c.54-6.84,6.18-11,13.56-11,8.34,0,13.14,4,13,13.68,0,.78-.12,6.36-.12,7.74a60.15,60.15,0,0,0,.9,11.64h-6a27.85,27.85,0,0,1-.54-4.26c-1.92,3.24-5.58,5-10.8,5-6.54,0-11.52-3.6-11.52-9.48C121.39,26.94,130.63,24.84,143.17,23.52Zm-15,11.16c0,2.94,2.34,4.8,6.12,4.8,5.16,0,9.18-2.58,9.18-9V28.14C133.45,29.1,128.17,30.48,128.17,34.68Z"/><path d="M170.71,17.46c-4.8,0-7.32,2.34-7.32,9.12V43.5h-6.24V11.22h6.12v5.7a9.64,9.64,0,0,1,8.94-5.82,16.86,16.86,0,0,1,1.74.06v6.48A31,31,0,0,0,170.71,17.46Z"/><path d="M195.25,10.62c7.8,0,10.8,5,10.8,12.54V43.5h-6.24V24.84c0-4.68-.78-9-6.66-9-5.4,0-8,3.9-8,10.32V43.5h-6.24V11.22h6.24V15.9C187,12.72,190.21,10.62,195.25,10.62Z"/><path d="M235.39,2.94v8.28h6.36V16h-6.36V34.38c0,3.3.54,4.14,3.66,4.14h2.64v5h-4.56c-6.54,0-8-1.62-8-8.28V16h-4.92V11.22h4.92V2.94Z"/><path d="M261,44.28c-7.62,0-15.66-5.16-15.66-16.8s8-16.86,15.66-16.86,15.72,5.16,15.72,16.86S268.69,44.28,261,44.28Zm9.12-16.8c0-8-4.38-11.58-9.12-11.58S252,19.32,252,27.48c0,8,4.38,11.52,9.06,11.52S270.13,35.34,270.13,27.48Z"/><path d="M308.05,15.6c-3.06,0-6.36,1.26-6.36,3.9,0,2.4,1.56,3.42,4.5,4l4.61.9c6.13,1.2,11.46,3.3,11.46,9.6,0,6.54-6.12,10.26-13.55,10.26-8.16,0-13.14-4.74-13.92-10.8h6.36c.84,3.66,3.24,5.82,7.74,5.82,4,0,7.13-1.68,7.13-4.56s-2.81-4.2-6.18-4.86l-4.85-1c-4.86-1-9.42-3.12-9.42-9.18,0-5.7,6-9.18,13.08-9.18,6.48,0,11.69,3.42,12.9,9.66h-6.19C314.47,16.92,311.71,15.6,308.05,15.6Z"/><path d="M356.88,34c-1.5,5.34-6.3,10.26-14.52,10.26-10.43,0-16.08-7.62-16.08-17,0-10,6.72-16.68,15.9-16.68,10,0,15.78,8.16,15.12,18.66H332.7c.6,5.94,4.38,9.66,9.42,9.66,4.5,0,7.14-1.86,8.46-4.92Zm-6.06-9.66c-.18-4.8-3.54-8.64-8.7-8.64-4.86,0-8.46,2.52-9.3,8.64Z"/><path d="M392.1,34c-1.5,5.34-6.3,10.26-14.52,10.26-10.44,0-16.08-7.62-16.08-17,0-10,6.72-16.68,15.9-16.68,10,0,15.78,8.16,15.12,18.66h-24.6c.6,5.94,4.38,9.66,9.42,9.66,4.5,0,7.14-1.86,8.46-4.92ZM386,24.36c-.18-4.8-3.54-8.64-8.7-8.64-4.86,0-8.46,2.52-9.3,8.64Z"/><path d="M432.54,23.52v-.66c0-5.7-3-7.62-7-7.62-4.32,0-6.78,2.22-7,6.18h-6.3c.54-6.84,6.18-11,13.56-11,8.34,0,13.14,4,13,13.68,0,.78-.12,6.36-.12,7.74a60.15,60.15,0,0,0,.9,11.64h-6a27.85,27.85,0,0,1-.54-4.26c-1.92,3.24-5.58,5-10.8,5-6.54,0-11.52-3.6-11.52-9.48C410.76,26.94,420,24.84,432.54,23.52Zm-15,11.16c0,2.94,2.34,4.8,6.12,4.8,5.16,0,9.18-2.58,9.18-9V28.14C422.82,29.1,417.54,30.48,417.54,34.68Z"/><path d="M474.24,11.22v28.5c0,5.94-1.26,9.12-3.48,11.34-2.46,2.58-6.36,3.9-11.28,3.9-7.2,0-12.48-3.12-13.5-9.9h6.42c.66,2.94,2.52,4.68,7.2,4.68,3.06,0,5.16-.84,6.48-2.34S468,44.34,468,41V37.62c-2,3.3-5.22,5.34-10,5.34-7.5,0-13.74-5.94-13.74-16.2S450.54,10.62,458,10.62c4.74,0,8,2,10,5.34V11.22ZM451,26.76c0,7,3.36,11.1,8.52,11.1,4.8,0,8.76-3.36,8.76-11.1s-4-11-8.76-11C454.32,15.78,451,19.86,451,26.76Z"/><path d="M502.44,23.52v-.66c0-5.7-3-7.62-7-7.62-4.32,0-6.78,2.22-7,6.18h-6.3c.54-6.84,6.18-11,13.56-11,8.34,0,13.14,4,13,13.68,0,.78-.12,6.36-.12,7.74a60.15,60.15,0,0,0,.9,11.64h-6a27.85,27.85,0,0,1-.54-4.26c-1.92,3.24-5.58,5-10.8,5-6.54,0-11.52-3.6-11.52-9.48C480.66,26.94,489.9,24.84,502.44,23.52Zm-15,11.16c0,2.94,2.34,4.8,6.12,4.8,5.16,0,9.18-2.58,9.18-9V28.14C492.72,29.1,487.44,30.48,487.44,34.68Z"/><path d="M522.66,6.9h-6.24V0h6.24Zm0,36.6h-6.24V11.22h6.24Z"/><path d="M547.44,10.62c7.8,0,10.8,5,10.8,12.54V43.5H552V24.84c0-4.68-.78-9-6.66-9-5.4,0-8,3.9-8,10.32V43.5h-6.24V11.22h6.24V15.9C539.16,12.72,542.4,10.62,547.44,10.62Z"/><line class="cls-1" x1="39.47" y1="92.45" x2="609.06" y2="92.45"/><polygon points="47.49 119.87 0 92.44 47.49 65.02 47.49 119.87"/></g></g></svg>