<svg xmlns="http://www.w3.org/2000/svg" viewBox="0 0 1920 2012.26"><defs><style>.cls-1{fill:#fff;}.cls-2,.cls-5{fill:none;stroke-miterlimit:10;stroke-width:11px;}.cls-2{stroke:lime;}.cls-3{fill:lime;}.cls-4{fill:#f0f;}.cls-5{stroke:#000;}</style></defs><g id="Layer_2" data-name="Layer 2"><g id="Layer_1-2" data-name="Layer 1"><rect class="cls-1" width="1920" height="2011.48"/><polyline class="cls-2" points="960 1460.87 688.59 1340.9 766.82 1016.46 1197.67 1190.16 1197.67 992.62 840.89 735.93 960 627.16 1197.67 725.93 1197.67 494.48 960 494.48 960 192.85"/><path class="cls-3" d="M911.79,174.18c-3.06,0-6.36,1.26-6.36,3.9,0,2.4,1.56,3.42,4.5,4l4.62.9c6.12,1.2,11.46,3.3,11.46,9.6,0,6.54-6.12,10.25-13.56,10.25-8.16,0-13.14-4.74-13.92-10.79h6.36c.84,3.66,3.24,5.82,7.74,5.82,4,0,7.14-1.69,7.14-4.56s-2.82-4.2-6.18-4.86l-4.86-1c-4.86-1-9.42-3.12-9.42-9.18,0-5.7,6-9.18,13.08-9.18,6.48,0,11.7,3.42,12.9,9.66h-6.18C918.21,175.5,915.45,174.18,911.79,174.18Z"/><path class="cls-3" d="M939.75,161.52v8.28h6.36v4.74h-6.36V193c0,3.3.54,4.14,3.66,4.14h2.64v5h-4.56c-6.54,0-8-1.62-8-8.28V174.54h-4.92V169.8h4.92v-8.28Z"/><path class="cls-3" d="M972,182.1v-.66c0-5.7-3-7.62-7-7.62-4.32,0-6.78,2.22-7,6.18h-6.3c.54-6.84,6.18-11,13.56-11,8.34,0,13.14,4,13,13.68,0,.78-.12,6.36-.12,7.73a60.27,60.27,0,0,0,.9,11.65h-6a28.2,28.2,0,0,1-.54-4.26c-1.92,3.24-5.58,5-10.8,5-6.54,0-11.52-3.59-11.52-9.47C950.25,185.52,959.49,183.42,972,182.1Zm-15,11.16c0,2.93,2.34,4.8,6.12,4.8,5.16,0,9.18-2.58,9.18-9v-2.34C962.31,187.68,957,189.06,957,193.26Z"/><path class="cls-3" d="M999.57,176c-4.8,0-7.32,2.34-7.32,9.12v16.92H986V169.8h6.12v5.7a9.64,9.64,0,0,1,8.94-5.82,16.86,16.86,0,0,1,1.74.06v6.48A31,31,0,0,0,999.57,176Z"/><path class="cls-3" d="M1015.23,161.52v8.28h6.36v4.74h-6.36V193c0,3.3.54,4.14,3.66,4.14h2.64v5H1017c-6.54,0-8-1.62-8-8.28V174.54h-4.92V169.8H1009v-8.28Z"/><path d="M913.74,1598.57c-3.06,0-6.36,1.26-6.36,3.9,0,2.4,1.56,3.42,4.5,4l4.62.9c6.12,1.2,11.46,3.3,11.46,9.6,0,6.54-6.12,10.26-13.56,10.26-8.16,0-13.14-4.74-13.92-10.8h6.36c.84,3.66,3.24,5.82,7.74,5.82,4,0,7.14-1.68,7.14-4.56s-2.82-4.2-6.18-4.86l-4.86-1c-4.86-1-9.42-3.12-9.42-9.18,0-5.7,6-9.18,13.08-9.18,6.48,0,11.7,3.42,12.9,9.66h-6.18C920.16,1599.89,917.4,1598.57,913.74,1598.57Z"/><path d="M941.7,1585.91v8.28h6.36v4.74H941.7v18.42c0,3.3.54,4.14,3.66,4.14H948v5h-4.56c-6.54,0-8-1.62-8-8.28v-19.26h-4.92v-4.74h4.92v-8.28Z"/><path d="M967.32,1627.25c-7.62,0-15.66-5.16-15.66-16.8s8-16.86,15.66-16.86,15.72,5.16,15.72,16.86S975,1627.25,967.32,1627.25Zm9.12-16.8c0-8-4.38-11.58-9.12-11.58s-9.06,3.42-9.06,11.58c0,8,4.38,11.52,9.06,11.52S976.44,1618.31,976.44,1610.45Z"/><path d="M995.52,1598.93c2-3.3,5.34-5.34,10.08-5.34,7.5,0,13.92,6.3,13.92,16.8s-6.42,16.86-13.92,16.86c-4.74,0-8.1-2-10.08-5.34V1637h-6.24v-42.78h6.24Zm17.34,11.46c0-7.26-3.54-11.58-8.7-11.58-4.8,0-8.88,3.6-8.88,11.58s4.08,11.64,8.88,11.64C1009.32,1622,1012.86,1617.65,1012.86,1610.39Z"/><path d="M908.94,1983.94c2-3.3,5.34-5.34,10.08-5.34,7.5,0,13.92,6.3,13.92,16.8s-6.42,16.86-13.92,16.86c-4.74,0-8.1-2-10.08-5.34v4.56H902.7V1968h6.24Zm17.34,11.46c0-7.26-3.54-11.58-8.7-11.58-4.8,0-8.88,3.6-8.88,11.58s4.08,11.64,8.88,11.64C922.74,2007,926.28,2002.66,926.28,1995.4Z"/><path d="M959,1991.5v-.66c0-5.7-3-7.62-7-7.62-4.32,0-6.78,2.22-7,6.18h-6.3c.54-6.84,6.18-11,13.56-11,8.34,0,13.14,4,13,13.68,0,.78-.12,6.36-.12,7.74a60.15,60.15,0,0,0,.9,11.64h-6a27.85,27.85,0,0,1-.54-4.26c-1.92,3.24-5.58,5-10.8,5-6.54,0-11.52-3.6-11.52-9.48C937.2,1994.92,946.44,1992.82,959,1991.5Zm-15,11.16c0,2.94,2.34,4.8,6.12,4.8,5.16,0,9.18-2.58,9.18-9v-2.34C949.26,1997.08,944,1998.46,944,2002.66Z"/><path d="M984,1983.58c-3.06,0-6.36,1.26-6.36,3.9,0,2.4,1.56,3.42,4.5,4l4.62.9c6.12,1.2,11.46,3.3,11.46,9.6,0,6.54-6.12,10.26-13.56,10.26-8.16,0-13.14-4.74-13.92-10.8h6.36c.84,3.66,3.24,5.82,7.74,5.82,4,0,7.14-1.68,7.14-4.56s-2.82-4.2-6.18-4.86l-4.86-1c-4.86-1-9.42-3.12-9.42-9.18,0-5.7,6-9.18,13.08-9.18,6.48,0,11.7,3.42,12.9,9.66h-6.18C990.42,1984.9,987.66,1983.58,984,1983.58Z"/><path d="M1032.84,2002c-1.5,5.34-6.3,10.26-14.52,10.26-10.44,0-16.08-7.62-16.08-17,0-10,6.72-16.68,15.9-16.68,10,0,15.78,8.16,15.12,18.66h-24.6c.6,5.94,4.38,9.66,9.42,9.66,4.5,0,7.14-1.86,8.46-4.92Zm-6.06-9.66c-.18-4.8-3.54-8.64-8.7-8.64-4.86,0-8.46,2.52-9.3,8.64Z"/><circle cx="960" cy="192.85" r="10"/><circle cx="960" cy="494.48" r="10"/><circle cx="1197.67" cy="494.48" r="10"/><circle cx="1197.67" cy="725.93" r="10"/><circle cx="960" cy="627.16" r="10"/><circle cx="840.89" cy="735.93" r="10"/><circle cx="1197.67" cy="992.62" r="10"/><circle cx="1197.67" cy="1190.16" r="10"/><circle cx="766.81" cy="1016.46" r="10"/><circle cx="688.59" cy="1340.9" r="10"/><circle cx="960" cy="1460.87" r="10"/><rect class="cls-4" x="1089.69" y="212.32" width="20" height="20"/><rect class="cls-4" x="1089.69" y="345.39" width="20" height="20"/><rect class="cls-4" x="1326.89" y="345.39" width="20" height="20"/><rect class="cls-4" x="1326.89" y="788.12" width="20" height="20"/><rect class="cls-4" x="1074.61" y="780.27" width="20" height="20"/><rect class="cls-4" x="1326.89" y="982.62" width="20" height="20"/><rect class="cls-4" x="1326.89" y="1320.9" width="20" height="20"/><rect class="cls-4" x="950" y="1269.85" width="20" height="20"/><rect class="cls-4" x="1093.76" y="1450.87" width="20" height="20"/><rect class="cls-4" x="806.64" y="1597.74" width="20" height="20"/><rect class="cls-4" x="896.55" y="1739.37" width="20" height="20"/><rect class="cls-4" x="1003.22" y="1739.37" width="20" height="20"/><rect class="cls-4" x="1003.22" y="1846.03" width="20" height="20"/><rect class="cls-4" x="896.55" y="1846.03" width="20" height="20"/><rect class="cls-4" x="535.24" y="1330.9" width="20" height="20"/><rect class="cls-4" x="613.46" y="865.08" width="20" height="20"/><rect class="cls-4" x="687.53" y="725.93" width="20" height="20"/><rect class="cls-4" x="726.05" y="474.48" width="20" height="20"/><rect class="cls-4" x="801.88" y="345.39" width="20" height="20"/><rect class="cls-4" x="801.88" y="212.32" width="20" height="20"/><rect class="cls-4" x="950" y="983.66" width="20" height="20"/><line class="cls-5" x1="960" y1="1770.54" x2="960" y2="1835.18"/><line class="cls-5" x1="992.32" y1="1802.86" x2="927.68" y2="1802.86"/></g></g></svg>