<svg xmlns="http://www.w3.org/2000/svg" viewBox="0 0 1920 2025.76"><defs><style>.cls-1{fill:#fff;}.cls-2,.cls-8{fill:none;stroke-miterlimit:10;stroke-width:11px;}.cls-2{stroke:lime;}.cls-3,.cls-4{font-size:60px;font-family:SuisseIntl-Book, Suisse Intl;}.cls-3{fill:lime;}.cls-5{letter-spacing:0em;}.cls-6{letter-spacing:0em;}.cls-7{fill:#f0f;}.cls-8{stroke:#000;}</style></defs><g id="Layer_2" data-name="Layer 2"><g id="Layer_1-2" data-name="Layer 1"><rect class="cls-1" width="1920" height="2011.48"/><polyline class="cls-2" points="960 1460.87 688.59 1340.9 766.82 1016.46 1197.67 1190.16 1197.67 992.62 840.89 735.93 960 627.16 1197.67 725.93 1197.67 494.48 960 494.48 960 192.85"/><text class="cls-3" transform="translate(896.55 202.08)">start</text><text class="cls-4" transform="translate(898.5 1626.47)">s<tspan class="cls-5" x="31.5" y="0">t</tspan><tspan class="cls-6" x="51.12" y="0">op</tspan></text><text class="cls-4" transform="translate(898.5 2011.48)">base</text><circle cx="960" cy="192.85" r="10"/><circle cx="960" cy="494.48" r="10"/><circle cx="1197.67" cy="494.48" r="10"/><circle cx="1197.67" cy="725.93" r="10"/><circle cx="960" cy="627.16" r="10"/><circle cx="840.89" cy="735.93" r="10"/><circle cx="1197.67" cy="992.62" r="10"/><circle cx="1197.67" cy="1190.16" r="10"/><circle cx="766.81" cy="1016.46" r="10"/><circle cx="688.59" cy="1340.9" r="10"/><circle cx="960" cy="1460.87" r="10"/><rect class="cls-7" x="1089.69" y="212.32" width="20" height="20"/><rect class="cls-7" x="1089.69" y="345.39" width="20" height="20"/><rect class="cls-7" x="1326.89" y="345.39" width="20" height="20"/><rect class="cls-7" x="1326.89" y="788.12" width="20" height="20"/><rect class="cls-7" x="1074.61" y="780.27" width="20" height="20"/><rect class="cls-7" x="1326.89" y="982.62" width="20" height="20"/><rect class="cls-7" x="1326.89" y="1320.9" width="20" height="20"/><rect class="cls-7" x="950" y="1269.85" width="20" height="20"/><rect class="cls-7" x="1093.76" y="1450.87" width="20" height="20"/><rect class="cls-7" x="806.64" y="1597.74" width="20" height="20"/><rect class="cls-7" x="896.55" y="1739.37" width="20" height="20"/><rect class="cls-7" x="1003.22" y="1739.37" width="20" height="20"/><rect class="cls-7" x="1003.22" y="1846.03" width="20" height="20"/><rect class="cls-7" x="896.55" y="1846.03" width="20" height="20"/><rect class="cls-7" x="535.24" y="1330.9" width="20" height="20"/><rect class="cls-7" x="613.46" y="865.08" width="20" height="20"/><rect class="cls-7" x="687.53" y="725.93" width="20" height="20"/><rect class="cls-7" x="726.05" y="474.48" width="20" height="20"/><rect class="cls-7" x="801.88" y="345.39" width="20" height="20"/><rect class="cls-7" x="801.88" y="212.32" width="20" height="20"/><rect class="cls-7" x="950" y="983.66" width="20" height="20"/><line class="cls-8" x1="960" y1="1770.54" x2="960" y2="1835.18"/><line class="cls-8" x1="992.32" y1="1802.86" x2="927.68" y2="1802.86"/></g></g></svg>