<svg xmlns="http://www.w3.org/2000/svg" viewBox="0 0 556.62 143.77"><defs><style>.cls-1{fill:#fff;}</style></defs><g id="Layer_2" data-name="Layer 2"><g id="Layer_1-2" data-name="Layer 1"><rect class="cls-1" x="43.75" y="5.86" width="507.37" height="132.42"/><path d="M545.62,11.36V132.77H49.25V11.36H545.62m11-11H38.25V143.77H556.62V.36Z"/><path d="M156,84.54h23.4v5.64h-31.5v-5.4C162.86,73.44,171.74,65.52,171.74,58c0-4.38-2.94-7.14-7.62-7.14-4.44,0-8.7,2.52-8.76,9.54H149c-.12-8.7,5.94-14.52,15.3-14.52,8,0,14,4.08,14,11.46C178.28,66.9,168.68,75.6,156,84.54Z"/><path d="M222,68.4c0,16.8-10.21,21.78-24,21.78H186.08V46.68H198C211.75,46.68,222,51.66,222,68.4Zm-29-16.08V84.54h4.74c8.7,0,17.22-1.8,17.22-16.14s-8.52-16.08-17.22-16.08Z"/><path d="M264.13,68.82c-.66-3.66-4-6.18-8-6.18-4.5,0-8.63,3.54-8.63,11.4s4.2,11.58,8.63,11.58c4,0,7.44-2.34,8.28-6.18h6.3C269.41,86.22,263.11,91,256,91c-9.3,0-15.18-7.14-15.18-16.86s6.07-16.8,15.6-16.8a13.89,13.89,0,0,1,14,11.52Z"/><path d="M296.41,70.2v-.66c0-5.7-3-7.62-7-7.62-4.32,0-6.78,2.22-7,6.18h-6.3c.54-6.84,6.18-11,13.56-11,8.34,0,13.14,4,13,13.68,0,.78-.12,6.36-.12,7.74a60.15,60.15,0,0,0,.9,11.64h-6a27.85,27.85,0,0,1-.54-4.26c-1.92,3.24-5.58,5-10.8,5-6.54,0-11.52-3.6-11.52-9.48C274.63,73.62,283.87,71.52,296.41,70.2Zm-15,11.16c0,2.94,2.34,4.8,6.12,4.8,5.16,0,9.18-2.58,9.18-9V74.82C286.69,75.78,281.41,77.16,281.41,81.36Z"/><path d="M310.39,90.18V57.9h6.24v4.68a10.36,10.36,0,0,1,9.54-5.28c5,0,7.92,2.1,9.36,5.7a12.27,12.27,0,0,1,10.68-5.7c7.56,0,10.5,5,10.5,12.54V90.18h-6.24V71.52c0-4.68-.72-9-6.36-9-4.92,0-7.44,3.9-7.44,10.32V90.18h-6.24V71.52c0-4.68-.72-9-6.36-9-5,0-7.44,3.9-7.44,10.32V90.18Z"/><path d="M393,80.7C391.45,86,386.65,91,378.43,91c-10.43,0-16.08-7.62-16.08-17,0-10,6.72-16.68,15.9-16.68,10,0,15.78,8.16,15.12,18.66h-24.6c.61,5.94,4.38,9.66,9.42,9.66,4.5,0,7.14-1.86,8.46-4.92ZM386.89,71c-.18-4.8-3.54-8.64-8.7-8.64-4.86,0-8.46,2.52-9.3,8.64Z"/><path d="M413.05,64.14c-4.8,0-7.32,2.34-7.32,9.12V90.18h-6.24V57.9h6.12v5.7a9.64,9.64,0,0,1,8.94-5.82,16.86,16.86,0,0,1,1.74.06v6.48A31,31,0,0,0,413.05,64.14Z"/><path d="M439.87,70.2v-.66c0-5.7-3-7.62-7-7.62-4.32,0-6.78,2.22-7,6.18h-6.3c.54-6.84,6.18-11,13.56-11,8.34,0,13.14,4,13,13.68,0,.78-.12,6.36-.12,7.74a60.15,60.15,0,0,0,.9,11.64h-6a27.85,27.85,0,0,1-.54-4.26c-1.92,3.24-5.58,5-10.8,5-6.54,0-11.52-3.6-11.52-9.48C418.09,73.62,427.33,71.52,439.87,70.2Zm-15,11.16c0,2.94,2.34,4.8,6.12,4.8,5.16,0,9.18-2.58,9.18-9V74.82C430.15,75.78,424.87,77.16,424.87,81.36Z"/><polygon points="43.85 47.5 87.71 0 0 0 43.85 47.5"/></g></g></svg>