<svg xmlns="http://www.w3.org/2000/svg" viewBox="0 0 556.61 509.81"><defs><style>.cls-1{fill:#fff;}</style></defs><g id="Layer_2" data-name="Layer 2"><g id="Layer_1-2" data-name="Layer 1"><rect class="cls-1" x="5.5" y="7.63" width="132.42" height="496.68"/><path d="M132.42,13.13V498.81H11V13.13H132.42m11-11H0V509.81H143.42V2.13Z"/><rect class="cls-1" x="171.31" y="8.67" width="132.42" height="496.68" transform="translate(-112.42 260.45) rotate(-47.82)"/><path d="M98.33,49,458.24,375.07l-81.53,90L16.81,138.94,98.33,49m-.76-15.54-7.39,8.16-81.53,90L1.27,139.7l8.15,7.39L369.33,473.2l8.15,7.39,7.39-8.15,81.52-90,7.39-8.15-8.15-7.39L105.72,40.81l-8.15-7.39Z"/><rect class="cls-1" x="5.5" y="5.5" width="507.37" height="132.42"/><path d="M507.37,11V132.42H11V11H507.37m11-11H0V143.42H518.37V0Z"/><path d="M122.86,69.72h-1.5V64.26h1.26c7.2,0,10.86-2.16,10.86-7,0-4.56-3.66-6.78-8-6.78-5.51,0-8.58,3.36-9.17,8.4H110c.67-8,6.3-13.38,15.72-13.38,7.38,0,14.28,3.12,14.28,11.22a10.72,10.72,0,0,1-6.78,10c5.88,2,7.92,6.3,7.92,10.8,0,8.82-7.5,13.08-16,13.08C115,90.6,110,84.12,109.43,76.68h6.24c.65,5,3.65,8.88,9.6,8.88,5.39,0,9.35-2.88,9.35-7.92C134.62,71.7,129.58,69.72,122.86,69.72Z"/><path d="M184.36,68c0,16.8-10.2,21.78-24,21.78H148.48V46.32h11.88C174.16,46.32,184.36,51.3,184.36,68ZM155.32,52V84.18h4.74c8.7,0,17.22-1.8,17.22-16.14S168.76,52,160.06,52Z"/><path d="M226.54,68.46c-.66-3.66-4-6.18-8-6.18-4.5,0-8.64,3.54-8.64,11.4s4.2,11.58,8.64,11.58c4,0,7.44-2.34,8.28-6.18h6.3c-1.26,6.78-7.56,11.52-14.7,11.52-9.3,0-15.18-7.14-15.18-16.86s6.06-16.8,15.6-16.8a13.89,13.89,0,0,1,14,11.52Z"/><path d="M258.82,69.84v-.66c0-5.7-3-7.62-7-7.62-4.32,0-6.78,2.22-7,6.18h-6.3c.54-6.84,6.18-11,13.56-11,8.34,0,13.14,4,13,13.68,0,.78-.12,6.36-.12,7.74a60.15,60.15,0,0,0,.9,11.64h-6a27.85,27.85,0,0,1-.54-4.26c-1.92,3.24-5.58,5-10.8,5C242,90.6,237,87,237,81.12,237,73.26,246.28,71.16,258.82,69.84ZM243.82,81c0,2.94,2.34,4.8,6.12,4.8,5.16,0,9.18-2.58,9.18-9V74.46C249.1,75.42,243.82,76.8,243.82,81Z"/><path d="M272.8,89.82V57.54H279v4.68a10.36,10.36,0,0,1,9.54-5.28c5,0,7.92,2.1,9.36,5.7a12.27,12.27,0,0,1,10.68-5.7c7.56,0,10.5,5,10.5,12.54V89.82h-6.24V71.16c0-4.68-.72-9-6.36-9-4.92,0-7.44,3.9-7.44,10.32V89.82h-6.24V71.16c0-4.68-.72-9-6.36-9-5,0-7.44,3.9-7.44,10.32V89.82Z"/><path d="M355.36,80.34c-1.5,5.34-6.3,10.26-14.52,10.26-10.44,0-16.08-7.62-16.08-17,0-10,6.72-16.68,15.9-16.68,10,0,15.78,8.16,15.12,18.66h-24.6c.6,5.94,4.38,9.66,9.42,9.66,4.5,0,7.14-1.86,8.46-4.92Zm-6.06-9.66c-.18-4.8-3.54-8.64-8.7-8.64-4.86,0-8.46,2.52-9.3,8.64Z"/><path d="M375.46,63.78c-4.8,0-7.32,2.34-7.32,9.12V89.82H361.9V57.54H368v5.7A9.64,9.64,0,0,1,377,57.42a16.86,16.86,0,0,1,1.74.06V64A31,31,0,0,0,375.46,63.78Z"/><path d="M402.28,69.84v-.66c0-5.7-3-7.62-7-7.62-4.32,0-6.78,2.22-7,6.18H382c.54-6.84,6.18-11,13.56-11,8.34,0,13.14,4,13,13.68,0,.78-.12,6.36-.12,7.74a60.15,60.15,0,0,0,.9,11.64h-6a27.85,27.85,0,0,1-.54-4.26c-1.92,3.24-5.58,5-10.8,5-6.54,0-11.52-3.6-11.52-9.48C380.5,73.26,389.74,71.16,402.28,69.84ZM387.28,81c0,2.94,2.34,4.8,6.12,4.8,5.16,0,9.18-2.58,9.18-9V74.46C392.56,75.42,387.28,76.8,387.28,81Z"/><polygon points="512.76 47.61 556.61 0.11 468.9 0.11 512.76 47.61"/></g></g></svg>