<svg xmlns="http://www.w3.org/2000/svg" viewBox="0 0 514.32 120.65"><defs><style>.cls-1{fill:none;stroke:#000;stroke-miterlimit:10;stroke-width:11px;}</style></defs><g id="Layer_2" data-name="Layer 2"><g id="Layer_1-2" data-name="Layer 1"><path d="M8.1,38.64H31.5v5.64H0v-5.4C14.94,27.54,23.82,19.62,23.82,12.12,23.82,7.74,20.88,5,16.2,5,11.76,5,7.5,7.5,7.44,14.52H1.08C1,5.82,7,0,16.38,0c8,0,14,4.08,14,11.46C30.36,21,20.76,29.7,8.1,38.64Z"/><path d="M36.9,36.78h7.5v7.5H36.9Z"/><path d="M72.42,16.74c2-3.3,5.34-5.34,10.08-5.34,7.5,0,13.92,6.3,13.92,16.8S90,45.06,82.5,45.06c-4.74,0-8.1-2-10.08-5.34V54.78H66.18V12h6.24ZM89.76,28.2c0-7.26-3.54-11.58-8.7-11.58-4.8,0-8.88,3.6-8.88,11.58s4.08,11.64,8.88,11.64C86.22,39.84,89.76,35.46,89.76,28.2Z"/><path d="M131.46,34.8c-1.5,5.34-6.3,10.26-14.52,10.26-10.44,0-16.08-7.62-16.08-17,0-10,6.72-16.68,15.9-16.68,10,0,15.78,8.16,15.12,18.66h-24.6c.6,5.94,4.38,9.66,9.42,9.66,4.5,0,7.14-1.86,8.46-4.92Zm-6.06-9.66c-.18-4.8-3.54-8.64-8.7-8.64-4.86,0-8.46,2.52-9.3,8.64Z"/><path d="M151.56,18.24c-4.8,0-7.32,2.34-7.32,9.12V44.28H138V12h6.12v5.7a9.64,9.64,0,0,1,8.94-5.82,16.86,16.86,0,0,1,1.74.06v6.48A31,31,0,0,0,151.56,18.24Z"/><path d="M180.24,22.92c-.66-3.66-4-6.18-8-6.18-4.5,0-8.64,3.54-8.64,11.4s4.2,11.58,8.64,11.58c4,0,7.44-2.34,8.28-6.18h6.3c-1.26,6.78-7.56,11.52-14.7,11.52-9.3,0-15.18-7.14-15.18-16.86S163,11.4,172.5,11.4a13.89,13.89,0,0,1,14,11.52Z"/><path d="M221.34,34.8c-1.5,5.34-6.3,10.26-14.52,10.26-10.44,0-16.08-7.62-16.08-17,0-10,6.72-16.68,15.9-16.68,10,0,15.78,8.16,15.12,18.66h-24.6c.6,5.94,4.38,9.66,9.42,9.66,4.5,0,7.14-1.86,8.46-4.92Zm-6.06-9.66c-.18-4.8-3.54-8.64-8.7-8.64-4.86,0-8.46,2.52-9.3,8.64Z"/><path d="M234.12,7.68h-6.24V.78h6.24Zm0,36.6h-6.24V12h6.24Z"/><path d="M261.48,12H268L256,44.28h-5.69L238.32,12h6.9l8.16,23.94Z"/><path d="M299.93,34.8c-1.5,5.34-6.29,10.26-14.52,10.26-10.43,0-16.08-7.62-16.08-17,0-10,6.73-16.68,15.91-16.68,9.95,0,15.77,8.16,15.11,18.66h-24.6c.61,5.94,4.39,9.66,9.42,9.66,4.5,0,7.15-1.86,8.47-4.92Zm-6.06-9.66c-.18-4.8-3.54-8.64-8.7-8.64-4.85,0-8.45,2.52-9.29,8.64Z"/><path d="M348.53.78v43.5h-6.24V39.72c-2,3.3-5.34,5.34-10.08,5.34-7.5,0-13.92-6.3-13.92-16.86s6.42-16.8,13.92-16.8c4.74,0,8.1,2,10.08,5.34V.78ZM325,28.2c0,7.26,3.55,11.64,8.7,11.64,4.8,0,8.88-3.66,8.88-11.64s-4.08-11.58-8.88-11.58C328.5,16.62,325,20.94,325,28.2Z"/><path d="M376.79,24.3v-.66c0-5.7-3-7.62-7-7.62-4.32,0-6.78,2.22-7,6.18h-6.31c.55-6.84,6.18-11,13.56-11,8.34,0,13.14,4,13,13.68,0,.78-.12,6.36-.12,7.74a60.15,60.15,0,0,0,.9,11.64h-6a27.85,27.85,0,0,1-.54-4.26c-1.92,3.24-5.58,5-10.8,5-6.53,0-11.52-3.6-11.52-9.48C355,27.72,364.25,25.62,376.79,24.3Zm-15,11.16c0,2.94,2.34,4.8,6.12,4.8,5.16,0,9.18-2.58,9.18-9V28.92C367.08,29.88,361.79,31.26,361.79,35.46Z"/><path d="M398.27,3.72V12h6.36v4.74h-6.36V35.16c0,3.3.54,4.14,3.66,4.14h2.64v5H400c-6.54,0-8-1.62-8-8.28V16.74h-4.92V12H392V3.72Z"/><path d="M430.55,24.3v-.66c0-5.7-3-7.62-7-7.62-4.32,0-6.78,2.22-7,6.18h-6.3c.54-6.84,6.18-11,13.56-11,8.34,0,13.14,4,13,13.68,0,.78-.12,6.36-.12,7.74a60.15,60.15,0,0,0,.9,11.64h-6a27.85,27.85,0,0,1-.54-4.26c-1.92,3.24-5.58,5-10.8,5-6.54,0-11.52-3.6-11.52-9.48C408.77,27.72,418,25.62,430.55,24.3Zm-15,11.16c0,2.94,2.34,4.8,6.12,4.8,5.16,0,9.18-2.58,9.18-9V28.92C420.83,29.88,415.55,31.26,415.55,35.46Z"/><line class="cls-1" y1="93.23" x2="474.85" y2="93.23"/><polygon points="466.82 120.65 514.32 93.22 466.82 65.8 466.82 120.65"/></g></g></svg>