<svg xmlns="http://www.w3.org/2000/svg" viewBox="0 0 1920 431.9"><defs><style>.cls-1{fill:#fff;}</style></defs><g id="Layer_2" data-name="Layer 2"><g id="Layer_1-2" data-name="Layer 1"><rect class="cls-1" width="1920" height="431.9"/><path d="M531.66,368.19c-1.32-7.32-7.92-12.36-16.08-12.36-9,0-17.28,7.08-17.28,22.8,0,16,8.4,23.16,17.28,23.16,7.92,0,14.88-4.68,16.56-12.36h12.6c-2.52,13.56-15.12,23-29.4,23-18.6,0-30.36-14.28-30.36-33.72,0-19.2,12.12-33.6,31.2-33.6,14.76,0,26,10.44,28,23Z"/><path d="M589.26,345.15c15.6,0,21.6,10.08,21.6,25.08v40.68H598.38V373.59c0-9.36-1.56-18-13.32-18-10.8,0-16.08,7.8-16.08,20.64v34.68H556.5v-87H569v31.8C572.7,349.35,579.18,345.15,589.26,345.15Z"/><path d="M653.46,412.47c-15.24,0-31.32-10.32-31.32-33.6s16.08-33.72,31.32-33.72,31.44,10.32,31.44,33.72S668.82,412.47,653.46,412.47Zm18.24-33.6c0-16.08-8.76-23.16-18.24-23.16s-18.12,6.84-18.12,23.16c0,16,8.76,23,18.12,23S671.7,394.59,671.7,378.87Z"/><path d="M725.34,412.47c-15.24,0-31.32-10.32-31.32-33.6s16.08-33.72,31.32-33.72,31.44,10.32,31.44,33.72S740.7,412.47,725.34,412.47Zm18.24-33.6c0-16.08-8.76-23.16-18.24-23.16s-18.12,6.84-18.12,23.16c0,16,8.76,23,18.12,23S743.58,394.59,743.58,378.87Z"/><path d="M791.34,355.11c-6.12,0-12.72,2.52-12.72,7.8,0,4.8,3.12,6.84,9,8l9.24,1.8c12.24,2.4,22.92,6.6,22.92,19.2,0,13.08-12.24,20.52-27.12,20.52-16.32,0-26.28-9.48-27.84-21.6h12.72c1.68,7.32,6.48,11.64,15.48,11.64,8,0,14.28-3.36,14.28-9.12,0-6-5.64-8.4-12.36-9.72l-9.72-1.92c-9.72-1.92-18.84-6.24-18.84-18.36,0-11.4,12-18.36,26.16-18.36,13,0,23.4,6.84,25.8,19.32H806C804.18,357.75,798.66,355.11,791.34,355.11Z"/><path d="M889,392c-3,10.68-12.6,20.52-29,20.52-20.88,0-32.16-15.24-32.16-34,0-20,13.44-33.36,31.8-33.36,19.92,0,31.56,16.32,30.24,37.32h-49.2c1.2,11.88,8.76,19.32,18.84,19.32,9,0,14.28-3.72,16.92-9.84ZM876.9,372.63c-.36-9.6-7.08-17.28-17.4-17.28-9.72,0-16.92,5-18.6,17.28Z"/><path d="M926.94,422h4.91c6.72,0,9.6-.48,12.72-9.72l.48-1.44-23.27-64.44h13.79l15.6,48.12,15.24-48.12h13l-22.8,66c-5.28,15.23-9.12,19.55-23.64,19.55h-6Z"/><path d="M1013.57,412.47c-15.24,0-31.31-10.32-31.31-33.6s16.07-33.72,31.31-33.72S1045,355.47,1045,378.87,1028.93,412.47,1013.57,412.47Zm18.24-33.6c0-16.08-8.76-23.16-18.24-23.16s-18.11,6.84-18.11,23.16c0,16,8.76,23,18.11,23S1031.81,394.59,1031.81,378.87Z"/><path d="M1077.65,412.47c-15.24,0-21.12-9.48-21.12-25.08v-41H1069V384c0,9.36,1.56,17.88,12.84,17.88,10.44,0,15.6-7.8,15.6-20.52v-35h12.48v64.56h-12.6v-9.12C1093.61,408.27,1087.37,412.47,1077.65,412.47Z"/><path d="M1153.73,358.83c-9.6,0-14.64,4.68-14.64,18.24v33.84h-12.48V346.35h12.24v11.4a19.28,19.28,0,0,1,17.88-11.64,33.72,33.72,0,0,1,3.48.12v13A62,62,0,0,0,1153.73,358.83Z"/><path d="M1254.89,392c-3,10.68-12.6,20.52-29,20.52-20.88,0-32.16-15.24-32.16-34,0-20,13.44-33.36,31.8-33.36,19.92,0,31.56,16.32,30.24,37.32h-49.2c1.2,11.88,8.76,19.32,18.84,19.32,9,0,14.28-3.72,16.92-9.84Zm-12.12-19.32c-.36-9.6-7.08-17.28-17.4-17.28-9.72,0-16.92,5-18.6,17.28Z"/><path d="M1264.13,422h4.92c6.72,0,9.6-.48,12.72-9.72l.48-1.44L1259,346.35h13.8l15.6,48.12,15.24-48.12h13l-22.8,66c-5.28,15.23-9.12,19.55-23.64,19.55h-6Z"/><path d="M1380.53,392c-3,10.68-12.6,20.52-29,20.52-20.88,0-32.16-15.24-32.16-34,0-20,13.44-33.36,31.8-33.36,19.92,0,31.56,16.32,30.24,37.32h-49.2c1.2,11.88,8.76,19.32,18.84,19.32,9,0,14.28-3.72,16.92-9.84Zm-12.12-19.32c-.36-9.6-7.08-17.28-17.4-17.28-9.72,0-16.92,5-18.6,17.28Z"/><path d="M1415.93,355.11c-6.12,0-12.72,2.52-12.72,7.8,0,4.8,3.12,6.84,9,8l9.24,1.8c12.24,2.4,22.92,6.6,22.92,19.2,0,13.08-12.24,20.52-27.12,20.52-16.32,0-26.28-9.48-27.84-21.6h12.72c1.68,7.32,6.48,11.64,15.48,11.64,8,0,14.28-3.36,14.28-9.12,0-6-5.64-8.4-12.36-9.72l-9.72-1.92c-9.72-1.92-18.84-6.24-18.84-18.36,0-11.4,12-18.36,26.16-18.36,13,0,23.4,6.84,25.8,19.32h-12.36C1428.77,357.75,1423.25,355.11,1415.93,355.11Z"/></g></g></svg>