<svg xmlns="http://www.w3.org/2000/svg" viewBox="0 0 586.54 293.35"><g id="Layer_2" data-name="Layer 2"><g id="Layer_1-2" data-name="Layer 1"><path d="M293.27,11c33.43,0,69.11,7.42,106.06,22C429.21,44.87,460,61.4,490.72,82.18a627,627,0,0,1,80.17,64.5,626.38,626.38,0,0,1-80.17,64.49C460,232,429.22,248.48,399.34,260.31c-36.95,14.63-72.64,22-106.07,22s-69.12-7.41-106.07-22c-29.88-11.83-60.63-28.36-91.39-49.14a626.08,626.08,0,0,1-80.16-64.49,625.92,625.92,0,0,1,80.16-64.5C126.57,61.4,157.32,44.87,187.2,33c37-14.62,72.64-22,106.07-22h0m0-11C140.26,0,0,146.68,0,146.68S140.26,293.35,293.27,293.35,586.54,146.68,586.54,146.68,446.28,0,293.27,0Z"/></g></g></svg>