<svg xmlns="http://www.w3.org/2000/svg" viewBox="0 0 1920 1080"><defs><style>.cls-1{fill:#fff;}</style></defs><g id="Layer_2" data-name="Layer 2"><g id="Layer_1-2" data-name="Layer 1"><rect class="cls-1" width="1920" height="1080"/><path d="M742.32,351.3H729.84V286.74h12.48v9.36c3.72-6.36,9.84-10.56,19.08-10.56,10,0,15.84,4.2,18.72,11.4a24.54,24.54,0,0,1,21.36-11.4c15.12,0,21,10.08,21,25.08V351.3H810V314c0-9.36-1.44-18-12.72-18-9.84,0-14.88,7.8-14.88,20.64V351.3H769.92V314c0-9.36-1.44-18-12.72-18-10,0-14.88,7.8-14.88,20.64Z"/><path d="M834.36,333.9c0-15.72,18.48-19.92,43.56-22.56V310c0-11.4-6-15.24-13.92-15.24-8.64,0-13.56,4.44-14,12.36h-12.6c1.08-13.68,12.36-22,27.12-22,16.68,0,26.28,8,26,27.36,0,1.56-.24,12.72-.24,15.48,0,9.6.6,17.52,1.8,23.28h-12a55.7,55.7,0,0,1-1.08-8.52c-3.84,6.48-11.16,10.08-21.6,10.08C844.32,352.86,834.36,345.66,834.36,333.9Zm44.16-13.32c-20,1.92-30.6,4.68-30.6,13.08,0,5.88,4.68,9.6,12.24,9.6,10.32,0,18.36-5.16,18.36-18Z"/><path d="M960.6,308.58H948.12c-1.32-7.32-7.92-12.36-16.08-12.36-9,0-17.28,7.08-17.28,22.8,0,16,8.4,23.16,17.28,23.16,7.92,0,14.88-4.68,16.56-12.36h12.6c-2.52,13.56-15.12,23-29.4,23-18.6,0-30.36-14.28-30.36-33.72,0-19.2,12.12-33.6,31.2-33.6C947.4,285.54,958.68,296,960.6,308.58Z"/><path d="M985.44,296.1c3.72-6.36,10.2-10.56,20.28-10.56,15.6,0,21.6,10.08,21.6,25.08V351.3h-12.48V314c0-9.36-1.56-18-13.32-18-10.8,0-16.08,7.8-16.08,20.64V351.3H973v-87h12.48Z"/><path d="M1055.4,264.3v13.8h-12.48V264.3Zm0,22.44V351.3h-12.48V286.74Z"/><path d="M1084.68,296.1c3.72-6.36,10.2-10.56,20.28-10.56,15.6,0,21.6,10.08,21.6,25.08V351.3h-12.48V314c0-9.36-1.56-18-13.32-18-10.8,0-16.08,7.8-16.08,20.64V351.3H1072.2V286.74h12.48Z"/><path d="M1186.32,332.34h12.6c-3,10.68-12.6,20.52-29,20.52-20.88,0-32.16-15.24-32.16-34,0-20,13.44-33.36,31.8-33.36,19.92,0,31.56,16.32,30.24,37.32h-49.2c1.2,11.88,8.76,19.32,18.84,19.32C1178.4,342.18,1183.68,338.46,1186.32,332.34ZM1150.8,313h36c-.36-9.6-7.08-17.28-17.4-17.28C1159.68,295.74,1152.48,300.78,1150.8,313Z"/><path d="M829.26,800.17l16.2-47.88h13l-23.88,64.56h-11.4l-24-64.56h13.8Z"/><path d="M879.3,729.85v13.8H866.82v-13.8Zm0,22.44v64.56H866.82V752.29Z"/><path d="M932.82,770.29c-1.8-6.6-7.32-9.24-14.64-9.24-6.12,0-12.72,2.52-12.72,7.8,0,4.8,3.12,6.84,9,8l9.24,1.8c12.24,2.4,22.92,6.6,22.92,19.2,0,13.08-12.24,20.52-27.12,20.52-16.32,0-26.28-9.48-27.84-21.6h12.72c1.68,7.32,6.48,11.64,15.48,11.64,8,0,14.28-3.36,14.28-9.12,0-6-5.64-8.4-12.36-9.72l-9.72-1.92c-9.72-1.92-18.84-6.24-18.84-18.36,0-11.4,12-18.36,26.16-18.36,13,0,23.4,6.84,25.8,19.32Z"/><path d="M971.58,729.85v13.8H959.1v-13.8Zm0,22.44v64.56H959.1V752.29Z"/><path d="M1046.82,784.81c0,23.28-16.08,33.6-31.44,33.6s-31.32-10.32-31.32-33.6,16.08-33.72,31.32-33.72S1046.82,761.41,1046.82,784.81Zm-31.44,23c9.48,0,18.24-7.32,18.24-23,0-16.08-8.76-23.16-18.24-23.16s-18.12,6.84-18.12,23.16C997.26,800.77,1006,807.85,1015.38,807.85Z"/><path d="M1071.78,761.65c3.72-6.36,10.2-10.56,20.28-10.56,15.6,0,21.6,10.08,21.6,25.08v40.68h-12.48V779.53c0-9.36-1.56-18-13.32-18-10.8,0-16.08,7.8-16.08,20.64v34.68H1059.3V752.29h12.48Z"/></g></g></svg>