<svg xmlns="http://www.w3.org/2000/svg" viewBox="0 0 470.01 88.56"><g id="Layer_2" data-name="Layer 2"><g id="Layer_1-2" data-name="Layer 1"><path d="M12.48,87H0V22.44H12.48V31.8c3.72-6.36,9.84-10.56,19.08-10.56,10,0,15.84,4.2,18.72,11.4a24.54,24.54,0,0,1,21.36-11.4c15.12,0,21,10.08,21,25.08V87H80.16V49.68c0-9.36-1.44-18-12.72-18-9.84,0-14.88,7.8-14.88,20.64V87H40.08V49.68c0-9.36-1.44-18-12.72-18-10,0-14.88,7.8-14.88,20.64Z"/><path d="M104.52,69.6c0-15.72,18.48-19.92,43.56-22.56V45.72c0-11.4-6-15.24-13.92-15.24-8.64,0-13.56,4.44-14,12.36h-12.6c1.08-13.68,12.36-22,27.12-22,16.68,0,26.28,8,26,27.36,0,1.56-.24,12.72-.24,15.48,0,9.6.6,17.52,1.8,23.28h-12a55.7,55.7,0,0,1-1.08-8.52C145.32,85,138,88.56,127.56,88.56,114.48,88.56,104.52,81.36,104.52,69.6Zm44.16-13.32c-20,1.92-30.6,4.68-30.6,13.08,0,5.88,4.68,9.6,12.24,9.6,10.32,0,18.36-5.16,18.36-18Z"/><path d="M230.76,44.28H218.28C217,37,210.36,31.92,202.2,31.92c-9,0-17.28,7.08-17.28,22.8,0,16,8.4,23.16,17.28,23.16,7.92,0,14.88-4.68,16.56-12.36h12.6c-2.52,13.56-15.12,23-29.4,23-18.6,0-30.36-14.28-30.36-33.72,0-19.2,12.12-33.6,31.2-33.6C217.56,21.24,228.84,31.68,230.76,44.28Z"/><path d="M255.6,31.8c3.72-6.36,10.2-10.56,20.28-10.56,15.6,0,21.6,10.08,21.6,25.08V87H285V49.68c0-9.36-1.56-18-13.32-18-10.8,0-16.08,7.8-16.08,20.64V87H243.12V0H255.6Z"/><path d="M325.56,0V13.8H313.08V0Zm0,22.44V87H313.08V22.44Z"/><path d="M354.83,31.8c3.72-6.36,10.21-10.56,20.28-10.56,15.6,0,21.6,10.08,21.6,25.08V87H384.23V49.68c0-9.36-1.56-18-13.31-18-10.8,0-16.09,7.8-16.09,20.64V87H342.36V22.44h12.47Z"/><path d="M456.47,68h12.6c-3,10.68-12.6,20.52-29,20.52-20.87,0-32.15-15.24-32.15-34,0-20,13.44-33.36,31.79-33.36,19.92,0,31.56,16.32,30.24,37.32H420.72c1.2,11.88,8.75,19.32,18.83,19.32C448.55,77.88,453.83,74.16,456.47,68ZM421,48.72h36c-.36-9.6-7.08-17.28-17.4-17.28C429.83,31.44,422.64,36.48,421,48.72Z"/></g></g></svg>