<svg xmlns="http://www.w3.org/2000/svg" viewBox="0 0 754.25 809.83"><g id="Layer_2" data-name="Layer 2"><g id="Layer_1-2" data-name="Layer 1"><path d="M7.87,785.72C5.79,788,4.48,791.25,6.42,793c1.76,1.63,3.57,1.17,6-.58l3.79-2.79c5-3.68,10.2-6.18,14.83-1.9,4.8,4.43,3.38,11.45-1.66,16.92-5.54,6-12.4,6.44-17.38,2.9l4.31-4.67c3.26,1.86,6.48,1.57,9.53-1.74,2.73-2.95,3.61-6.39,1.49-8.34s-5-.78-7.76,1.24l-4,2.92c-4,2.92-8.68,4.81-13.14.7-4.18-3.87-2.67-10.64,2.13-15.84C9,777.1,15,775.58,20.42,778.93l-4.19,4.55C13.19,781.9,10.35,783,7.87,785.72Z"/><path d="M19.59,760.2l-4.24,4.59-5.07-4.69,4.24-4.58ZM46.48,785l-4.24,4.58L18.53,767.72l4.23-4.59Z"/><path d="M52.18,778.86,28.46,757l4.23-4.58,3.44,3.17A10.36,10.36,0,0,1,38.72,745c3.38-3.66,6.92-4.4,10.54-3a12.27,12.27,0,0,1,3.06-11.71c5.12-5.56,10.82-4.3,16.33.79L83.6,744.82l-4.24,4.59L65.65,736.75c-3.44-3.17-7.1-5.57-10.92-1.43-3.34,3.61-2.19,8.11,2.53,12.47L70,759.55l-4.23,4.58L52.06,751.48C48.62,748.3,45,745.9,41.13,750c-3.38,3.66-2.18,8.11,2.54,12.47l12.74,11.76Z"/><path d="M96.34,732.17c-5.17,5.6-10.65,4.54-16.38-.75L64.89,717.5l4.23-4.58L83,725.7c3.44,3.17,7.1,5.49,10.92,1.35,3.54-3.84,2.43-8.38-2.24-12.69L78.76,702.47,83,697.89l23.71,21.89-4.27,4.63-3.35-3.09C100.21,724.88,99.64,728.6,96.34,732.17Z"/><path d="M112.37,713.66l-32-29.51,4.23-4.59,32,29.51Z"/><path d="M97.59,669.88l6.08,5.61,4.32-4.67,3.48,3.22-4.31,4.67,13.53,12.49c2.42,2.24,3.41,2.42,5.52.12l1.79-1.94,3.66,3.38-3.09,3.35c-4.44,4.81-6.6,4.77-11.5.25l-14.15-13.07-3.33,3.62-3.49-3.22,3.34-3.61-6.08-5.62Z"/><path d="M134.61,660.12l-.49-.45c-4.19-3.86-7.63-3-10.32,0-2.93,3.17-3,6.48-.22,9.35l-4.27,4.63c-4.66-5-3.88-12,1.13-17.41,5.66-6.13,11.86-6.93,18.88-.29.57.53,4.59,4.4,5.61,5.34a60.1,60.1,0,0,0,9.16,7.23L150,672.88a28.42,28.42,0,0,1-3.5-2.49c1.08,3.6-.08,7.51-3.62,11.35-4.44,4.81-10.46,6-14.78,2C122.35,678.44,127.07,670.23,134.61,660.12Zm-2,18.59c2.16,2,5.11,1.54,7.68-1.24,3.5-3.79,4.33-8.49-.39-12.85L138.2,663C132.11,671.05,129.55,675.86,132.63,678.71Z"/><path d="M145.72,629.06c5.29-5.73,11-4.51,16.54.57l15,13.8L173,648l-13.71-12.66c-3.43-3.18-7.14-5.53-11.13-1.21-3.66,4-2.58,8.55,2.13,12.9L163,658.82l-4.23,4.58-23.72-21.9,4.24-4.58,3.43,3.17C141.65,636.57,142.3,632.77,145.72,629.06Z"/><path d="M194.78,610.42c2.91,4.72,3.27,11.59-2.31,17.63-7.08,7.67-16.5,6.64-23.38.29-7.36-6.79-7.7-16.25-1.47-23,6.76-7.32,16.7-6.06,24,1.54L174.9,625c4.77,3.59,10.07,3.33,13.49-.37,3.05-3.31,3.47-6.51,2.12-9.55Zm-11.2-2.1c-3.65-3.13-8.75-3.26-12.25.53-3.3,3.57-3.89,7.92,0,12.69Z"/><path d="M216.12,602.44c-5.17,5.59-14.42,8-23,.1s-6.93-17.34-1.76-22.94,14.45-8.05,23.05-.11S221.33,596.79,216.12,602.44ZM210,584.34c-5.91-5.46-11.48-4.64-14.69-1.16s-3.64,9,2.36,14.52,11.43,4.59,14.61,1.15S215.74,589.67,210,584.34Z"/><path d="M237.85,578.89c-5.17,5.6-10.64,4.55-16.37-.74L206.4,564.23l4.23-4.59,13.84,12.78c3.44,3.18,7.1,5.49,10.93,1.35,3.54-3.84,2.42-8.38-2.25-12.69l-12.87-11.89,4.23-4.58,23.72,21.9L244,571.13,240.6,568C241.72,571.61,241.15,575.32,237.85,578.89Z"/><path d="M240.87,533.34c-2.07,2.25-3.38,5.53-1.44,7.32,1.76,1.63,3.57,1.17,6-.58l3.8-2.78c5-3.69,10.2-6.18,14.82-1.91,4.81,4.44,3.39,11.46-1.66,16.92-5.53,6-12.39,6.44-17.37,2.9l4.31-4.67c3.26,1.87,6.47,1.57,9.53-1.74,2.73-2.95,3.61-6.38,1.49-8.34s-5-.77-7.76,1.25l-4,2.92c-4,2.92-8.69,4.8-13.14.69-4.19-3.87-2.67-10.64,2.13-15.84,4.39-4.76,10.45-6.27,15.85-2.92l-4.2,4.54C246.2,529.52,243.36,530.65,240.87,533.34Z"/><path d="M284.78,526.92l-32-29.51,4.23-4.58,32,29.5Z"/><path d="M304.44,506.77c-5.17,5.6-14.42,8-23,.11s-6.93-17.34-1.76-22.94,14.45-8.05,23.05-.11S309.65,501.13,304.44,506.77Zm-6.16-18.09c-5.91-5.46-11.48-4.64-14.69-1.16S280,496.5,286,502s11.43,4.6,14.61,1.16S304.06,494,298.28,488.68Z"/><path d="M317.72,459.75c-3.14-2-7.23-1.28-10,1.72-3.06,3.3-3.26,8.74,2.51,14.08s11.36,4.77,14.37,1.5c2.69-2.91,3.33-7.05,1.07-10.27l4.28-4.63c4.13,5.52,3.33,13.37-1.51,18.61-6.31,6.84-15.54,6.31-22.68-.28s-8.24-15.85-1.76-22.86A13.88,13.88,0,0,1,322,455.17Z"/><path d="M340.63,437l-.49-.45c-4.18-3.86-7.63-3-10.31,0-2.94,3.17-3,6.48-.23,9.35l-4.27,4.63c-4.66-5-3.87-12,1.13-17.41,5.66-6.13,11.87-6.93,18.88-.29.58.53,4.59,4.4,5.61,5.34a60.59,60.59,0,0,0,9.16,7.23L356,449.73a28.44,28.44,0,0,1-3.49-2.49c1.07,3.61-.09,7.51-3.63,11.35-4.43,4.81-10.46,6-14.78,2C328.37,455.29,333.09,447.08,340.63,437Zm-2,18.59c2.16,2,5.12,1.54,7.68-1.24,3.5-3.79,4.33-8.49-.38-12.85l-1.72-1.59C338.14,447.9,335.57,452.71,338.65,455.56Z"/><path d="M364.79,440.25l-32-29.51,4.24-4.58,32,29.51Z"/><path d="M352.07,400.08l-4.24,4.59L342.76,400,347,395.4ZM379,424.91l-4.24,4.58L351,407.6l4.23-4.59Z"/><path d="M375.27,388.84l-11.4,12.34-3.75-3.46,16.53-17.89,3.74,3.46,4,28.2L396.86,398l3.75,3.46L383,420.5,379.28,417Z"/><path d="M403.23,369.17l-.49-.45c-4.19-3.87-7.63-3-10.32-.05-2.93,3.17-3,6.48-.22,9.35l-4.27,4.62c-4.66-5-3.88-12,1.13-17.41,5.66-6.12,11.87-6.92,18.88-.28.57.53,4.59,4.4,5.61,5.34a60.1,60.1,0,0,0,9.16,7.23l-4.07,4.41a28.42,28.42,0,0,1-3.5-2.49c1.08,3.6-.08,7.51-3.62,11.35-4.44,4.8-10.46,6-14.78,2C391,387.49,395.69,379.28,403.23,369.17Zm-2,18.59c2.16,2,5.12,1.54,7.68-1.24,3.5-3.79,4.33-8.5-.39-12.85l-1.71-1.59C400.73,380.1,398.17,384.91,401.25,387.76Z"/><path d="M402.68,339.43l6.08,5.61,4.32-4.67,3.48,3.21-4.32,4.68,13.54,12.49c2.42,2.24,3.41,2.41,5.52.12l1.79-1.94,3.66,3.38-3.09,3.35c-4.44,4.81-6.6,4.77-11.5.25L408,352.84l-3.34,3.62-3.48-3.22,3.34-3.61L398.45,344Z"/><path d="M418.65,328l-4.23,4.59-5.07-4.68,4.23-4.59Zm26.89,24.83-4.23,4.58-23.72-21.89,4.24-4.59Z"/><path d="M461,337.23c-5.17,5.6-14.41,8-23,.11s-6.94-17.34-1.77-22.94,14.45-8,23.05-.12S466.18,331.59,461,337.23Zm-6.16-18.1c-5.9-5.45-11.48-4.63-14.69-1.15s-3.63,9,2.36,14.51,11.44,4.6,14.61,1.16S460.59,324.46,454.81,319.13Z"/><path d="M462.25,286.23c5.29-5.73,11-4.52,16.54.57l14.94,13.79-4.23,4.59-13.71-12.66c-3.44-3.17-7.14-5.53-11.13-1.21-3.66,4-2.59,8.55,2.13,12.91L479.53,316l-4.24,4.58-23.71-21.89,4.23-4.59,3.44,3.18C458.17,293.73,458.83,289.93,462.25,286.23Z"/><path d="M507.34,256.4l-.49-.44c-4.19-3.87-7.63-3-10.32-.06-2.93,3.18-3,6.49-.22,9.35L492,269.88c-4.66-5-3.88-12,1.13-17.41,5.66-6.13,11.87-6.93,18.88-.29.57.53,4.59,4.4,5.61,5.34a60.26,60.26,0,0,0,9.16,7.24l-4.07,4.4a27.36,27.36,0,0,1-3.5-2.49c1.08,3.61-.08,7.52-3.62,11.35-4.44,4.81-10.46,6-14.78,2C495.08,274.73,499.8,266.51,507.34,256.4Zm-2,18.6c2.16,2,5.12,1.53,7.68-1.25,3.5-3.79,4.33-8.49-.39-12.85l-1.71-1.58C504.84,267.33,502.28,272.15,505.36,275Z"/><path d="M518.45,225.35c5.3-5.73,11-4.52,16.54.57l15,13.8-4.24,4.58L532,231.64c-3.44-3.17-7.15-5.53-11.13-1.21-3.67,4-2.59,8.55,2.12,12.91l12.74,11.76-4.23,4.58-23.72-21.89L512,233.2l3.44,3.18C514.38,232.85,515,229.05,518.45,225.35Z"/><path d="M542.28,183.89l32,29.51L570,218l-3.35-3.09c1.08,3.69.3,7.55-2.91,11-5.09,5.51-14.07,6-21.83-1.21s-8-16.11-2.9-21.63c3.21-3.48,7-4.56,10.76-3.78L538,188.48Zm4.15,35.92c5.33,4.93,11,5.3,14.45,1.51,3.26-3.53,3.33-9-2.53-14.42s-11.27-4.86-14.53-1.33C540.32,209.36,541.09,214.89,546.43,219.81Z"/><path d="M589.46,196.91,565.74,175l4.23-4.58,3.44,3.17A10.37,10.37,0,0,1,576,163c3.37-3.66,6.91-4.39,10.53-3a12.27,12.27,0,0,1,3.06-11.71c5.13-5.56,10.82-4.3,16.33.79l15,13.8-4.23,4.58L602.94,154.8c-3.44-3.17-7.1-5.57-10.93-1.43-3.34,3.62-2.18,8.11,2.54,12.47l12.73,11.76-4.23,4.59-13.71-12.66c-3.44-3.18-7.1-5.58-10.92-1.43-3.38,3.65-2.19,8.11,2.53,12.46l12.74,11.76Z"/><path d="M625,129l-.48-.45c-4.19-3.87-7.63-3-10.32-.06-2.93,3.18-3,6.49-.22,9.35l-4.28,4.63c-4.66-5-3.87-12,1.14-17.41,5.65-6.13,11.86-6.92,18.88-.28.57.52,4.59,4.4,5.6,5.33a60.27,60.27,0,0,0,9.17,7.24l-4.07,4.41a27.62,27.62,0,0,1-3.5-2.5c1.08,3.61-.08,7.52-3.62,11.36-4.44,4.8-10.46,6-14.78,2C612.74,147.28,617.47,139.07,625,129Zm-2,18.59c2.16,2,5.11,1.53,7.68-1.24,3.5-3.79,4.33-8.5-.39-12.85l-1.72-1.59C622.51,139.88,619.94,144.7,623,147.55Z"/><path d="M633.17,109c-1.09-3.69-.31-7.54,2.91-11,5.09-5.51,14.07-6,21.79,1.17s8,16.16,2.94,21.67c-3.21,3.48-7,4.56-10.76,3.78l11.06,10.22-4.23,4.58-31.43-29,4.23-4.58Zm20.18-5c-5.34-4.93-10.91-5.26-14.41-1.47-3.26,3.53-3.38,9,2.48,14.38s11.32,4.9,14.58,1.37C659.5,114.5,658.68,108.93,653.35,104Z"/><path d="M657.87,82.21c-1.08-3.69-.3-7.54,2.91-11,5.09-5.51,14.08-6,21.79,1.16s8,16.16,2.94,21.67c-3.21,3.48-7,4.56-10.76,3.78L685.82,108l-4.23,4.58-31.43-29L654.39,79Zm20.18-5c-5.33-4.93-10.91-5.26-14.41-1.47-3.25,3.53-3.38,9,2.49,14.38s11.32,4.9,14.57,1.37C684.2,87.74,683.39,82.17,678.05,77.25Z"/><path d="M675.92,49.31l-4.23,4.58-5.07-4.68,4.23-4.58Zm26.89,24.83-4.23,4.58-23.72-21.9,4.23-4.58Z"/><path d="M695.46,33.63c5.29-5.73,11-4.52,16.54.57L726.94,48l-4.23,4.59L709,39.92c-3.44-3.17-7.14-5.53-11.13-1.21-3.66,4-2.59,8.55,2.13,12.91l12.74,11.76L708.51,68,684.79,46.07,689,41.48l3.44,3.18C691.39,41.13,692,37.33,695.46,33.63Z"/><path d="M727.32,0l20.94,19.33c4.37,4,5.85,7.11,6,10.25.23,3.56-1.45,7.32-4.78,10.93-4.89,5.29-10.76,7.06-16.43,3.21L737.37,39c2.61,1.51,5.15,1.32,8.32-2.11,2.08-2.25,2.89-4.37,2.68-6.35s-1-3.49-3.37-5.73l-2.51-2.32c1.08,3.7.38,7.46-2.84,10.94-5.08,5.51-13.68,6.07-21.22-.89s-7.62-15.53-2.54-21C719.11,8,722.8,7,726.57,7.8l-3.48-3.22ZM723,27.65c5.16,4.76,10.43,5.06,13.93,1.27,3.26-3.53,3.48-8.72-2.21-14s-10.75-4.54-14-1C717.16,17.73,717.88,23,723,27.65Z"/></g></g></svg>