<svg xmlns="http://www.w3.org/2000/svg" viewBox="0 0 314.51 88.56"><g id="Layer_2" data-name="Layer 2"><g id="Layer_1-2" data-name="Layer 1"><path d="M30.12,70.32l16.2-47.88h13L35.4,87H24L0,22.44H13.8Z"/><path d="M80.16,0V13.8H67.68V0Zm0,22.44V87H67.68V22.44Z"/><path d="M133.67,40.44c-1.79-6.6-7.31-9.24-14.63-9.24-6.12,0-12.72,2.52-12.72,7.8,0,4.8,3.12,6.84,9,8l9.23,1.8c12.24,2.4,22.92,6.6,22.92,19.2,0,13.08-12.24,20.52-27.11,20.52C104,88.56,94.08,79.08,92.52,67h12.72c1.68,7.32,6.48,11.64,15.47,11.64,8,0,14.29-3.36,14.29-9.12,0-6-5.64-8.4-12.37-9.72l-9.71-1.92c-9.72-1.92-18.84-6.24-18.84-18.36,0-11.4,12-18.36,26.16-18.36,13,0,23.39,6.84,25.79,19.32Z"/><path d="M172.44,0V13.8H160V0Zm0,22.44V87H160V22.44Z"/><path d="M247.67,55c0,23.28-16.08,33.6-31.44,33.6S184.92,78.24,184.92,55,201,21.24,216.23,21.24,247.67,31.56,247.67,55ZM216.23,78c9.48,0,18.24-7.32,18.24-23,0-16.08-8.76-23.16-18.24-23.16S198.11,38.64,198.11,55C198.11,70.92,206.87,78,216.23,78Z"/><path d="M272.63,31.8c3.72-6.36,10.2-10.56,20.28-10.56,15.6,0,21.6,10.08,21.6,25.08V87H302V49.68c0-9.36-1.56-18-13.32-18-10.8,0-16.08,7.8-16.08,20.64V87H260.15V22.44h12.48Z"/></g></g></svg>