<svg xmlns="http://www.w3.org/2000/svg" viewBox="0 0 609.06 120.65"><defs><style>.cls-1{fill:none;stroke:#000;stroke-miterlimit:10;stroke-width:11px;}</style></defs><g id="Layer_2" data-name="Layer 2"><g id="Layer_1-2" data-name="Layer 1"><path d="M13.44,24.18h-1.5V18.72H13.2c7.2,0,10.86-2.16,10.86-7C24.06,7.2,20.4,5,16,5c-5.52,0-8.58,3.36-9.18,8.4H.6C1.26,5.4,6.9,0,16.32,0,23.7,0,30.6,3.12,30.6,11.22a10.72,10.72,0,0,1-6.78,10c5.88,2,7.92,6.3,7.92,10.8,0,8.82-7.5,13.08-16,13.08C5.58,45.06.54,38.58,0,31.14H6.24c.66,5,3.66,8.88,9.6,8.88,5.4,0,9.36-2.88,9.36-7.92C25.2,26.16,20.16,24.18,13.44,24.18Z"/><path d="M36.6,36.78h7.5v7.5H36.6Z"/><path d="M85.74,24.3v-.66c0-5.7-3-7.62-7-7.62-4.32,0-6.78,2.22-7,6.18h-6.3c.54-6.84,6.18-11,13.56-11,8.34,0,13.14,4,13,13.68,0,.78-.12,6.36-.12,7.74a60.15,60.15,0,0,0,.9,11.64h-6A27.85,27.85,0,0,1,86.28,40c-1.92,3.24-5.58,5-10.8,5-6.54,0-11.52-3.6-11.52-9.48C64,27.72,73.2,25.62,85.74,24.3Zm-15,11.16c0,2.94,2.34,4.8,6.12,4.8,5.16,0,9.18-2.58,9.18-9V28.92C76,29.88,70.74,31.26,70.74,35.46Z"/><path d="M106,16.74c2-3.3,5.34-5.34,10.08-5.34,7.5,0,13.92,6.3,13.92,16.8S123.54,45.06,116,45.06c-4.74,0-8.1-2-10.08-5.34V54.78H99.72V12H106ZM123.3,28.2c0-7.26-3.54-11.58-8.7-11.58-4.8,0-8.88,3.6-8.88,11.58s4.08,11.64,8.88,11.64C119.76,39.84,123.3,35.46,123.3,28.2Z"/><path d="M142.38,16.74c2-3.3,5.34-5.34,10.08-5.34,7.5,0,13.92,6.3,13.92,16.8S160,45.06,152.46,45.06c-4.74,0-8.1-2-10.08-5.34V54.78h-6.24V12h6.24ZM159.72,28.2c0-7.26-3.54-11.58-8.7-11.58-4.8,0-8.88,3.6-8.88,11.58s4.08,11.64,8.88,11.64C156.18,39.84,159.72,35.46,159.72,28.2Z"/><path d="M172.56,44.28V.78h6.24v43.5Z"/><path d="M185.58,49.8H188c3.36,0,4.8-.24,6.36-4.86l.24-.72L183,12h6.9l7.8,24.06L205.32,12h6.48L200.4,45c-2.64,7.62-4.56,9.78-11.82,9.78h-3Z"/><path d="M237.54,3.72V12h6.36v4.74h-6.36V35.16c0,3.3.54,4.14,3.66,4.14h2.64v5h-4.56c-6.54,0-8-1.62-8-8.28V16.74h-4.92V12h4.92V3.72Z"/><path d="M278,34.8c-1.5,5.34-6.3,10.26-14.52,10.26-10.44,0-16.08-7.62-16.08-17,0-10,6.72-16.68,15.9-16.68,10,0,15.78,8.16,15.12,18.66h-24.6c.6,5.94,4.38,9.66,9.42,9.66,4.5,0,7.14-1.86,8.46-4.92ZM272,25.14c-.18-4.8-3.54-8.64-8.7-8.64-4.86,0-8.46,2.52-9.3,8.64Z"/><path d="M306,22.92c-.66-3.66-4-6.18-8-6.18-4.5,0-8.64,3.54-8.64,11.4s4.2,11.58,8.64,11.58c4,0,7.43-2.34,8.27-6.18h6.3c-1.26,6.78-7.56,11.52-14.69,11.52-9.3,0-15.18-7.14-15.18-16.86s6.06-16.8,15.6-16.8a13.88,13.88,0,0,1,14,11.52Z"/><path d="M334.79,11.4c7.8,0,10.8,5,10.8,12.54V44.28h-6.24V25.62c0-4.68-.78-9-6.66-9-5.4,0-8,3.9-8,10.32V44.28h-6.23V.78h6.23v15.9C326.51,13.5,329.75,11.4,334.79,11.4Z"/><path d="M369.77,11.4c7.8,0,10.8,5,10.8,12.54V44.28h-6.24V25.62c0-4.68-.78-9-6.66-9-5.4,0-8,3.9-8,10.32V44.28h-6.24V12h6.24v4.68C361.49,13.5,364.73,11.4,369.77,11.4Z"/><path d="M401.87,45.06c-7.61,0-15.65-5.16-15.65-16.8s8-16.86,15.65-16.86,15.72,5.16,15.72,16.86S409.55,45.06,401.87,45.06ZM411,28.26c0-8-4.38-11.58-9.12-11.58s-9.06,3.42-9.06,11.58c0,8,4.38,11.52,9.06,11.52S411,36.12,411,28.26Z"/><path d="M423.83,44.28V.78h6.24v43.5Z"/><path d="M452,45.06c-7.62,0-15.66-5.16-15.66-16.8s8-16.86,15.66-16.86,15.72,5.16,15.72,16.86S459.65,45.06,452,45.06Zm9.12-16.8c0-8-4.38-11.58-9.12-11.58s-9.06,3.42-9.06,11.58c0,8,4.38,11.52,9.06,11.52S461.09,36.12,461.09,28.26Z"/><path d="M502.13,12V40.5c0,5.94-1.26,9.12-3.48,11.34-2.46,2.58-6.36,3.9-11.28,3.9-7.2,0-12.48-3.12-13.5-9.9h6.42c.66,2.94,2.52,4.68,7.2,4.68,3.06,0,5.16-.84,6.48-2.34s1.92-3.06,1.92-6.36V38.4c-2,3.3-5.22,5.34-10,5.34-7.5,0-13.74-5.94-13.74-16.2s6.24-16.14,13.74-16.14c4.74,0,8,2,10,5.34V12ZM478.85,27.54c0,7,3.36,11.1,8.52,11.1,4.8,0,8.76-3.36,8.76-11.1s-4-11-8.76-11C482.21,16.56,478.85,20.64,478.85,27.54Z"/><path d="M508.85,49.8h2.46c3.36,0,4.8-.24,6.36-4.86l.24-.72L506.27,12h6.9L521,36.06,528.59,12h6.48l-11.4,33c-2.64,7.62-4.56,9.78-11.82,9.78h-3Z"/><line class="cls-1" y1="93.23" x2="569.59" y2="93.23"/><polygon points="561.56 120.65 609.06 93.22 561.56 65.8 561.56 120.65"/></g></g></svg>