<svg xmlns="http://www.w3.org/2000/svg" viewBox="0 0 1920 1287.27"><defs><style>.cls-1{fill:#fff;}.cls-2{fill:none;stroke:#000;stroke-miterlimit:10;stroke-width:11px;}</style></defs><g id="Layer_2" data-name="Layer 2"><g id="Layer_1-2" data-name="Layer 1"><rect class="cls-1" width="1920" height="1286.51"/><path d="M738.42,346.85h-6.24V340h6.24Zm0,36.6h-6.24V351.17h6.24Z"/><path d="M746.82,383.45V351.17h6.24v4.68a10.36,10.36,0,0,1,9.54-5.28c5,0,7.92,2.1,9.36,5.7a12.27,12.27,0,0,1,10.68-5.7c7.56,0,10.5,5,10.5,12.54v20.34H786.9V364.79c0-4.68-.72-9-6.36-9-4.92,0-7.44,3.9-7.44,10.32v17.34h-6.24V364.79c0-4.68-.72-9-6.36-9-5,0-7.44,3.9-7.44,10.32v17.34Z"/><path d="M820.86,363.47v-.66c0-5.7-3-7.62-7-7.62-4.32,0-6.78,2.22-7,6.18h-6.3c.54-6.84,6.18-11,13.56-11,8.34,0,13.14,4,13,13.68,0,.78-.12,6.36-.12,7.74a60.15,60.15,0,0,0,.9,11.64h-6a27.85,27.85,0,0,1-.54-4.26c-1.92,3.24-5.58,5-10.8,5-6.54,0-11.52-3.6-11.52-9.48C799.08,366.89,808.32,364.79,820.86,363.47Zm-15,11.16c0,2.94,2.34,4.8,6.12,4.8,5.16,0,9.18-2.58,9.18-9v-2.34C811.14,369.05,805.86,370.43,805.86,374.63Z"/><path d="M862.56,351.17v28.5c0,5.94-1.26,9.12-3.48,11.34-2.46,2.58-6.36,3.9-11.28,3.9-7.2,0-12.48-3.12-13.5-9.9h6.42c.66,2.94,2.52,4.68,7.2,4.68,3.06,0,5.16-.84,6.48-2.34s1.92-3.06,1.92-6.36v-3.42c-2,3.3-5.22,5.34-10,5.34-7.5,0-13.74-5.94-13.74-16.2s6.24-16.14,13.74-16.14c4.74,0,8,2,10,5.34v-4.74Zm-23.28,15.54c0,7,3.36,11.1,8.52,11.1,4.8,0,8.76-3.36,8.76-11.1s-4-11-8.76-11C842.64,355.73,839.28,359.81,839.28,366.71Z"/><path d="M899.28,374c-1.5,5.34-6.3,10.26-14.52,10.26-10.44,0-16.08-7.62-16.08-17,0-10,6.72-16.68,15.9-16.68,10,0,15.78,8.16,15.12,18.66H875.1c.6,5.94,4.38,9.66,9.42,9.66,4.5,0,7.14-1.86,8.46-4.92Zm-6.06-9.66c-.18-4.8-3.54-8.64-8.7-8.64-4.86,0-8.46,2.52-9.3,8.64Z"/><path d="M930.9,355.55c-3.06,0-6.36,1.26-6.36,3.9,0,2.4,1.56,3.42,4.5,4l4.62.9c6.12,1.2,11.46,3.3,11.46,9.6,0,6.54-6.12,10.26-13.56,10.26-8.16,0-13.14-4.74-13.92-10.8H924c.84,3.66,3.24,5.82,7.74,5.82,4,0,7.14-1.68,7.14-4.56s-2.82-4.2-6.18-4.86l-4.86-1c-4.86-1-9.42-3.12-9.42-9.18,0-5.7,6-9.18,13.08-9.18,6.48,0,11.7,3.42,12.9,9.66h-6.18C937.32,356.87,934.56,355.55,930.9,355.55Z"/><path d="M979.74,374c-1.5,5.34-6.3,10.26-14.52,10.26-10.44,0-16.08-7.62-16.08-17,0-10,6.72-16.68,15.9-16.68,10,0,15.78,8.16,15.12,18.66h-24.6c.6,5.94,4.38,9.66,9.42,9.66,4.5,0,7.14-1.86,8.46-4.92Zm-6.06-9.66c-.18-4.8-3.54-8.64-8.7-8.64-4.86,0-8.46,2.52-9.3,8.64Z"/><path d="M1014.6,351.17V394h-6.24V378.89c-2,3.3-5.34,5.34-10.08,5.34-7.5,0-13.92-6.3-13.92-16.86s6.42-16.8,13.92-16.8c4.74,0,8.1,2,10.08,5.34v-4.74ZM991,367.37c0,7.26,3.54,11.64,8.7,11.64,4.8,0,8.88-3.66,8.88-11.64s-4.08-11.58-8.88-11.58C994.56,355.79,991,360.11,991,367.37Z"/><path d="M1033.08,384.23c-7.62,0-10.56-4.74-10.56-12.54V351.17h6.24V370c0,4.68.78,8.94,6.42,8.94,5.22,0,7.8-3.9,7.8-10.26V351.17h6.24v32.28h-6.3v-4.56C1041.06,382.13,1037.94,384.23,1033.08,384.23Z"/><path d="M1085.94,374c-1.5,5.34-6.3,10.26-14.52,10.26-10.44,0-16.08-7.62-16.08-17,0-10,6.72-16.68,15.9-16.68,10,0,15.78,8.16,15.12,18.66h-24.6c.6,5.94,4.38,9.66,9.42,9.66,4.5,0,7.14-1.86,8.46-4.92Zm-6.06-9.66c-.18-4.8-3.54-8.64-8.7-8.64-4.86,0-8.46,2.52-9.3,8.64Z"/><path d="M1108.86,350.57c7.8,0,10.8,5,10.8,12.54v20.34h-6.24V364.79c0-4.68-.78-9-6.66-9-5.4,0-8,3.9-8,10.32v17.34h-6.24V351.17h6.24v4.68C1100.58,352.67,1103.82,350.57,1108.86,350.57Z"/><path d="M1148.58,362.09c-.66-3.66-4-6.18-8-6.18-4.5,0-8.64,3.54-8.64,11.4s4.2,11.58,8.64,11.58c4,0,7.44-2.34,8.28-6.18h6.3c-1.26,6.78-7.56,11.52-14.7,11.52-9.3,0-15.18-7.14-15.18-16.86s6.06-16.8,15.6-16.8a13.89,13.89,0,0,1,14,11.52Z"/><path d="M1189.68,374c-1.5,5.34-6.3,10.26-14.52,10.26-10.44,0-16.08-7.62-16.08-17,0-10,6.72-16.68,15.9-16.68,10,0,15.77,8.16,15.12,18.66h-24.6c.6,5.94,4.38,9.66,9.42,9.66,4.5,0,7.14-1.86,8.46-4.92Zm-6.06-9.66c-.18-4.8-3.54-8.64-8.7-8.64-4.86,0-8.46,2.52-9.3,8.64Z"/><path d="M255.5,1253.46h-9.9v-4.19c6.3-.23,9.42-.88,11.7-5.54h4.5v42.78h-6.3Z"/><path d="M376.69,1281h23.4v5.55h-31.5v-5.32c14.94-11.15,23.82-18.94,23.82-26.31,0-4.31-2.94-7-7.62-7-4.44,0-8.7,2.47-8.76,9.38h-6.36c-.12-8.56,5.94-14.28,15.3-14.28,8,0,14,4,14,11.27C399,1263.61,389.35,1272.17,376.69,1281Z"/><path d="M509.81,1266.74h-1.5v-5.37h1.26c7.2,0,10.86-2.13,10.86-6.85,0-4.48-3.66-6.66-8-6.66-5.52,0-8.58,3.3-9.18,8.26H497c.66-7.85,6.3-13.16,15.72-13.16,7.38,0,14.28,3.07,14.28,11a10.55,10.55,0,0,1-6.78,9.8c5.88,1.94,7.92,6.19,7.92,10.62,0,8.67-7.5,12.86-16,12.86-10.14,0-15.18-6.37-15.72-13.69h6.24c.66,5,3.66,8.74,9.6,8.74,5.4,0,9.36-2.84,9.36-7.79C521.57,1268.69,516.53,1266.74,509.81,1266.74Z"/><path d="M651.12,1276.18v10.33h-6.3v-10.33H623.29v-5.43l21.53-27h6.3v26.9h7.8v5.55Zm-6.3-5.55v-18.7l-14.64,18.7Z"/><path d="M769.22,1262.84c-4.26,0-7.2,2.31-8.16,4.61l-6.06-.36,2.88-23.36h25.44v5.6H763l-1.44,11.45a13.77,13.77,0,0,1,9.18-3c7.56,0,14.34,5.13,14.34,14.69s-7.44,14.75-15.78,14.75c-10.08,0-14.94-6.37-15.66-13.51h6.24c.72,5.19,3.6,8.56,9.48,8.56,5,0,9.18-3.54,9.18-9.74C778.52,1265.85,773.78,1262.84,769.22,1262.84Z"/><path d="M899.43,1258c8,0,14.22,5.84,14.22,14.57,0,8.26-6.24,14.69-15.54,14.69-11,0-16.08-7.9-16.08-20.77,0-12.21,4.5-23.54,17.16-23.54,8.76,0,13,5.49,13.68,11.09h-6.54c-.6-4-3.6-6.19-7.74-6.19-6.36,0-9.9,6.25-10.14,15.63C890.43,1260.43,894,1258,899.43,1258Zm7.68,14.81c0-5.79-3.72-9.68-9-9.68s-9.06,3.89-9.06,9.68,3.66,9.5,9,9.5S907.11,1278.54,907.11,1272.82Z"/><path d="M1041.68,1243.73v5.6c-10.86,9.38-17.22,21.3-18.18,37.18h-7.32c.84-15.23,8.1-28,18.6-37.18H1011v-5.6Z"/><path d="M1163.46,1263.73a11.1,11.1,0,0,1,7.08,10.68c0,8.26-7,12.86-16,12.86s-16-4.6-16-12.86a11.17,11.17,0,0,1,7.14-10.68,11.08,11.08,0,0,1-5.76-9.85c0-6.32,5.64-10.92,14.64-10.92s14.7,4.6,14.7,10.92A11,11,0,0,1,1163.46,1263.73Zm-8.94,18.59c5.76,0,9.48-3.07,9.48-8s-3.72-8.14-9.48-8.14-9.42,3.24-9.42,8.14S1148.76,1282.32,1154.52,1282.32Zm-8.46-27.68c0,4.19,3.42,7.2,8.46,7.2s8.46-3,8.46-7.2-3.36-6.78-8.46-6.78S1146.06,1250.51,1146.06,1254.64Z"/><path d="M1281.13,1272.23c-8,0-14.22-5.85-14.22-14.64,0-8.2,6.24-14.63,15.54-14.63,11,0,16.08,7.91,16.08,20.77,0,12.21-4.56,23.54-17.16,23.54-8.76,0-13-5.49-13.68-11.09h6.54c.6,4,3.54,6.14,7.74,6.14,6.3,0,9.9-6.2,10.14-15.58C1290.13,1269.81,1286.47,1272.23,1281.13,1272.23Zm-7.68-14.81c0,5.78,3.72,9.67,9,9.67s9-3.89,9-9.67-3.6-9.56-8.94-9.56S1273.45,1251.63,1273.45,1257.42Z"/><path d="M1390.92,1253.46H1381v-4.19c6.3-.23,9.42-.88,11.7-5.54h4.5v42.78h-6.3Z"/><path d="M1422.12,1243c11.64,0,17.1,8.79,17.1,22.13s-5.46,22.18-17.1,22.18-17.1-8.79-17.1-22.18S1410.54,1243,1422.12,1243Zm0,4.9c-6.54,0-10.5,5.9-10.5,17.23s4,17.23,10.5,17.23,10.5-5.85,10.5-17.23S1428.72,1247.86,1422.12,1247.86Z"/><path d="M1527.58,1253.46h-9.9v-4.19c6.3-.23,9.42-.88,11.7-5.54h4.5v42.78h-6.3Z"/><path d="M1550.5,1253.46h-9.9v-4.19c6.3-.23,9.42-.88,11.7-5.54h4.5v42.78h-6.3Z"/><line class="cls-2" x1="256.1" y1="1130.62" x2="256.1" y2="457.44"/><polygon points="283.53 1122.6 256.1 1170.09 228.68 1122.6 283.53 1122.6"/><line class="cls-2" x1="384.46" y1="1130.62" x2="384.46" y2="457.44"/><polygon points="411.88 1122.6 384.46 1170.09 357.03 1122.6 411.88 1122.6"/><line class="cls-2" x1="512.81" y1="1130.62" x2="512.81" y2="457.44"/><polygon points="540.24 1122.6 512.81 1170.09 485.39 1122.6 540.24 1122.6"/><line class="cls-2" x1="641.16" y1="1130.62" x2="641.16" y2="457.44"/><polygon points="668.59 1122.6 641.16 1170.09 613.74 1122.6 668.59 1122.6"/><line class="cls-2" x1="769.52" y1="1130.62" x2="769.52" y2="457.44"/><polygon points="796.94 1122.6 769.52 1170.09 742.09 1122.6 796.94 1122.6"/><line class="cls-2" x1="897.87" y1="1130.62" x2="897.87" y2="457.44"/><polygon points="925.3 1122.6 897.87 1170.09 870.45 1122.6 925.3 1122.6"/><line class="cls-2" x1="1026.23" y1="1130.62" x2="1026.23" y2="457.44"/><polygon points="1053.65 1122.6 1026.23 1170.09 998.8 1122.6 1053.65 1122.6"/><line class="cls-2" x1="1154.58" y1="1130.62" x2="1154.58" y2="457.44"/><polygon points="1182.01 1122.6 1154.58 1170.09 1127.16 1122.6 1182.01 1122.6"/><line class="cls-2" x1="1282.93" y1="1130.62" x2="1282.93" y2="457.44"/><polygon points="1310.36 1122.6 1282.93 1170.09 1255.51 1122.6 1310.36 1122.6"/><line class="cls-2" x1="1411.29" y1="1130.62" x2="1411.29" y2="457.44"/><polygon points="1438.71 1122.6 1411.29 1170.09 1383.86 1122.6 1438.71 1122.6"/><line class="cls-2" x1="1539.64" y1="1130.62" x2="1539.64" y2="457.44"/><polygon points="1567.07 1122.6 1539.64 1170.09 1512.22 1122.6 1567.07 1122.6"/><line class="cls-2" x1="1668" y1="1247.04" x2="1668" y2="457.44"/><polygon points="1695.42 1239.01 1668 1286.51 1640.57 1239.01 1695.42 1239.01"/></g></g></svg>