<svg xmlns="http://www.w3.org/2000/svg" viewBox="0 0 1920 1300.55"><defs><style>.cls-1{fill:#fff;}.cls-2{font-size:60px;}.cls-2,.cls-5,.cls-6{font-family:SuisseIntl-Book, Suisse Intl;}.cls-3{letter-spacing:0em;}.cls-4{letter-spacing:0em;}.cls-5,.cls-6{font-size:59px;}.cls-6{letter-spacing:0.02em;}.cls-7{letter-spacing:0em;}.cls-8{fill:none;stroke:#000;stroke-miterlimit:10;stroke-width:11px;}</style></defs><g id="Layer_2" data-name="Layer 2"><g id="Layer_1-2" data-name="Layer 1"><rect class="cls-1" width="1920" height="1170.09"/><text class="cls-2" transform="translate(727.98 383.45)">image s<tspan class="cls-3" x="219.18" y="0">e</tspan><tspan x="254.4" y="0">quen</tspan><tspan class="cls-4" x="395.27" y="0">c</tspan><tspan x="429.11" y="0">e</tspan></text><text class="cls-5" transform="translate(245.24 1286.51) scale(1.02 1)">1</text><text class="cls-5" transform="translate(366.97 1286.51) scale(1.02 1)">2</text><text class="cls-5" transform="translate(494.99 1286.51) scale(1.02 1)">3</text><text class="cls-5" transform="translate(622.51 1286.51) scale(1.02 1)">4</text><text class="cls-5" transform="translate(751.34 1286.51) scale(1.02 1)">5</text><text class="cls-5" transform="translate(879.39 1286.51) scale(1.02 1)">6</text><text class="cls-5" transform="translate(1010.78 1286.51) scale(1.02 1)">7</text><text class="cls-5" transform="translate(1135.68 1286.51) scale(1.02 1)">8</text><text class="cls-5" transform="translate(1264.63 1286.51) scale(1.02 1)">9</text><text class="cls-5" transform="translate(1380.66 1286.51) scale(1.02 1)">10</text><text class="cls-6" transform="translate(1517.32 1286.51) scale(1.02 1)">1<tspan class="cls-7" x="22.54" y="0">1</tspan></text><text class="cls-5" transform="translate(1639.65 1286.51) scale(1.02 1)">12</text><line class="cls-8" x1="256.1" y1="1130.62" x2="256.1" y2="457.44"/><polygon points="283.53 1122.6 256.1 1170.09 228.68 1122.6 283.53 1122.6"/><line class="cls-8" x1="384.46" y1="1130.62" x2="384.46" y2="457.44"/><polygon points="411.88 1122.6 384.46 1170.09 357.03 1122.6 411.88 1122.6"/><line class="cls-8" x1="512.81" y1="1130.62" x2="512.81" y2="457.44"/><polygon points="540.24 1122.6 512.81 1170.09 485.39 1122.6 540.24 1122.6"/><line class="cls-8" x1="641.16" y1="1130.62" x2="641.16" y2="457.44"/><polygon points="668.59 1122.6 641.16 1170.09 613.74 1122.6 668.59 1122.6"/><line class="cls-8" x1="769.52" y1="1130.62" x2="769.52" y2="457.44"/><polygon points="796.94 1122.6 769.52 1170.09 742.09 1122.6 796.94 1122.6"/><line class="cls-8" x1="897.87" y1="1130.62" x2="897.87" y2="457.44"/><polygon points="925.3 1122.6 897.87 1170.09 870.45 1122.6 925.3 1122.6"/><line class="cls-8" x1="1026.23" y1="1130.62" x2="1026.23" y2="457.44"/><polygon points="1053.65 1122.6 1026.23 1170.09 998.8 1122.6 1053.65 1122.6"/><line class="cls-8" x1="1154.58" y1="1130.62" x2="1154.58" y2="457.44"/><polygon points="1182.01 1122.6 1154.58 1170.09 1127.16 1122.6 1182.01 1122.6"/><line class="cls-8" x1="1282.93" y1="1130.62" x2="1282.93" y2="457.44"/><polygon points="1310.36 1122.6 1282.93 1170.09 1255.51 1122.6 1310.36 1122.6"/><line class="cls-8" x1="1411.29" y1="1130.62" x2="1411.29" y2="457.44"/><polygon points="1438.71 1122.6 1411.29 1170.09 1383.86 1122.6 1438.71 1122.6"/><line class="cls-8" x1="1539.64" y1="1130.62" x2="1539.64" y2="457.44"/><polygon points="1567.07 1122.6 1539.64 1170.09 1512.22 1122.6 1567.07 1122.6"/><line class="cls-8" x1="1668" y1="1130.62" x2="1668" y2="457.44"/><polygon points="1695.42 1122.6 1668 1170.09 1640.57 1122.6 1695.42 1122.6"/></g></g></svg>