<svg xmlns="http://www.w3.org/2000/svg" viewBox="0 0 1920 1333.89"><defs><style>.cls-1{fill:#fff;}.cls-2{fill:none;stroke:#000;stroke-miterlimit:10;stroke-width:11px;}</style></defs><g id="Layer_2" data-name="Layer 2"><g id="Layer_1-2" data-name="Layer 1"><rect class="cls-1" width="1920" height="1333.89"/><line class="cls-2" x1="279.03" y1="1217.85" x2="988.83" y2="508.06"/><polygon points="304.1 1231.57 251.12 1245.76 265.31 1192.78 304.1 1231.57"/><path d="M599.61,355.83c4-6.6,10.68-10.68,20.16-10.68,15,0,27.84,12.6,27.84,33.6s-12.84,33.71-27.84,33.71c-9.48,0-16.2-4.08-20.16-10.67V431.9H587.13V346.35h12.48Zm34.68,22.92c0-14.52-7.08-23.16-17.4-23.16-9.6,0-17.76,7.2-17.76,23.16S607.29,402,616.89,402C627.21,402,634.29,393.27,634.29,378.75Z"/><path d="M717.69,392c-3,10.67-12.6,20.51-29,20.51-20.88,0-32.16-15.23-32.16-33.95,0-20,13.44-33.36,31.8-33.36,19.92,0,31.56,16.32,30.24,37.32h-49.2c1.2,11.88,8.76,19.32,18.84,19.32,9,0,14.28-3.72,16.92-9.84Zm-12.12-19.32c-.36-9.6-7.08-17.28-17.4-17.28-9.72,0-16.92,5-18.6,17.28Z"/><path d="M757.89,358.83c-9.6,0-14.64,4.68-14.64,18.24v33.84H730.77V346.35H743v11.4a19.28,19.28,0,0,1,17.88-11.64,33.72,33.72,0,0,1,3.48.12v13A62,62,0,0,0,757.89,358.83Z"/><path d="M815.25,368.19c-1.32-7.32-7.92-12.36-16.08-12.36-9,0-17.28,7.08-17.28,22.8,0,16,8.4,23.16,17.28,23.16,7.92,0,14.88-4.68,16.56-12.36h12.6c-2.52,13.56-15.12,23-29.4,23-18.6,0-30.36-14.27-30.36-33.71,0-19.2,12.12-33.6,31.2-33.6,14.76,0,26,10.44,28,23Z"/><path d="M897.45,392c-3,10.67-12.6,20.51-29,20.51-20.88,0-32.16-15.23-32.16-33.95,0-20,13.44-33.36,31.8-33.36,19.92,0,31.56,16.32,30.24,37.32h-49.2c1.2,11.88,8.76,19.32,18.84,19.32,9,0,14.28-3.72,16.92-9.84Zm-12.12-19.32c-.36-9.6-7.08-17.28-17.4-17.28-9.72,0-16.92,5-18.6,17.28Z"/><path d="M923,337.71H910.53v-13.8H923Zm0,73.2H910.53V346.35H923Z"/><path d="M977.72,346.35h13L966.8,410.91H955.41l-24-64.56h13.8l16.32,47.88Z"/><path d="M1054.64,392c-3,10.67-12.6,20.51-29,20.51-20.88,0-32.16-15.23-32.16-33.95,0-20,13.44-33.36,31.8-33.36,19.92,0,31.56,16.32,30.24,37.32h-49.2c1.2,11.88,8.76,19.32,18.84,19.32,9,0,14.28-3.72,16.92-9.84Zm-12.12-19.32c-.36-9.6-7.08-17.28-17.4-17.28-9.72,0-16.92,5-18.6,17.28Z"/><path d="M1151.84,323.91v87h-12.48v-9.12c-4,6.59-10.68,10.67-20.16,10.67-15,0-27.84-12.59-27.84-33.71s12.84-33.6,27.84-33.6c9.48,0,16.2,4.08,20.16,10.68V323.91Zm-47.16,54.84c0,14.52,7.08,23.28,17.4,23.28,9.6,0,17.76-7.32,17.76-23.28s-8.16-23.16-17.76-23.16C1111.76,355.59,1104.68,364.23,1104.68,378.75Z"/><path d="M1208.36,371v-1.32c0-11.4-6-15.24-13.92-15.24-8.64,0-13.56,4.44-14,12.36h-12.6c1.08-13.68,12.36-22,27.12-22,16.68,0,26.28,8,26,27.36,0,1.56-.24,12.72-.24,15.48,0,9.6.6,17.52,1.8,23.28h-12a56.05,56.05,0,0,1-1.08-8.52c-3.84,6.48-11.16,10.07-21.6,10.07-13.08,0-23-7.19-23-18.95C1164.8,377.79,1183.28,373.59,1208.36,371Zm-30,22.32c0,5.88,4.68,9.6,12.24,9.6,10.32,0,18.36-5.16,18.36-18v-4.68C1188.92,382.11,1178.36,384.87,1178.36,393.27Z"/><path d="M1251.32,329.79v16.56H1264v9.48h-12.72v36.84c0,6.6,1.08,8.28,7.32,8.28h5.28v10h-9.12c-13.08,0-16-3.25-16-16.56V355.83H1229v-9.48h9.84V329.79Z"/><path d="M1315.88,371v-1.32c0-11.4-6-15.24-13.92-15.24-8.64,0-13.56,4.44-14,12.36h-12.6c1.08-13.68,12.36-22,27.12-22,16.68,0,26.28,8,26,27.36,0,1.56-.24,12.72-.24,15.48,0,9.6.6,17.52,1.8,23.28h-12a56.05,56.05,0,0,1-1.08-8.52c-3.84,6.48-11.16,10.07-21.6,10.07-13.08,0-23-7.19-23-18.95C1272.32,377.79,1290.8,373.59,1315.88,371Zm-30,22.32c0,5.88,4.68,9.6,12.24,9.6,10.32,0,18.36-5.16,18.36-18v-4.68C1296.44,382.11,1285.88,384.87,1285.88,393.27Z"/><polyline class="cls-2" points="1667.09 573.09 1667.09 540 251.09 540 251.09 573.09"/><line class="cls-2" x1="1667.09" y1="506.9" x2="1667.09" y2="540"/><line class="cls-2" x1="251.09" y1="506.9" x2="251.09" y2="540"/><path d="M942.8,683.72l-4.41-4.41,22.82-22.83,4.41,4.41Zm25.88-25.88-4.41-4.41,4.87-4.88,4.42,4.41Z"/><path d="M948.74,689.66l22.82-22.83,4.41,4.42-3.3,3.31a10.33,10.33,0,0,1,10.47,3c3.53,3.52,4.12,7.08,2.59,10.65a12.25,12.25,0,0,1,11.58,3.52c5.35,5.34,3.86,11-1.44,16.29l-14.38,14.38L977.08,718l13.19-13.2c3.31-3.3,5.86-6.87,1.87-10.86-3.48-3.47-8-2.5-12.56,2l-12.26,12.26-4.41-4.41,13.19-13.2c3.31-3.3,5.86-6.87,1.87-10.86-3.52-3.52-8-2.5-12.56,2l-12.26,12.26Z"/><path d="M1015.22,727.88l.46-.46c4-4,3.27-7.51.47-10.31-3-3.06-6.36-3.23-9.33-.6l-4.46-4.45c5.22-4.45,12.14-3.39,17.36,1.82,5.89,5.9,6.44,12.14-.47,18.88-.55.56-4.58,4.42-5.56,5.39a60.54,60.54,0,0,0-7.59,8.87l-4.25-4.24a29.88,29.88,0,0,1,2.63-3.4c-3.64.94-7.5-.38-11.19-4.07-4.63-4.62-5.61-10.69-1.45-14.85C997.4,714.9,1005.42,720,1015.22,727.88Zm-18.5-2.71c-2.08,2.08-1.74,5.05.93,7.72,3.65,3.65,8.32,4.67,12.86.13l1.65-1.66C1004.4,725,999.69,722.2,996.72,725.17Z"/><path d="M1053.4,748.67l-20.15,20.16c-4.2,4.2-7.34,5.55-10.48,5.55-3.56.09-7.25-1.74-10.73-5.21-5.09-5.09-6.62-11-2.55-16.55l4.54,4.54c-1.61,2.54-1.53,5.09,1.78,8.4,2.17,2.16,4.25,3.05,6.24,2.93s3.52-.81,5.85-3.14l2.42-2.42c-3.73.93-7.46.08-10.82-3.27-5.3-5.3-5.51-13.91,1.74-21.17s15.83-7,21.13-1.69c3.35,3.35,4.2,7.08,3.27,10.81l3.35-3.35ZM1026,743.2c-5,5-5.47,10.23-1.82,13.88,3.39,3.39,8.57,3.81,14-1.66s5-10.56,1.57-14C1036.09,737.81,1030.83,738.32,1026,743.2Z"/><path d="M1063.25,790.76c-4.84,2.72-11.71,2.8-17.53-3-7.38-7.38-6-16.76.64-23.38,7.08-7.08,16.55-7,23-.55,7,7,5.38,16.93-2.51,23.89l-17.39-17.4c-3.78,4.63-3.73,9.93-.17,13.49,3.18,3.19,6.36,3.74,9.46,2.51Zm2.54-11.11c3.27-3.53,3.61-8.62,0-12.27-3.44-3.43-7.77-4.2-12.69-.46Z"/><path d="M897.93,1033.44c-3.06,0-6.36,1.26-6.36,3.9,0,2.4,1.56,3.42,4.5,4l4.62.9c6.12,1.2,11.46,3.3,11.46,9.6,0,6.54-6.12,10.26-13.56,10.26-8.16,0-13.14-4.74-13.92-10.8H891c.84,3.66,3.24,5.82,7.74,5.82,4,0,7.14-1.68,7.14-4.56s-2.82-4.2-6.18-4.86l-4.86-1c-4.86-1-9.42-3.12-9.42-9.18,0-5.7,6-9.18,13.08-9.18,6.48,0,11.7,3.42,12.9,9.66h-6.18C904.35,1034.76,901.59,1033.44,897.93,1033.44Z"/><path d="M925.89,1020.78v8.28h6.36v4.74h-6.36v18.42c0,3.3.54,4.14,3.66,4.14h2.64v5h-4.56c-6.54,0-8-1.62-8-8.28V1033.8h-4.92v-4.74h4.92v-8.28Z"/><path d="M958.16,1041.36v-.66c0-5.7-3-7.62-6.95-7.62-4.32,0-6.78,2.22-7,6.18h-6.29c.54-6.84,6.18-11,13.55-11,8.34,0,13.14,4,13,13.68,0,.78-.11,6.36-.11,7.74a60.27,60.27,0,0,0,.89,11.64h-6a29.18,29.18,0,0,1-.54-4.26c-1.92,3.24-5.57,5-10.79,5-6.54,0-11.52-3.6-11.52-9.48C936.39,1044.78,945.63,1042.68,958.16,1041.36Zm-15,11.16c0,2.94,2.34,4.8,6.12,4.8,5.15,0,9.18-2.58,9.18-9V1046C948.45,1046.94,943.17,1048.32,943.17,1052.52Z"/><path d="M979.64,1020.78v8.28H986v4.74h-6.37v18.42c0,3.3.54,4.14,3.67,4.14h2.63v5h-4.55c-6.54,0-8-1.62-8-8.28V1033.8h-4.92v-4.74h4.92v-8.28Z"/><path d="M998.9,1024.74h-6.24v-6.9h6.24Zm0,36.6h-6.24v-32.28h6.24Z"/><path d="M1028.42,1040c-.66-3.66-4-6.18-8-6.18-4.5,0-8.64,3.54-8.64,11.4s4.2,11.58,8.64,11.58c4,0,7.44-2.34,8.28-6.18h6.3c-1.26,6.78-7.56,11.52-14.7,11.52-9.3,0-15.18-7.14-15.18-16.86s6.06-16.8,15.6-16.8a13.89,13.89,0,0,1,14,11.52Z"/><path d="M1060.7,1041.36v-.66c0-5.7-3-7.62-7-7.62-4.32,0-6.78,2.22-7,6.18h-6.3c.54-6.84,6.18-11,13.56-11,8.34,0,13.14,4,13,13.68,0,.78-.12,6.36-.12,7.74a60.15,60.15,0,0,0,.9,11.64h-6a27.85,27.85,0,0,1-.54-4.26c-1.92,3.24-5.58,5-10.8,5-6.54,0-11.52-3.6-11.52-9.48C1038.92,1044.78,1048.16,1042.68,1060.7,1041.36Zm-15,11.16c0,2.94,2.34,4.8,6.12,4.8,5.16,0,9.18-2.58,9.18-9V1046C1051,1046.94,1045.7,1048.32,1045.7,1052.52Z"/><path d="M1074.68,1061.34v-43.5h6.24v43.5Z"/><line class="cls-2" x1="925.35" y1="508.06" x2="1637.46" y2="1220.17"/><polygon points="1612.39 1233.88 1665.37 1248.08 1651.17 1195.1 1612.39 1233.88"/><polyline class="cls-2" points="1669.09 573.1 1669.09 540 253.1 540 253.1 573.1"/><line class="cls-2" x1="1669.09" y1="506.9" x2="1669.09" y2="540"/><line class="cls-2" x1="253.1" y1="506.9" x2="253.1" y2="540"/></g></g></svg>