<svg xmlns="http://www.w3.org/2000/svg" viewBox="0 0 1429 1333.89"><defs><style>.cls-1{fill:#fff;}.cls-2{fill:none;stroke:#000;stroke-miterlimit:10;stroke-width:11px;}</style></defs><g id="Layer_2" data-name="Layer 2"><g id="Layer_1-2" data-name="Layer 1"><rect class="cls-1" x="0.15" width="1428.51" height="1333.89"/><line class="cls-2" x1="33.44" y1="1217.85" x2="743.23" y2="508.06"/><polygon points="58.51 1231.57 5.53 1245.76 19.72 1192.78 58.51 1231.57"/><path d="M354,355.83c4-6.6,10.68-10.68,20.16-10.68,15,0,27.84,12.6,27.84,33.6s-12.84,33.71-27.84,33.71c-9.48,0-16.2-4.08-20.16-10.67V431.9H341.54V346.35H354Zm34.68,22.92c0-14.52-7.08-23.16-17.4-23.16-9.6,0-17.76,7.2-17.76,23.16S361.7,402,371.3,402C381.62,402,388.7,393.27,388.7,378.75Z"/><path d="M472.1,392c-3,10.67-12.6,20.51-29,20.51-20.88,0-32.16-15.23-32.16-33.95,0-20,13.44-33.36,31.8-33.36,19.92,0,31.56,16.32,30.24,37.32h-49.2c1.2,11.88,8.76,19.32,18.84,19.32,9,0,14.28-3.72,16.92-9.84ZM460,372.63c-.36-9.6-7.08-17.28-17.4-17.28-9.72,0-16.92,5-18.6,17.28Z"/><path d="M512.3,358.83c-9.6,0-14.64,4.68-14.64,18.24v33.84H485.18V346.35h12.24v11.4a19.28,19.28,0,0,1,17.88-11.64,33.72,33.72,0,0,1,3.48.12v13A62,62,0,0,0,512.3,358.83Z"/><path d="M569.66,368.19c-1.32-7.32-7.92-12.36-16.08-12.36-9,0-17.28,7.08-17.28,22.8,0,16,8.4,23.16,17.28,23.16,7.92,0,14.88-4.68,16.56-12.36h12.6c-2.53,13.56-15.12,23-29.4,23-18.6,0-30.36-14.27-30.36-33.71,0-19.2,12.12-33.6,31.2-33.6,14.76,0,26,10.44,28,23Z"/><path d="M651.85,392c-3,10.67-12.6,20.51-29,20.51-20.88,0-32.15-15.23-32.15-33.95,0-20,13.43-33.36,31.79-33.36,19.92,0,31.56,16.32,30.24,37.32h-49.2c1.2,11.88,8.76,19.32,18.84,19.32,9,0,14.28-3.72,16.92-9.84Zm-12.12-19.32c-.36-9.6-7.08-17.28-17.4-17.28-9.72,0-16.92,5-18.6,17.28Z"/><path d="M677.41,337.71H664.93v-13.8h12.48Zm0,73.2H664.93V346.35h12.48Z"/><path d="M732.13,346.35h13l-23.88,64.56h-11.4l-24-64.56h13.8l16.32,47.88Z"/><path d="M809.05,392c-3,10.67-12.6,20.51-29,20.51-20.88,0-32.16-15.23-32.16-33.95,0-20,13.44-33.36,31.8-33.36,19.92,0,31.56,16.32,30.24,37.32h-49.2c1.2,11.88,8.76,19.32,18.84,19.32,9,0,14.28-3.72,16.92-9.84Zm-12.12-19.32c-.36-9.6-7.08-17.28-17.4-17.28-9.72,0-16.92,5-18.6,17.28Z"/><path d="M906.25,323.91v87H893.77v-9.12c-4,6.59-10.68,10.67-20.16,10.67-15,0-27.84-12.59-27.84-33.71s12.84-33.6,27.84-33.6c9.48,0,16.2,4.08,20.16,10.68V323.91Zm-47.16,54.84c0,14.52,7.08,23.28,17.4,23.28,9.6,0,17.76-7.32,17.76-23.28s-8.16-23.16-17.76-23.16C866.17,355.59,859.09,364.23,859.09,378.75Z"/><path d="M962.77,371v-1.32c0-11.4-6-15.24-13.92-15.24-8.64,0-13.56,4.44-14,12.36h-12.6c1.08-13.68,12.36-22,27.12-22,16.68,0,26.28,8,26,27.36,0,1.56-.24,12.72-.24,15.48,0,9.6.6,17.52,1.8,23.28h-12a56.05,56.05,0,0,1-1.08-8.52c-3.84,6.48-11.16,10.07-21.6,10.07-13.08,0-23-7.19-23-18.95C919.21,377.79,937.69,373.59,962.77,371Zm-30,22.32c0,5.88,4.68,9.6,12.24,9.6,10.32,0,18.36-5.16,18.36-18v-4.68C943.33,382.11,932.77,384.87,932.77,393.27Z"/><path d="M1005.73,329.79v16.56h12.72v9.48h-12.72v36.84c0,6.6,1.08,8.28,7.32,8.28h5.28v10h-9.12c-13.08,0-16-3.25-16-16.56V355.83h-9.84v-9.48h9.84V329.79Z"/><path d="M1070.28,371v-1.32c0-11.4-6-15.24-13.92-15.24-8.64,0-13.55,4.44-14,12.36h-12.59c1.08-13.68,12.35-22,27.11-22,16.68,0,26.28,8,26,27.36,0,1.56-.24,12.72-.24,15.48,0,9.6.6,17.52,1.8,23.28h-12a56.05,56.05,0,0,1-1.08-8.52c-3.84,6.48-11.16,10.07-21.6,10.07-13.07,0-23-7.19-23-18.95C1026.73,377.79,1045.2,373.59,1070.28,371Zm-30,22.32c0,5.88,4.68,9.6,12.24,9.6,10.32,0,18.36-5.16,18.36-18v-4.68C1050.84,382.11,1040.28,384.87,1040.28,393.27Z"/><polyline class="cls-2" points="1421.49 573.09 1421.49 540 5.5 540 5.5 573.09"/><line class="cls-2" x1="1421.49" y1="506.9" x2="1421.49" y2="540"/><line class="cls-2" x1="5.5" y1="506.9" x2="5.5" y2="540"/><path d="M697.2,683.72l-4.41-4.41,22.83-22.83,4.41,4.41Zm25.88-25.88-4.41-4.41,4.88-4.88L728,653Z"/><path d="M703.14,689.66,726,666.83l4.41,4.42-3.31,3.31a10.34,10.34,0,0,1,10.48,3c3.52,3.52,4.12,7.08,2.59,10.65a12.25,12.25,0,0,1,11.58,3.52c5.35,5.34,3.86,11-1.44,16.29L735.9,722.41,731.48,718l13.2-13.2c3.31-3.3,5.85-6.87,1.87-10.86-3.48-3.47-8-2.5-12.56,2l-12.26,12.26-4.42-4.41,13.2-13.2c3.31-3.3,5.85-6.87,1.86-10.86-3.52-3.52-8-2.5-12.55,2l-12.26,12.26Z"/><path d="M769.62,727.88l.47-.46c4-4,3.27-7.51.47-10.31-3.06-3.06-6.37-3.23-9.34-.6l-4.45-4.45c5.22-4.45,12.13-3.39,17.35,1.82,5.9,5.9,6.45,12.14-.46,18.88-.56.56-4.59,4.42-5.56,5.39a60.71,60.71,0,0,0-7.6,8.87l-4.24-4.24a27.71,27.71,0,0,1,2.63-3.4c-3.65.94-7.51-.38-11.2-4.07-4.62-4.62-5.6-10.69-1.44-14.85C751.81,714.9,759.82,720,769.62,727.88Zm-18.49-2.71c-2.08,2.08-1.74,5.05.93,7.72,3.65,3.65,8.32,4.67,12.86.13l1.65-1.66C758.81,725,754.1,722.2,751.13,725.17Z"/><path d="M807.81,748.67l-20.15,20.16c-4.2,4.2-7.34,5.55-10.48,5.55-3.57.09-7.26-1.74-10.74-5.21-5.09-5.09-6.61-11-2.54-16.55l4.54,4.54c-1.61,2.54-1.53,5.09,1.78,8.4,2.16,2.16,4.24,3.05,6.24,2.93s3.52-.81,5.85-3.14l2.42-2.42c-3.73.93-7.47.08-10.82-3.27-5.3-5.3-5.51-13.91,1.74-21.17s15.83-7,21.13-1.69c3.35,3.35,4.2,7.08,3.26,10.81l3.36-3.35Zm-27.45-5.47c-5,5-5.47,10.23-1.82,13.88,3.39,3.39,8.57,3.81,14-1.66s5-10.56,1.57-14C790.5,737.81,785.24,738.32,780.36,743.2Z"/><path d="M817.65,790.76c-4.83,2.72-11.71,2.8-17.52-3-7.38-7.38-6-16.76.64-23.38,7.08-7.08,16.54-7,23-.55,7.05,7,5.39,16.93-2.5,23.89l-17.39-17.4c-3.78,4.63-3.74,9.93-.17,13.49,3.18,3.19,6.36,3.74,9.46,2.51Zm2.55-11.11c3.26-3.53,3.6-8.62-.05-12.27-3.43-3.43-7.76-4.2-12.68-.46Z"/><path d="M652.33,1033.44c-3.06,0-6.36,1.26-6.36,3.9,0,2.4,1.56,3.42,4.5,4l4.62.9c6.12,1.2,11.46,3.3,11.46,9.6,0,6.54-6.12,10.26-13.56,10.26-8.16,0-13.14-4.74-13.92-10.8h6.36c.84,3.66,3.24,5.82,7.74,5.82,4,0,7.14-1.68,7.14-4.56s-2.82-4.2-6.18-4.86l-4.86-1c-4.86-1-9.42-3.12-9.42-9.18,0-5.7,6-9.18,13.08-9.18,6.48,0,11.7,3.42,12.9,9.66h-6.18C658.75,1034.76,656,1033.44,652.33,1033.44Z"/><path d="M680.29,1020.78v8.28h6.36v4.74h-6.36v18.42c0,3.3.54,4.14,3.66,4.14h2.64v5H682c-6.54,0-8-1.62-8-8.28V1033.8h-4.92v-4.74h4.92v-8.28Z"/><path d="M712.57,1041.36v-.66c0-5.7-3-7.62-7-7.62-4.32,0-6.78,2.22-7,6.18h-6.3c.54-6.84,6.18-11,13.56-11,8.34,0,13.14,4,13,13.68,0,.78-.12,6.36-.12,7.74a60.15,60.15,0,0,0,.9,11.64h-6a27.85,27.85,0,0,1-.54-4.26c-1.92,3.24-5.58,5-10.8,5-6.54,0-11.52-3.6-11.52-9.48C690.79,1044.78,700,1042.68,712.57,1041.36Zm-15,11.16c0,2.94,2.34,4.8,6.12,4.8,5.16,0,9.18-2.58,9.18-9V1046C702.85,1046.94,697.57,1048.32,697.57,1052.52Z"/><path d="M734.05,1020.78v8.28h6.36v4.74h-6.36v18.42c0,3.3.54,4.14,3.66,4.14h2.64v5h-4.56c-6.54,0-8-1.62-8-8.28V1033.8h-4.92v-4.74h4.92v-8.28Z"/><path d="M753.31,1024.74h-6.24v-6.9h6.24Zm0,36.6h-6.24v-32.28h6.24Z"/><path d="M782.83,1040c-.66-3.66-4-6.18-8-6.18-4.5,0-8.64,3.54-8.64,11.4s4.2,11.58,8.64,11.58c4,0,7.44-2.34,8.28-6.18h6.3c-1.26,6.78-7.56,11.52-14.7,11.52-9.3,0-15.18-7.14-15.18-16.86s6.06-16.8,15.6-16.8a13.89,13.89,0,0,1,14,11.52Z"/><path d="M815.11,1041.36v-.66c0-5.7-3-7.62-7-7.62-4.32,0-6.78,2.22-7,6.18h-6.3c.54-6.84,6.18-11,13.56-11,8.34,0,13.14,4,13,13.68,0,.78-.12,6.36-.12,7.74a60.15,60.15,0,0,0,.9,11.64h-6a27.85,27.85,0,0,1-.54-4.26c-1.92,3.24-5.58,5-10.8,5-6.54,0-11.52-3.6-11.52-9.48C793.33,1044.78,802.57,1042.68,815.11,1041.36Zm-15,11.16c0,2.94,2.34,4.8,6.12,4.8,5.16,0,9.18-2.58,9.18-9V1046C805.39,1046.94,800.11,1048.32,800.11,1052.52Z"/><path d="M829.09,1061.34v-43.5h6.24v43.5Z"/><line class="cls-2" x1="679.75" y1="508.06" x2="1391.86" y2="1220.17"/><polygon points="1366.8 1233.88 1419.77 1248.08 1405.58 1195.1 1366.8 1233.88"/><polyline class="cls-2" points="1423.5 573.1 1423.5 540 7.5 540 7.5 573.1"/><line class="cls-2" x1="1423.5" y1="506.9" x2="1423.5" y2="540"/><line class="cls-2" x1="7.5" y1="506.9" x2="7.5" y2="540"/></g></g></svg>