<svg xmlns="http://www.w3.org/2000/svg" viewBox="0 0 855.8 585.89"><g id="Layer_2" data-name="Layer 2"><g id="Layer_1-2" data-name="Layer 1"><rect x="557.27" y="565.98" width="19.9" height="19.9" rx="9.95"/><rect x="517.46" y="565.98" width="19.9" height="19.9" rx="9.95"/><rect x="477.66" y="565.98" width="19.9" height="19.9" rx="9.95"/><rect x="437.85" y="565.98" width="19.9" height="19.9" rx="9.95"/><rect x="537.37" y="546.08" width="19.9" height="19.9" rx="9.95"/><rect x="796.1" y="526.18" width="19.9" height="19.9" rx="9.95"/><rect x="756.29" y="526.18" width="19.9" height="19.9" rx="9.95"/><rect x="716.49" y="526.18" width="19.9" height="19.9" rx="9.95"/><rect x="676.68" y="526.18" width="19.9" height="19.9" rx="9.95"/><rect x="636.88" y="526.18" width="19.9" height="19.9" rx="9.95"/><rect x="597.07" y="526.18" width="19.9" height="19.9" rx="9.95"/><rect x="557.27" y="526.18" width="19.9" height="19.9" rx="9.95"/><rect x="517.46" y="526.18" width="19.9" height="19.9" rx="9.95"/><rect x="477.66" y="526.18" width="19.9" height="19.9" rx="9.95"/><rect x="437.85" y="526.18" width="19.9" height="19.9" rx="9.95"/><rect x="398.05" y="526.18" width="19.9" height="19.9" rx="9.95"/><rect x="358.24" y="526.18" width="19.9" height="19.9" rx="9.95"/><rect x="318.44" y="526.18" width="19.9" height="19.9" rx="9.95"/><rect y="526.18" width="19.9" height="19.9" rx="9.95"/><rect x="776.2" y="506.28" width="19.9" height="19.9" rx="9.95"/><rect x="736.39" y="506.28" width="19.9" height="19.9" rx="9.95"/><rect x="696.59" y="506.28" width="19.9" height="19.9" rx="9.95"/><rect x="656.78" y="506.28" width="19.9" height="19.9" rx="9.95"/><rect x="616.98" y="506.28" width="19.9" height="19.9" rx="9.95"/><rect x="577.17" y="506.28" width="19.9" height="19.9" rx="9.95"/><rect x="537.37" y="506.28" width="19.9" height="19.9" rx="9.95"/><rect x="497.56" y="506.28" width="19.9" height="19.9" rx="9.95"/><rect x="457.76" y="506.28" width="19.9" height="19.9" rx="9.95"/><rect x="378.15" y="506.28" width="19.9" height="19.9" rx="9.95"/><rect x="835.9" y="486.37" width="19.9" height="19.9" rx="9.95"/><rect x="796.1" y="486.37" width="19.9" height="19.9" rx="9.95"/><rect x="756.29" y="486.37" width="19.9" height="19.9" rx="9.95"/><rect x="716.49" y="486.37" width="19.9" height="19.9" rx="9.95"/><rect x="676.68" y="486.37" width="19.9" height="19.9" rx="9.95"/><rect x="636.88" y="486.37" width="19.9" height="19.9" rx="9.95"/><rect x="597.07" y="486.37" width="19.9" height="19.9" rx="9.95"/><rect x="557.27" y="486.37" width="19.9" height="19.9" rx="9.95"/><rect x="517.46" y="486.37" width="19.9" height="19.9" rx="9.95"/><rect x="477.66" y="486.37" width="19.9" height="19.9" rx="9.95"/><rect x="437.85" y="486.37" width="19.9" height="19.9" rx="9.95"/><rect x="398.05" y="486.37" width="19.9" height="19.9" rx="9.95"/><rect x="358.24" y="486.37" width="19.9" height="19.9" rx="9.95"/><rect x="318.44" y="486.37" width="19.9" height="19.9" rx="9.95"/><rect x="278.63" y="486.37" width="19.9" height="19.9" rx="9.95"/><rect x="238.83" y="486.37" width="19.9" height="19.9" rx="9.95"/><rect x="199.02" y="486.37" width="19.9" height="19.9" rx="9.95"/><rect x="119.41" y="486.37" width="19.9" height="19.9" rx="9.95"/><rect x="39.8" y="486.37" width="19.9" height="19.9" rx="9.95"/><rect x="736.39" y="466.47" width="19.9" height="19.9" rx="9.95"/><rect x="656.78" y="466.47" width="19.9" height="19.9" rx="9.95"/><rect x="616.98" y="466.47" width="19.9" height="19.9" rx="9.95"/><rect x="577.17" y="466.47" width="19.9" height="19.9" rx="9.95"/><rect x="537.37" y="466.47" width="19.9" height="19.9" rx="9.95"/><rect x="497.56" y="466.47" width="19.9" height="19.9" rx="9.95"/><rect x="417.95" y="466.47" width="19.9" height="19.9" rx="9.95"/><rect x="835.9" y="446.57" width="19.9" height="19.9" rx="9.95"/><rect x="796.1" y="446.57" width="19.9" height="19.9" rx="9.95"/><rect x="756.29" y="446.57" width="19.9" height="19.9" rx="9.95"/><rect x="716.49" y="446.57" width="19.9" height="19.9" rx="9.95"/><rect x="676.68" y="446.57" width="19.9" height="19.9" rx="9.95"/><rect x="636.88" y="446.57" width="19.9" height="19.9" rx="9.95"/><rect x="597.07" y="446.57" width="19.9" height="19.9" rx="9.95"/><rect x="557.27" y="446.57" width="19.9" height="19.9" rx="9.95"/><rect x="517.46" y="446.57" width="19.9" height="19.9" rx="9.95"/><rect x="477.66" y="446.57" width="19.9" height="19.9" rx="9.95"/><rect x="437.85" y="446.57" width="19.9" height="19.9" rx="9.95"/><rect x="398.05" y="446.57" width="19.9" height="19.9" rx="9.95"/><rect x="358.24" y="446.57" width="19.9" height="19.9" rx="9.95"/><rect x="318.44" y="446.57" width="19.9" height="19.9" rx="9.95"/><rect x="278.63" y="446.57" width="19.9" height="19.9" rx="9.95"/><rect x="238.83" y="446.57" width="19.9" height="19.9" rx="9.95"/><rect x="199.02" y="446.57" width="19.9" height="19.9" rx="9.95"/><rect x="159.22" y="446.57" width="19.9" height="19.9" rx="9.95"/><rect x="119.41" y="446.57" width="19.9" height="19.9" rx="9.95"/><rect x="79.61" y="446.57" width="19.9" height="19.9" rx="9.95"/><rect x="39.8" y="446.57" width="19.9" height="19.9" rx="9.95"/><rect x="736.39" y="426.67" width="19.9" height="19.9" rx="9.95"/><rect x="696.59" y="426.67" width="19.9" height="19.9" rx="9.95"/><rect x="656.78" y="426.67" width="19.9" height="19.9" rx="9.95"/><rect x="577.17" y="426.67" width="19.9" height="19.9" rx="9.95"/><rect x="258.73" y="426.67" width="19.9" height="19.9" rx="9.95"/><rect x="796.1" y="406.76" width="19.9" height="19.9" rx="9.95"/><rect x="756.29" y="406.76" width="19.9" height="19.9" rx="9.95"/><rect x="716.49" y="406.76" width="19.9" height="19.9" rx="9.95"/><rect x="676.68" y="406.76" width="19.9" height="19.9" rx="9.95"/><rect x="636.88" y="406.76" width="19.9" height="19.9" rx="9.95"/><rect x="597.07" y="406.76" width="19.9" height="19.9" rx="9.95"/><rect x="557.27" y="406.76" width="19.9" height="19.9" rx="9.95"/><rect x="517.46" y="406.76" width="19.9" height="19.9" rx="9.95"/><rect x="477.66" y="406.76" width="19.9" height="19.9" rx="9.95"/><rect x="398.05" y="406.76" width="19.9" height="19.9" rx="9.95"/><rect x="358.24" y="406.76" width="19.9" height="19.9" rx="9.95"/><rect x="318.44" y="406.76" width="19.9" height="19.9" rx="9.95"/><rect x="238.83" y="406.76" width="19.9" height="19.9" rx="9.95"/><rect x="159.22" y="406.76" width="19.9" height="19.9" rx="9.95"/><rect x="79.61" y="406.76" width="19.9" height="19.9" rx="9.95"/><rect y="406.76" width="19.9" height="19.9" rx="9.95"/><rect x="716.49" y="366.96" width="19.9" height="19.9" rx="9.95"/><rect x="676.68" y="366.96" width="19.9" height="19.9" rx="9.95"/><rect x="636.88" y="366.96" width="19.9" height="19.9" rx="9.95"/><rect x="597.07" y="366.96" width="19.9" height="19.9" rx="9.95"/><rect x="557.27" y="366.96" width="19.9" height="19.9" rx="9.95"/><rect x="517.46" y="366.96" width="19.9" height="19.9" rx="9.95"/><rect x="477.66" y="366.96" width="19.9" height="19.9" rx="9.95"/><rect x="437.85" y="366.96" width="19.9" height="19.9" rx="9.95"/><rect x="398.05" y="366.96" width="19.9" height="19.9" rx="9.95"/><rect x="358.24" y="366.96" width="19.9" height="19.9" rx="9.95"/><rect x="318.44" y="366.96" width="19.9" height="19.9" rx="9.95"/><rect x="278.63" y="366.96" width="19.9" height="19.9" rx="9.95"/><rect x="238.83" y="366.96" width="19.9" height="19.9" rx="9.95"/><rect x="159.22" y="366.96" width="19.9" height="19.9" rx="9.95"/><rect x="119.41" y="366.96" width="19.9" height="19.9" rx="9.95"/><rect x="79.61" y="366.96" width="19.9" height="19.9" rx="9.95"/><rect x="39.8" y="366.96" width="19.9" height="19.9" rx="9.95"/><rect y="366.96" width="19.9" height="19.9" rx="9.95"/><rect x="537.37" y="347.06" width="19.9" height="19.9" rx="9.95"/><rect x="676.68" y="327.15" width="19.9" height="19.9" rx="9.95"/><rect x="597.07" y="327.15" width="19.9" height="19.9" rx="9.95"/><rect x="557.27" y="327.15" width="19.9" height="19.9" rx="9.95"/><rect x="517.46" y="327.15" width="19.9" height="19.9" rx="9.95"/><rect x="437.85" y="327.15" width="19.9" height="19.9" rx="9.95"/><rect x="358.24" y="327.15" width="19.9" height="19.9" rx="9.95"/><rect x="278.63" y="327.15" width="19.9" height="19.9" rx="9.95"/><rect x="199.02" y="327.15" width="19.9" height="19.9" rx="9.95"/><rect x="119.41" y="327.15" width="19.9" height="19.9" rx="9.95"/><rect x="39.8" y="327.15" width="19.9" height="19.9" rx="9.95"/><rect x="676.68" y="287.35" width="19.9" height="19.9" rx="9.95"/><rect x="636.88" y="287.35" width="19.9" height="19.9" rx="9.95"/><rect x="597.07" y="287.35" width="19.9" height="19.9" rx="9.95"/><rect x="517.46" y="287.35" width="19.9" height="19.9" rx="9.95"/><rect x="437.85" y="287.35" width="19.9" height="19.9" rx="9.95"/><rect x="358.24" y="287.35" width="19.9" height="19.9" rx="9.95"/><rect x="318.44" y="287.35" width="19.9" height="19.9" rx="9.95"/><rect x="278.63" y="287.35" width="19.9" height="19.9" rx="9.95"/><rect x="238.83" y="287.35" width="19.9" height="19.9" rx="9.95"/><rect x="199.02" y="287.35" width="19.9" height="19.9" rx="9.95"/><rect x="119.41" y="287.35" width="19.9" height="19.9" rx="9.95"/><rect x="79.61" y="287.35" width="19.9" height="19.9" rx="9.95"/><rect x="39.8" y="287.35" width="19.9" height="19.9" rx="9.95"/><rect x="557.27" y="247.54" width="19.9" height="19.9" rx="9.95"/><rect x="398.05" y="247.54" width="19.9" height="19.9" rx="9.95"/><rect x="318.44" y="247.54" width="19.9" height="19.9" rx="9.95"/><rect x="278.63" y="247.54" width="19.9" height="19.9" rx="9.95"/><rect x="238.83" y="247.54" width="19.9" height="19.9" rx="9.95"/><rect x="557.27" y="207.74" width="19.9" height="19.9" rx="9.95"/><rect x="477.66" y="207.74" width="19.9" height="19.9" rx="9.95"/><rect x="398.05" y="207.74" width="19.9" height="19.9" rx="9.95"/><rect x="238.83" y="207.74" width="19.9" height="19.9" rx="9.95"/><rect x="377.77" y="529.08" width="20.05" height="20.35" rx="10.03"/><rect x="297.57" y="529.08" width="20.05" height="20.35" rx="10.03"/><rect x="257.47" y="529.08" width="20.05" height="20.35" rx="10.03"/><rect x="437.93" y="508.73" width="20.05" height="20.35" rx="10.03"/><rect x="397.83" y="508.73" width="20.05" height="20.35" rx="10.03"/><rect x="357.72" y="508.73" width="20.05" height="20.35" rx="10.03"/><rect x="277.52" y="508.73" width="20.05" height="20.35" rx="10.03"/><rect x="237.42" y="508.73" width="20.05" height="20.35" rx="10.03"/><rect x="217.37" y="508.73" width="20.05" height="20.35" rx="10.03"/><rect x="417.88" y="488.38" width="20.05" height="20.35" rx="10.03"/><rect x="377.77" y="488.38" width="20.05" height="20.35" rx="10.03"/><rect x="337.67" y="488.38" width="20.05" height="20.35" rx="10.03"/><rect x="457.98" y="468.03" width="20.05" height="20.35" rx="10.03"/><rect x="437.93" y="468.03" width="20.05" height="20.35" rx="10.03"/><rect x="417.88" y="468.03" width="20.05" height="20.35" rx="10.03"/><rect x="397.83" y="468.03" width="20.05" height="20.35" rx="10.03"/><rect x="357.72" y="468.03" width="20.05" height="20.35" rx="10.03"/><rect x="317.62" y="468.03" width="20.05" height="20.35" rx="10.03"/><rect x="277.52" y="468.03" width="20.05" height="20.35" rx="10.03"/><rect x="237.42" y="468.03" width="20.05" height="20.35" rx="10.03"/><rect x="217.37" y="468.03" width="20.05" height="20.35" rx="10.03"/><rect x="177.27" y="468.03" width="20.05" height="20.35" rx="10.03"/><rect x="478.03" y="447.69" width="20.05" height="20.35" rx="10.03"/><rect x="417.88" y="447.69" width="20.05" height="20.35" rx="10.03"/><rect x="377.77" y="447.69" width="20.05" height="20.35" rx="10.03"/><rect x="337.67" y="447.69" width="20.05" height="20.35" rx="10.03"/><rect x="297.57" y="447.69" width="20.05" height="20.35" rx="10.03"/><rect x="257.47" y="447.69" width="20.05" height="20.35" rx="10.03"/><rect x="197.32" y="447.69" width="20.05" height="20.35" rx="10.03"/><rect x="157.21" y="447.69" width="20.05" height="20.35" rx="10.03"/><rect x="478.03" y="427.34" width="20.05" height="20.35" rx="10.03"/><rect x="417.88" y="427.34" width="20.05" height="20.35" rx="10.03"/><rect x="377.77" y="427.34" width="20.05" height="20.35" rx="10.03"/><rect x="337.67" y="427.34" width="20.05" height="20.35" rx="10.03"/><rect x="297.57" y="427.34" width="20.05" height="20.35" rx="10.03"/><rect x="257.47" y="427.34" width="20.05" height="20.35" rx="10.03"/><rect x="197.32" y="427.34" width="20.05" height="20.35" rx="10.03"/><rect x="538.18" y="406.99" width="20.05" height="20.35" rx="10.03"/><rect x="498.08" y="406.99" width="20.05" height="20.35" rx="10.03"/><rect x="457.98" y="406.99" width="20.05" height="20.35" rx="10.03"/><rect x="437.93" y="406.99" width="20.05" height="20.35" rx="10.03"/><rect x="397.83" y="406.99" width="20.05" height="20.35" rx="10.03"/><rect x="357.72" y="406.99" width="20.05" height="20.35" rx="10.03"/><rect x="317.62" y="406.99" width="20.05" height="20.35" rx="10.03"/><rect x="277.52" y="406.99" width="20.05" height="20.35" rx="10.03"/><rect x="237.42" y="406.99" width="20.05" height="20.35" rx="10.03"/><rect x="217.37" y="406.99" width="20.05" height="20.35" rx="10.03"/><rect x="177.27" y="406.99" width="20.05" height="20.35" rx="10.03"/><rect x="157.21" y="406.99" width="20.05" height="20.35" rx="10.03"/><rect x="518.13" y="386.64" width="20.05" height="20.35" rx="10.03"/><rect x="297.57" y="386.64" width="20.05" height="20.35" rx="10.03"/><rect x="257.47" y="386.64" width="20.05" height="20.35" rx="10.03"/><rect x="157.21" y="386.64" width="20.05" height="20.35" rx="10.03"/><rect x="498.08" y="366.29" width="20.05" height="20.35" rx="10.03"/><rect x="457.98" y="366.29" width="20.05" height="20.35" rx="10.03"/><rect x="437.93" y="366.29" width="20.05" height="20.35" rx="10.03"/><rect x="397.83" y="366.29" width="20.05" height="20.35" rx="10.03"/><rect x="357.72" y="366.29" width="20.05" height="20.35" rx="10.03"/><rect x="317.62" y="366.29" width="20.05" height="20.35" rx="10.03"/><rect x="277.52" y="366.29" width="20.05" height="20.35" rx="10.03"/><rect x="237.42" y="366.29" width="20.05" height="20.35" rx="10.03"/><rect x="217.37" y="366.29" width="20.05" height="20.35" rx="10.03"/><rect x="177.27" y="366.29" width="20.05" height="20.35" rx="10.03"/><rect x="137.16" y="366.29" width="20.05" height="20.35" rx="10.03"/><rect x="518.13" y="345.94" width="20.05" height="20.35" rx="10.03"/><rect x="478.03" y="345.94" width="20.05" height="20.35" rx="10.03"/><rect x="257.47" y="345.94" width="20.05" height="20.35" rx="10.03"/><rect x="518.13" y="325.59" width="20.05" height="20.35" rx="10.03"/><rect x="498.08" y="325.59" width="20.05" height="20.35" rx="10.03"/><rect x="478.03" y="325.59" width="20.05" height="20.35" rx="10.03"/><rect x="457.98" y="325.59" width="20.05" height="20.35" rx="10.03"/><rect x="437.93" y="325.59" width="20.05" height="20.35" rx="10.03"/><rect x="397.83" y="325.59" width="20.05" height="20.35" rx="10.03"/><rect x="357.72" y="325.59" width="20.05" height="20.35" rx="10.03"/><rect x="317.62" y="325.59" width="20.05" height="20.35" rx="10.03"/><rect x="277.52" y="325.59" width="20.05" height="20.35" rx="10.03"/><rect x="237.42" y="325.59" width="20.05" height="20.35" rx="10.03"/><rect x="217.37" y="325.59" width="20.05" height="20.35" rx="10.03"/><rect x="197.32" y="325.59" width="20.05" height="20.35" rx="10.03"/><rect x="177.27" y="325.59" width="20.05" height="20.35" rx="10.03"/><rect x="137.16" y="325.59" width="20.05" height="20.35" rx="10.03"/><rect x="478.03" y="305.24" width="20.05" height="20.35" rx="10.03"/><rect x="417.88" y="305.24" width="20.05" height="20.35" rx="10.03"/><rect x="337.67" y="305.24" width="20.05" height="20.35" rx="10.03"/><rect x="257.47" y="305.24" width="20.05" height="20.35" rx="10.03"/><rect x="197.32" y="305.24" width="20.05" height="20.35" rx="10.03"/><rect x="157.21" y="305.24" width="20.05" height="20.35" rx="10.03"/><rect x="498.08" y="284.89" width="20.05" height="20.35" rx="10.03"/><rect x="457.98" y="284.89" width="20.05" height="20.35" rx="10.03"/><rect x="437.93" y="284.89" width="20.05" height="20.35" rx="10.03"/><rect x="397.83" y="284.89" width="20.05" height="20.35" rx="10.03"/><rect x="317.62" y="284.89" width="20.05" height="20.35" rx="10.03"/><rect x="277.52" y="284.89" width="20.05" height="20.35" rx="10.03"/><rect x="237.42" y="284.89" width="20.05" height="20.35" rx="10.03"/><rect x="217.37" y="284.89" width="20.05" height="20.35" rx="10.03"/><rect x="177.27" y="284.89" width="20.05" height="20.35" rx="10.03"/><rect x="157.21" y="284.89" width="20.05" height="20.35" rx="10.03"/><rect x="137.16" y="284.89" width="20.05" height="20.35" rx="10.03"/><rect x="478.03" y="264.54" width="20.05" height="20.35" rx="10.03"/><rect x="157.21" y="264.54" width="20.05" height="20.35" rx="10.03"/><rect x="417.88" y="244.19" width="20.05" height="20.35" rx="10.03"/><rect x="377.77" y="244.19" width="20.05" height="20.35" rx="10.03"/><rect x="337.67" y="244.19" width="20.05" height="20.35" rx="10.03"/><rect x="297.57" y="244.19" width="20.05" height="20.35" rx="10.03"/><rect x="257.47" y="244.19" width="20.05" height="20.35" rx="10.03"/><rect x="157.21" y="244.19" width="20.05" height="20.35" rx="10.03"/><rect x="437.93" y="223.84" width="20.05" height="20.35" rx="10.03"/><rect x="397.83" y="223.84" width="20.05" height="20.35" rx="10.03"/><rect x="357.72" y="223.84" width="20.05" height="20.35" rx="10.03"/><rect x="337.67" y="223.84" width="20.05" height="20.35" rx="10.03"/><rect x="317.62" y="223.84" width="20.05" height="20.35" rx="10.03"/><rect x="297.57" y="223.84" width="20.05" height="20.35" rx="10.03"/><rect x="277.52" y="223.84" width="20.05" height="20.35" rx="10.03"/><rect x="237.42" y="223.84" width="20.05" height="20.35" rx="10.03"/><rect x="217.37" y="223.84" width="20.05" height="20.35" rx="10.03"/><rect x="177.27" y="223.84" width="20.05" height="20.35" rx="10.03"/><rect x="157.21" y="223.84" width="20.05" height="20.35" rx="10.03"/><rect x="257.47" y="203.49" width="20.05" height="20.35" rx="10.03"/><rect x="197.32" y="203.49" width="20.05" height="20.35" rx="10.03"/><rect x="157.21" y="203.49" width="20.05" height="20.35" rx="10.03"/><rect x="257.47" y="183.14" width="20.05" height="20.35" rx="10.03"/><rect x="237.42" y="183.14" width="20.05" height="20.35" rx="10.03"/><rect x="217.37" y="183.14" width="20.05" height="20.35" rx="10.03"/><rect x="177.27" y="183.14" width="20.05" height="20.35" rx="10.03"/><rect x="257.47" y="162.79" width="20.05" height="20.35" rx="10.03"/><rect x="197.32" y="162.79" width="20.05" height="20.35" rx="10.03"/><rect x="277.52" y="142.45" width="20.05" height="20.35" rx="10.03"/><rect x="237.42" y="142.45" width="20.05" height="20.35" rx="10.03"/><rect x="217.37" y="142.45" width="20.05" height="20.35" rx="10.03"/><rect x="177.27" y="142.45" width="20.05" height="20.35" rx="10.03"/><rect x="297.57" y="122.1" width="20.05" height="20.35" rx="10.03"/><rect x="317.62" y="101.75" width="20.05" height="20.35" rx="10.03"/><rect x="297.57" y="101.75" width="20.05" height="20.35" rx="10.03"/><rect x="277.52" y="101.75" width="20.05" height="20.35" rx="10.03"/><rect x="257.47" y="101.75" width="20.05" height="20.35" rx="10.03"/><rect x="177.27" y="101.75" width="20.05" height="20.35" rx="10.03"/><rect x="157.21" y="101.75" width="20.05" height="20.35" rx="10.03"/><rect x="297.57" y="81.4" width="20.05" height="20.35" rx="10.03"/><rect x="197.32" y="81.4" width="20.05" height="20.35" rx="10.03"/><rect x="157.21" y="81.4" width="20.05" height="20.35" rx="10.03"/><rect x="337.67" y="61.05" width="20.05" height="20.35" rx="10.03"/><rect x="137.16" y="40.7" width="20.05" height="20.35" rx="10.03"/><rect x="157.21" y="20.35" width="20.05" height="20.35" rx="10.03"/><rect x="157.21" width="20.05" height="20.35" rx="10.03"/></g></g></svg>