<svg xmlns="http://www.w3.org/2000/svg" viewBox="0 0 221.64 139.95"><defs><style>.cls-1{fill:red;}</style></defs><g id="Layer_2" data-name="Layer 2"><g id="Layer_1-2" data-name="Layer 1"><polygon class="cls-1" points="66.15 136.44 72.25 117.22 74.12 89.32 87.95 69.39 102.96 57.9 116.79 52.04 118.19 44.54 102.96 5.16 105.3 0 112.1 2.58 127.1 29.77 130.62 29.54 135.07 17.11 150.14 1.88 152.19 2.81 147.73 24.15 140.7 37.27 140.93 51.34 150.14 63.77 152.19 71.03 152.19 85.57 148.91 106.43 145.15 120.03 150.14 126.83 150.14 136.44 102.72 139.96 66.15 136.44"/><path d="M6.24,61.17c2-3.3,5.34-5.34,10.08-5.34,7.5,0,13.92,6.3,13.92,16.8S23.82,89.49,16.32,89.49c-4.74,0-8.1-2-10.08-5.34v4.56H0V45.21H6.24ZM23.58,72.63c0-7.26-3.54-11.58-8.7-11.58-4.8,0-8.88,3.6-8.88,11.58s4.08,11.64,8.88,11.64C20,84.27,23.58,79.89,23.58,72.63Z"/><path d="M46.5,89.49c-7.62,0-10.56-4.74-10.56-12.54V56.43h6.24V75.27c0,4.68.78,8.94,6.42,8.94,5.22,0,7.8-3.9,7.8-10.26V56.43h6.24V88.71h-6.3V84.15C54.48,87.39,51.36,89.49,46.5,89.49Z"/><path d="M87.36,55.83c7.8,0,10.8,5,10.8,12.54V88.71H91.92V70.05c0-4.68-.78-9-6.66-9-5.4,0-8,3.9-8,10.32V88.71H71V56.43h6.24v4.68C79.08,57.93,82.32,55.83,87.36,55.83Z"/><path d="M122.34,55.83c7.8,0,10.8,5,10.8,12.54V88.71H126.9V70.05c0-4.68-.78-9-6.66-9-5.4,0-8,3.9-8,10.32V88.71H106V56.43h6.24v4.68C114.06,57.93,117.3,55.83,122.34,55.83Z"/><path d="M139,94.23h2.46c3.36,0,4.8-.24,6.36-4.86l.24-.72L136.44,56.43h6.9l7.8,24.06,7.62-24.06h6.48l-11.4,33c-2.64,7.62-4.56,9.78-11.82,9.78h-3Z"/><path d="M160.08,88.71h24.54v5.76H160.08Z"/><path d="M213.84,78.21v10.5h-6.3V78.21H186V72.69l21.54-27.48h6.3V72.57h7.8v5.64Zm-6.3-5.64v-19l-14.64,19Z"/></g></g></svg>