<svg xmlns="http://www.w3.org/2000/svg" viewBox="0 0 218.34 207.82"><defs><style>.cls-1{fill:#f7931e;}</style></defs><g id="Layer_2" data-name="Layer 2"><g id="Layer_1-2" data-name="Layer 1"><polyline class="cls-1" points="49.16 146.76 63.23 149.45 70.09 141.01 79.94 148.04 88.73 173.36 101.39 187.78 101.39 194.46 84.16 192.35 77.13 203.6 95.41 207.82 134.09 207.82 137.26 205.71 167.5 205.36 167.5 190.94 157.65 184.97 160.11 167.03 155.19 146.99 121.78 88.26 110.18 69.63 108.07 47.47 109.83 31.3 127.76 9.49 126.36 0 116.51 0 103.5 10.2 101.04 3.87 90.84 3.52 83.81 34.11 72.55 34.11 58.49 49.23 58.14 62.94 68.17 71.54 56.38 87.21 54.27 103.91 57.43 131.51"/><path d="M6.24,95.11c2-3.3,5.34-5.34,10.08-5.34,7.5,0,13.92,6.3,13.92,16.8s-6.42,16.86-13.92,16.86c-4.74,0-8.1-2-10.08-5.34v4.56H0V79.15H6.24Zm17.34,11.46C23.58,99.31,20,95,14.88,95,10.08,95,6,98.59,6,106.57s4.08,11.64,8.88,11.64C20,118.21,23.58,113.83,23.58,106.57Z"/><path d="M46.5,123.43c-7.62,0-10.56-4.74-10.56-12.54V90.37h6.24v18.84c0,4.68.78,8.94,6.42,8.94,5.22,0,7.8-3.9,7.8-10.26V90.37h6.24v32.28h-6.3v-4.56C54.48,121.33,51.36,123.43,46.5,123.43Z"/><path d="M87.36,89.77c7.8,0,10.8,5,10.8,12.54v20.34H91.92V104c0-4.68-.78-9-6.66-9-5.4,0-8,3.9-8,10.32v17.34H71V90.37h6.24v4.68C79.08,91.87,82.32,89.77,87.36,89.77Z"/><path d="M122.34,89.77c7.8,0,10.8,5,10.8,12.54v20.34H126.9V104c0-4.68-.78-9-6.66-9-5.4,0-8,3.9-8,10.32v17.34H106V90.37h6.24v4.68C114.06,91.87,117.3,89.77,122.34,89.77Z"/><path d="M139,128.17h2.46c3.36,0,4.8-.24,6.36-4.86l.24-.72L136.44,90.37h6.9l7.8,24.06,7.62-24.06h6.48l-11.4,33c-2.64,7.62-4.56,9.78-11.82,9.78h-3Z"/><path d="M160.08,122.65h24.54v5.76H160.08Z"/><path d="M200,102.55h-1.5V97.09h1.26c7.2,0,10.86-2.16,10.86-7,0-4.56-3.66-6.78-8-6.78-5.52,0-8.58,3.36-9.18,8.4H187.2c.66-8,6.3-13.38,15.72-13.38,7.38,0,14.28,3.12,14.28,11.22a10.72,10.72,0,0,1-6.78,10c5.88,2,7.92,6.3,7.92,10.8,0,8.82-7.5,13.08-16,13.08-10.14,0-15.18-6.48-15.72-13.92h6.24c.66,5,3.66,8.88,9.6,8.88,5.4,0,9.36-2.88,9.36-7.92C211.8,104.53,206.76,102.55,200,102.55Z"/></g></g></svg>