<svg xmlns="http://www.w3.org/2000/svg" viewBox="0 0 421.07 549.43"><g id="Layer_2" data-name="Layer 2"><g id="Layer_1-2" data-name="Layer 1"><rect x="240.61" y="529.08" width="20.05" height="20.35" rx="10.03"/><rect x="160.41" y="529.08" width="20.05" height="20.35" rx="10.03"/><rect x="120.31" y="529.08" width="20.05" height="20.35" rx="10.03"/><rect x="300.76" y="508.73" width="20.05" height="20.35" rx="10.03"/><rect x="260.66" y="508.73" width="20.05" height="20.35" rx="10.03"/><rect x="220.56" y="508.73" width="20.05" height="20.35" rx="10.03"/><rect x="140.36" y="508.73" width="20.05" height="20.35" rx="10.03"/><rect x="100.25" y="508.73" width="20.05" height="20.35" rx="10.03"/><rect x="80.2" y="508.73" width="20.05" height="20.35" rx="10.03"/><rect x="280.71" y="488.38" width="20.05" height="20.35" rx="10.03"/><rect x="240.61" y="488.38" width="20.05" height="20.35" rx="10.03"/><rect x="200.51" y="488.38" width="20.05" height="20.35" rx="10.03"/><rect x="320.82" y="468.03" width="20.05" height="20.35" rx="10.03"/><rect x="300.76" y="468.03" width="20.05" height="20.35" rx="10.03"/><rect x="280.71" y="468.03" width="20.05" height="20.35" rx="10.03"/><rect x="260.66" y="468.03" width="20.05" height="20.35" rx="10.03"/><rect x="220.56" y="468.03" width="20.05" height="20.35" rx="10.03"/><rect x="180.46" y="468.03" width="20.05" height="20.35" rx="10.03"/><rect x="140.36" y="468.03" width="20.05" height="20.35" rx="10.03"/><rect x="100.25" y="468.03" width="20.05" height="20.35" rx="10.03"/><rect x="80.2" y="468.03" width="20.05" height="20.35" rx="10.03"/><rect x="40.1" y="468.03" width="20.05" height="20.35" rx="10.03"/><rect x="340.87" y="447.69" width="20.05" height="20.35" rx="10.03"/><rect x="280.71" y="447.69" width="20.05" height="20.35" rx="10.03"/><rect x="240.61" y="447.69" width="20.05" height="20.35" rx="10.03"/><rect x="200.51" y="447.69" width="20.05" height="20.35" rx="10.03"/><rect x="160.41" y="447.69" width="20.05" height="20.35" rx="10.03"/><rect x="120.31" y="447.69" width="20.05" height="20.35" rx="10.03"/><rect x="60.15" y="447.69" width="20.05" height="20.35" rx="10.03"/><rect x="20.05" y="447.69" width="20.05" height="20.35" rx="10.03"/><rect x="340.87" y="427.34" width="20.05" height="20.35" rx="10.03"/><rect x="280.71" y="427.34" width="20.05" height="20.35" rx="10.03"/><rect x="240.61" y="427.34" width="20.05" height="20.35" rx="10.03"/><rect x="200.51" y="427.34" width="20.05" height="20.35" rx="10.03"/><rect x="160.41" y="427.34" width="20.05" height="20.35" rx="10.03"/><rect x="120.31" y="427.34" width="20.05" height="20.35" rx="10.03"/><rect x="60.15" y="427.34" width="20.05" height="20.35" rx="10.03"/><rect x="401.02" y="406.99" width="20.05" height="20.35" rx="10.03"/><rect x="360.92" y="406.99" width="20.05" height="20.35" rx="10.03"/><rect x="320.82" y="406.99" width="20.05" height="20.35" rx="10.03"/><rect x="300.76" y="406.99" width="20.05" height="20.35" rx="10.03"/><rect x="260.66" y="406.99" width="20.05" height="20.35" rx="10.03"/><rect x="220.56" y="406.99" width="20.05" height="20.35" rx="10.03"/><rect x="180.46" y="406.99" width="20.05" height="20.35" rx="10.03"/><rect x="140.36" y="406.99" width="20.05" height="20.35" rx="10.03"/><rect x="100.25" y="406.99" width="20.05" height="20.35" rx="10.03"/><rect x="80.2" y="406.99" width="20.05" height="20.35" rx="10.03"/><rect x="40.1" y="406.99" width="20.05" height="20.35" rx="10.03"/><rect x="20.05" y="406.99" width="20.05" height="20.35" rx="10.03"/><rect x="380.97" y="386.64" width="20.05" height="20.35" rx="10.03"/><rect x="160.41" y="386.64" width="20.05" height="20.35" rx="10.03"/><rect x="120.31" y="386.64" width="20.05" height="20.35" rx="10.03"/><rect x="20.05" y="386.64" width="20.05" height="20.35" rx="10.03"/><rect x="360.92" y="366.29" width="20.05" height="20.35" rx="10.03"/><rect x="320.82" y="366.29" width="20.05" height="20.35" rx="10.03"/><rect x="300.76" y="366.29" width="20.05" height="20.35" rx="10.03"/><rect x="260.66" y="366.29" width="20.05" height="20.35" rx="10.03"/><rect x="220.56" y="366.29" width="20.05" height="20.35" rx="10.03"/><rect x="180.46" y="366.29" width="20.05" height="20.35" rx="10.03"/><rect x="140.36" y="366.29" width="20.05" height="20.35" rx="10.03"/><rect x="100.25" y="366.29" width="20.05" height="20.35" rx="10.03"/><rect x="80.2" y="366.29" width="20.05" height="20.35" rx="10.03"/><rect x="40.1" y="366.29" width="20.05" height="20.35" rx="10.03"/><rect y="366.29" width="20.05" height="20.35" rx="10.03"/><rect x="380.97" y="345.94" width="20.05" height="20.35" rx="10.03"/><rect x="340.87" y="345.94" width="20.05" height="20.35" rx="10.03"/><rect x="120.31" y="345.94" width="20.05" height="20.35" rx="10.03"/><rect x="380.97" y="325.59" width="20.05" height="20.35" rx="10.03"/><rect x="360.92" y="325.59" width="20.05" height="20.35" rx="10.03"/><rect x="340.87" y="325.59" width="20.05" height="20.35" rx="10.03"/><rect x="320.82" y="325.59" width="20.05" height="20.35" rx="10.03"/><rect x="300.76" y="325.59" width="20.05" height="20.35" rx="10.03"/><rect x="260.66" y="325.59" width="20.05" height="20.35" rx="10.03"/><rect x="220.56" y="325.59" width="20.05" height="20.35" rx="10.03"/><rect x="180.46" y="325.59" width="20.05" height="20.35" rx="10.03"/><rect x="140.36" y="325.59" width="20.05" height="20.35" rx="10.03"/><rect x="100.25" y="325.59" width="20.05" height="20.35" rx="10.03"/><rect x="80.2" y="325.59" width="20.05" height="20.35" rx="10.03"/><rect x="60.15" y="325.59" width="20.05" height="20.35" rx="10.03"/><rect x="40.1" y="325.59" width="20.05" height="20.35" rx="10.03"/><rect y="325.59" width="20.05" height="20.35" rx="10.03"/><rect x="340.87" y="305.24" width="20.05" height="20.35" rx="10.03"/><rect x="280.71" y="305.24" width="20.05" height="20.35" rx="10.03"/><rect x="200.51" y="305.24" width="20.05" height="20.35" rx="10.03"/><rect x="120.31" y="305.24" width="20.05" height="20.35" rx="10.03"/><rect x="60.15" y="305.24" width="20.05" height="20.35" rx="10.03"/><rect x="20.05" y="305.24" width="20.05" height="20.35" rx="10.03"/><rect x="360.92" y="284.89" width="20.05" height="20.35" rx="10.03"/><rect x="320.82" y="284.89" width="20.05" height="20.35" rx="10.03"/><rect x="300.76" y="284.89" width="20.05" height="20.35" rx="10.03"/><rect x="260.66" y="284.89" width="20.05" height="20.35" rx="10.03"/><rect x="180.46" y="284.89" width="20.05" height="20.35" rx="10.03"/><rect x="140.36" y="284.89" width="20.05" height="20.35" rx="10.03"/><rect x="100.25" y="284.89" width="20.05" height="20.35" rx="10.03"/><rect x="80.2" y="284.89" width="20.05" height="20.35" rx="10.03"/><rect x="40.1" y="284.89" width="20.05" height="20.35" rx="10.03"/><rect x="20.05" y="284.89" width="20.05" height="20.35" rx="10.03"/><rect y="284.89" width="20.05" height="20.35" rx="10.03"/><rect x="340.87" y="264.54" width="20.05" height="20.35" rx="10.03"/><rect x="20.05" y="264.54" width="20.05" height="20.35" rx="10.03"/><rect x="280.71" y="244.19" width="20.05" height="20.35" rx="10.03"/><rect x="240.61" y="244.19" width="20.05" height="20.35" rx="10.03"/><rect x="200.51" y="244.19" width="20.05" height="20.35" rx="10.03"/><rect x="160.41" y="244.19" width="20.05" height="20.35" rx="10.03"/><rect x="120.31" y="244.19" width="20.05" height="20.35" rx="10.03"/><rect x="20.05" y="244.19" width="20.05" height="20.35" rx="10.03"/><rect x="300.76" y="223.84" width="20.05" height="20.35" rx="10.03"/><rect x="260.66" y="223.84" width="20.05" height="20.35" rx="10.03"/><rect x="220.56" y="223.84" width="20.05" height="20.35" rx="10.03"/><rect x="200.51" y="223.84" width="20.05" height="20.35" rx="10.03"/><rect x="180.46" y="223.84" width="20.05" height="20.35" rx="10.03"/><rect x="160.41" y="223.84" width="20.05" height="20.35" rx="10.03"/><rect x="140.36" y="223.84" width="20.05" height="20.35" rx="10.03"/><rect x="100.25" y="223.84" width="20.05" height="20.35" rx="10.03"/><rect x="80.2" y="223.84" width="20.05" height="20.35" rx="10.03"/><rect x="40.1" y="223.84" width="20.05" height="20.35" rx="10.03"/><rect x="20.05" y="223.84" width="20.05" height="20.35" rx="10.03"/><rect x="120.31" y="203.49" width="20.05" height="20.35" rx="10.03"/><rect x="60.15" y="203.49" width="20.05" height="20.35" rx="10.03"/><rect x="20.05" y="203.49" width="20.05" height="20.35" rx="10.03"/><rect x="120.31" y="183.14" width="20.05" height="20.35" rx="10.03"/><rect x="100.25" y="183.14" width="20.05" height="20.35" rx="10.03"/><rect x="80.2" y="183.14" width="20.05" height="20.35" rx="10.03"/><rect x="40.1" y="183.14" width="20.05" height="20.35" rx="10.03"/><rect x="120.31" y="162.79" width="20.05" height="20.35" rx="10.03"/><rect x="60.15" y="162.79" width="20.05" height="20.35" rx="10.03"/><rect x="140.36" y="142.45" width="20.05" height="20.35" rx="10.03"/><rect x="100.25" y="142.45" width="20.05" height="20.35" rx="10.03"/><rect x="80.2" y="142.45" width="20.05" height="20.35" rx="10.03"/><rect x="40.1" y="142.45" width="20.05" height="20.35" rx="10.03"/><rect x="160.41" y="122.1" width="20.05" height="20.35" rx="10.03"/><rect x="180.46" y="101.75" width="20.05" height="20.35" rx="10.03"/><rect x="160.41" y="101.75" width="20.05" height="20.35" rx="10.03"/><rect x="140.36" y="101.75" width="20.05" height="20.35" rx="10.03"/><rect x="120.31" y="101.75" width="20.05" height="20.35" rx="10.03"/><rect x="40.1" y="101.75" width="20.05" height="20.35" rx="10.03"/><rect x="20.05" y="101.75" width="20.05" height="20.35" rx="10.03"/><rect x="160.41" y="81.4" width="20.05" height="20.35" rx="10.03"/><rect x="60.15" y="81.4" width="20.05" height="20.35" rx="10.03"/><rect x="20.05" y="81.4" width="20.05" height="20.35" rx="10.03"/><rect x="200.51" y="61.05" width="20.05" height="20.35" rx="10.03"/><rect y="40.7" width="20.05" height="20.35" rx="10.03"/><rect x="20.05" y="20.35" width="20.05" height="20.35" rx="10.03"/><rect x="20.05" width="20.05" height="20.35" rx="10.03"/></g></g></svg>