<svg xmlns="http://www.w3.org/2000/svg" viewBox="0 0 220.14 168.06"><defs><style>.cls-1{fill:#f0f;}</style></defs><g id="Layer_2" data-name="Layer 2"><g id="Layer_1-2" data-name="Layer 1"><polygon class="cls-1" points="53.3 160.66 71.8 161.58 76.88 157.88 91.22 159.97 93.76 168.06 116.87 168.06 119.42 160.2 160.33 163.09 164.49 150.95 150.85 139.39 147.39 79.06 129.13 52.47 107.63 47.16 121.03 7.4 111.56 0 89.6 33.75 72.72 0 57 5.78 75.5 51.32 69.02 64.5 70.41 89.23 60.7 112.58 58.16 142.63 53.3 160.66"/><path d="M6.24,75.22c2-3.3,5.34-5.34,10.08-5.34,7.5,0,13.92,6.3,13.92,16.8s-6.42,16.86-13.92,16.86c-4.74,0-8.1-2-10.08-5.34v4.56H0V59.26H6.24ZM23.58,86.68c0-7.26-3.54-11.58-8.7-11.58C10.08,75.1,6,78.7,6,86.68s4.08,11.64,8.88,11.64C20,98.32,23.58,93.94,23.58,86.68Z"/><path d="M46.5,103.54c-7.62,0-10.56-4.74-10.56-12.54V70.48h6.24V89.32c0,4.68.78,8.94,6.42,8.94,5.22,0,7.8-3.9,7.8-10.26V70.48h6.24v32.28h-6.3V98.2C54.48,101.44,51.36,103.54,46.5,103.54Z"/><path d="M87.36,69.88c7.8,0,10.8,5,10.8,12.54v20.34H91.92V84.1c0-4.68-.78-9-6.66-9-5.4,0-8,3.9-8,10.32v17.34H71V70.48h6.24v4.68C79.08,72,82.32,69.88,87.36,69.88Z"/><path d="M122.34,69.88c7.8,0,10.8,5,10.8,12.54v20.34H126.9V84.1c0-4.68-.78-9-6.66-9-5.4,0-8,3.9-8,10.32v17.34H106V70.48h6.24v4.68C114.06,72,117.3,69.88,122.34,69.88Z"/><path d="M139,108.28h2.46c3.36,0,4.8-.24,6.36-4.86l.24-.72L136.44,70.48h6.9l7.8,24.06,7.62-24.06h6.48l-11.4,33c-2.64,7.62-4.56,9.78-11.82,9.78h-3Z"/><path d="M160.08,102.76h24.54v5.76H160.08Z"/><path d="M196.74,97.12h23.4v5.64h-31.5v-5.4C203.58,86,212.46,78.1,212.46,70.6c0-4.38-2.94-7.13-7.62-7.13-4.44,0-8.7,2.51-8.76,9.53h-6.36c-.12-8.7,5.94-14.52,15.3-14.52,8,0,14,4.08,14,11.46C219,79.48,209.4,88.18,196.74,97.12Z"/></g></g></svg>