<svg xmlns="http://www.w3.org/2000/svg" viewBox="0 0 357.27 370.11"><defs><style>.cls-1{fill:blue;}</style></defs><g id="Layer_2" data-name="Layer 2"><g id="Layer_1-2" data-name="Layer 1"><polygon class="cls-1" points="0 234.28 0 207.87 11.83 168.66 14.87 144.66 38.53 116.95 34.81 99.37 26.03 82.81 26.36 62.87 8.45 10.48 12.17 0 36.84 29.07 59.49 60.16 67.6 94.98 75.04 98.02 83.15 60.16 91.26 46.31 105.46 34.48 123.16 30.42 131.82 32.45 137.23 43.94 137.23 66.59 137.23 86.87 129.45 102.41 119.56 115.93 119.56 127.76 131.14 118.81 156.49 112.22 175.09 95.99 209.9 90.58 264.99 92.61 308.93 112.89 333.61 144.66 351.52 191.65 357.27 237.62 351.86 269.39 332.25 284.94 323.81 313.67 328.88 334.28 306.57 339.01 281.22 354.56 261.27 354.56 256.2 357.27 233.22 357.27 222.41 352.2 222.07 342.06 244.04 325.16 229.16 321.78 210.57 300.14 192.32 322.12 177.11 344.76 173.06 368.08 147.37 370.11 123.16 370.11 119.56 355.92 139.59 338 121 338 103.77 336.65 97.68 325.16 71.99 345.1 58.81 366.73 31.1 370.11 0 370.11 6.76 350.51 29.74 334.28 42.59 310.62 37.18 288.31 30.76 260.26 14.2 251.56 0 234.28"/><path d="M84.4,176.25c2-3.3,5.34-5.34,10.08-5.34,7.5,0,13.92,6.3,13.92,16.8S102,204.57,94.48,204.57c-4.74,0-8.1-2-10.08-5.34v4.56H78.16v-43.5H84.4Zm17.34,11.46c0-7.26-3.54-11.58-8.7-11.58-4.8,0-8.88,3.6-8.88,11.58s4.08,11.64,8.88,11.64C98.2,199.35,101.74,195,101.74,187.71Z"/><path d="M124.66,204.57c-7.62,0-10.56-4.74-10.56-12.54V171.51h6.24v18.84c0,4.68.78,8.94,6.42,8.94,5.22,0,7.8-3.9,7.8-10.26V171.51h6.24v32.28h-6.3v-4.56C132.64,202.47,129.52,204.57,124.66,204.57Z"/><path d="M165.52,170.91c7.8,0,10.8,5,10.8,12.54v20.34h-6.24V185.13c0-4.68-.78-9-6.66-9-5.4,0-8,3.9-8,10.32v17.34h-6.24V171.51h6.24v4.68C157.24,173,160.48,170.91,165.52,170.91Z"/><path d="M200.5,170.91c7.8,0,10.8,5,10.8,12.54v20.34h-6.24V185.13c0-4.68-.78-9-6.66-9-5.4,0-8,3.9-8,10.32v17.34h-6.24V171.51h6.24v4.68C192.22,173,195.46,170.91,200.5,170.91Z"/><path d="M217.18,209.31h2.46c3.36,0,4.8-.24,6.36-4.86l.24-.72L214.6,171.51h6.9l7.8,24.06,7.62-24.06h6.48l-11.4,33c-2.64,7.62-4.56,9.78-11.82,9.78h-3Z"/><path d="M238.24,203.79h24.54v5.76H238.24Z"/><path d="M271.84,170.19h-9.9v-4.26c6.3-.24,9.42-.9,11.7-5.64h4.5v43.5h-6.3Z"/></g></g></svg>