<svg xmlns="http://www.w3.org/2000/svg" viewBox="0 0 750.62 346.17"><defs><style>.cls-1{fill:#009245;}</style></defs><g id="Layer_2" data-name="Layer 2"><g id="Layer_1-2" data-name="Layer 1"><polygon class="cls-1" points="0 191.2 5.72 239.91 42.16 239.93 54.54 263.03 13.36 287.31 24.83 317.59 47.32 346.03 126.31 342.54 148.34 324.36 183.76 346.09 232.59 346.12 259.41 327.28 283.33 346.14 344.61 346.17 358.04 306.5 387.73 280.43 420.27 306.53 413.56 335.01 492.07 335.05 503.57 306.57 479.79 291 487.31 268.02 503.59 264.2 513.17 240.15 523.7 266.13 541.88 273.65 534.21 300.6 564.84 317.85 588.78 308.29 588.77 335.1 750.58 333.26 744.86 287.66 750.62 254.75 722.57 229.84 690.31 229.82 658.72 214.49 628.08 225.96 603.19 210.63 608.94 196.27 626.17 203.94 636.23 196.29 633.05 179.05 642.46 179.06 649.16 194.38 667.35 189.6 664.49 163.75 680.67 153.22 673.12 141.73 679.44 127.37 671.22 113.96 680.7 95.77 718.14 95.79 717.19 79.52 688.47 72.8 703.8 52.7 686.57 47.9 717.21 38.34 699.98 24.93 666.47 31.62 679.49 10.56 658.82 1.77 636.31 22.99 607.11 28.72 602.33 5.74 558.29 5.71 567.85 31.57 553.24 45.93 530.5 44 540.08 30.6 519.02 18.14 492.21 32.49 474.68 23.87 479.92 15.25 469.59 1.68 432.22 11.4 439.55 33.42 425.18 48.74 399.33 41.07 411.79 23.84 382.12 1.64 339.02 18.06 361.99 46.79 333.26 62.1 300.24 40.06 310.3 20.92 300.25 0 277.75 1.59 276.79 16.11 254.77 14.19 236.58 1.57 202.11 9.38 212.63 36.19 187.73 46.71 182 21.81 144.66 9.35 108.3 21.78 118.8 41.89 102.66 54.33 84.33 34.21 46.98 44.73 55.59 69.63 33.52 83.02 42.22 112.71 33.5 128.02 42.19 158.66 67.99 163.46 64.16 172.96 33.48 172.95 0 191.2"/><path d="M285.52,164.28c2-3.3,5.34-5.34,10.08-5.34,7.5,0,13.92,6.3,13.92,16.8S303.1,192.6,295.6,192.6c-4.74,0-8.1-2-10.08-5.34v4.56h-6.24v-43.5h6.24Zm17.34,11.46c0-7.26-3.54-11.58-8.7-11.58-4.8,0-8.88,3.6-8.88,11.58s4.08,11.64,8.88,11.64C299.32,187.38,302.86,183,302.86,175.74Z"/><path d="M325.78,192.6c-7.62,0-10.56-4.74-10.56-12.54V159.54h6.24v18.84c0,4.68.78,8.94,6.42,8.94,5.22,0,7.8-3.9,7.8-10.26V159.54h6.24v32.28h-6.3v-4.56C333.76,190.5,330.64,192.6,325.78,192.6Z"/><path d="M361.3,163.92c-3.06,0-6.36,1.26-6.36,3.9,0,2.4,1.56,3.42,4.5,4l4.62.9c6.12,1.2,11.46,3.3,11.46,9.6,0,6.54-6.12,10.26-13.56,10.26-8.16,0-13.14-4.74-13.92-10.8h6.36c.84,3.66,3.24,5.82,7.74,5.82,4,0,7.14-1.68,7.14-4.56s-2.82-4.2-6.18-4.86l-4.86-1c-4.86-1-9.42-3.12-9.42-9.18,0-5.7,6-9.18,13.08-9.18,6.48,0,11.7,3.42,12.9,9.66h-6.18C367.72,165.24,365,163.92,361.3,163.92Z"/><path d="M398.14,158.94c7.8,0,10.8,5,10.8,12.54v20.34H402.7V173.16c0-4.68-.78-9-6.66-9-5.4,0-8,3.9-8,10.32v17.34h-6.24v-43.5H388v15.9C389.86,161,393.1,158.94,398.14,158.94Z"/><path d="M414.76,191.82H439.3v5.76H414.76Z"/><path d="M454.72,171.72h-1.5v-5.46h1.26c7.2,0,10.86-2.16,10.86-7,0-4.56-3.66-6.78-8-6.78-5.52,0-8.58,3.36-9.18,8.4h-6.24c.66-8,6.3-13.38,15.72-13.38,7.38,0,14.28,3.12,14.28,11.22a10.72,10.72,0,0,1-6.78,10c5.88,2,7.92,6.3,7.92,10.8,0,8.82-7.5,13.08-16,13.08-10.14,0-15.18-6.48-15.72-13.92h6.24c.66,5,3.66,8.88,9.6,8.88,5.4,0,9.36-2.88,9.36-7.92C466.48,173.7,461.44,171.72,454.72,171.72Z"/></g></g></svg>