<svg xmlns="http://www.w3.org/2000/svg" viewBox="0 0 297.37 447.99"><defs><style>.cls-1{fill:#8cc63f;}</style></defs><g id="Layer_2" data-name="Layer 2"><g id="Layer_1-2" data-name="Layer 1"><polygon class="cls-1" points="0 61.35 16.18 114.75 67.17 115.15 92.31 140.13 62.01 165.86 24.16 138.53 6.54 168.42 18.31 189.92 42.07 192.32 43.79 213.03 31.31 229.25 30.02 241.93 49.49 249.25 32.65 267.82 46.46 289.5 18.07 292.68 23.62 322.07 59.54 325.73 32.62 369.95 7.63 395.16 54.12 399.89 83.52 383.67 118.26 398.95 123.45 431.84 180.51 447.99 214.14 432.2 186.47 368.54 212.74 330.65 203.08 299.78 229.53 281.13 231.05 262.77 257.62 248.02 268.38 213.63 289.72 192.29 297.38 159.95 254.06 155.54 231.91 131.93 202.72 146.04 176.96 137.01 198.68 133.33 194.55 111.05 210.63 99.88 190.93 76.52 193.19 54.34 209.76 56.02 210.4 39.26 167.77 17.59 145.03 31.29 126.37 4.83 78.9 0 76.29 25.6 33.65 34.89 0 61.35"/><path d="M58.33,215.19c2-3.3,5.34-5.34,10.08-5.34,7.5,0,13.92,6.3,13.92,16.8s-6.42,16.86-13.92,16.86c-4.74,0-8.1-2-10.08-5.34v4.56H52.09v-43.5h6.24Zm17.34,11.46c0-7.26-3.54-11.58-8.7-11.58-4.8,0-8.88,3.6-8.88,11.58s4.08,11.64,8.88,11.64C72.13,238.29,75.67,233.91,75.67,226.65Z"/><path d="M98.59,243.51C91,243.51,88,238.77,88,231V210.45h6.24v18.84c0,4.68.78,8.94,6.42,8.94,5.22,0,7.8-3.9,7.8-10.26V210.45h6.24v32.28h-6.3v-4.56C106.57,241.41,103.45,243.51,98.59,243.51Z"/><path d="M134.11,214.83c-3.06,0-6.36,1.26-6.36,3.9,0,2.4,1.56,3.42,4.5,4l4.62.9c6.12,1.2,11.46,3.3,11.46,9.6,0,6.54-6.12,10.26-13.56,10.26-8.16,0-13.14-4.74-13.92-10.8h6.36c.84,3.66,3.24,5.82,7.74,5.82,4,0,7.14-1.68,7.14-4.56s-2.82-4.2-6.18-4.86l-4.86-1c-4.86-1-9.42-3.12-9.42-9.18,0-5.7,6-9.18,13.08-9.18,6.48,0,11.7,3.42,12.9,9.66h-6.18C140.53,216.15,137.77,214.83,134.11,214.83Z"/><path d="M171,209.85c7.8,0,10.8,5,10.8,12.54v20.34h-6.24V224.07c0-4.68-.78-9-6.66-9-5.4,0-8,3.9-8,10.32v17.34h-6.24v-43.5h6.24v15.9C162.67,212,165.91,209.85,171,209.85Z"/><path d="M187.57,242.73h24.54v5.76H187.57Z"/><path d="M224.23,237.09h23.4v5.64h-31.5v-5.4C231.07,226,240,218.07,240,210.57c0-4.38-2.94-7.14-7.62-7.14-4.44,0-8.7,2.52-8.76,9.54h-6.36c-.12-8.7,5.94-14.52,15.3-14.52,8,0,14,4.08,14,11.46C246.48,219.45,236.88,228.15,224.23,237.09Z"/></g></g></svg>