<svg xmlns="http://www.w3.org/2000/svg" viewBox="0 0 486.18 530.5"><defs><style>.cls-1{fill:lime;}</style></defs><g id="Layer_2" data-name="Layer 2"><g id="Layer_1-2" data-name="Layer 1"><polygon class="cls-1" points="87.21 330 0 292.08 24.77 261.12 22.71 197.13 52.64 191.84 43.35 144.49 59.86 138.3 41.28 127.98 59.86 115.59 95.98 115.59 89.79 77.41 123.85 70.18 148.62 49.54 191.97 56.77 197.13 29.93 245.64 51.6 267.31 46.44 290.02 93.92 273.76 155.07 296.21 134.95 312.73 146.56 331.3 109.4 360.2 98.05 346.27 56.77 327.69 60.89 326.66 39.74 323.56 19.61 346.79 24.25 353.49 0 374.65 34.58 363.81 49.02 390.13 57.28 393.23 37.16 420.06 37.67 431.42 25.8 449.99 36.12 458.77 24.77 476.31 26.84 483.54 38.7 474.25 71.47 483.54 94.69 464.19 131.85 467.28 171.33 486.18 182.16 481.99 228.61 454.12 242.93 457.99 281.25 435.55 306.79 435.55 340.85 459.54 330.79 481.99 348.59 467.28 372.59 483.54 383.62 478.89 415.94 457.99 419.81 461.09 439.16 486.18 461.61 486.18 525.85 445.61 530.5 405.36 499.54 409.23 455.41 379.04 443.03 347.3 474.73 308.6 474.73 307.82 517.34 222.68 525.85 243.09 477.86 287.7 448.45 251.56 410.77 217.26 414.39 177.12 379.38 184.75 345.49 130.56 313.27 87.21 330"/><path d="M161.16,256.45c2-3.3,5.34-5.34,10.08-5.34,7.5,0,13.92,6.3,13.92,16.79s-6.42,16.86-13.92,16.86c-4.74,0-8.1-2-10.08-5.34V284h-6.24V240.49h6.24ZM178.5,267.9c0-7.26-3.54-11.57-8.7-11.57-4.8,0-8.88,3.59-8.88,11.57s4.08,11.64,8.88,11.64C175,279.54,178.5,275.16,178.5,267.9Z"/><path d="M201.42,284.76c-7.62,0-10.56-4.74-10.56-12.54V251.71h6.24v18.83c0,4.68.78,8.94,6.42,8.94,5.22,0,7.8-3.9,7.8-10.26V251.71h6.24V284h-6.3v-4.56C209.4,282.66,206.28,284.76,201.42,284.76Z"/><path d="M236.94,256.09c-3.06,0-6.36,1.25-6.36,3.9,0,2.39,1.56,3.42,4.5,4l4.62.91c6.12,1.19,11.46,3.29,11.46,9.59,0,6.54-6.12,10.26-13.56,10.26-8.16,0-13.14-4.74-13.92-10.8H230c.84,3.66,3.24,5.82,7.74,5.82,4,0,7.14-1.68,7.14-4.56s-2.82-4.2-6.18-4.86l-4.86-1c-4.86-1-9.42-3.12-9.42-9.18,0-5.69,6-9.17,13.08-9.17,6.48,0,11.7,3.41,12.9,9.66h-6.18C243.36,257.41,240.6,256.09,236.94,256.09Z"/><path d="M273.78,251.11c7.8,0,10.8,5,10.8,12.53V284h-6.24V265.33c0-4.69-.78-9-6.66-9-5.4,0-8,3.89-8,10.31V284H257.4V240.49h6.24v15.89C265.5,253.21,268.74,251.11,273.78,251.11Z"/><path d="M290.4,284h24.54v5.76H290.4Z"/><path d="M324,250.39h-9.9v-4.26c6.3-.24,9.42-.9,11.7-5.64h4.5V284H324Z"/></g></g></svg>