<svg xmlns="http://www.w3.org/2000/svg" viewBox="0 0 609.06 119.87"><defs><style>.cls-1{fill:none;stroke:#000;stroke-miterlimit:10;stroke-width:11px;}</style></defs><g id="Layer_2" data-name="Layer 2"><g id="Layer_1-2" data-name="Layer 1"><path d="M78.48,19.44c-4.26,0-7.2,2.34-8.16,4.68l-6.06-.36L67.14,0H92.58V5.7H72.24L70.8,17.34a13.63,13.63,0,0,1,9.18-3c7.56,0,14.34,5.22,14.34,14.94s-7.44,15-15.78,15c-10.08,0-14.94-6.48-15.66-13.74h6.24c.72,5.28,3.6,8.7,9.48,8.7,5,0,9.18-3.6,9.18-9.9C87.78,22.5,83,19.44,78.48,19.44Z"/><path d="M99.3,36h7.5v7.5H99.3Z"/><path d="M156.3,11.22v28.5c0,5.94-1.26,9.12-3.48,11.34-2.46,2.58-6.36,3.9-11.28,3.9-7.2,0-12.48-3.12-13.5-9.9h6.42c.66,2.94,2.52,4.68,7.2,4.68,3.06,0,5.16-.84,6.48-2.34s1.92-3.06,1.92-6.36V37.62c-2,3.3-5.22,5.34-10,5.34-7.5,0-13.74-5.94-13.74-16.2s6.24-16.14,13.74-16.14c4.74,0,8,2,10,5.34V11.22ZM133,26.76c0,7,3.36,11.1,8.52,11.1,4.8,0,8.76-3.36,8.76-11.1s-4-11-8.76-11C136.38,15.78,133,19.86,133,26.76Z"/><path d="M178.14,44.28c-7.62,0-15.66-5.16-15.66-16.8s8-16.86,15.66-16.86,15.72,5.16,15.72,16.86S185.82,44.28,178.14,44.28Zm9.12-16.8c0-8-4.38-11.58-9.12-11.58s-9.06,3.42-9.06,11.58c0,8,4.38,11.52,9.06,11.52S187.26,35.34,187.26,27.48Z"/><path d="M221.64,2.94v8.28H228V16h-6.36V34.38c0,3.3.54,4.14,3.66,4.14h2.64v5h-4.56c-6.54,0-8-1.62-8-8.28V16h-4.92V11.22h4.92V2.94Z"/><path d="M247.26,44.28c-7.62,0-15.66-5.16-15.66-16.8s8-16.86,15.66-16.86S263,15.78,263,27.48,254.94,44.28,247.26,44.28Zm9.12-16.8c0-8-4.38-11.58-9.12-11.58s-9.06,3.42-9.06,11.58c0,8,4.38,11.52,9.06,11.52S256.38,35.34,256.38,27.48Z"/><path d="M290.76,2.94v8.28h6.36V16h-6.36V34.38c0,3.3.54,4.14,3.66,4.14h2.64v5H292.5c-6.54,0-8-1.62-8-8.28V16H279.6V11.22h4.92V2.94Z"/><path d="M320.15,10.62c7.8,0,10.8,5,10.8,12.54V43.5h-6.24V24.84c0-4.68-.78-9-6.65-9-5.41,0-8.05,3.9-8.05,10.32V43.5h-6.23V0H310V15.9C311.88,12.72,315.11,10.62,320.15,10.62Z"/><path d="M367.13,34c-1.5,5.34-6.3,10.26-14.52,10.26-10.44,0-16.08-7.62-16.08-17,0-10,6.72-16.68,15.9-16.68,10,0,15.78,8.16,15.12,18.66H343c.61,5.94,4.38,9.66,9.42,9.66,4.5,0,7.14-1.86,8.46-4.92Zm-6.06-9.66c-.18-4.8-3.54-8.64-8.7-8.64-4.86,0-8.46,2.52-9.3,8.64Z"/><path d="M408.53,11.22l6,23.4,5.52-23.4h6.78l-9,32.28H412l-6.78-25-6.6,25h-5.88l-8.94-32.28h6.78l5.46,23.4,6-23.4Z"/><path d="M444.53,44.28c-7.62,0-15.66-5.16-15.66-16.8s8-16.86,15.66-16.86,15.72,5.16,15.72,16.86S452.21,44.28,444.53,44.28Zm9.12-16.8c0-8-4.38-11.58-9.12-11.58s-9.06,3.42-9.06,11.58c0,8,4.38,11.52,9.06,11.52S453.65,35.34,453.65,27.48Z"/><path d="M480.05,17.46c-4.8,0-7.32,2.34-7.32,9.12V43.5h-6.24V11.22h6.12v5.7a9.64,9.64,0,0,1,8.94-5.82,16.86,16.86,0,0,1,1.74.06v6.48A31,31,0,0,0,480.05,17.46Z"/><path d="M488.21,43.5V0h6.24V43.5Z"/><path d="M530.87,0V43.5h-6.24V38.94c-2,3.3-5.34,5.34-10.08,5.34-7.5,0-13.92-6.3-13.92-16.86s6.42-16.8,13.92-16.8c4.74,0,8.1,2,10.08,5.34V0ZM507.29,27.42c0,7.26,3.54,11.64,8.7,11.64,4.8,0,8.88-3.66,8.88-11.64S520.79,15.84,516,15.84C510.83,15.84,507.29,20.16,507.29,27.42Z"/><line class="cls-1" y1="92.44" x2="569.59" y2="92.44"/><polygon points="561.56 119.87 609.06 92.44 561.56 65.02 561.56 119.87"/></g></g></svg>