<svg xmlns="http://www.w3.org/2000/svg" viewBox="0 0 855.8 378.15"><g id="Layer_2" data-name="Layer 2"><g id="Layer_1-2" data-name="Layer 1"><rect x="557.27" y="358.24" width="19.9" height="19.9" rx="9.95"/><rect x="517.46" y="358.24" width="19.9" height="19.9" rx="9.95"/><rect x="477.66" y="358.24" width="19.9" height="19.9" rx="9.95"/><rect x="437.85" y="358.24" width="19.9" height="19.9" rx="9.95"/><rect x="537.37" y="338.34" width="19.9" height="19.9" rx="9.95"/><rect x="796.1" y="318.44" width="19.9" height="19.9" rx="9.95"/><rect x="756.29" y="318.44" width="19.9" height="19.9" rx="9.95"/><rect x="716.49" y="318.44" width="19.9" height="19.9" rx="9.95"/><rect x="676.68" y="318.44" width="19.9" height="19.9" rx="9.95"/><rect x="636.88" y="318.44" width="19.9" height="19.9" rx="9.95"/><rect x="597.07" y="318.44" width="19.9" height="19.9" rx="9.95"/><rect x="557.27" y="318.44" width="19.9" height="19.9" rx="9.95"/><rect x="517.46" y="318.44" width="19.9" height="19.9" rx="9.95"/><rect x="477.66" y="318.44" width="19.9" height="19.9" rx="9.95"/><rect x="437.85" y="318.44" width="19.9" height="19.9" rx="9.95"/><rect x="398.05" y="318.44" width="19.9" height="19.9" rx="9.95"/><rect x="358.24" y="318.44" width="19.9" height="19.9" rx="9.95"/><rect x="318.44" y="318.44" width="19.9" height="19.9" rx="9.95"/><rect y="318.44" width="19.9" height="19.9" rx="9.95"/><rect x="776.2" y="298.54" width="19.9" height="19.9" rx="9.95"/><rect x="736.39" y="298.54" width="19.9" height="19.9" rx="9.95"/><rect x="696.59" y="298.54" width="19.9" height="19.9" rx="9.95"/><rect x="656.78" y="298.54" width="19.9" height="19.9" rx="9.95"/><rect x="616.98" y="298.54" width="19.9" height="19.9" rx="9.95"/><rect x="577.17" y="298.54" width="19.9" height="19.9" rx="9.95"/><rect x="537.37" y="298.54" width="19.9" height="19.9" rx="9.95"/><rect x="497.56" y="298.54" width="19.9" height="19.9" rx="9.95"/><rect x="457.76" y="298.54" width="19.9" height="19.9" rx="9.95"/><rect x="378.15" y="298.54" width="19.9" height="19.9" rx="9.95"/><rect x="835.9" y="278.63" width="19.9" height="19.9" rx="9.95"/><rect x="796.1" y="278.63" width="19.9" height="19.9" rx="9.95"/><rect x="756.29" y="278.63" width="19.9" height="19.9" rx="9.95"/><rect x="716.49" y="278.63" width="19.9" height="19.9" rx="9.95"/><rect x="676.68" y="278.63" width="19.9" height="19.9" rx="9.95"/><rect x="636.88" y="278.63" width="19.9" height="19.9" rx="9.95"/><rect x="597.07" y="278.63" width="19.9" height="19.9" rx="9.95"/><rect x="557.27" y="278.63" width="19.9" height="19.9" rx="9.95"/><rect x="517.46" y="278.63" width="19.9" height="19.9" rx="9.95"/><rect x="477.66" y="278.63" width="19.9" height="19.9" rx="9.95"/><rect x="437.85" y="278.63" width="19.9" height="19.9" rx="9.95"/><rect x="398.05" y="278.63" width="19.9" height="19.9" rx="9.95"/><rect x="358.24" y="278.63" width="19.9" height="19.9" rx="9.95"/><rect x="318.44" y="278.63" width="19.9" height="19.9" rx="9.95"/><rect x="278.63" y="278.63" width="19.9" height="19.9" rx="9.95"/><rect x="238.83" y="278.63" width="19.9" height="19.9" rx="9.95"/><rect x="199.02" y="278.63" width="19.9" height="19.9" rx="9.95"/><rect x="119.41" y="278.63" width="19.9" height="19.9" rx="9.95"/><rect x="39.8" y="278.63" width="19.9" height="19.9" rx="9.95"/><rect x="736.39" y="258.73" width="19.9" height="19.9" rx="9.95"/><rect x="656.78" y="258.73" width="19.9" height="19.9" rx="9.95"/><rect x="616.98" y="258.73" width="19.9" height="19.9" rx="9.95"/><rect x="577.17" y="258.73" width="19.9" height="19.9" rx="9.95"/><rect x="537.37" y="258.73" width="19.9" height="19.9" rx="9.95"/><rect x="497.56" y="258.73" width="19.9" height="19.9" rx="9.95"/><rect x="417.95" y="258.73" width="19.9" height="19.9" rx="9.95"/><rect x="835.9" y="238.83" width="19.9" height="19.9" rx="9.95"/><rect x="796.1" y="238.83" width="19.9" height="19.9" rx="9.95"/><rect x="756.29" y="238.83" width="19.9" height="19.9" rx="9.95"/><rect x="716.49" y="238.83" width="19.9" height="19.9" rx="9.95"/><rect x="676.68" y="238.83" width="19.9" height="19.9" rx="9.95"/><rect x="636.88" y="238.83" width="19.9" height="19.9" rx="9.95"/><rect x="597.07" y="238.83" width="19.9" height="19.9" rx="9.95"/><rect x="557.27" y="238.83" width="19.9" height="19.9" rx="9.95"/><rect x="517.46" y="238.83" width="19.9" height="19.9" rx="9.95"/><rect x="477.66" y="238.83" width="19.9" height="19.9" rx="9.95"/><rect x="437.85" y="238.83" width="19.9" height="19.9" rx="9.95"/><rect x="398.05" y="238.83" width="19.9" height="19.9" rx="9.95"/><rect x="358.24" y="238.83" width="19.9" height="19.9" rx="9.95"/><rect x="318.44" y="238.83" width="19.9" height="19.9" rx="9.95"/><rect x="278.63" y="238.83" width="19.9" height="19.9" rx="9.95"/><rect x="238.83" y="238.83" width="19.9" height="19.9" rx="9.95"/><rect x="199.02" y="238.83" width="19.9" height="19.9" rx="9.95"/><rect x="159.22" y="238.83" width="19.9" height="19.9" rx="9.95"/><rect x="119.41" y="238.83" width="19.9" height="19.9" rx="9.95"/><rect x="79.61" y="238.83" width="19.9" height="19.9" rx="9.95"/><rect x="39.8" y="238.83" width="19.9" height="19.9" rx="9.95"/><rect x="736.39" y="218.93" width="19.9" height="19.9" rx="9.95"/><rect x="696.59" y="218.93" width="19.9" height="19.9" rx="9.95"/><rect x="656.78" y="218.93" width="19.9" height="19.9" rx="9.95"/><rect x="577.17" y="218.93" width="19.9" height="19.9" rx="9.95"/><rect x="258.73" y="218.93" width="19.9" height="19.9" rx="9.95"/><rect x="796.1" y="199.02" width="19.9" height="19.9" rx="9.95"/><rect x="756.29" y="199.02" width="19.9" height="19.9" rx="9.95"/><rect x="716.49" y="199.02" width="19.9" height="19.9" rx="9.95"/><rect x="676.68" y="199.02" width="19.9" height="19.9" rx="9.95"/><rect x="636.88" y="199.02" width="19.9" height="19.9" rx="9.95"/><rect x="597.07" y="199.02" width="19.9" height="19.9" rx="9.95"/><rect x="557.27" y="199.02" width="19.9" height="19.9" rx="9.95"/><rect x="517.46" y="199.02" width="19.9" height="19.9" rx="9.95"/><rect x="477.66" y="199.02" width="19.9" height="19.9" rx="9.95"/><rect x="398.05" y="199.02" width="19.9" height="19.9" rx="9.95"/><rect x="358.24" y="199.02" width="19.9" height="19.9" rx="9.95"/><rect x="318.44" y="199.02" width="19.9" height="19.9" rx="9.95"/><rect x="238.83" y="199.02" width="19.9" height="19.9" rx="9.95"/><rect x="159.22" y="199.02" width="19.9" height="19.9" rx="9.95"/><rect x="79.61" y="199.02" width="19.9" height="19.9" rx="9.95"/><rect y="199.02" width="19.9" height="19.9" rx="9.95"/><rect x="716.49" y="159.22" width="19.9" height="19.9" rx="9.95"/><rect x="676.68" y="159.22" width="19.9" height="19.9" rx="9.95"/><rect x="636.88" y="159.22" width="19.9" height="19.9" rx="9.95"/><rect x="597.07" y="159.22" width="19.9" height="19.9" rx="9.95"/><rect x="557.27" y="159.22" width="19.9" height="19.9" rx="9.95"/><rect x="517.46" y="159.22" width="19.9" height="19.9" rx="9.95"/><rect x="477.66" y="159.22" width="19.9" height="19.9" rx="9.95"/><rect x="437.85" y="159.22" width="19.9" height="19.9" rx="9.95"/><rect x="398.05" y="159.22" width="19.9" height="19.9" rx="9.95"/><rect x="358.24" y="159.22" width="19.9" height="19.9" rx="9.95"/><rect x="318.44" y="159.22" width="19.9" height="19.9" rx="9.95"/><rect x="278.63" y="159.22" width="19.9" height="19.9" rx="9.95"/><rect x="238.83" y="159.22" width="19.9" height="19.9" rx="9.95"/><rect x="159.22" y="159.22" width="19.9" height="19.9" rx="9.95"/><rect x="119.41" y="159.22" width="19.9" height="19.9" rx="9.95"/><rect x="79.61" y="159.22" width="19.9" height="19.9" rx="9.95"/><rect x="39.8" y="159.22" width="19.9" height="19.9" rx="9.95"/><rect y="159.22" width="19.9" height="19.9" rx="9.95"/><rect x="537.37" y="139.32" width="19.9" height="19.9" rx="9.95"/><rect x="676.68" y="119.41" width="19.9" height="19.9" rx="9.95"/><rect x="597.07" y="119.41" width="19.9" height="19.9" rx="9.95"/><rect x="557.27" y="119.41" width="19.9" height="19.9" rx="9.95"/><rect x="517.46" y="119.41" width="19.9" height="19.9" rx="9.95"/><rect x="437.85" y="119.41" width="19.9" height="19.9" rx="9.95"/><rect x="358.24" y="119.41" width="19.9" height="19.9" rx="9.95"/><rect x="278.63" y="119.41" width="19.9" height="19.9" rx="9.95"/><rect x="199.02" y="119.41" width="19.9" height="19.9" rx="9.95"/><rect x="119.41" y="119.41" width="19.9" height="19.9" rx="9.95"/><rect x="39.8" y="119.41" width="19.9" height="19.9" rx="9.95"/><rect x="676.68" y="79.61" width="19.9" height="19.9" rx="9.95"/><rect x="636.88" y="79.61" width="19.9" height="19.9" rx="9.95"/><rect x="597.07" y="79.61" width="19.9" height="19.9" rx="9.95"/><rect x="517.46" y="79.61" width="19.9" height="19.9" rx="9.95"/><rect x="437.85" y="79.61" width="19.9" height="19.9" rx="9.95"/><rect x="358.24" y="79.61" width="19.9" height="19.9" rx="9.95"/><rect x="318.44" y="79.61" width="19.9" height="19.9" rx="9.95"/><rect x="278.63" y="79.61" width="19.9" height="19.9" rx="9.95"/><rect x="238.83" y="79.61" width="19.9" height="19.9" rx="9.95"/><rect x="199.02" y="79.61" width="19.9" height="19.9" rx="9.95"/><rect x="119.41" y="79.61" width="19.9" height="19.9" rx="9.95"/><rect x="79.61" y="79.61" width="19.9" height="19.9" rx="9.95"/><rect x="39.8" y="79.61" width="19.9" height="19.9" rx="9.95"/><rect x="557.27" y="39.8" width="19.9" height="19.9" rx="9.95"/><rect x="398.05" y="39.8" width="19.9" height="19.9" rx="9.95"/><rect x="318.44" y="39.8" width="19.9" height="19.9" rx="9.95"/><rect x="278.63" y="39.8" width="19.9" height="19.9" rx="9.95"/><rect x="238.83" y="39.8" width="19.9" height="19.9" rx="9.95"/><rect x="557.27" width="19.9" height="19.9" rx="9.95"/><rect x="477.66" width="19.9" height="19.9" rx="9.95"/><rect x="398.05" width="19.9" height="19.9" rx="9.95"/><rect x="238.83" width="19.9" height="19.9" rx="9.95"/></g></g></svg>