<svg xmlns="http://www.w3.org/2000/svg" viewBox="0 0 1087.04 790.18"><g id="Layer_2" data-name="Layer 2"><g id="Layer_1-2" data-name="Layer 1"><rect x="217.41" y="770.42" width="19.76" height="19.75" rx="9.88"/><rect x="869.63" y="750.67" width="19.76" height="19.75" rx="9.88"/><rect x="790.58" y="750.67" width="19.76" height="19.75" rx="9.88"/><rect x="434.82" y="750.67" width="19.76" height="19.75" rx="9.88"/><rect x="276.7" y="750.67" width="19.76" height="19.75" rx="9.88"/><rect x="197.64" y="750.67" width="19.76" height="19.75" rx="9.88"/><rect x="810.34" y="730.91" width="19.76" height="19.75" rx="9.88"/><rect x="336" y="730.91" width="19.76" height="19.75" rx="9.88"/><rect x="948.69" y="711.16" width="19.76" height="19.75" rx="9.88"/><rect x="909.16" y="711.16" width="19.76" height="19.75" rx="9.88"/><rect x="869.63" y="711.16" width="19.76" height="19.75" rx="9.88"/><rect x="830.11" y="711.16" width="19.76" height="19.75" rx="9.88"/><rect x="790.58" y="711.16" width="19.76" height="19.75" rx="9.88"/><rect x="751.05" y="711.16" width="19.76" height="19.75" rx="9.88"/><rect x="711.52" y="711.16" width="19.76" height="19.75" rx="9.88"/><rect x="671.99" y="711.16" width="19.76" height="19.75" rx="9.88"/><rect x="632.46" y="711.16" width="19.76" height="19.75" rx="9.88"/><rect x="513.88" y="711.16" width="19.76" height="19.75" rx="9.88"/><rect x="474.35" y="711.16" width="19.76" height="19.75" rx="9.88"/><rect x="434.82" y="711.16" width="19.76" height="19.75" rx="9.88"/><rect x="395.29" y="711.16" width="19.76" height="19.75" rx="9.88"/><rect x="355.76" y="711.16" width="19.76" height="19.75" rx="9.88"/><rect x="336" y="711.16" width="19.76" height="19.75" rx="9.88"/><rect x="276.7" y="711.16" width="19.76" height="19.75" rx="9.88"/><rect x="237.17" y="711.16" width="19.76" height="19.75" rx="9.88"/><rect x="197.64" y="711.16" width="19.76" height="19.75" rx="9.88"/><rect x="731.28" y="691.41" width="19.76" height="19.75" rx="9.88"/><rect x="691.75" y="691.41" width="19.76" height="19.75" rx="9.88"/><rect x="652.23" y="691.41" width="19.76" height="19.75" rx="9.88"/><rect x="454.58" y="691.41" width="19.76" height="19.75" rx="9.88"/><rect x="336" y="691.41" width="19.76" height="19.75" rx="9.88"/><rect x="256.94" y="691.41" width="19.76" height="19.75" rx="9.88"/><rect x="948.69" y="671.65" width="19.76" height="19.75" rx="9.88"/><rect x="869.63" y="671.65" width="19.76" height="19.75" rx="9.88"/><rect x="790.58" y="671.65" width="19.76" height="19.75" rx="9.88"/><rect x="751.05" y="671.65" width="19.76" height="19.75" rx="9.88"/><rect x="711.52" y="671.65" width="19.76" height="19.75" rx="9.88"/><rect x="671.99" y="671.65" width="19.76" height="19.75" rx="9.88"/><rect x="632.46" y="671.65" width="19.76" height="19.75" rx="9.88"/><rect x="513.88" y="671.65" width="19.76" height="19.75" rx="9.88"/><rect x="474.35" y="671.65" width="19.76" height="19.75" rx="9.88"/><rect x="395.29" y="671.65" width="19.76" height="19.75" rx="9.88"/><rect x="316.23" y="671.65" width="19.76" height="19.75" rx="9.88"/><rect x="276.7" y="671.65" width="19.76" height="19.75" rx="9.88"/><rect x="237.17" y="671.65" width="19.76" height="19.75" rx="9.88"/><rect x="217.41" y="671.65" width="19.76" height="19.75" rx="9.88"/><rect x="197.64" y="671.65" width="19.76" height="19.75" rx="9.88"/><rect x="533.64" y="651.9" width="19.76" height="19.75" rx="9.88"/><rect x="454.58" y="651.9" width="19.76" height="19.75" rx="9.88"/><rect x="375.52" y="651.9" width="19.76" height="19.75" rx="9.88"/><rect x="256.94" y="651.9" width="19.76" height="19.75" rx="9.88"/><rect x="1027.75" y="632.14" width="19.76" height="19.75" rx="9.88"/><rect x="988.22" y="632.14" width="19.76" height="19.75" rx="9.88"/><rect x="948.69" y="632.14" width="19.76" height="19.75" rx="9.88"/><rect x="909.16" y="632.14" width="19.76" height="19.75" rx="9.88"/><rect x="869.63" y="632.14" width="19.76" height="19.75" rx="9.88"/><rect x="830.11" y="632.14" width="19.76" height="19.75" rx="9.88"/><rect x="790.58" y="632.14" width="19.76" height="19.75" rx="9.88"/><rect x="751.05" y="632.14" width="19.76" height="19.75" rx="9.88"/><rect x="711.52" y="632.14" width="19.76" height="19.75" rx="9.88"/><rect x="671.99" y="632.14" width="19.76" height="19.75" rx="9.88"/><rect x="513.88" y="632.14" width="19.76" height="19.75" rx="9.88"/><rect x="474.35" y="632.14" width="19.76" height="19.75" rx="9.88"/><rect x="454.58" y="632.14" width="19.76" height="19.75" rx="9.88"/><rect x="434.82" y="632.14" width="19.76" height="19.75" rx="9.88"/><rect x="395.29" y="632.14" width="19.76" height="19.75" rx="9.88"/><rect x="355.76" y="632.14" width="19.76" height="19.75" rx="9.88"/><rect x="336" y="632.14" width="19.76" height="19.75" rx="9.88"/><rect x="316.23" y="632.14" width="19.76" height="19.75" rx="9.88"/><rect x="296.47" y="632.14" width="19.76" height="19.75" rx="9.88"/><rect x="276.7" y="632.14" width="19.76" height="19.75" rx="9.88"/><rect x="237.17" y="632.14" width="19.76" height="19.75" rx="9.88"/><rect x="197.64" y="632.14" width="19.76" height="19.75" rx="9.88"/><rect x="158.12" y="632.14" width="19.76" height="19.75" rx="9.88"/><rect x="928.93" y="612.39" width="19.76" height="19.75" rx="9.88"/><rect x="889.4" y="612.39" width="19.76" height="19.75" rx="9.88"/><rect x="849.87" y="612.39" width="19.76" height="19.75" rx="9.88"/><rect x="770.81" y="612.39" width="19.76" height="19.75" rx="9.88"/><rect x="691.75" y="612.39" width="19.76" height="19.75" rx="9.88"/><rect x="652.23" y="612.39" width="19.76" height="19.75" rx="9.88"/><rect x="533.64" y="612.39" width="19.76" height="19.75" rx="9.88"/><rect x="415.05" y="612.39" width="19.76" height="19.75" rx="9.88"/><rect x="296.47" y="612.39" width="19.76" height="19.75" rx="9.88"/><rect x="256.94" y="612.39" width="19.76" height="19.75" rx="9.88"/><rect x="217.41" y="612.39" width="19.76" height="19.75" rx="9.88"/><rect x="138.35" y="612.39" width="19.76" height="19.75" rx="9.88"/><rect x="1027.75" y="592.63" width="19.76" height="19.75" rx="9.88"/><rect x="988.22" y="592.63" width="19.76" height="19.75" rx="9.88"/><rect x="948.69" y="592.63" width="19.76" height="19.75" rx="9.88"/><rect x="909.16" y="592.63" width="19.76" height="19.75" rx="9.88"/><rect x="889.4" y="592.63" width="19.76" height="19.75" rx="9.88"/><rect x="869.63" y="592.63" width="19.76" height="19.75" rx="9.88"/><rect x="830.11" y="592.63" width="19.76" height="19.75" rx="9.88"/><rect x="790.58" y="592.63" width="19.76" height="19.75" rx="9.88"/><rect x="751.05" y="592.63" width="19.76" height="19.75" rx="9.88"/><rect x="711.52" y="592.63" width="19.76" height="19.75" rx="9.88"/><rect x="671.99" y="592.63" width="19.76" height="19.75" rx="9.88"/><rect x="553.4" y="592.63" width="19.76" height="19.75" rx="9.88"/><rect x="513.88" y="592.63" width="19.76" height="19.75" rx="9.88"/><rect x="474.35" y="592.63" width="19.76" height="19.75" rx="9.88"/><rect x="434.82" y="592.63" width="19.76" height="19.75" rx="9.88"/><rect x="415.05" y="592.63" width="19.76" height="19.75" rx="9.88"/><rect x="395.29" y="592.63" width="19.76" height="19.75" rx="9.88"/><rect x="355.76" y="592.63" width="19.76" height="19.75" rx="9.88"/><rect x="276.7" y="592.63" width="19.76" height="19.75" rx="9.88"/><rect x="237.17" y="592.63" width="19.76" height="19.75" rx="9.88"/><rect x="197.64" y="592.63" width="19.76" height="19.75" rx="9.88"/><rect x="158.12" y="592.63" width="19.76" height="19.75" rx="9.88"/><rect x="928.93" y="572.88" width="19.76" height="19.75" rx="9.88"/><rect x="810.34" y="572.88" width="19.76" height="19.75" rx="9.88"/><rect x="770.81" y="572.88" width="19.76" height="19.75" rx="9.88"/><rect x="731.28" y="572.88" width="19.76" height="19.75" rx="9.88"/><rect x="691.75" y="572.88" width="19.76" height="19.75" rx="9.88"/><rect x="652.23" y="572.88" width="19.76" height="19.75" rx="9.88"/><rect x="573.17" y="572.88" width="19.76" height="19.75" rx="9.88"/><rect x="1027.75" y="553.12" width="19.76" height="19.75" rx="9.88"/><rect x="988.22" y="553.12" width="19.76" height="19.75" rx="9.88"/><rect x="948.69" y="553.12" width="19.76" height="19.75" rx="9.88"/><rect x="928.93" y="553.12" width="19.76" height="19.75" rx="9.88"/><rect x="830.11" y="553.12" width="19.76" height="19.75" rx="9.88"/><rect x="790.58" y="553.12" width="19.76" height="19.75" rx="9.88"/><rect x="751.05" y="553.12" width="19.76" height="19.75" rx="9.88"/><rect x="711.52" y="553.12" width="19.76" height="19.75" rx="9.88"/><rect x="671.99" y="553.12" width="19.76" height="19.75" rx="9.88"/><rect x="553.4" y="553.12" width="19.76" height="19.75" rx="9.88"/><rect x="513.88" y="553.12" width="19.76" height="19.75" rx="9.88"/><rect x="474.35" y="553.12" width="19.76" height="19.75" rx="9.88"/><rect x="434.82" y="553.12" width="19.76" height="19.75" rx="9.88"/><rect x="395.29" y="553.12" width="19.76" height="19.75" rx="9.88"/><rect x="355.76" y="553.12" width="19.76" height="19.75" rx="9.88"/><rect x="316.23" y="553.12" width="19.76" height="19.75" rx="9.88"/><rect x="276.7" y="553.12" width="19.76" height="19.75" rx="9.88"/><rect x="237.17" y="553.12" width="19.76" height="19.75" rx="9.88"/><rect x="197.64" y="553.12" width="19.76" height="19.75" rx="9.88"/><rect x="158.12" y="553.12" width="19.76" height="19.75" rx="9.88"/><rect x="118.59" y="553.12" width="19.76" height="19.75" rx="9.88"/><rect x="928.93" y="533.37" width="19.76" height="19.75" rx="9.88"/><rect x="810.34" y="533.37" width="19.76" height="19.75" rx="9.88"/><rect x="770.81" y="533.37" width="19.76" height="19.75" rx="9.88"/><rect x="652.23" y="533.37" width="19.76" height="19.75" rx="9.88"/><rect x="573.17" y="533.37" width="19.76" height="19.75" rx="9.88"/><rect x="494.11" y="533.37" width="19.76" height="19.75" rx="9.88"/><rect x="415.05" y="533.37" width="19.76" height="19.75" rx="9.88"/><rect x="336" y="533.37" width="19.76" height="19.75" rx="9.88"/><rect x="1027.75" y="513.62" width="19.76" height="19.75" rx="9.88"/><rect x="948.69" y="513.62" width="19.76" height="19.75" rx="9.88"/><rect x="790.58" y="513.62" width="19.76" height="19.75" rx="9.88"/><rect x="711.52" y="513.62" width="19.76" height="19.75" rx="9.88"/><rect x="671.99" y="513.62" width="19.76" height="19.75" rx="9.88"/><rect x="592.93" y="513.62" width="19.76" height="19.75" rx="9.88"/><rect x="553.4" y="513.62" width="19.76" height="19.75" rx="9.88"/><rect x="474.35" y="513.62" width="19.76" height="19.75" rx="9.88"/><rect x="434.82" y="513.62" width="19.76" height="19.75" rx="9.88"/><rect x="395.29" y="513.62" width="19.76" height="19.75" rx="9.88"/><rect x="355.76" y="513.62" width="19.76" height="19.75" rx="9.88"/><rect x="316.23" y="513.62" width="19.76" height="19.75" rx="9.88"/><rect x="276.7" y="513.62" width="19.76" height="19.75" rx="9.88"/><rect x="237.17" y="513.62" width="19.76" height="19.75" rx="9.88"/><rect x="158.12" y="513.62" width="19.76" height="19.75" rx="9.88"/><rect x="928.93" y="493.86" width="19.76" height="19.75" rx="9.88"/><rect x="849.87" y="493.86" width="19.76" height="19.75" rx="9.88"/><rect x="415.05" y="493.86" width="19.76" height="19.75" rx="9.88"/><rect x="375.52" y="493.86" width="19.76" height="19.75" rx="9.88"/><rect x="336" y="493.86" width="19.76" height="19.75" rx="9.88"/><rect x="138.35" y="493.86" width="19.76" height="19.75" rx="9.88"/><rect x="1027.75" y="474.11" width="19.76" height="19.75" rx="9.88"/><rect x="988.22" y="474.11" width="19.76" height="19.75" rx="9.88"/><rect x="948.69" y="474.11" width="19.76" height="19.75" rx="9.88"/><rect x="928.93" y="474.11" width="19.76" height="19.75" rx="9.88"/><rect x="869.63" y="474.11" width="19.76" height="19.75" rx="9.88"/><rect x="830.11" y="474.11" width="19.76" height="19.75" rx="9.88"/><rect x="790.58" y="474.11" width="19.76" height="19.75" rx="9.88"/><rect x="751.05" y="474.11" width="19.76" height="19.75" rx="9.88"/><rect x="711.52" y="474.11" width="19.76" height="19.75" rx="9.88"/><rect x="671.99" y="474.11" width="19.76" height="19.75" rx="9.88"/><rect x="612.7" y="474.11" width="19.76" height="19.75" rx="9.88"/><rect x="592.93" y="474.11" width="19.76" height="19.75" rx="9.88"/><rect x="553.4" y="474.11" width="19.76" height="19.75" rx="9.88"/><rect x="513.88" y="474.11" width="19.76" height="19.75" rx="9.88"/><rect x="474.35" y="474.11" width="19.76" height="19.75" rx="9.88"/><rect x="434.82" y="474.11" width="19.76" height="19.75" rx="9.88"/><rect x="395.29" y="474.11" width="19.76" height="19.75" rx="9.88"/><rect x="355.76" y="474.11" width="19.76" height="19.75" rx="9.88"/><rect x="316.23" y="474.11" width="19.76" height="19.75" rx="9.88"/><rect x="276.7" y="474.11" width="19.76" height="19.75" rx="9.88"/><rect x="237.17" y="474.11" width="19.76" height="19.75" rx="9.88"/><rect x="197.64" y="474.11" width="19.76" height="19.75" rx="9.88"/><rect x="158.12" y="474.11" width="19.76" height="19.75" rx="9.88"/><rect x="1007.99" y="454.35" width="19.76" height="19.75" rx="9.88"/><rect x="928.93" y="454.35" width="19.76" height="19.75" rx="9.88"/><rect x="849.87" y="454.35" width="19.76" height="19.75" rx="9.88"/><rect x="691.75" y="454.35" width="19.76" height="19.75" rx="9.88"/><rect x="612.7" y="454.35" width="19.76" height="19.75" rx="9.88"/><rect x="454.58" y="454.35" width="19.76" height="19.75" rx="9.88"/><rect x="336" y="454.35" width="19.76" height="19.75" rx="9.88"/><rect x="296.47" y="454.35" width="19.76" height="19.75" rx="9.88"/><rect x="988.22" y="434.6" width="19.76" height="19.75" rx="9.88"/><rect x="948.69" y="434.6" width="19.76" height="19.75" rx="9.88"/><rect x="909.16" y="434.6" width="19.76" height="19.75" rx="9.88"/><rect x="869.63" y="434.6" width="19.76" height="19.75" rx="9.88"/><rect x="830.11" y="434.6" width="19.76" height="19.75" rx="9.88"/><rect x="790.58" y="434.6" width="19.76" height="19.75" rx="9.88"/><rect x="751.05" y="434.6" width="19.76" height="19.75" rx="9.88"/><rect x="711.52" y="434.6" width="19.76" height="19.75" rx="9.88"/><rect x="592.93" y="434.6" width="19.76" height="19.75" rx="9.88"/><rect x="513.88" y="434.6" width="19.76" height="19.75" rx="9.88"/><rect x="474.35" y="434.6" width="19.76" height="19.75" rx="9.88"/><rect x="434.82" y="434.6" width="19.76" height="19.75" rx="9.88"/><rect x="355.76" y="434.6" width="19.76" height="19.75" rx="9.88"/><rect x="316.23" y="434.6" width="19.76" height="19.75" rx="9.88"/><rect x="276.7" y="434.6" width="19.76" height="19.75" rx="9.88"/><rect x="197.64" y="434.6" width="19.76" height="19.75" rx="9.88"/><rect x="158.12" y="434.6" width="19.76" height="19.75" rx="9.88"/><rect x="928.93" y="414.84" width="19.76" height="19.75" rx="9.88"/><rect x="731.28" y="414.84" width="19.76" height="19.75" rx="9.88"/><rect x="336" y="414.84" width="19.76" height="19.75" rx="9.88"/><rect x="988.22" y="395.09" width="19.76" height="19.75" rx="9.88"/><rect x="948.69" y="395.09" width="19.76" height="19.75" rx="9.88"/><rect x="909.16" y="395.09" width="19.76" height="19.75" rx="9.88"/><rect x="869.63" y="395.09" width="19.76" height="19.75" rx="9.88"/><rect x="830.11" y="395.09" width="19.76" height="19.75" rx="9.88"/><rect x="790.58" y="395.09" width="19.76" height="19.75" rx="9.88"/><rect x="751.05" y="395.09" width="19.76" height="19.75" rx="9.88"/><rect x="731.28" y="395.09" width="19.76" height="19.75" rx="9.88"/><rect x="632.46" y="395.09" width="19.76" height="19.75" rx="9.88"/><rect x="592.93" y="395.09" width="19.76" height="19.75" rx="9.88"/><rect x="513.88" y="395.09" width="19.76" height="19.75" rx="9.88"/><rect x="474.35" y="395.09" width="19.76" height="19.75" rx="9.88"/><rect x="395.29" y="395.09" width="19.76" height="19.75" rx="9.88"/><rect x="355.76" y="395.09" width="19.76" height="19.75" rx="9.88"/><rect x="316.23" y="395.09" width="19.76" height="19.75" rx="9.88"/><rect x="276.7" y="395.09" width="19.76" height="19.75" rx="9.88"/><rect x="237.17" y="395.09" width="19.76" height="19.75" rx="9.88"/><rect x="197.64" y="395.09" width="19.76" height="19.75" rx="9.88"/><rect x="968.46" y="375.33" width="19.76" height="19.75" rx="9.88"/><rect x="889.4" y="375.33" width="19.76" height="19.75" rx="9.88"/><rect x="731.28" y="375.33" width="19.76" height="19.75" rx="9.88"/><rect x="652.23" y="375.33" width="19.76" height="19.75" rx="9.88"/><rect x="494.11" y="375.33" width="19.76" height="19.75" rx="9.88"/><rect x="415.05" y="375.33" width="19.76" height="19.75" rx="9.88"/><rect x="375.52" y="375.33" width="19.76" height="19.75" rx="9.88"/><rect x="948.69" y="355.58" width="19.76" height="19.75" rx="9.88"/><rect x="869.63" y="355.58" width="19.76" height="19.75" rx="9.88"/><rect x="790.58" y="355.58" width="19.76" height="19.75" rx="9.88"/><rect x="751.05" y="355.58" width="19.76" height="19.75" rx="9.88"/><rect x="671.99" y="355.58" width="19.76" height="19.75" rx="9.88"/><rect x="632.46" y="355.58" width="19.76" height="19.75" rx="9.88"/><rect x="553.4" y="355.58" width="19.76" height="19.75" rx="9.88"/><rect x="513.88" y="355.58" width="19.76" height="19.75" rx="9.88"/><rect x="474.35" y="355.58" width="19.76" height="19.75" rx="9.88"/><rect x="434.82" y="355.58" width="19.76" height="19.75" rx="9.88"/><rect x="395.29" y="355.58" width="19.76" height="19.75" rx="9.88"/><rect x="355.76" y="355.58" width="19.76" height="19.75" rx="9.88"/><rect x="316.23" y="355.58" width="19.76" height="19.75" rx="9.88"/><rect x="237.17" y="355.58" width="19.76" height="19.75" rx="9.88"/><rect x="928.93" y="335.83" width="19.76" height="19.75" rx="9.88"/><rect x="770.81" y="335.83" width="19.76" height="19.75" rx="9.88"/><rect x="731.28" y="335.83" width="19.76" height="19.75" rx="9.88"/><rect x="691.75" y="335.83" width="19.76" height="19.75" rx="9.88"/><rect x="494.11" y="335.83" width="19.76" height="19.75" rx="9.88"/><rect x="415.05" y="335.83" width="19.76" height="19.75" rx="9.88"/><rect x="1067.28" y="316.07" width="19.76" height="19.75" rx="9.88"/><rect x="1027.75" y="316.07" width="19.76" height="19.75" rx="9.88"/><rect x="988.22" y="316.07" width="19.76" height="19.75" rx="9.88"/><rect x="948.69" y="316.07" width="19.76" height="19.75" rx="9.88"/><rect x="928.93" y="316.07" width="19.76" height="19.75" rx="9.88"/><rect x="909.16" y="316.07" width="19.76" height="19.75" rx="9.88"/><rect x="869.63" y="316.07" width="19.76" height="19.75" rx="9.88"/><rect x="830.11" y="316.07" width="19.76" height="19.75" rx="9.88"/><rect x="790.58" y="316.07" width="19.76" height="19.75" rx="9.88"/><rect x="751.05" y="316.07" width="19.76" height="19.75" rx="9.88"/><rect x="711.52" y="316.07" width="19.76" height="19.75" rx="9.88"/><rect x="671.99" y="316.07" width="19.76" height="19.75" rx="9.88"/><rect x="632.46" y="316.07" width="19.76" height="19.75" rx="9.88"/><rect x="592.93" y="316.07" width="19.76" height="19.75" rx="9.88"/><rect x="553.4" y="316.07" width="19.76" height="19.75" rx="9.88"/><rect x="513.88" y="316.07" width="19.76" height="19.75" rx="9.88"/><rect x="434.82" y="316.07" width="19.76" height="19.75" rx="9.88"/><rect x="395.29" y="316.07" width="19.76" height="19.75" rx="9.88"/><rect x="355.76" y="316.07" width="19.76" height="19.75" rx="9.88"/><rect x="316.23" y="316.07" width="19.76" height="19.75" rx="9.88"/><rect x="276.7" y="316.07" width="19.76" height="19.75" rx="9.88"/><rect x="928.93" y="296.32" width="19.76" height="19.75" rx="9.88"/><rect x="889.4" y="296.32" width="19.76" height="19.75" rx="9.88"/><rect x="691.75" y="296.32" width="19.76" height="19.75" rx="9.88"/><rect x="533.64" y="296.32" width="19.76" height="19.75" rx="9.88"/><rect x="454.58" y="296.32" width="19.76" height="19.75" rx="9.88"/><rect x="296.47" y="296.32" width="19.76" height="19.75" rx="9.88"/><rect x="1067.28" y="276.56" width="19.76" height="19.75" rx="9.88"/><rect x="1027.75" y="276.56" width="19.76" height="19.75" rx="9.88"/><rect x="988.22" y="276.56" width="19.76" height="19.75" rx="9.88"/><rect x="948.69" y="276.56" width="19.76" height="19.75" rx="9.88"/><rect x="909.16" y="276.56" width="19.76" height="19.75" rx="9.88"/><rect x="869.63" y="276.56" width="19.76" height="19.75" rx="9.88"/><rect x="830.11" y="276.56" width="19.76" height="19.75" rx="9.88"/><rect x="751.05" y="276.56" width="19.76" height="19.75" rx="9.88"/><rect x="671.99" y="276.56" width="19.76" height="19.75" rx="9.88"/><rect x="592.93" y="276.56" width="19.76" height="19.75" rx="9.88"/><rect x="553.4" y="276.56" width="19.76" height="19.75" rx="9.88"/><rect x="513.88" y="276.56" width="19.76" height="19.75" rx="9.88"/><rect x="474.35" y="276.56" width="19.76" height="19.75" rx="9.88"/><rect x="434.82" y="276.56" width="19.76" height="19.75" rx="9.88"/><rect x="395.29" y="276.56" width="19.76" height="19.75" rx="9.88"/><rect x="355.76" y="276.56" width="19.76" height="19.75" rx="9.88"/><rect x="316.23" y="276.56" width="19.76" height="19.75" rx="9.88"/><rect x="573.17" y="256.81" width="19.76" height="19.75" rx="9.88"/><rect x="454.58" y="256.81" width="19.76" height="19.75" rx="9.88"/><rect x="256.94" y="256.81" width="19.76" height="19.75" rx="9.88"/><rect x="138.35" y="256.81" width="19.76" height="19.75" rx="9.88"/><rect x="1067.28" y="237.05" width="19.76" height="19.75" rx="9.88"/><rect x="1027.75" y="237.05" width="19.76" height="19.75" rx="9.88"/><rect x="988.22" y="237.05" width="19.76" height="19.75" rx="9.88"/><rect x="869.63" y="237.05" width="19.76" height="19.75" rx="9.88"/><rect x="830.11" y="237.05" width="19.76" height="19.75" rx="9.88"/><rect x="790.58" y="237.05" width="19.76" height="19.75" rx="9.88"/><rect x="751.05" y="237.05" width="19.76" height="19.75" rx="9.88"/><rect x="671.99" y="237.05" width="19.76" height="19.75" rx="9.88"/><rect x="632.46" y="237.05" width="19.76" height="19.75" rx="9.88"/><rect x="592.93" y="237.05" width="19.76" height="19.75" rx="9.88"/><rect x="553.4" y="237.05" width="19.76" height="19.75" rx="9.88"/><rect x="474.35" y="237.05" width="19.76" height="19.75" rx="9.88"/><rect x="434.82" y="237.05" width="19.76" height="19.75" rx="9.88"/><rect x="395.29" y="237.05" width="19.76" height="19.75" rx="9.88"/><rect x="355.76" y="237.05" width="19.76" height="19.75" rx="9.88"/><rect x="316.23" y="237.05" width="19.76" height="19.75" rx="9.88"/><rect x="276.7" y="237.05" width="19.76" height="19.75" rx="9.88"/><rect x="237.17" y="237.05" width="19.76" height="19.75" rx="9.88"/><rect x="197.64" y="237.05" width="19.76" height="19.75" rx="9.88"/><rect x="158.12" y="237.05" width="19.76" height="19.75" rx="9.88"/><rect x="118.59" y="237.05" width="19.76" height="19.75" rx="9.88"/><rect x="79.06" y="237.05" width="19.76" height="19.75" rx="9.88"/><rect x="39.53" y="237.05" width="19.76" height="19.75" rx="9.88"/><rect x="849.87" y="217.3" width="19.76" height="19.75" rx="9.88"/><rect x="98.82" y="217.3" width="19.76" height="19.75" rx="9.88"/><rect x="830.11" y="197.54" width="19.76" height="19.75" rx="9.88"/><rect x="790.58" y="197.54" width="19.76" height="19.75" rx="9.88"/><rect x="751.05" y="197.54" width="19.76" height="19.75" rx="9.88"/><rect x="711.52" y="197.54" width="19.76" height="19.75" rx="9.88"/><rect x="671.99" y="197.54" width="19.76" height="19.75" rx="9.88"/><rect x="632.46" y="197.54" width="19.76" height="19.75" rx="9.88"/><rect x="513.88" y="197.54" width="19.76" height="19.75" rx="9.88"/><rect x="474.35" y="197.54" width="19.76" height="19.75" rx="9.88"/><rect x="434.82" y="197.54" width="19.76" height="19.75" rx="9.88"/><rect x="395.29" y="197.54" width="19.76" height="19.75" rx="9.88"/><rect x="316.23" y="197.54" width="19.76" height="19.75" rx="9.88"/><rect x="276.7" y="197.54" width="19.76" height="19.75" rx="9.88"/><rect x="237.17" y="197.54" width="19.76" height="19.75" rx="9.88"/><rect x="197.64" y="197.54" width="19.76" height="19.75" rx="9.88"/><rect x="158.12" y="197.54" width="19.76" height="19.75" rx="9.88"/><rect x="118.59" y="197.54" width="19.76" height="19.75" rx="9.88"/><rect x="79.06" y="197.54" width="19.76" height="19.75" rx="9.88"/><rect x="39.53" y="197.54" width="19.76" height="19.75" rx="9.88"/><rect x="770.81" y="177.79" width="19.76" height="19.75" rx="9.88"/><rect x="731.28" y="177.79" width="19.76" height="19.75" rx="9.88"/><rect x="691.75" y="177.79" width="19.76" height="19.75" rx="9.88"/><rect x="652.23" y="177.79" width="19.76" height="19.75" rx="9.88"/><rect x="494.11" y="177.79" width="19.76" height="19.75" rx="9.88"/><rect x="59.29" y="177.79" width="19.76" height="19.75" rx="9.88"/><rect x="790.58" y="158.04" width="19.76" height="19.75" rx="9.88"/><rect x="751.05" y="158.04" width="19.76" height="19.75" rx="9.88"/><rect x="711.52" y="158.04" width="19.76" height="19.75" rx="9.88"/><rect x="671.99" y="158.04" width="19.76" height="19.75" rx="9.88"/><rect x="474.35" y="158.04" width="19.76" height="19.75" rx="9.88"/><rect x="434.82" y="158.04" width="19.76" height="19.75" rx="9.88"/><rect x="395.29" y="158.04" width="19.76" height="19.75" rx="9.88"/><rect x="355.76" y="158.04" width="19.76" height="19.75" rx="9.88"/><rect x="316.23" y="158.04" width="19.76" height="19.75" rx="9.88"/><rect x="296.47" y="158.04" width="19.76" height="19.75" rx="9.88"/><rect x="276.7" y="158.04" width="19.76" height="19.75" rx="9.88"/><rect x="237.17" y="158.04" width="19.76" height="19.75" rx="9.88"/><rect x="197.64" y="158.04" width="19.76" height="19.75" rx="9.88"/><rect x="158.12" y="158.04" width="19.76" height="19.75" rx="9.88"/><rect y="158.04" width="19.76" height="19.75" rx="9.88"/><rect x="533.64" y="138.28" width="19.76" height="19.75" rx="9.88"/><rect x="375.52" y="138.28" width="19.76" height="19.75" rx="9.88"/><rect x="217.41" y="138.28" width="19.76" height="19.75" rx="9.88"/><rect x="177.88" y="138.28" width="19.76" height="19.75" rx="9.88"/><rect x="138.35" y="138.28" width="19.76" height="19.75" rx="9.88"/><rect x="98.82" y="138.28" width="19.76" height="19.75" rx="9.88"/><rect x="474.35" y="118.53" width="19.76" height="19.75" rx="9.88"/><rect x="434.82" y="118.53" width="19.76" height="19.75" rx="9.88"/><rect x="395.29" y="118.53" width="19.76" height="19.75" rx="9.88"/><rect x="355.76" y="118.53" width="19.76" height="19.75" rx="9.88"/><rect x="316.23" y="118.53" width="19.76" height="19.75" rx="9.88"/><rect x="276.7" y="118.53" width="19.76" height="19.75" rx="9.88"/><rect x="237.17" y="118.53" width="19.76" height="19.75" rx="9.88"/><rect x="197.64" y="118.53" width="19.76" height="19.75" rx="9.88"/><rect x="158.12" y="118.53" width="19.76" height="19.75" rx="9.88"/><rect x="118.59" y="118.53" width="19.76" height="19.75" rx="9.88"/><rect x="79.06" y="118.53" width="19.76" height="19.75" rx="9.88"/><rect x="494.11" y="98.77" width="19.76" height="19.75" rx="9.88"/><rect x="256.94" y="98.77" width="19.76" height="19.75" rx="9.88"/><rect x="217.41" y="98.77" width="19.76" height="19.75" rx="9.88"/><rect x="177.88" y="98.77" width="19.76" height="19.75" rx="9.88"/><rect x="98.82" y="98.77" width="19.76" height="19.75" rx="9.88"/><rect x="59.29" y="98.77" width="19.76" height="19.75" rx="9.88"/><rect x="513.88" y="79.02" width="19.76" height="19.75" rx="9.88"/><rect x="474.35" y="79.02" width="19.76" height="19.75" rx="9.88"/><rect x="434.82" y="79.02" width="19.76" height="19.75" rx="9.88"/><rect x="395.29" y="79.02" width="19.76" height="19.75" rx="9.88"/><rect x="355.76" y="79.02" width="19.76" height="19.75" rx="9.88"/><rect x="316.23" y="79.02" width="19.76" height="19.75" rx="9.88"/><rect x="276.7" y="79.02" width="19.76" height="19.75" rx="9.88"/><rect x="237.17" y="79.02" width="19.76" height="19.75" rx="9.88"/><rect x="197.64" y="79.02" width="19.76" height="19.75" rx="9.88"/><rect x="158.12" y="79.02" width="19.76" height="19.75" rx="9.88"/><rect x="118.59" y="79.02" width="19.76" height="19.75" rx="9.88"/><rect x="79.06" y="79.02" width="19.76" height="19.75" rx="9.88"/><rect x="415.05" y="59.26" width="19.76" height="19.75" rx="9.88"/><rect x="375.52" y="59.26" width="19.76" height="19.75" rx="9.88"/><rect x="336" y="59.26" width="19.76" height="19.75" rx="9.88"/><rect x="256.94" y="59.26" width="19.76" height="19.75" rx="9.88"/><rect x="138.35" y="59.26" width="19.76" height="19.75" rx="9.88"/><rect x="98.82" y="59.26" width="19.76" height="19.75" rx="9.88"/><rect x="59.29" y="59.26" width="19.76" height="19.75" rx="9.88"/><rect x="474.35" y="39.51" width="19.76" height="19.75" rx="9.88"/><rect x="395.29" y="39.51" width="19.76" height="19.75" rx="9.88"/><rect x="355.76" y="39.51" width="19.76" height="19.75" rx="9.88"/><rect x="276.7" y="39.51" width="19.76" height="19.75" rx="9.88"/><rect x="118.59" y="39.51" width="19.76" height="19.75" rx="9.88"/><rect x="79.06" y="39.51" width="19.76" height="19.75" rx="9.88"/><rect x="533.64" y="19.75" width="19.76" height="19.75" rx="9.88"/><rect x="553.4" width="19.76" height="19.75" rx="9.88"/><rect x="395.29" width="19.76" height="19.75" rx="9.88"/></g></g></svg>