<svg xmlns="http://www.w3.org/2000/svg" viewBox="0 0 1405.48 691.31"><defs><style>.cls-1{fill:aqua;}</style></defs><g id="Layer_2" data-name="Layer 2"><g id="Layer_1-2" data-name="Layer 1"><polygon class="cls-1" points="0 4.56 1011.66 0 1405.48 138.67 1405.48 691.31 0 691.31 0 4.56"/><path d="M652.27,515.1h2.82v5h-2.4c-3.18,0-3.84.66-3.84,4v2.21h6.24v4.74h-6.24v27.54h-6.24V531.05h-4.5v-4.74h4.5v-2.16C642.61,517,644.71,515.1,652.27,515.1Z"/><path d="M660.55,558.59V515.1h6.24v43.49Z"/><path d="M688.69,559.37c-7.62,0-15.66-5.16-15.66-16.8s8-16.86,15.66-16.86,15.72,5.16,15.72,16.86S696.37,559.37,688.69,559.37Zm9.12-16.8c0-8-4.38-11.58-9.12-11.58s-9.06,3.42-9.06,11.58c0,8,4.38,11.52,9.06,11.52S697.81,550.43,697.81,542.57Z"/><path d="M724.63,559.37c-7.62,0-15.66-5.16-15.66-16.8s8-16.86,15.66-16.86,15.72,5.16,15.72,16.86S732.31,559.37,724.63,559.37Zm9.12-16.8c0-8-4.38-11.58-9.12-11.58s-9.06,3.42-9.06,11.58c0,8,4.38,11.52,9.06,11.52S733.75,550.43,733.75,542.57Z"/><path d="M760.15,532.55c-4.8,0-7.32,2.34-7.32,9.12v16.92h-6.24V526.31h6.12V532a9.64,9.64,0,0,1,8.94-5.82,16.86,16.86,0,0,1,1.74.06v6.48A31,31,0,0,0,760.15,532.55Z"/></g></g></svg>