<svg xmlns="http://www.w3.org/2000/svg" viewBox="0 0 842.32 492.71"><defs><style>.cls-1{font-size:60px;font-family:SuisseIntl-Book, Suisse Intl;}.cls-2{letter-spacing:0.01em;}</style></defs><g id="Layer_2" data-name="Layer 2"><g id="Layer_1-2" data-name="Layer 1"><text class="cls-1" transform="translate(265.88 478.43)"><tspan class="cls-2">p</tspan><tspan x="36.9" y="0">oint cloud</tspan></text><rect x="548.49" y="352.6" width="19.59" height="19.59" rx="9.79"/><rect x="509.31" y="352.6" width="19.59" height="19.59" rx="9.79"/><rect x="470.13" y="352.6" width="19.59" height="19.59" rx="9.79"/><rect x="430.96" y="352.6" width="19.59" height="19.59" rx="9.79"/><rect x="528.9" y="333.01" width="19.59" height="19.59" rx="9.79"/><rect x="783.56" y="313.42" width="19.59" height="19.59" rx="9.79"/><rect x="744.38" y="313.42" width="19.59" height="19.59" rx="9.79"/><rect x="705.2" y="313.42" width="19.59" height="19.59" rx="9.79"/><rect x="666.02" y="313.42" width="19.59" height="19.59" rx="9.79"/><rect x="626.85" y="313.42" width="19.59" height="19.59" rx="9.79"/><rect x="587.67" y="313.42" width="19.59" height="19.59" rx="9.79"/><rect x="548.49" y="313.42" width="19.59" height="19.59" rx="9.79"/><rect x="509.31" y="313.42" width="19.59" height="19.59" rx="9.79"/><rect x="470.13" y="313.42" width="19.59" height="19.59" rx="9.79"/><rect x="430.96" y="313.42" width="19.59" height="19.59" rx="9.79"/><rect x="391.78" y="313.42" width="19.59" height="19.59" rx="9.79"/><rect x="352.6" y="313.42" width="19.59" height="19.59" rx="9.79"/><rect x="313.42" y="313.42" width="19.59" height="19.59" rx="9.79"/><rect y="313.42" width="19.59" height="19.59" rx="9.79"/><rect x="763.97" y="293.83" width="19.59" height="19.59" rx="9.79"/><rect x="724.79" y="293.83" width="19.59" height="19.59" rx="9.79"/><rect x="685.61" y="293.83" width="19.59" height="19.59" rx="9.79"/><rect x="646.43" y="293.83" width="19.59" height="19.59" rx="9.79"/><rect x="607.26" y="293.83" width="19.59" height="19.59" rx="9.79"/><rect x="568.08" y="293.83" width="19.59" height="19.59" rx="9.79"/><rect x="528.9" y="293.83" width="19.59" height="19.59" rx="9.79"/><rect x="489.72" y="293.83" width="19.59" height="19.59" rx="9.79"/><rect x="450.55" y="293.83" width="19.59" height="19.59" rx="9.79"/><rect x="372.19" y="293.83" width="19.59" height="19.59" rx="9.79"/><rect x="822.73" y="274.24" width="19.59" height="19.59" rx="9.79"/><rect x="783.56" y="274.24" width="19.59" height="19.59" rx="9.79"/><rect x="744.38" y="274.24" width="19.59" height="19.59" rx="9.79"/><rect x="705.2" y="274.24" width="19.59" height="19.59" rx="9.79"/><rect x="666.02" y="274.24" width="19.59" height="19.59" rx="9.79"/><rect x="626.85" y="274.24" width="19.59" height="19.59" rx="9.79"/><rect x="587.67" y="274.24" width="19.59" height="19.59" rx="9.79"/><rect x="548.49" y="274.24" width="19.59" height="19.59" rx="9.79"/><rect x="509.31" y="274.24" width="19.59" height="19.59" rx="9.79"/><rect x="470.13" y="274.24" width="19.59" height="19.59" rx="9.79"/><rect x="430.96" y="274.24" width="19.59" height="19.59" rx="9.79"/><rect x="391.78" y="274.24" width="19.59" height="19.59" rx="9.79"/><rect x="352.6" y="274.24" width="19.59" height="19.59" rx="9.79"/><rect x="313.42" y="274.24" width="19.59" height="19.59" rx="9.79"/><rect x="274.24" y="274.24" width="19.59" height="19.59" rx="9.79"/><rect x="235.07" y="274.24" width="19.59" height="19.59" rx="9.79"/><rect x="195.89" y="274.24" width="19.59" height="19.59" rx="9.79"/><rect x="117.53" y="274.24" width="19.59" height="19.59" rx="9.79"/><rect x="39.18" y="274.24" width="19.59" height="19.59" rx="9.79"/><rect x="724.79" y="254.66" width="19.59" height="19.59" rx="9.79"/><rect x="646.43" y="254.66" width="19.59" height="19.59" rx="9.79"/><rect x="607.26" y="254.66" width="19.59" height="19.59" rx="9.79"/><rect x="568.08" y="254.66" width="19.59" height="19.59" rx="9.79"/><rect x="528.9" y="254.66" width="19.59" height="19.59" rx="9.79"/><rect x="489.72" y="254.66" width="19.59" height="19.59" rx="9.79"/><rect x="411.37" y="254.66" width="19.59" height="19.59" rx="9.79"/><rect x="822.73" y="235.07" width="19.59" height="19.59" rx="9.79"/><rect x="783.56" y="235.07" width="19.59" height="19.59" rx="9.79"/><rect x="744.38" y="235.07" width="19.59" height="19.59" rx="9.79"/><rect x="705.2" y="235.07" width="19.59" height="19.59" rx="9.79"/><rect x="666.02" y="235.07" width="19.59" height="19.59" rx="9.79"/><rect x="626.85" y="235.07" width="19.59" height="19.59" rx="9.79"/><rect x="587.67" y="235.07" width="19.59" height="19.59" rx="9.79"/><rect x="548.49" y="235.07" width="19.59" height="19.59" rx="9.79"/><rect x="509.31" y="235.07" width="19.59" height="19.59" rx="9.79"/><rect x="470.13" y="235.07" width="19.59" height="19.59" rx="9.79"/><rect x="430.96" y="235.07" width="19.59" height="19.59" rx="9.79"/><rect x="391.78" y="235.07" width="19.59" height="19.59" rx="9.79"/><rect x="352.6" y="235.07" width="19.59" height="19.59" rx="9.79"/><rect x="313.42" y="235.07" width="19.59" height="19.59" rx="9.79"/><rect x="274.24" y="235.07" width="19.59" height="19.59" rx="9.79"/><rect x="235.07" y="235.07" width="19.59" height="19.59" rx="9.79"/><rect x="195.89" y="235.07" width="19.59" height="19.59" rx="9.79"/><rect x="156.71" y="235.07" width="19.59" height="19.59" rx="9.79"/><rect x="117.53" y="235.07" width="19.59" height="19.59" rx="9.79"/><rect x="78.36" y="235.07" width="19.59" height="19.59" rx="9.79"/><rect x="39.18" y="235.07" width="19.59" height="19.59" rx="9.79"/><rect x="724.79" y="215.48" width="19.59" height="19.59" rx="9.79"/><rect x="685.61" y="215.48" width="19.59" height="19.59" rx="9.79"/><rect x="646.43" y="215.48" width="19.59" height="19.59" rx="9.79"/><rect x="568.08" y="215.48" width="19.59" height="19.59" rx="9.79"/><rect x="254.66" y="215.48" width="19.59" height="19.59" rx="9.79"/><rect x="783.56" y="195.89" width="19.59" height="19.59" rx="9.79"/><rect x="744.38" y="195.89" width="19.59" height="19.59" rx="9.79"/><rect x="705.2" y="195.89" width="19.59" height="19.59" rx="9.79"/><rect x="666.02" y="195.89" width="19.59" height="19.59" rx="9.79"/><rect x="626.85" y="195.89" width="19.59" height="19.59" rx="9.79"/><rect x="587.67" y="195.89" width="19.59" height="19.59" rx="9.79"/><rect x="548.49" y="195.89" width="19.59" height="19.59" rx="9.79"/><rect x="509.31" y="195.89" width="19.59" height="19.59" rx="9.79"/><rect x="470.13" y="195.89" width="19.59" height="19.59" rx="9.79"/><rect x="391.78" y="195.89" width="19.59" height="19.59" rx="9.79"/><rect x="352.6" y="195.89" width="19.59" height="19.59" rx="9.79"/><rect x="313.42" y="195.89" width="19.59" height="19.59" rx="9.79"/><rect x="235.07" y="195.89" width="19.59" height="19.59" rx="9.79"/><rect x="156.71" y="195.89" width="19.59" height="19.59" rx="9.79"/><rect x="78.36" y="195.89" width="19.59" height="19.59" rx="9.79"/><rect y="195.89" width="19.59" height="19.59" rx="9.79"/><rect x="705.2" y="156.71" width="19.59" height="19.59" rx="9.79"/><rect x="666.02" y="156.71" width="19.59" height="19.59" rx="9.79"/><rect x="626.85" y="156.71" width="19.59" height="19.59" rx="9.79"/><rect x="587.67" y="156.71" width="19.59" height="19.59" rx="9.79"/><rect x="548.49" y="156.71" width="19.59" height="19.59" rx="9.79"/><rect x="509.31" y="156.71" width="19.59" height="19.59" rx="9.79"/><rect x="470.13" y="156.71" width="19.59" height="19.59" rx="9.79"/><rect x="430.96" y="156.71" width="19.59" height="19.59" rx="9.79"/><rect x="391.78" y="156.71" width="19.59" height="19.59" rx="9.79"/><rect x="352.6" y="156.71" width="19.59" height="19.59" rx="9.79"/><rect x="313.42" y="156.71" width="19.59" height="19.59" rx="9.79"/><rect x="274.24" y="156.71" width="19.59" height="19.59" rx="9.79"/><rect x="235.07" y="156.71" width="19.59" height="19.59" rx="9.79"/><rect x="156.71" y="156.71" width="19.59" height="19.59" rx="9.79"/><rect x="117.53" y="156.71" width="19.59" height="19.59" rx="9.79"/><rect x="78.36" y="156.71" width="19.59" height="19.59" rx="9.79"/><rect x="39.18" y="156.71" width="19.59" height="19.59" rx="9.79"/><rect y="156.71" width="19.59" height="19.59" rx="9.79"/><rect x="528.9" y="137.12" width="19.59" height="19.59" rx="9.79"/><rect x="666.02" y="117.53" width="19.59" height="19.59" rx="9.79"/><rect x="587.67" y="117.53" width="19.59" height="19.59" rx="9.79"/><rect x="548.49" y="117.53" width="19.59" height="19.59" rx="9.79"/><rect x="509.31" y="117.53" width="19.59" height="19.59" rx="9.79"/><rect x="430.96" y="117.53" width="19.59" height="19.59" rx="9.79"/><rect x="352.6" y="117.53" width="19.59" height="19.59" rx="9.79"/><rect x="274.24" y="117.53" width="19.59" height="19.59" rx="9.79"/><rect x="195.89" y="117.53" width="19.59" height="19.59" rx="9.79"/><rect x="117.53" y="117.53" width="19.59" height="19.59" rx="9.79"/><rect x="39.18" y="117.53" width="19.59" height="19.59" rx="9.79"/><rect x="666.02" y="78.36" width="19.59" height="19.59" rx="9.79"/><rect x="626.85" y="78.36" width="19.59" height="19.59" rx="9.79"/><rect x="587.67" y="78.36" width="19.59" height="19.59" rx="9.79"/><rect x="509.31" y="78.36" width="19.59" height="19.59" rx="9.79"/><rect x="430.96" y="78.36" width="19.59" height="19.59" rx="9.79"/><rect x="352.6" y="78.36" width="19.59" height="19.59" rx="9.79"/><rect x="313.42" y="78.36" width="19.59" height="19.59" rx="9.79"/><rect x="274.24" y="78.36" width="19.59" height="19.59" rx="9.79"/><rect x="235.07" y="78.36" width="19.59" height="19.59" rx="9.79"/><rect x="195.89" y="78.36" width="19.59" height="19.59" rx="9.79"/><rect x="117.53" y="78.36" width="19.59" height="19.59" rx="9.79"/><rect x="78.36" y="78.36" width="19.59" height="19.59" rx="9.79"/><rect x="39.18" y="78.36" width="19.59" height="19.59" rx="9.79"/><rect x="548.49" y="39.18" width="19.59" height="19.59" rx="9.79"/><rect x="391.78" y="39.18" width="19.59" height="19.59" rx="9.79"/><rect x="313.42" y="39.18" width="19.59" height="19.59" rx="9.79"/><rect x="274.24" y="39.18" width="19.59" height="19.59" rx="9.79"/><rect x="235.07" y="39.18" width="19.59" height="19.59" rx="9.79"/><rect x="548.49" width="19.59" height="19.59" rx="9.79"/><rect x="470.13" width="19.59" height="19.59" rx="9.79"/><rect x="391.78" width="19.59" height="19.59" rx="9.79"/><rect x="235.07" width="19.59" height="19.59" rx="9.79"/></g></g></svg>