<svg xmlns="http://www.w3.org/2000/svg" viewBox="0 0 842.32 488.93"><g id="Layer_2" data-name="Layer 2"><g id="Layer_1-2" data-name="Layer 1"><path d="M276.32,450.89c2-3.3,5.34-5.34,10.08-5.34,7.5,0,13.92,6.3,13.92,16.8s-6.42,16.86-13.92,16.86c-4.74,0-8.1-2-10.08-5.34v15.06h-6.24V446.15h6.24Zm17.34,11.46c0-7.26-3.54-11.58-8.7-11.58-4.8,0-8.88,3.6-8.88,11.58S280.16,474,285,474C290.12,474,293.66,469.61,293.66,462.35Z"/><path d="M320.48,479.21c-7.62,0-15.66-5.16-15.66-16.8s8-16.86,15.66-16.86,15.72,5.16,15.72,16.86S328.16,479.21,320.48,479.21Zm9.12-16.8c0-8-4.38-11.58-9.12-11.58s-9.06,3.42-9.06,11.58c0,8,4.38,11.52,9.06,11.52S329.6,470.27,329.6,462.41Z"/><path d="M348.68,441.83h-6.24v-6.9h6.24Zm0,36.6h-6.24V446.15h6.24Z"/><path d="M373.46,445.55c7.8,0,10.8,5,10.8,12.54v20.34H378V459.77c0-4.68-.78-9-6.66-9-5.4,0-8,3.9-8,10.32v17.34h-6.24V446.15h6.24v4.68C365.18,447.65,368.42,445.55,373.46,445.55Z"/><path d="M399.56,437.87v8.28h6.36v4.74h-6.36v18.42c0,3.3.54,4.14,3.66,4.14h2.64v5H401.3c-6.54,0-8-1.62-8-8.28V450.89H388.4v-4.74h4.92v-8.28Z"/><path d="M447.14,457.07c-.66-3.66-4-6.18-8-6.18-4.5,0-8.64,3.54-8.64,11.4s4.2,11.58,8.64,11.58c4,0,7.44-2.34,8.28-6.18h6.3c-1.26,6.78-7.56,11.52-14.7,11.52-9.3,0-15.18-7.14-15.18-16.86s6.06-16.8,15.6-16.8a13.89,13.89,0,0,1,14,11.52Z"/><path d="M459.56,478.43v-43.5h6.24v43.5Z"/><path d="M487.7,479.21c-7.62,0-15.66-5.16-15.66-16.8s8-16.86,15.66-16.86,15.72,5.16,15.72,16.86S495.38,479.21,487.7,479.21Zm9.12-16.8c0-8-4.38-11.58-9.12-11.58s-9.06,3.42-9.06,11.58c0,8,4.38,11.52,9.06,11.52S496.82,470.27,496.82,462.41Z"/><path d="M519.74,479.21c-7.62,0-10.56-4.74-10.56-12.54V446.15h6.24V465c0,4.68.78,8.94,6.42,8.94,5.22,0,7.8-3.9,7.8-10.26V446.15h6.24v32.28h-6.3v-4.56C527.72,477.11,524.6,479.21,519.74,479.21Z"/><path d="M572.24,434.93v43.5H566v-4.56c-2,3.3-5.34,5.34-10.08,5.34-7.5,0-13.92-6.3-13.92-16.86s6.42-16.8,13.92-16.8c4.74,0,8.1,2,10.08,5.34v-16Zm-23.58,27.42c0,7.26,3.54,11.64,8.7,11.64,4.8,0,8.88-3.66,8.88-11.64s-4.08-11.58-8.88-11.58C552.2,450.77,548.66,455.09,548.66,462.35Z"/><rect x="548.49" y="352.6" width="19.59" height="19.59" rx="9.79"/><rect x="509.31" y="352.6" width="19.59" height="19.59" rx="9.79"/><rect x="470.13" y="352.6" width="19.59" height="19.59" rx="9.79"/><rect x="430.96" y="352.6" width="19.59" height="19.59" rx="9.79"/><rect x="528.9" y="333.01" width="19.59" height="19.59" rx="9.79"/><rect x="783.56" y="313.42" width="19.59" height="19.59" rx="9.79"/><rect x="744.38" y="313.42" width="19.59" height="19.59" rx="9.79"/><rect x="705.2" y="313.42" width="19.59" height="19.59" rx="9.79"/><rect x="666.02" y="313.42" width="19.59" height="19.59" rx="9.79"/><rect x="626.85" y="313.42" width="19.59" height="19.59" rx="9.79"/><rect x="587.67" y="313.42" width="19.59" height="19.59" rx="9.79"/><rect x="548.49" y="313.42" width="19.59" height="19.59" rx="9.79"/><rect x="509.31" y="313.42" width="19.59" height="19.59" rx="9.79"/><rect x="470.13" y="313.42" width="19.59" height="19.59" rx="9.79"/><rect x="430.96" y="313.42" width="19.59" height="19.59" rx="9.79"/><rect x="391.78" y="313.42" width="19.59" height="19.59" rx="9.79"/><rect x="352.6" y="313.42" width="19.59" height="19.59" rx="9.79"/><rect x="313.42" y="313.42" width="19.59" height="19.59" rx="9.79"/><rect y="313.42" width="19.59" height="19.59" rx="9.79"/><rect x="763.97" y="293.83" width="19.59" height="19.59" rx="9.79"/><rect x="724.79" y="293.83" width="19.59" height="19.59" rx="9.79"/><rect x="685.61" y="293.83" width="19.59" height="19.59" rx="9.79"/><rect x="646.43" y="293.83" width="19.59" height="19.59" rx="9.79"/><rect x="607.26" y="293.83" width="19.59" height="19.59" rx="9.79"/><rect x="568.08" y="293.83" width="19.59" height="19.59" rx="9.79"/><rect x="528.9" y="293.83" width="19.59" height="19.59" rx="9.79"/><rect x="489.72" y="293.83" width="19.59" height="19.59" rx="9.79"/><rect x="450.55" y="293.83" width="19.59" height="19.59" rx="9.79"/><rect x="372.19" y="293.83" width="19.59" height="19.59" rx="9.79"/><rect x="822.73" y="274.24" width="19.59" height="19.59" rx="9.79"/><rect x="783.56" y="274.24" width="19.59" height="19.59" rx="9.79"/><rect x="744.38" y="274.24" width="19.59" height="19.59" rx="9.79"/><rect x="705.2" y="274.24" width="19.59" height="19.59" rx="9.79"/><rect x="666.02" y="274.24" width="19.59" height="19.59" rx="9.79"/><rect x="626.85" y="274.24" width="19.59" height="19.59" rx="9.79"/><rect x="587.67" y="274.24" width="19.59" height="19.59" rx="9.79"/><rect x="548.49" y="274.24" width="19.59" height="19.59" rx="9.79"/><rect x="509.31" y="274.24" width="19.59" height="19.59" rx="9.79"/><rect x="470.13" y="274.24" width="19.59" height="19.59" rx="9.79"/><rect x="430.96" y="274.24" width="19.59" height="19.59" rx="9.79"/><rect x="391.78" y="274.24" width="19.59" height="19.59" rx="9.79"/><rect x="352.6" y="274.24" width="19.59" height="19.59" rx="9.79"/><rect x="313.42" y="274.24" width="19.59" height="19.59" rx="9.79"/><rect x="274.24" y="274.24" width="19.59" height="19.59" rx="9.79"/><rect x="235.07" y="274.24" width="19.59" height="19.59" rx="9.79"/><rect x="195.89" y="274.24" width="19.59" height="19.59" rx="9.79"/><rect x="117.53" y="274.24" width="19.59" height="19.59" rx="9.79"/><rect x="39.18" y="274.24" width="19.59" height="19.59" rx="9.79"/><rect x="724.79" y="254.66" width="19.59" height="19.59" rx="9.79"/><rect x="646.43" y="254.66" width="19.59" height="19.59" rx="9.79"/><rect x="607.26" y="254.66" width="19.59" height="19.59" rx="9.79"/><rect x="568.08" y="254.66" width="19.59" height="19.59" rx="9.79"/><rect x="528.9" y="254.66" width="19.59" height="19.59" rx="9.79"/><rect x="489.72" y="254.66" width="19.59" height="19.59" rx="9.79"/><rect x="411.37" y="254.66" width="19.59" height="19.59" rx="9.79"/><rect x="822.73" y="235.07" width="19.59" height="19.59" rx="9.79"/><rect x="783.56" y="235.07" width="19.59" height="19.59" rx="9.79"/><rect x="744.38" y="235.07" width="19.59" height="19.59" rx="9.79"/><rect x="705.2" y="235.07" width="19.59" height="19.59" rx="9.79"/><rect x="666.02" y="235.07" width="19.59" height="19.59" rx="9.79"/><rect x="626.85" y="235.07" width="19.59" height="19.59" rx="9.79"/><rect x="587.67" y="235.07" width="19.59" height="19.59" rx="9.79"/><rect x="548.49" y="235.07" width="19.59" height="19.59" rx="9.79"/><rect x="509.31" y="235.07" width="19.59" height="19.59" rx="9.79"/><rect x="470.13" y="235.07" width="19.59" height="19.59" rx="9.79"/><rect x="430.96" y="235.07" width="19.59" height="19.59" rx="9.79"/><rect x="391.78" y="235.07" width="19.59" height="19.59" rx="9.79"/><rect x="352.6" y="235.07" width="19.59" height="19.59" rx="9.79"/><rect x="313.42" y="235.07" width="19.59" height="19.59" rx="9.79"/><rect x="274.24" y="235.07" width="19.59" height="19.59" rx="9.79"/><rect x="235.07" y="235.07" width="19.59" height="19.59" rx="9.79"/><rect x="195.89" y="235.07" width="19.59" height="19.59" rx="9.79"/><rect x="156.71" y="235.07" width="19.59" height="19.59" rx="9.79"/><rect x="117.53" y="235.07" width="19.59" height="19.59" rx="9.79"/><rect x="78.36" y="235.07" width="19.59" height="19.59" rx="9.79"/><rect x="39.18" y="235.07" width="19.59" height="19.59" rx="9.79"/><rect x="724.79" y="215.48" width="19.59" height="19.59" rx="9.79"/><rect x="685.61" y="215.48" width="19.59" height="19.59" rx="9.79"/><rect x="646.43" y="215.48" width="19.59" height="19.59" rx="9.79"/><rect x="568.08" y="215.48" width="19.59" height="19.59" rx="9.79"/><rect x="254.66" y="215.48" width="19.59" height="19.59" rx="9.79"/><rect x="783.56" y="195.89" width="19.59" height="19.59" rx="9.79"/><rect x="744.38" y="195.89" width="19.59" height="19.59" rx="9.79"/><rect x="705.2" y="195.89" width="19.59" height="19.59" rx="9.79"/><rect x="666.02" y="195.89" width="19.59" height="19.59" rx="9.79"/><rect x="626.85" y="195.89" width="19.59" height="19.59" rx="9.79"/><rect x="587.67" y="195.89" width="19.59" height="19.59" rx="9.79"/><rect x="548.49" y="195.89" width="19.59" height="19.59" rx="9.79"/><rect x="509.31" y="195.89" width="19.59" height="19.59" rx="9.79"/><rect x="470.13" y="195.89" width="19.59" height="19.59" rx="9.79"/><rect x="391.78" y="195.89" width="19.59" height="19.59" rx="9.79"/><rect x="352.6" y="195.89" width="19.59" height="19.59" rx="9.79"/><rect x="313.42" y="195.89" width="19.59" height="19.59" rx="9.79"/><rect x="235.07" y="195.89" width="19.59" height="19.59" rx="9.79"/><rect x="156.71" y="195.89" width="19.59" height="19.59" rx="9.79"/><rect x="78.36" y="195.89" width="19.59" height="19.59" rx="9.79"/><rect y="195.89" width="19.59" height="19.59" rx="9.79"/><rect x="705.2" y="156.71" width="19.59" height="19.59" rx="9.79"/><rect x="666.02" y="156.71" width="19.59" height="19.59" rx="9.79"/><rect x="626.85" y="156.71" width="19.59" height="19.59" rx="9.79"/><rect x="587.67" y="156.71" width="19.59" height="19.59" rx="9.79"/><rect x="548.49" y="156.71" width="19.59" height="19.59" rx="9.79"/><rect x="509.31" y="156.71" width="19.59" height="19.59" rx="9.79"/><rect x="470.13" y="156.71" width="19.59" height="19.59" rx="9.79"/><rect x="430.96" y="156.71" width="19.59" height="19.59" rx="9.79"/><rect x="391.78" y="156.71" width="19.59" height="19.59" rx="9.79"/><rect x="352.6" y="156.71" width="19.59" height="19.59" rx="9.79"/><rect x="313.42" y="156.71" width="19.59" height="19.59" rx="9.79"/><rect x="274.24" y="156.71" width="19.59" height="19.59" rx="9.79"/><rect x="235.07" y="156.71" width="19.59" height="19.59" rx="9.79"/><rect x="156.71" y="156.71" width="19.59" height="19.59" rx="9.79"/><rect x="117.53" y="156.71" width="19.59" height="19.59" rx="9.79"/><rect x="78.36" y="156.71" width="19.59" height="19.59" rx="9.79"/><rect x="39.18" y="156.71" width="19.59" height="19.59" rx="9.79"/><rect y="156.71" width="19.59" height="19.59" rx="9.79"/><rect x="528.9" y="137.12" width="19.59" height="19.59" rx="9.79"/><rect x="666.02" y="117.53" width="19.59" height="19.59" rx="9.79"/><rect x="587.67" y="117.53" width="19.59" height="19.59" rx="9.79"/><rect x="548.49" y="117.53" width="19.59" height="19.59" rx="9.79"/><rect x="509.31" y="117.53" width="19.59" height="19.59" rx="9.79"/><rect x="430.96" y="117.53" width="19.59" height="19.59" rx="9.79"/><rect x="352.6" y="117.53" width="19.59" height="19.59" rx="9.79"/><rect x="274.24" y="117.53" width="19.59" height="19.59" rx="9.79"/><rect x="195.89" y="117.53" width="19.59" height="19.59" rx="9.79"/><rect x="117.53" y="117.53" width="19.59" height="19.59" rx="9.79"/><rect x="39.18" y="117.53" width="19.59" height="19.59" rx="9.79"/><rect x="666.02" y="78.36" width="19.59" height="19.59" rx="9.79"/><rect x="626.85" y="78.36" width="19.59" height="19.59" rx="9.79"/><rect x="587.67" y="78.36" width="19.59" height="19.59" rx="9.79"/><rect x="509.31" y="78.36" width="19.59" height="19.59" rx="9.79"/><rect x="430.96" y="78.36" width="19.59" height="19.59" rx="9.79"/><rect x="352.6" y="78.36" width="19.59" height="19.59" rx="9.79"/><rect x="313.42" y="78.36" width="19.59" height="19.59" rx="9.79"/><rect x="274.24" y="78.36" width="19.59" height="19.59" rx="9.79"/><rect x="235.07" y="78.36" width="19.59" height="19.59" rx="9.79"/><rect x="195.89" y="78.36" width="19.59" height="19.59" rx="9.79"/><rect x="117.53" y="78.36" width="19.59" height="19.59" rx="9.79"/><rect x="78.36" y="78.36" width="19.59" height="19.59" rx="9.79"/><rect x="39.18" y="78.36" width="19.59" height="19.59" rx="9.79"/><rect x="548.49" y="39.18" width="19.59" height="19.59" rx="9.79"/><rect x="391.78" y="39.18" width="19.59" height="19.59" rx="9.79"/><rect x="313.42" y="39.18" width="19.59" height="19.59" rx="9.79"/><rect x="274.24" y="39.18" width="19.59" height="19.59" rx="9.79"/><rect x="235.07" y="39.18" width="19.59" height="19.59" rx="9.79"/><rect x="548.49" width="19.59" height="19.59" rx="9.79"/><rect x="470.13" width="19.59" height="19.59" rx="9.79"/><rect x="391.78" width="19.59" height="19.59" rx="9.79"/><rect x="235.07" width="19.59" height="19.59" rx="9.79"/></g></g></svg>