<svg xmlns="http://www.w3.org/2000/svg" viewBox="0 0 449.64 331.89"><g id="Layer_2" data-name="Layer 2"><g id="Layer_1-2" data-name="Layer 1"><path d="M80,293.85c2-3.3,5.34-5.34,10.08-5.34,7.5,0,13.92,6.3,13.92,16.8s-6.42,16.86-13.92,16.86c-4.74,0-8.1-2-10.08-5.34v15.06H73.75V289.11H80Zm17.34,11.46c0-7.26-3.54-11.58-8.7-11.58-4.8,0-8.88,3.6-8.88,11.58S83.82,317,88.62,317C93.78,317,97.32,312.57,97.32,305.31Z"/><path d="M124.14,322.17c-7.62,0-15.66-5.16-15.66-16.8s8-16.86,15.66-16.86,15.72,5.16,15.72,16.86S131.82,322.17,124.14,322.17Zm9.12-16.8c0-8-4.38-11.58-9.12-11.58s-9.06,3.42-9.06,11.58c0,8,4.38,11.52,9.06,11.52S133.26,313.23,133.26,305.37Z"/><path d="M152.34,284.79H146.1v-6.9h6.24Zm0,36.6H146.1V289.11h6.24Z"/><path d="M177.12,288.51c7.8,0,10.8,5,10.8,12.54v20.34h-6.24V302.73c0-4.68-.78-9-6.66-9-5.4,0-8,3.9-8,10.32v17.34h-6.24V289.11H167v4.68C168.84,290.61,172.08,288.51,177.12,288.51Z"/><path d="M203.22,280.83v8.28h6.36v4.74h-6.36v18.42c0,3.3.54,4.14,3.66,4.14h2.64v5H205c-6.54,0-8-1.62-8-8.28V293.85h-4.92v-4.74H197v-8.28Z"/><path d="M250.8,300c-.66-3.66-4-6.18-8-6.18-4.5,0-8.64,3.54-8.64,11.4s4.2,11.58,8.64,11.58c4,0,7.44-2.34,8.28-6.18h6.3c-1.26,6.78-7.56,11.52-14.7,11.52-9.3,0-15.18-7.14-15.18-16.86s6.06-16.8,15.6-16.8A13.89,13.89,0,0,1,257,300Z"/><path d="M263.22,321.39v-43.5h6.24v43.5Z"/><path d="M291.36,322.17c-7.62,0-15.66-5.16-15.66-16.8s8-16.86,15.66-16.86,15.72,5.16,15.72,16.86S299,322.17,291.36,322.17Zm9.12-16.8c0-8-4.38-11.58-9.12-11.58s-9.06,3.42-9.06,11.58c0,8,4.38,11.52,9.06,11.52S300.48,313.23,300.48,305.37Z"/><path d="M323.4,322.17c-7.62,0-10.56-4.74-10.56-12.54V289.11h6.24V308c0,4.68.78,8.94,6.42,8.94,5.22,0,7.8-3.9,7.8-10.26V289.11h6.24v32.28h-6.3v-4.56C331.38,320.07,328.26,322.17,323.4,322.17Z"/><path d="M375.9,277.89v43.5h-6.24v-4.56c-2,3.3-5.34,5.34-10.08,5.34-7.5,0-13.92-6.3-13.92-16.86s6.42-16.8,13.92-16.8c4.74,0,8.1,2,10.08,5.34v-16Zm-23.58,27.42c0,7.26,3.54,11.64,8.7,11.64,4.8,0,8.88-3.66,8.88-11.64s-4.08-11.58-8.88-11.58C355.86,293.73,352.32,298.05,352.32,305.31Z"/><rect x="273.7" y="195.5" width="19.55" height="19.55" rx="9.77"/><rect x="254.15" y="175.95" width="19.55" height="19.55" rx="9.77"/><rect x="430.09" y="156.4" width="19.55" height="19.55" rx="9.77"/><rect x="390.99" y="156.4" width="19.55" height="19.55" rx="9.77"/><rect x="351.89" y="156.4" width="19.55" height="19.55" rx="9.77"/><rect x="312.8" y="156.4" width="19.55" height="19.55" rx="9.77"/><rect x="273.7" y="156.4" width="19.55" height="19.55" rx="9.77"/><rect x="234.6" y="156.4" width="19.55" height="19.55" rx="9.77"/><rect x="195.5" y="156.4" width="19.55" height="19.55" rx="9.77"/><rect x="156.4" y="156.4" width="19.55" height="19.55" rx="9.77"/><rect x="117.3" y="156.4" width="19.55" height="19.55" rx="9.77"/><rect x="39.1" y="156.4" width="19.55" height="19.55" rx="9.77"/><rect x="410.54" y="136.85" width="19.55" height="19.55" rx="9.77"/><rect x="371.44" y="136.85" width="19.55" height="19.55" rx="9.77"/><rect x="332.34" y="136.85" width="19.55" height="19.55" rx="9.77"/><rect x="293.25" y="136.85" width="19.55" height="19.55" rx="9.77"/><rect x="254.15" y="136.85" width="19.55" height="19.55" rx="9.77"/><rect x="175.95" y="136.85" width="19.55" height="19.55" rx="9.77"/><rect x="97.75" y="136.85" width="19.55" height="19.55" rx="9.77"/><rect x="390.99" y="117.3" width="19.55" height="19.55" rx="9.77"/><rect x="351.89" y="117.3" width="19.55" height="19.55" rx="9.77"/><rect x="312.8" y="117.3" width="19.55" height="19.55" rx="9.77"/><rect x="273.7" y="117.3" width="19.55" height="19.55" rx="9.77"/><rect x="234.6" y="117.3" width="19.55" height="19.55" rx="9.77"/><rect x="195.5" y="117.3" width="19.55" height="19.55" rx="9.77"/><rect x="156.4" y="117.3" width="19.55" height="19.55" rx="9.77"/><rect x="117.3" y="117.3" width="19.55" height="19.55" rx="9.77"/><rect x="78.2" y="117.3" width="19.55" height="19.55" rx="9.77"/><rect x="39.1" y="117.3" width="19.55" height="19.55" rx="9.77"/><rect y="117.3" width="19.55" height="19.55" rx="9.77"/><rect x="371.44" y="97.75" width="19.55" height="19.55" rx="9.77"/><rect x="390.99" y="78.2" width="19.55" height="19.55" rx="9.77"/><rect x="351.89" y="78.2" width="19.55" height="19.55" rx="9.77"/><rect x="312.8" y="78.2" width="19.55" height="19.55" rx="9.77"/><rect x="273.7" y="78.2" width="19.55" height="19.55" rx="9.77"/><rect x="234.6" y="78.2" width="19.55" height="19.55" rx="9.77"/><rect x="195.5" y="78.2" width="19.55" height="19.55" rx="9.77"/><rect x="156.4" y="78.2" width="19.55" height="19.55" rx="9.77"/><rect x="78.2" y="78.2" width="19.55" height="19.55" rx="9.77"/><rect y="78.2" width="19.55" height="19.55" rx="9.77"/><rect x="273.7" y="39.1" width="19.55" height="19.55" rx="9.77"/><rect x="195.5" y="39.1" width="19.55" height="19.55" rx="9.77"/><rect x="117.3" y="39.1" width="19.55" height="19.55" rx="9.77"/><rect x="39.1" y="39.1" width="19.55" height="19.55" rx="9.77"/><rect x="273.7" width="19.55" height="19.55" rx="9.77"/><rect x="195.5" width="19.55" height="19.55" rx="9.77"/><rect x="117.3" width="19.55" height="19.55" rx="9.77"/><rect x="78.2" width="19.55" height="19.55" rx="9.77"/></g></g></svg>