<svg xmlns="http://www.w3.org/2000/svg" viewBox="0 0 449.64 335.67"><defs><style>.cls-1{font-size:60px;font-family:SuisseIntl-Book, Suisse Intl;}.cls-2{letter-spacing:0.01em;}</style></defs><g id="Layer_2" data-name="Layer 2"><g id="Layer_1-2" data-name="Layer 1"><text class="cls-1" transform="translate(69.54 321.39)"><tspan class="cls-2">p</tspan><tspan x="36.9" y="0">oint cloud</tspan></text><rect x="273.7" y="195.5" width="19.55" height="19.55" rx="9.77"/><rect x="254.15" y="175.95" width="19.55" height="19.55" rx="9.77"/><rect x="430.09" y="156.4" width="19.55" height="19.55" rx="9.77"/><rect x="390.99" y="156.4" width="19.55" height="19.55" rx="9.77"/><rect x="351.89" y="156.4" width="19.55" height="19.55" rx="9.77"/><rect x="312.8" y="156.4" width="19.55" height="19.55" rx="9.77"/><rect x="273.7" y="156.4" width="19.55" height="19.55" rx="9.77"/><rect x="234.6" y="156.4" width="19.55" height="19.55" rx="9.77"/><rect x="195.5" y="156.4" width="19.55" height="19.55" rx="9.77"/><rect x="156.4" y="156.4" width="19.55" height="19.55" rx="9.77"/><rect x="117.3" y="156.4" width="19.55" height="19.55" rx="9.77"/><rect x="39.1" y="156.4" width="19.55" height="19.55" rx="9.77"/><rect x="410.54" y="136.85" width="19.55" height="19.55" rx="9.77"/><rect x="371.44" y="136.85" width="19.55" height="19.55" rx="9.77"/><rect x="332.34" y="136.85" width="19.55" height="19.55" rx="9.77"/><rect x="293.25" y="136.85" width="19.55" height="19.55" rx="9.77"/><rect x="254.15" y="136.85" width="19.55" height="19.55" rx="9.77"/><rect x="175.95" y="136.85" width="19.55" height="19.55" rx="9.77"/><rect x="97.75" y="136.85" width="19.55" height="19.55" rx="9.77"/><rect x="390.99" y="117.3" width="19.55" height="19.55" rx="9.77"/><rect x="351.89" y="117.3" width="19.55" height="19.55" rx="9.77"/><rect x="312.8" y="117.3" width="19.55" height="19.55" rx="9.77"/><rect x="273.7" y="117.3" width="19.55" height="19.55" rx="9.77"/><rect x="234.6" y="117.3" width="19.55" height="19.55" rx="9.77"/><rect x="195.5" y="117.3" width="19.55" height="19.55" rx="9.77"/><rect x="156.4" y="117.3" width="19.55" height="19.55" rx="9.77"/><rect x="117.3" y="117.3" width="19.55" height="19.55" rx="9.77"/><rect x="78.2" y="117.3" width="19.55" height="19.55" rx="9.77"/><rect x="39.1" y="117.3" width="19.55" height="19.55" rx="9.77"/><rect y="117.3" width="19.55" height="19.55" rx="9.77"/><rect x="371.44" y="97.75" width="19.55" height="19.55" rx="9.77"/><rect x="390.99" y="78.2" width="19.55" height="19.55" rx="9.77"/><rect x="351.89" y="78.2" width="19.55" height="19.55" rx="9.77"/><rect x="312.8" y="78.2" width="19.55" height="19.55" rx="9.77"/><rect x="273.7" y="78.2" width="19.55" height="19.55" rx="9.77"/><rect x="234.6" y="78.2" width="19.55" height="19.55" rx="9.77"/><rect x="195.5" y="78.2" width="19.55" height="19.55" rx="9.77"/><rect x="156.4" y="78.2" width="19.55" height="19.55" rx="9.77"/><rect x="78.2" y="78.2" width="19.55" height="19.55" rx="9.77"/><rect y="78.2" width="19.55" height="19.55" rx="9.77"/><rect x="273.7" y="39.1" width="19.55" height="19.55" rx="9.77"/><rect x="195.5" y="39.1" width="19.55" height="19.55" rx="9.77"/><rect x="117.3" y="39.1" width="19.55" height="19.55" rx="9.77"/><rect x="39.1" y="39.1" width="19.55" height="19.55" rx="9.77"/><rect x="273.7" width="19.55" height="19.55" rx="9.77"/><rect x="195.5" width="19.55" height="19.55" rx="9.77"/><rect x="117.3" width="19.55" height="19.55" rx="9.77"/><rect x="78.2" width="19.55" height="19.55" rx="9.77"/></g></g></svg>