<svg xmlns="http://www.w3.org/2000/svg" viewBox="0 0 1920 857.55"><defs><style>.cls-1{fill:#fff;}.cls-2{fill:none;stroke:#000;stroke-miterlimit:10;stroke-width:11px;}</style></defs><g id="Layer_2" data-name="Layer 2"><g id="Layer_1-2" data-name="Layer 1"><rect class="cls-1" width="1920" height="857.55"/><polyline class="cls-2" points="1670 573.09 1670 540 254.01 540 254.01 573.09"/><line class="cls-2" x1="1670" y1="506.9" x2="1670" y2="540"/><line class="cls-2" x1="254.01" y1="506.9" x2="254.01" y2="540"/><path d="M364.27,355.11c-6.12,0-12.72,2.52-12.72,7.8,0,4.8,3.12,6.84,9,8l9.24,1.8c12.24,2.4,22.92,6.6,22.92,19.2,0,13.07-12.24,20.51-27.12,20.51-16.32,0-26.28-9.48-27.84-21.59h12.72c1.68,7.31,6.48,11.63,15.48,11.63,8,0,14.28-3.36,14.28-9.12,0-6-5.64-8.39-12.36-9.71l-9.72-1.92c-9.72-1.92-18.84-6.24-18.84-18.36,0-11.4,12-18.36,26.16-18.36,13,0,23.4,6.84,25.8,19.32H378.91C377.11,357.75,371.59,355.11,364.27,355.11Z"/><path d="M444.91,371v-1.32c0-11.4-6-15.24-13.92-15.24-8.64,0-13.56,4.44-14,12.36h-12.6c1.08-13.68,12.36-22,27.12-22,16.67,0,26.27,8,26,27.36,0,1.56-.24,12.72-.24,15.47,0,9.6.59,17.52,1.79,23.28h-12a54.46,54.46,0,0,1-1.08-8.52c-3.84,6.48-11.16,10.08-21.6,10.08-13.08,0-23-7.2-23-19C401.35,377.79,419.83,373.59,444.91,371Zm-30,22.32c0,5.87,4.68,9.59,12.24,9.59,10.32,0,18.36-5.16,18.36-18v-4.68C425.47,382.11,414.91,384.87,414.91,393.27Z"/><path d="M510.19,346.35h13L499.27,410.9h-11.4l-24-64.55h13.8L494,394.23Z"/><path d="M587.1,392c-3,10.67-12.59,20.51-29,20.51-20.88,0-32.16-15.24-32.16-33.95,0-20,13.44-33.36,31.8-33.36,19.92,0,31.56,16.32,30.23,37.32H538.75c1.2,11.87,8.76,19.31,18.84,19.31,9,0,14.28-3.72,16.92-9.83ZM575,372.63c-.36-9.6-7.08-17.28-17.4-17.28-9.72,0-16.92,5-18.6,17.28Z"/><path d="M640.74,337.71H628.27v-13.8h12.47Zm0,73.19H628.27V346.35h12.47Z"/><path d="M672.54,329.79v16.56h12.72v9.48H672.54v36.83c0,6.6,1.08,8.28,7.32,8.28h5.28v10H676c-13.08,0-16-3.24-16-16.56V355.83h-9.84v-9.48h9.84V329.79Z"/><path d="M737.94,337.71H725.46v-13.8h12.48Zm0,73.19H725.46V346.35h12.48Z"/><path d="M787.5,345.15c15.6,0,21.6,10.08,21.6,25.08V410.9H796.62V373.59c0-9.36-1.56-18-13.32-18-10.8,0-16.08,7.8-16.08,20.64V410.9H754.74V346.35h12.48v9.36C770.94,349.35,777.42,345.15,787.5,345.15Z"/><path d="M849.54,421.94h4.92c6.72,0,9.6-.48,12.72-9.72l.48-1.44-23.28-64.43h13.8l15.6,48.11L889,346.35h13l-22.8,66c-5.28,15.24-9.12,19.56-23.64,19.56h-6Z"/><path d="M936.18,412.46c-15.24,0-31.32-10.32-31.32-33.59s16.08-33.72,31.32-33.72,31.43,10.32,31.43,33.72S951.54,412.46,936.18,412.46Zm18.24-33.59c0-16.08-8.76-23.16-18.24-23.16s-18.12,6.84-18.12,23.16c0,16,8.76,23,18.12,23S954.42,394.58,954.42,378.87Z"/><path d="M1000.26,412.46c-15.24,0-21.12-9.48-21.12-25.07v-41h12.48V384c0,9.35,1.56,17.87,12.84,17.87,10.43,0,15.6-7.8,15.6-20.51v-35h12.47V410.9h-12.6v-9.12C1016.22,408.26,1010,412.46,1000.26,412.46Z"/><path d="M1076.33,358.83c-9.6,0-14.64,4.68-14.64,18.24V410.9h-12.47V346.35h12.24v11.4a19.25,19.25,0,0,1,17.87-11.64,33.72,33.72,0,0,1,3.48.12v13A62,62,0,0,0,1076.33,358.83Z"/><path d="M1120.73,410.9V346.35h12.48v9.36c3.72-6.36,9.84-10.56,19.08-10.56,10,0,15.84,4.2,18.72,11.4a24.54,24.54,0,0,1,21.36-11.4c15.12,0,21,10.08,21,25.08V410.9h-12.48V373.59c0-9.36-1.44-18-12.72-18-9.84,0-14.88,7.8-14.88,20.64V410.9h-12.48V373.59c0-9.36-1.44-18-12.72-18-10,0-14.88,7.8-14.88,20.64V410.9Z"/><path d="M1285.85,392c-3,10.67-12.6,20.51-29,20.51-20.88,0-32.16-15.24-32.16-33.95,0-20,13.44-33.36,31.8-33.36,19.92,0,31.56,16.32,30.24,37.32h-49.2c1.2,11.87,8.76,19.31,18.84,19.31,9,0,14.28-3.72,16.92-9.83Zm-12.12-19.32c-.36-9.6-7.08-17.28-17.4-17.28-9.72,0-16.92,5-18.6,17.28Z"/><path d="M1298.93,410.9V346.35h12.48v9.36c3.72-6.36,9.84-10.56,19.08-10.56,10,0,15.84,4.2,18.72,11.4a24.54,24.54,0,0,1,21.36-11.4c15.12,0,21,10.08,21,25.08V410.9h-12.48V373.59c0-9.36-1.44-18-12.72-18-9.84,0-14.88,7.8-14.88,20.64V410.9H1339V373.59c0-9.36-1.44-18-12.72-18-10,0-14.88,7.8-14.88,20.64V410.9Z"/><path d="M1434.29,412.46c-15.24,0-31.32-10.32-31.32-33.59s16.08-33.72,31.32-33.72,31.44,10.32,31.44,33.72S1449.65,412.46,1434.29,412.46Zm18.24-33.59c0-16.08-8.76-23.16-18.24-23.16s-18.12,6.84-18.12,23.16c0,16,8.76,23,18.12,23S1452.53,394.58,1452.53,378.87Z"/><path d="M1505.33,358.83c-9.6,0-14.64,4.68-14.64,18.24V410.9h-12.48V346.35h12.24v11.4a19.28,19.28,0,0,1,17.88-11.64,33.72,33.72,0,0,1,3.48.12v13A62,62,0,0,0,1505.33,358.83Z"/><path d="M1518.41,421.94h4.92c6.72,0,9.6-.48,12.72-9.72l.48-1.44-23.28-64.43h13.8l15.6,48.11,15.24-48.11h13l-22.8,66c-5.28,15.24-9.12,19.56-23.64,19.56h-6Z"/><path d="M1579.13,395.9V412l-7.8,16.68h-7.8l7.2-17.76h-6.6v-15Z"/><path d="M719.35,681.82c-9.6,0-14.65,4.68-14.65,18.24V733.9H692.23V669.34h12.23v11.4a19.29,19.29,0,0,1,17.89-11.64,33.53,33.53,0,0,1,3.47.12v13A62,62,0,0,0,719.35,681.82Z"/><path d="M791.22,714.94c-3,10.68-12.6,20.52-29,20.52-20.87,0-32.15-15.24-32.15-34,0-20,13.44-33.36,31.8-33.36,19.91,0,31.55,16.32,30.23,37.32h-49.2c1.21,11.88,8.76,19.32,18.84,19.32,9,0,14.28-3.72,16.92-9.84ZM779.1,695.62c-.36-9.6-7.08-17.28-17.4-17.28-9.71,0-16.92,5-18.6,17.28Z"/><path d="M847.14,691.18c-1.32-7.32-7.92-12.36-16.08-12.36-9,0-17.28,7.08-17.28,22.8,0,16,8.4,23.16,17.28,23.16,7.92,0,14.88-4.68,16.56-12.36h12.6c-2.52,13.56-15.12,23-29.4,23-18.6,0-30.36-14.28-30.36-33.72,0-19.2,12.12-33.6,31.2-33.6,14.76,0,26,10.44,28,23Z"/><path d="M899.58,735.46c-15.24,0-31.32-10.32-31.32-33.6s16.08-33.72,31.32-33.72S931,678.46,931,701.86,914.94,735.46,899.58,735.46Zm18.24-33.6c0-16.08-8.76-23.16-18.24-23.16s-18.12,6.84-18.12,23.16c0,16,8.76,23,18.12,23S917.82,717.58,917.82,701.86Z"/><path d="M999.9,669.34v57c0,11.88-2.52,18.24-7,22.67-4.92,5.16-12.72,7.8-22.56,7.8-14.4,0-25-6.24-27-19.79h12.84c1.32,5.87,5,9.35,14.4,9.35,6.12,0,10.32-1.67,13-4.67,2.52-2.76,3.84-6.12,3.84-12.72v-6.84c-4,6.6-10.44,10.68-19.92,10.68-15,0-27.48-11.88-27.48-32.4s12.48-32.28,27.48-32.28c9.48,0,16,4.08,19.92,10.68v-9.48Zm-46.56,31.08c0,14,6.72,22.2,17,22.2,9.6,0,17.52-6.72,17.52-22.2s-7.92-22-17.52-22C960.06,678.46,953.34,686.62,953.34,700.42Z"/><path d="M1049.34,668.14c15.6,0,21.6,10.08,21.6,25.08V733.9h-12.48V696.58c0-9.36-1.56-18-13.32-18-10.8,0-16.08,7.8-16.08,20.64V733.9h-12.48V669.34h12.48v9.36C1032.78,672.34,1039.26,668.14,1049.34,668.14Z"/><path d="M1099,660.7h-12.48V646.9H1099Zm0,73.2h-12.48V669.34H1099Z"/><path d="M1147,679.54h-33.6v-10.2h48.71v10.2l-36,44.16h36.71v10.2H1111V723.7Z"/><path d="M1231.49,714.94c-3,10.68-12.6,20.52-29,20.52-20.87,0-32.15-15.24-32.15-34,0-20,13.44-33.36,31.8-33.36,19.92,0,31.55,16.32,30.23,37.32h-49.19c1.2,11.88,8.76,19.32,18.84,19.32,9,0,14.28-3.72,16.91-9.84Zm-12.12-19.32c-.35-9.6-7.08-17.28-17.39-17.28-9.72,0-16.92,5-18.6,17.28Z"/></g></g></svg>