<svg xmlns="http://www.w3.org/2000/svg" viewBox="0 0 750.62 346.17"><defs><style>.cls-1{fill:#009245;}.cls-2{font-size:60px;font-family:SuisseIntl-Book, Suisse Intl;}.cls-3{letter-spacing:0.01em;}.cls-4{letter-spacing:-0.02em;}</style></defs><g id="Layer_2" data-name="Layer 2"><g id="Layer_1-2" data-name="Layer 1"><polygon class="cls-1" points="0 191.2 5.72 239.91 42.16 239.93 54.54 263.03 13.36 287.31 24.83 317.59 47.32 346.03 126.31 342.54 148.34 324.36 183.76 346.09 232.59 346.12 259.41 327.28 283.33 346.14 344.61 346.17 358.04 306.5 387.73 280.43 420.27 306.53 413.56 335.01 492.07 335.05 503.57 306.57 479.79 291 487.31 268.02 503.59 264.2 513.17 240.15 523.7 266.13 541.88 273.65 534.21 300.6 564.84 317.85 588.78 308.29 588.77 335.1 750.58 333.26 744.86 287.66 750.62 254.75 722.57 229.84 690.31 229.82 658.72 214.49 628.08 225.96 603.19 210.63 608.94 196.27 626.17 203.94 636.23 196.29 633.05 179.05 642.46 179.06 649.16 194.38 667.35 189.6 664.49 163.75 680.67 153.22 673.12 141.73 679.44 127.37 671.22 113.96 680.7 95.77 718.14 95.79 717.19 79.52 688.47 72.8 703.8 52.7 686.57 47.9 717.21 38.34 699.98 24.93 666.47 31.62 679.49 10.56 658.82 1.77 636.31 22.99 607.11 28.72 602.33 5.74 558.29 5.71 567.85 31.57 553.24 45.93 530.5 44 540.08 30.6 519.02 18.14 492.21 32.49 474.68 23.87 479.92 15.25 469.59 1.68 432.22 11.4 439.55 33.42 425.18 48.74 399.33 41.07 411.79 23.84 382.12 1.64 339.02 18.06 361.99 46.79 333.26 62.1 300.24 40.06 310.3 20.92 300.25 0 277.75 1.59 276.79 16.11 254.77 14.19 236.58 1.57 202.11 9.38 212.63 36.19 187.73 46.71 182 21.81 144.66 9.35 108.3 21.78 118.8 41.89 102.66 54.33 84.33 34.21 46.98 44.73 55.59 69.63 33.52 83.02 42.22 112.71 33.5 128.02 42.19 158.66 67.99 163.46 64.16 172.96 33.48 172.95 0 191.2"/><text class="cls-2" transform="translate(275.08 191.82)">bus<tspan class="cls-3" x="102.48" y="0">h</tspan><tspan class="cls-4" x="137.94" y="0">_</tspan><tspan x="164.82" y="0">3</tspan></text></g></g></svg>