<svg xmlns="http://www.w3.org/2000/svg" viewBox="0 0 486.18 530.5"><defs><style>.cls-1{fill:lime;}.cls-2{font-size:60px;font-family:SuisseIntl-Book, Suisse Intl;}.cls-3{letter-spacing:0.01em;}.cls-4{letter-spacing:-0.05em;}.cls-5{letter-spacing:0em;}</style></defs><g id="Layer_2" data-name="Layer 2"><g id="Layer_1-2" data-name="Layer 1"><polygon class="cls-1" points="87.21 330 0 292.08 24.77 261.12 22.71 197.13 52.64 191.84 43.35 144.49 59.86 138.3 41.28 127.98 59.86 115.59 95.98 115.59 89.79 77.41 123.85 70.18 148.62 49.54 191.97 56.77 197.13 29.93 245.64 51.6 267.31 46.44 290.02 93.92 273.76 155.07 296.21 134.95 312.73 146.56 331.3 109.4 360.2 98.05 346.27 56.77 327.69 60.89 326.66 39.74 323.56 19.61 346.79 24.25 353.49 0 374.65 34.58 363.81 49.02 390.13 57.28 393.23 37.16 420.06 37.67 431.42 25.8 449.99 36.12 458.77 24.77 476.31 26.84 483.54 38.7 474.25 71.47 483.54 94.69 464.19 131.85 467.28 171.33 486.18 182.16 481.99 228.61 454.12 242.93 457.99 281.25 435.55 306.79 435.55 340.85 459.54 330.79 481.99 348.59 467.28 372.59 483.54 383.62 478.89 415.94 457.99 419.81 461.09 439.16 486.18 461.61 486.18 525.85 445.61 530.5 405.36 499.54 409.23 455.41 379.04 443.03 347.3 474.73 308.6 474.73 307.82 517.34 222.68 525.85 243.09 477.86 287.7 448.45 251.56 410.77 217.26 414.39 177.12 379.38 184.75 345.49 130.56 313.27 87.21 330"/><text class="cls-2" transform="translate(150.72 283.98)">bus<tspan class="cls-3" x="102.48" y="0">h</tspan><tspan class="cls-4" x="137.94" y="0">_</tspan><tspan class="cls-5" x="163.02" y="0">1</tspan></text></g></g></svg>