<svg xmlns="http://www.w3.org/2000/svg" viewBox="0 0 1405.48 1033.24"><defs><style>.cls-1{fill:aqua;}.cls-2{fill:blue;}.cls-3{fill:#009245;}.cls-4{fill:#8cc63f;}.cls-5{fill:red;}.cls-6{fill:#f7931e;}.cls-7{fill:lime;}.cls-8{fill:#f0f;}</style></defs><g id="Layer_2" data-name="Layer 2"><g id="Layer_1-2" data-name="Layer 1"><polygon class="cls-1" points="0 346.49 1011.66 341.93 1405.48 480.6 1405.48 1033.24 0 1033.24 0 346.49"/><path d="M652.27,857h2.82v5h-2.4c-3.18,0-3.84.66-3.84,4v2.22h6.24V873h-6.24v27.54h-6.24V873h-4.5v-4.74h4.5v-2.16C642.61,859,644.71,857,652.27,857Z"/><path d="M660.55,900.53V857h6.24v43.5Z"/><path d="M688.69,901.31c-7.62,0-15.66-5.16-15.66-16.8s8-16.86,15.66-16.86,15.72,5.16,15.72,16.86S696.37,901.31,688.69,901.31Zm9.12-16.8c0-8-4.38-11.58-9.12-11.58s-9.06,3.42-9.06,11.58c0,8,4.38,11.52,9.06,11.52S697.81,892.37,697.81,884.51Z"/><path d="M724.63,901.31c-7.62,0-15.66-5.16-15.66-16.8s8-16.86,15.66-16.86,15.72,5.16,15.72,16.86S732.31,901.31,724.63,901.31Zm9.12-16.8c0-8-4.38-11.58-9.12-11.58s-9.06,3.42-9.06,11.58c0,8,4.38,11.52,9.06,11.52S733.75,892.37,733.75,884.51Z"/><path d="M760.15,874.49c-4.8,0-7.32,2.34-7.32,9.12v16.92h-6.24V868.25h6.12V874a9.64,9.64,0,0,1,8.94-5.82,16.86,16.86,0,0,1,1.74.06v6.48A31,31,0,0,0,760.15,874.49Z"/><polygon class="cls-2" points="522.06 657.78 522.06 631.37 533.89 592.16 536.93 568.16 560.59 540.44 556.87 522.87 548.09 506.31 548.42 486.36 530.51 433.97 534.23 423.5 558.9 452.56 581.55 483.66 589.66 518.47 597.1 521.52 605.21 483.66 613.32 469.8 627.51 457.97 645.22 453.92 653.88 455.94 659.29 467.44 659.29 490.08 659.29 510.36 651.51 525.91 641.62 539.43 641.62 551.26 653.2 542.3 678.55 535.71 697.14 519.49 731.96 514.08 787.05 516.11 830.99 536.39 855.67 568.16 873.58 615.14 879.33 661.11 873.92 692.88 854.31 708.43 845.86 737.16 850.93 757.78 828.63 762.51 803.28 778.06 783.33 778.06 778.26 780.76 755.28 780.76 744.46 775.69 744.13 765.55 766.1 748.65 751.22 745.27 732.63 723.64 714.38 745.61 699.17 768.26 695.12 791.58 669.43 793.61 645.22 793.61 641.62 779.41 661.65 761.5 643.06 761.5 625.83 760.14 619.74 748.65 594.05 768.59 580.87 790.23 553.15 793.61 522.06 793.61 528.82 774 551.8 757.78 564.65 734.12 559.24 711.81 552.82 683.76 536.25 675.05 522.06 657.78"/><path d="M606.46,599.75c2-3.3,5.34-5.34,10.08-5.34,7.5,0,13.92,6.3,13.92,16.8s-6.42,16.86-13.92,16.86c-4.74,0-8.1-2-10.08-5.34v4.56h-6.24v-43.5h6.24Zm17.34,11.46c0-7.26-3.54-11.58-8.7-11.58-4.8,0-8.88,3.6-8.88,11.58s4.08,11.64,8.88,11.64C620.26,622.85,623.8,618.47,623.8,611.21Z"/><path d="M646.72,628.07c-7.62,0-10.56-4.74-10.56-12.54V595h6.24v18.84c0,4.68.78,8.94,6.42,8.94,5.22,0,7.8-3.9,7.8-10.26V595h6.24v32.28h-6.3v-4.56C654.7,626,651.58,628.07,646.72,628.07Z"/><path d="M687.58,594.41c7.8,0,10.8,5,10.8,12.54v20.34h-6.24V608.63c0-4.68-.78-9-6.66-9-5.4,0-8,3.9-8,10.32v17.34H671.2V595h6.24v4.68C679.3,596.51,682.54,594.41,687.58,594.41Z"/><path d="M722.56,594.41c7.8,0,10.8,5,10.8,12.54v20.34h-6.24V608.63c0-4.68-.78-9-6.66-9-5.4,0-8,3.9-8,10.32v17.34h-6.24V595h6.24v4.68C714.28,596.51,717.52,594.41,722.56,594.41Z"/><path d="M739.24,632.81h2.46c3.36,0,4.8-.24,6.36-4.86l.24-.72L736.66,595h6.9l7.8,24.06L759,595h6.48l-11.4,33c-2.64,7.62-4.56,9.77-11.82,9.77h-3Z"/><path d="M760.3,627.29h24.54v5.76H760.3Z"/><path d="M793.9,593.69H784v-4.26c6.3-.24,9.42-.9,11.7-5.64h4.5v43.5h-6.3Z"/><polygon class="cls-3" points="142.29 296.68 148.01 345.39 184.45 345.41 196.83 368.51 155.65 392.79 167.13 423.07 189.61 451.51 268.6 448.02 290.63 429.83 326.05 451.57 374.88 451.6 401.7 432.76 425.63 451.62 486.9 451.65 500.33 411.98 530.02 385.9 562.56 412.01 555.85 440.49 634.36 440.53 645.86 412.05 622.08 396.48 629.6 373.5 645.88 369.68 655.47 345.63 665.99 371.61 684.17 379.13 676.5 406.08 707.13 423.33 731.07 413.77 731.06 440.57 892.87 438.74 887.15 393.13 892.91 360.23 864.86 335.32 832.6 335.3 801.01 319.97 770.37 331.44 745.48 316.11 751.23 301.75 768.46 309.42 778.52 301.77 775.34 284.53 784.75 284.54 791.45 299.86 809.64 295.08 806.78 269.23 822.96 258.7 815.41 247.21 821.73 232.85 813.51 219.44 822.99 201.25 860.43 201.27 859.48 185 830.76 178.28 846.09 158.18 828.86 153.38 859.5 143.82 842.27 130.41 808.76 137.1 821.78 116.04 801.11 107.25 778.6 128.47 749.4 134.2 744.62 111.22 700.58 111.19 710.14 137.05 695.53 151.41 672.79 149.48 682.37 136.08 661.32 123.62 634.5 137.97 616.97 129.35 622.22 120.73 611.88 107.16 574.51 116.88 581.84 138.91 567.47 154.22 541.62 146.55 554.08 129.32 524.41 107.12 481.31 123.54 504.28 152.27 475.55 167.58 442.53 145.54 452.59 126.4 442.55 105.48 420.04 107.07 419.08 121.59 397.06 119.67 378.87 107.05 344.4 114.86 354.92 141.67 330.02 152.19 324.29 127.29 286.95 114.83 250.59 127.26 261.09 147.37 244.95 159.81 226.62 139.69 189.28 150.21 197.88 175.11 175.81 188.5 184.51 218.19 175.79 233.5 184.49 264.14 210.28 268.94 206.45 278.44 175.77 278.43 142.29 296.68"/><path d="M427.81,269.76c2-3.3,5.34-5.34,10.08-5.34,7.5,0,13.92,6.3,13.92,16.8s-6.42,16.86-13.92,16.86c-4.74,0-8.1-2-10.08-5.34v4.56h-6.24V253.8h6.24Zm17.34,11.46c0-7.26-3.54-11.58-8.7-11.58-4.8,0-8.88,3.6-8.88,11.58s4.08,11.64,8.88,11.64C441.61,292.86,445.15,288.48,445.15,281.22Z"/><path d="M468.07,298.08c-7.62,0-10.56-4.74-10.56-12.54V265h6.24v18.84c0,4.68.78,8.94,6.42,8.94,5.22,0,7.8-3.9,7.8-10.26V265h6.24V297.3h-6.3v-4.56C476.05,296,472.93,298.08,468.07,298.08Z"/><path d="M503.59,269.4c-3.06,0-6.36,1.26-6.36,3.9,0,2.4,1.56,3.42,4.5,4l4.62.9c6.12,1.2,11.46,3.3,11.46,9.6,0,6.54-6.12,10.26-13.56,10.26-8.16,0-13.14-4.74-13.92-10.8h6.36c.84,3.66,3.24,5.82,7.74,5.82,4,0,7.14-1.68,7.14-4.56s-2.82-4.2-6.18-4.86l-4.86-1c-4.86-1-9.42-3.12-9.42-9.18,0-5.7,6-9.18,13.08-9.18,6.48,0,11.7,3.42,12.9,9.66h-6.18C510,270.72,507.25,269.4,503.59,269.4Z"/><path d="M540.43,264.42c7.8,0,10.8,5,10.8,12.54V297.3H545V278.64c0-4.68-.78-9-6.66-9-5.4,0-8,3.9-8,10.32V297.3h-6.24V253.8h6.24v15.9C532.15,266.52,535.39,264.42,540.43,264.42Z"/><path d="M557.05,297.3h24.54v5.76H557.05Z"/><path d="M597,277.2h-1.5v-5.46h1.26c7.2,0,10.86-2.16,10.86-7,0-4.56-3.66-6.78-8-6.78-5.52,0-8.58,3.36-9.18,8.4h-6.24c.66-8,6.3-13.38,15.72-13.38,7.38,0,14.28,3.12,14.28,11.22a10.72,10.72,0,0,1-6.78,10c5.88,2,7.92,6.3,7.92,10.8,0,8.82-7.5,13.08-16,13.08-10.14,0-15.18-6.48-15.72-13.92h6.24c.66,5,3.66,8.88,9.6,8.88,5.4,0,9.36-2.88,9.36-7.92C608.77,279.18,603.73,277.2,597,277.2Z"/><polygon class="cls-4" points="797.25 61.35 813.42 114.75 864.42 115.15 889.56 140.13 859.25 165.86 821.41 138.53 803.79 168.42 815.56 189.92 839.32 192.32 841.04 213.03 828.56 229.25 827.27 241.93 846.73 249.25 829.9 267.82 843.7 289.5 815.31 292.68 820.86 322.07 856.78 325.73 829.86 369.95 804.88 395.16 851.36 399.89 880.77 383.67 915.5 398.95 920.69 431.84 977.76 447.99 1011.39 432.2 983.71 368.54 1009.99 330.65 1000.32 299.78 1026.77 281.13 1028.3 262.77 1054.86 248.02 1065.63 213.63 1086.96 192.29 1094.62 159.95 1051.31 155.54 1029.16 131.93 999.97 146.04 974.2 137.01 995.92 133.33 991.79 111.05 1007.87 99.88 988.17 76.52 990.43 54.34 1007 56.02 1007.64 39.26 965.02 17.59 942.27 31.29 923.62 4.83 876.15 0 873.54 25.6 830.89 34.89 797.25 61.35"/><path d="M855.57,215.19c2-3.3,5.34-5.34,10.08-5.34,7.5,0,13.92,6.3,13.92,16.8s-6.42,16.86-13.92,16.86c-4.74,0-8.1-2-10.08-5.34v4.56h-6.24v-43.5h6.24Zm17.34,11.46c0-7.26-3.54-11.58-8.7-11.58-4.8,0-8.88,3.6-8.88,11.58s4.08,11.64,8.88,11.64C869.37,238.29,872.91,233.91,872.91,226.65Z"/><path d="M895.83,243.51c-7.62,0-10.56-4.74-10.56-12.54V210.45h6.24v18.84c0,4.68.78,8.94,6.42,8.94,5.22,0,7.8-3.9,7.8-10.26V210.45H912v32.28h-6.3v-4.56C903.81,241.41,900.69,243.51,895.83,243.51Z"/><path d="M931.35,214.83c-3.06,0-6.36,1.26-6.36,3.9,0,2.4,1.56,3.42,4.5,4l4.62.9c6.12,1.2,11.46,3.3,11.46,9.6,0,6.54-6.12,10.26-13.56,10.26-8.16,0-13.14-4.74-13.92-10.8h6.36c.84,3.66,3.24,5.82,7.74,5.82,4,0,7.14-1.68,7.14-4.56s-2.82-4.2-6.18-4.86l-4.86-1c-4.86-1-9.42-3.12-9.42-9.18,0-5.7,6-9.18,13.08-9.18,6.48,0,11.7,3.42,12.9,9.66h-6.18C937.77,216.15,935,214.83,931.35,214.83Z"/><path d="M968.19,209.85c7.8,0,10.8,5,10.8,12.54v20.34h-6.24V224.07c0-4.68-.78-9-6.66-9-5.4,0-8,3.9-8,10.32v17.34h-6.24v-43.5h6.24v15.9C959.91,212,963.15,209.85,968.19,209.85Z"/><path d="M984.81,242.73h24.54v5.76H984.81Z"/><path d="M1021.47,237.09h23.4v5.64h-31.5v-5.4c14.94-11.34,23.82-19.26,23.82-26.76,0-4.38-2.94-7.14-7.62-7.14-4.44,0-8.7,2.52-8.76,9.54h-6.36c-.12-8.7,5.94-14.52,15.3-14.52,8,0,14,4.08,14,11.46C1043.73,219.45,1034.13,228.15,1021.47,237.09Z"/><polygon class="cls-5" points="160.46 502.07 166.55 482.85 168.43 454.95 182.26 435.02 197.26 423.53 211.09 417.67 212.5 410.17 197.26 370.79 199.6 365.63 206.4 368.21 221.41 395.4 224.92 395.17 229.38 382.74 244.45 367.5 246.49 368.44 242.04 389.78 235 402.9 235.24 416.97 244.45 429.39 246.49 436.66 246.49 451.2 243.21 472.06 239.46 485.66 244.45 492.46 244.45 502.07 197.03 505.58 160.46 502.07"/><path d="M100.54,426.8c2-3.3,5.34-5.34,10.08-5.34,7.5,0,13.92,6.3,13.92,16.8s-6.42,16.86-13.92,16.86c-4.74,0-8.1-2-10.08-5.34v4.56H94.3v-43.5h6.24Zm17.34,11.46c0-7.26-3.54-11.58-8.7-11.58-4.8,0-8.88,3.6-8.88,11.58s4.08,11.64,8.88,11.64C114.34,449.9,117.88,445.52,117.88,438.26Z"/><path d="M140.8,455.12c-7.62,0-10.56-4.74-10.56-12.54V422.06h6.24V440.9c0,4.68.78,8.94,6.42,8.94,5.22,0,7.8-3.9,7.8-10.26V422.06h6.24v32.28h-6.3v-4.56C148.78,453,145.66,455.12,140.8,455.12Z"/><path d="M181.66,421.46c7.8,0,10.8,5,10.8,12.54v20.34h-6.24V435.68c0-4.68-.78-9-6.66-9-5.4,0-8,3.9-8,10.32v17.34h-6.24V422.06h6.24v4.68C173.38,423.56,176.62,421.46,181.66,421.46Z"/><path d="M216.64,421.46c7.8,0,10.8,5,10.8,12.54v20.34H221.2V435.68c0-4.68-.78-9-6.66-9-5.4,0-8,3.9-8,10.32v17.34h-6.24V422.06h6.24v4.68C208.36,423.56,211.6,421.46,216.64,421.46Z"/><path d="M233.32,459.86h2.46c3.36,0,4.8-.24,6.36-4.86l.24-.72-11.64-32.22h6.9l7.8,24.06,7.62-24.06h6.48l-11.4,33c-2.64,7.62-4.56,9.78-11.82,9.78h-3Z"/><path d="M254.38,454.34h24.54v5.76H254.38Z"/><path d="M308.14,443.84v10.5h-6.3v-10.5H280.3v-5.52l21.54-27.48h6.3V438.2h7.8v5.64Zm-6.3-5.64v-19l-14.64,19Z"/><polyline class="cls-6" points="362.21 451.1 376.29 453.79 383.14 445.35 392.99 452.38 401.78 477.7 414.44 492.12 414.44 498.8 397.21 496.69 390.18 507.94 408.46 512.16 447.14 512.16 450.31 510.06 480.55 509.7 480.55 495.29 470.7 489.31 473.16 471.37 468.24 451.33 434.83 392.61 423.23 373.97 421.12 351.81 422.88 335.64 440.81 313.84 439.41 304.34 429.56 304.34 416.55 314.54 414.09 308.21 403.89 307.86 396.86 338.45 385.6 338.45 371.54 353.57 371.19 367.29 381.22 375.88 369.43 391.55 367.32 408.25 370.48 435.86"/><path d="M319.29,399.45c2-3.3,5.34-5.34,10.08-5.34,7.5,0,13.92,6.3,13.92,16.8s-6.42,16.86-13.92,16.86c-4.74,0-8.1-2-10.08-5.34V427h-6.24v-43.5h6.24Zm17.34,11.46c0-7.26-3.54-11.58-8.7-11.58-4.8,0-8.88,3.6-8.88,11.58s4.08,11.64,8.88,11.64C333.09,422.55,336.63,418.17,336.63,410.91Z"/><path d="M359.55,427.77c-7.62,0-10.56-4.74-10.56-12.54V394.71h6.24v18.84c0,4.68.78,8.94,6.42,8.94,5.22,0,7.8-3.9,7.8-10.26V394.71h6.24V427h-6.3v-4.56C367.53,425.67,364.41,427.77,359.55,427.77Z"/><path d="M400.41,394.11c7.8,0,10.8,5,10.8,12.54V427H405V408.33c0-4.68-.78-9-6.66-9-5.4,0-8,3.9-8,10.32V427H384V394.71h6.24v4.68C392.13,396.21,395.37,394.11,400.41,394.11Z"/><path d="M435.39,394.11c7.8,0,10.8,5,10.8,12.54V427H440V408.33c0-4.68-.78-9-6.66-9-5.4,0-8,3.9-8,10.32V427H419V394.71h6.24v4.68C427.11,396.21,430.35,394.11,435.39,394.11Z"/><path d="M452.07,432.51h2.46c3.36,0,4.8-.24,6.36-4.86l.24-.72-11.64-32.22h6.9l7.8,24.06,7.62-24.06h6.48l-11.4,33c-2.64,7.62-4.56,9.78-11.82,9.78h-3Z"/><path d="M473.13,427h24.54v5.76H473.13Z"/><path d="M513.09,406.89h-1.5v-5.46h1.26c7.2,0,10.86-2.16,10.86-7,0-4.56-3.66-6.78-8-6.78-5.52,0-8.58,3.36-9.18,8.4h-6.24c.66-8,6.3-13.38,15.72-13.38,7.38,0,14.28,3.12,14.28,11.22a10.72,10.72,0,0,1-6.78,10c5.88,2,7.92,6.3,7.92,10.8,0,8.82-7.5,13.08-16,13.08-10.14,0-15.18-6.48-15.72-13.92h6.24c.66,5,3.66,8.88,9.6,8.88,5.4,0,9.36-2.88,9.36-7.92C524.85,408.87,519.81,406.89,513.09,406.89Z"/><polygon class="cls-7" points="1005.63 488.25 918.43 450.33 943.2 419.37 941.13 355.38 971.06 350.09 961.77 302.74 978.29 296.55 959.71 286.23 978.29 273.84 1014.41 273.84 1008.22 235.65 1042.28 228.43 1067.05 207.79 1110.4 215.01 1115.56 188.18 1164.07 209.85 1185.74 204.69 1208.45 252.17 1192.19 313.32 1214.64 293.19 1231.15 304.8 1249.73 267.65 1278.63 256.3 1264.69 215.01 1246.12 219.14 1245.09 197.98 1241.99 177.86 1265.21 182.5 1271.92 158.25 1293.08 192.82 1282.24 207.27 1308.56 215.53 1311.65 195.4 1338.49 195.92 1349.84 184.05 1368.42 194.37 1377.19 183.02 1394.74 185.08 1401.96 196.95 1392.67 229.72 1401.96 252.94 1382.61 290.1 1385.71 329.57 1404.61 340.41 1400.42 386.86 1372.55 401.18 1376.42 439.49 1353.97 465.04 1353.97 499.1 1377.97 489.03 1400.42 506.84 1385.71 530.83 1401.96 541.86 1397.32 574.18 1376.42 578.05 1379.52 597.4 1404.61 619.85 1404.61 684.1 1364.03 688.74 1323.78 657.78 1327.65 613.66 1297.46 601.27 1265.73 632.98 1227.02 632.98 1226.25 675.59 1141.1 684.1 1161.52 636.11 1206.12 606.69 1169.98 569.02 1135.68 572.63 1095.55 537.62 1103.17 503.74 1048.99 471.52 1005.63 488.25"/><path d="M1079.59,414.69c2-3.3,5.34-5.34,10.08-5.34,7.5,0,13.92,6.3,13.92,16.8S1097.17,443,1089.67,443c-4.74,0-8.1-2-10.08-5.34v4.56h-6.24v-43.5h6.24Zm17.34,11.46c0-7.26-3.54-11.58-8.7-11.58-4.8,0-8.88,3.6-8.88,11.58s4.08,11.64,8.88,11.64C1093.39,437.79,1096.93,433.41,1096.93,426.15Z"/><path d="M1119.85,443c-7.62,0-10.56-4.74-10.56-12.54V410h6.24v18.84c0,4.68.78,8.94,6.42,8.94,5.22,0,7.8-3.9,7.8-10.26V410H1136v32.28h-6.3v-4.56C1127.83,440.91,1124.71,443,1119.85,443Z"/><path d="M1155.37,414.33c-3.06,0-6.36,1.26-6.36,3.9,0,2.4,1.56,3.42,4.5,4l4.62.9c6.12,1.2,11.46,3.3,11.46,9.6,0,6.54-6.12,10.26-13.56,10.26-8.16,0-13.14-4.74-13.92-10.8h6.36c.84,3.66,3.24,5.82,7.74,5.82,4,0,7.14-1.68,7.14-4.56s-2.82-4.2-6.18-4.86l-4.86-1c-4.86-1-9.42-3.12-9.42-9.18,0-5.7,6-9.18,13.08-9.18,6.48,0,11.7,3.42,12.9,9.66h-6.18C1161.79,415.65,1159,414.33,1155.37,414.33Z"/><path d="M1192.21,409.35c7.8,0,10.8,5,10.8,12.54v20.34h-6.24V423.57c0-4.68-.78-9-6.66-9-5.4,0-8,3.9-8,10.32v17.34h-6.24v-43.5h6.24v15.9C1183.93,411.45,1187.17,409.35,1192.21,409.35Z"/><path d="M1208.83,442.23h24.53V448h-24.53Z"/><path d="M1242.43,408.63h-9.9v-4.26c6.3-.24,9.41-.9,11.7-5.64h4.5v43.5h-6.3Z"/><polygon class="cls-8" points="773.5 496.31 792 497.24 797.08 493.54 811.41 495.62 813.96 503.71 837.07 503.71 839.62 495.85 880.53 498.74 884.69 486.6 871.05 475.05 867.59 414.71 849.32 388.13 827.83 382.81 841.23 343.05 831.76 335.65 809.79 369.4 792.92 335.65 777.2 341.43 795.69 386.97 789.22 400.15 790.61 424.88 780.9 448.23 778.36 478.28 773.5 496.31"/><path d="M726.44,410.88c2-3.3,5.34-5.34,10.08-5.34,7.5,0,13.92,6.3,13.92,16.8S744,439.2,736.52,439.2c-4.74,0-8.1-2-10.08-5.34v4.56H720.2v-43.5h6.24Zm17.34,11.46c0-7.26-3.54-11.58-8.7-11.58-4.8,0-8.88,3.6-8.88,11.58S730.28,434,735.08,434C740.24,434,743.78,429.6,743.78,422.34Z"/><path d="M766.7,439.2c-7.62,0-10.56-4.74-10.56-12.54V406.14h6.24V425c0,4.68.78,8.94,6.42,8.94,5.22,0,7.8-3.9,7.8-10.26V406.14h6.24v32.28h-6.3v-4.56C774.68,437.1,771.56,439.2,766.7,439.2Z"/><path d="M807.56,405.54c7.8,0,10.8,5,10.8,12.54v20.34h-6.24V419.76c0-4.68-.78-9-6.66-9-5.4,0-8,3.9-8,10.32v17.34h-6.24V406.14h6.24v4.68C799.28,407.64,802.52,405.54,807.56,405.54Z"/><path d="M842.54,405.54c7.8,0,10.8,5,10.8,12.54v20.34H847.1V419.76c0-4.68-.78-9-6.66-9-5.4,0-8,3.9-8,10.32v17.34h-6.24V406.14h6.24v4.68C834.26,407.64,837.5,405.54,842.54,405.54Z"/><path d="M859.22,443.94h2.46c3.36,0,4.8-.24,6.36-4.86l.24-.72-11.64-32.22h6.9l7.8,24.06L879,406.14h6.48l-11.4,33c-2.64,7.62-4.56,9.78-11.82,9.78h-3Z"/><path d="M880.28,438.42h24.54v5.76H880.28Z"/><path d="M916.94,432.78h23.4v5.64h-31.5V433c14.94-11.34,23.82-19.26,23.82-26.76,0-4.38-2.94-7.14-7.62-7.14-4.44,0-8.7,2.52-8.76,9.54h-6.36c-.12-8.7,5.94-14.52,15.3-14.52,8,0,14,4.08,14,11.46C939.19,415.14,929.6,423.84,916.94,432.78Z"/></g></g></svg>