<svg xmlns="http://www.w3.org/2000/svg" viewBox="0 0 225.06 207.82"><defs><style>.cls-1{fill:#f7931e;}.cls-2{font-size:60px;font-family:SuisseIntl-Book, Suisse Intl;}.cls-3{letter-spacing:0em;}.cls-4{letter-spacing:-0.11em;}.cls-5{letter-spacing:-0.02em;}</style></defs><g id="Layer_2" data-name="Layer 2"><g id="Layer_1-2" data-name="Layer 1"><polyline class="cls-1" points="53.36 146.76 67.44 149.45 74.29 141.01 84.14 148.04 92.93 173.36 105.59 187.78 105.59 194.46 88.36 192.35 81.33 203.6 99.61 207.82 138.29 207.82 141.46 205.71 171.7 205.36 171.7 190.94 161.85 184.97 164.31 167.03 159.39 146.99 125.98 88.26 114.38 69.63 112.27 47.47 114.03 31.3 131.96 9.49 130.56 0 120.71 0 107.7 10.2 105.24 3.87 95.04 3.52 88.01 34.11 76.75 34.11 62.69 49.23 62.34 62.94 72.37 71.54 60.58 87.21 58.47 103.91 61.63 131.51"/><text class="cls-2" transform="translate(0 122.65)">bun<tspan class="cls-3" x="105.96" y="0">n</tspan><tspan class="cls-4" x="140.64" y="0">y</tspan><tspan class="cls-5" x="162.54" y="0">_</tspan><tspan x="189.42" y="0">3</tspan></text></g></g></svg>