<svg xmlns="http://www.w3.org/2000/svg" viewBox="0 0 357.27 370.11"><defs><style>.cls-1{fill:blue;}.cls-2{font-size:60px;font-family:SuisseIntl-Book, Suisse Intl;}.cls-3{letter-spacing:0em;}.cls-4{letter-spacing:-0.11em;}.cls-5{letter-spacing:-0.05em;}</style></defs><g id="Layer_2" data-name="Layer 2"><g id="Layer_1-2" data-name="Layer 1"><polygon class="cls-1" points="0 234.28 0 207.87 11.83 168.66 14.87 144.66 38.53 116.95 34.81 99.37 26.03 82.81 26.36 62.87 8.45 10.48 12.17 0 36.84 29.07 59.49 60.16 67.6 94.98 75.04 98.02 83.15 60.16 91.26 46.31 105.46 34.48 123.16 30.42 131.82 32.45 137.23 43.94 137.23 66.59 137.23 86.87 129.45 102.41 119.56 115.93 119.56 127.76 131.14 118.81 156.49 112.22 175.09 95.99 209.9 90.58 264.99 92.61 308.93 112.89 333.61 144.66 351.52 191.65 357.27 237.62 351.86 269.39 332.25 284.94 323.81 313.67 328.88 334.28 306.57 339.01 281.22 354.56 261.27 354.56 256.2 357.27 233.22 357.27 222.41 352.2 222.07 342.06 244.04 325.16 229.16 321.78 210.57 300.14 192.32 322.12 177.11 344.76 173.06 368.08 147.37 370.11 123.16 370.11 119.56 355.92 139.59 338 121 338 103.77 336.65 97.68 325.16 71.99 345.1 58.81 366.73 31.1 370.11 0 370.11 6.76 350.51 29.74 334.28 42.59 310.62 37.18 288.31 30.76 260.26 14.2 251.56 0 234.28"/><text class="cls-2" transform="translate(73.96 203.79)">bun<tspan class="cls-3" x="105.96" y="0">n</tspan><tspan class="cls-4" x="140.64" y="0">y</tspan><tspan class="cls-5" x="162.54" y="0">_</tspan><tspan x="187.62" y="0">1</tspan></text></g></g></svg>