<svg xmlns="http://www.w3.org/2000/svg" viewBox="0 0 226.74 139.95"><defs><style>.cls-1{fill:red;}.cls-2{font-size:60px;font-family:SuisseIntl-Book, Suisse Intl;}.cls-3{letter-spacing:0em;}.cls-4{letter-spacing:-0.11em;}.cls-5{letter-spacing:-0.02em;}</style></defs><g id="Layer_2" data-name="Layer 2"><g id="Layer_1-2" data-name="Layer 1"><polygon class="cls-1" points="70.35 136.44 76.45 117.22 78.32 89.32 92.15 69.39 107.16 57.9 120.99 52.04 122.39 44.54 107.16 5.16 109.5 0 116.3 2.58 131.3 29.77 134.82 29.54 139.27 17.11 154.34 1.88 156.39 2.81 151.93 24.15 144.9 37.27 145.13 51.34 154.34 63.77 156.39 71.03 156.39 85.57 153.1 106.43 149.35 120.03 154.34 126.83 154.34 136.44 106.92 139.96 70.35 136.44"/><text class="cls-2" transform="translate(0 88.71)">bun<tspan class="cls-3" x="105.96" y="0">n</tspan><tspan class="cls-4" x="140.64" y="0">y</tspan><tspan class="cls-5" x="162.54" y="0">_</tspan><tspan x="189.42" y="0">4</tspan></text></g></g></svg>