<svg xmlns="http://www.w3.org/2000/svg" viewBox="0 0 297.37 447.99"><defs><style>.cls-1{fill:#8cc63f;}.cls-2{font-size:60px;font-family:SuisseIntl-Book, Suisse Intl;}.cls-3{letter-spacing:0.01em;}.cls-4{letter-spacing:0.01em;}</style></defs><g id="Layer_2" data-name="Layer 2"><g id="Layer_1-2" data-name="Layer 1"><polygon class="cls-1" points="0 61.35 16.18 114.75 67.17 115.15 92.31 140.13 62.01 165.86 24.16 138.53 6.54 168.42 18.31 189.92 42.07 192.32 43.79 213.03 31.31 229.25 30.02 241.93 49.49 249.25 32.65 267.82 46.46 289.5 18.07 292.68 23.62 322.07 59.54 325.73 32.62 369.95 7.63 395.16 54.12 399.89 83.52 383.67 118.26 398.95 123.45 431.84 180.51 447.99 214.14 432.2 186.47 368.54 212.74 330.65 203.08 299.78 229.53 281.13 231.05 262.77 257.62 248.02 268.38 213.63 289.72 192.29 297.38 159.95 254.06 155.54 231.91 131.93 202.72 146.04 176.96 137.01 198.68 133.33 194.55 111.05 210.63 99.88 190.93 76.52 193.19 54.34 209.76 56.02 210.4 39.26 167.77 17.59 145.03 31.29 126.37 4.83 78.9 0 76.29 25.6 33.65 34.89 0 61.35"/><text class="cls-2" transform="translate(47.89 242.73)">bus<tspan class="cls-3" x="102.48" y="0">h</tspan><tspan class="cls-4" x="137.94" y="0">_</tspan><tspan x="166.62" y="0">2</tspan></text></g></g></svg>