<svg xmlns="http://www.w3.org/2000/svg" viewBox="0 0 1920 261.73"><defs><style>.cls-1{fill:#fff;}</style></defs><g id="Layer_2" data-name="Layer 2"><g id="Layer_1-2" data-name="Layer 1"><rect class="cls-1" width="1920" height="261.73" transform="translate(1920 261.73) rotate(-180)"/><path d="M929.52,139.31c-3.06,0-6.36,1.26-6.36,3.9,0,2.4,1.56,3.42,4.5,4l4.62.9c6.12,1.2,11.46,3.3,11.46,9.6,0,6.54-6.12,10.26-13.56,10.26-8.16,0-13.14-4.74-13.92-10.8h6.36c.84,3.66,3.24,5.82,7.74,5.82,4,0,7.14-1.68,7.14-4.56s-2.82-4.2-6.18-4.86l-4.86-1c-4.86-1-9.42-3.12-9.42-9.18,0-5.7,6-9.18,13.08-9.18,6.48,0,11.7,3.42,12.9,9.66h-6.18C935.94,140.63,933.18,139.31,929.52,139.31Z"/><path d="M956.22,148.73l12.84-13.8h7.62l-12.54,13.32,13.44,19h-7.44l-10.26-14.46-3.66,3.9v10.56H950v-43.5h6.24Z"/><path d="M979.5,172.73H982c3.36,0,4.8-.24,6.36-4.86l.24-.72-11.64-32.22h6.9l7.8,24.06,7.62-24.06h6.48l-11.4,33c-2.64,7.62-4.56,9.78-11.82,9.78h-3Z"/></g></g></svg>