<svg xmlns="http://www.w3.org/2000/svg" viewBox="0 0 630.33 615.02"><defs><style>.cls-1{fill:lime;}.cls-2{fill:#fff;}</style></defs><g id="Layer_2" data-name="Layer 2"><g id="Layer_1-2" data-name="Layer 1"><path class="cls-1" d="M619.33,11V604H11V11H619.33m11-11H0V615H630.33V0Z"/><rect class="cls-1" y="541.03" width="454.89" height="73.98"/><path class="cls-2" d="M34.32,566.63c-3.06,0-6.36,1.26-6.36,3.9,0,2.4,1.56,3.42,4.5,4l4.62.9c6.12,1.2,11.46,3.3,11.46,9.6,0,6.54-6.12,10.26-13.56,10.26-8.16,0-13.14-4.74-13.92-10.8h6.36c.84,3.66,3.24,5.82,7.74,5.82,4,0,7.14-1.68,7.14-4.56s-2.82-4.2-6.18-4.86l-4.86-1c-4.86-1-9.42-3.12-9.42-9.18,0-5.7,6-9.18,13.08-9.18,6.48,0,11.7,3.42,12.9,9.66H41.64C40.74,568,38,566.63,34.32,566.63Z"/><path class="cls-2" d="M62.28,554v8.28h6.36V567H62.28v18.42c0,3.3.54,4.14,3.66,4.14h2.64v5H64c-6.54,0-8-1.62-8-8.28V567H51.13v-4.74H56V554Z"/><path class="cls-2" d="M94.56,574.55v-.66c0-5.7-3-7.62-7-7.62-4.32,0-6.78,2.22-7,6.18h-6.3c.54-6.84,6.18-11,13.56-11,8.34,0,13.14,4,13,13.68,0,.78-.12,6.36-.12,7.74a60.15,60.15,0,0,0,.9,11.64h-6a27.85,27.85,0,0,1-.54-4.26c-1.92,3.24-5.58,5-10.8,5-6.54,0-11.52-3.6-11.52-9.48C72.78,578,82,575.87,94.56,574.55Zm-15,11.16c0,2.94,2.34,4.8,6.12,4.8,5.16,0,9.18-2.58,9.18-9v-2.34C84.84,580.13,79.56,581.51,79.56,585.71Z"/><path class="cls-2" d="M124.92,561.65c7.8,0,10.8,5,10.8,12.54v20.34h-6.24V575.87c0-4.68-.78-9-6.66-9-5.4,0-8,3.9-8,10.32v17.34h-6.24V562.25h6.24v4.68C116.64,563.75,119.88,561.65,124.92,561.65Z"/><path class="cls-2" d="M154.32,551h2.82v5h-2.4c-3.18,0-3.84.66-3.84,4v2.22h6.24V567H150.9v27.54h-6.24V567h-4.5v-4.74h4.5v-2.16C144.66,553,146.76,551,154.32,551Z"/><path class="cls-2" d="M175.5,595.31c-7.62,0-15.66-5.16-15.66-16.8s8-16.86,15.66-16.86,15.72,5.16,15.72,16.86S183.18,595.31,175.5,595.31Zm9.12-16.8c0-8-4.38-11.58-9.12-11.58s-9.06,3.42-9.06,11.58c0,8,4.38,11.52,9.06,11.52S184.62,586.37,184.62,578.51Z"/><path class="cls-2" d="M211,568.49c-4.8,0-7.32,2.34-7.32,9.12v16.92h-6.24V562.25h6.12V568a9.64,9.64,0,0,1,8.94-5.82,16.86,16.86,0,0,1,1.74.06v6.48A31,31,0,0,0,211,568.49Z"/><path class="cls-2" d="M246.6,551v43.5h-6.24V590c-2,3.3-5.34,5.34-10.08,5.34-7.5,0-13.92-6.3-13.92-16.86s6.42-16.8,13.92-16.8c4.74,0,8.1,2,10.08,5.34V551ZM223,578.45c0,7.26,3.54,11.64,8.7,11.64,4.8,0,8.88-3.66,8.88-11.64s-4.08-11.58-8.88-11.58C226.56,566.87,223,571.19,223,578.45Z"/><path class="cls-2" d="M275.28,567c2-3.3,5.34-5.34,10.08-5.34,7.5,0,13.92,6.3,13.92,16.8s-6.42,16.86-13.92,16.86c-4.74,0-8.1-2-10.08-5.34v4.56H269V551h6.24Zm17.34,11.46c0-7.26-3.54-11.58-8.7-11.58-4.8,0-8.88,3.6-8.88,11.58s4.08,11.64,8.88,11.64C289.08,590.09,292.62,585.71,292.62,578.45Z"/><path class="cls-2" d="M315.54,595.31c-7.62,0-10.56-4.74-10.56-12.54V562.25h6.24v18.84c0,4.68.78,8.94,6.42,8.94,5.22,0,7.8-3.9,7.8-10.26V562.25h6.24v32.28h-6.3V590C323.52,593.21,320.4,595.31,315.54,595.31Z"/><path class="cls-2" d="M356.4,561.65c7.8,0,10.8,5,10.8,12.54v20.34H361V575.87c0-4.68-.78-9-6.66-9-5.4,0-8,3.9-8,10.32v17.34H340V562.25h6.24v4.68C348.12,563.75,351.36,561.65,356.4,561.65Z"/><path class="cls-2" d="M391.38,561.65c7.8,0,10.8,5,10.8,12.54v20.34h-6.24V575.87c0-4.68-.78-9-6.66-9-5.4,0-8,3.9-8,10.32v17.34H375V562.25h6.24v4.68C383.1,563.75,386.34,561.65,391.38,561.65Z"/><path class="cls-2" d="M408.06,600.05h2.46c3.36,0,4.8-.24,6.36-4.86l.24-.72-11.64-32.22h6.9l7.8,24.06,7.62-24.06h6.48l-11.4,33c-2.64,7.62-4.56,9.77-11.82,9.77h-3Z"/></g></g></svg>