<svg xmlns="http://www.w3.org/2000/svg" viewBox="0 0 1113.23 813.87"><defs><style>.cls-1{fill:lime;}.cls-2{fill:#fff;}</style></defs><g id="Layer_2" data-name="Layer 2"><g id="Layer_1-2" data-name="Layer 1"><path class="cls-1" d="M1102.23,11V802.87H11V11H1102.23m11-11H0V813.87H1113.23V0Z"/><rect class="cls-1" y="739.88" width="479.17" height="73.98"/><path class="cls-2" d="M34.36,765c-3.06,0-6.36,1.26-6.36,3.9,0,2.4,1.56,3.42,4.5,4l4.62.9c6.12,1.2,11.46,3.3,11.46,9.6,0,6.54-6.12,10.26-13.56,10.26-8.16,0-13.14-4.74-13.92-10.8h6.36c.84,3.66,3.24,5.82,7.74,5.82,4,0,7.14-1.68,7.14-4.56s-2.82-4.2-6.18-4.86l-4.86-1c-4.86-1-9.42-3.12-9.42-9.18,0-5.7,6-9.18,13.08-9.18,6.48,0,11.7,3.42,12.9,9.66H41.68C40.78,766.31,38,765,34.36,765Z"/><path class="cls-2" d="M62.32,752.33v8.28h6.36v4.74H62.32v18.42c0,3.3.54,4.14,3.66,4.14h2.64v5H64.06c-6.54,0-8-1.62-8-8.28V765.35H51.16v-4.74h4.92v-8.28Z"/><path class="cls-2" d="M94.6,772.91v-.66c0-5.7-3-7.62-7-7.62-4.32,0-6.78,2.22-7,6.18h-6.3c.54-6.84,6.18-11,13.56-11,8.34,0,13.14,4,13,13.68,0,.78-.12,6.36-.12,7.74a60.15,60.15,0,0,0,.9,11.64h-6a27.85,27.85,0,0,1-.54-4.26c-1.92,3.24-5.58,5-10.8,5-6.54,0-11.52-3.6-11.52-9.48C72.82,776.33,82.06,774.23,94.6,772.91Zm-15,11.16c0,2.94,2.34,4.8,6.12,4.8,5.16,0,9.18-2.58,9.18-9v-2.34C84.88,778.49,79.6,779.87,79.6,784.07Z"/><path class="cls-2" d="M125,760c7.8,0,10.8,5,10.8,12.54v20.34h-6.24V774.23c0-4.68-.78-9-6.66-9-5.4,0-8,3.9-8,10.32v17.34h-6.24V760.61h6.24v4.68C116.68,762.11,119.92,760,125,760Z"/><path class="cls-2" d="M154.36,749.4h2.82v5h-2.4c-3.18,0-3.84.66-3.84,4v2.22h6.24v4.74h-6.24v27.54H144.7V765.35h-4.5v-4.74h4.5v-2.16C144.7,751.32,146.8,749.4,154.36,749.4Z"/><path class="cls-2" d="M175.54,793.67c-7.62,0-15.66-5.16-15.66-16.8s8-16.86,15.66-16.86,15.72,5.16,15.72,16.86S183.22,793.67,175.54,793.67Zm9.12-16.8c0-8-4.38-11.58-9.12-11.58s-9.06,3.42-9.06,11.58c0,8,4.38,11.52,9.06,11.52S184.66,784.73,184.66,776.87Z"/><path class="cls-2" d="M211.06,766.85c-4.8,0-7.32,2.34-7.32,9.12v16.92H197.5V760.61h6.12v5.7a9.64,9.64,0,0,1,8.94-5.82,16.86,16.86,0,0,1,1.74.06V767A31,31,0,0,0,211.06,766.85Z"/><path class="cls-2" d="M246.64,749.4v43.49H240.4v-4.56c-2,3.3-5.34,5.34-10.08,5.34-7.5,0-13.92-6.3-13.92-16.86s6.42-16.8,13.92-16.8c4.74,0,8.1,2,10.08,5.34v-16Zm-23.58,27.41c0,7.26,3.54,11.64,8.7,11.64,4.8,0,8.88-3.66,8.88-11.64s-4.08-11.58-8.88-11.58C226.6,765.23,223.06,769.55,223.06,776.81Z"/><path class="cls-2" d="M297.09,749.4v43.49h-6.24v-4.56c-2,3.3-5.33,5.34-10.07,5.34-7.5,0-13.92-6.3-13.92-16.86s6.42-16.8,13.92-16.8c4.74,0,8.1,2,10.07,5.34v-16Zm-23.57,27.41c0,7.26,3.54,11.64,8.69,11.64,4.8,0,8.88-3.66,8.88-11.64s-4.08-11.58-8.88-11.58C277.06,765.23,273.52,769.55,273.52,776.81Z"/><path class="cls-2" d="M319.05,766.85c-4.79,0-7.31,2.34-7.31,9.12v16.92H305.5V760.61h6.12v5.7a9.64,9.64,0,0,1,8.93-5.82,17.15,17.15,0,0,1,1.75.06V767A31.05,31.05,0,0,0,319.05,766.85Z"/><path class="cls-2" d="M345.88,772.91v-.66c0-5.7-3-7.62-7-7.62-4.32,0-6.78,2.22-7,6.18h-6.3c.54-6.84,6.18-11,13.56-11,8.34,0,13.14,4,13,13.68,0,.78-.12,6.36-.12,7.74a60,60,0,0,0,.91,11.64h-6a27.85,27.85,0,0,1-.54-4.26c-1.92,3.24-5.58,5-10.8,5-6.54,0-11.52-3.6-11.52-9.48C324.1,776.33,333.34,774.23,345.88,772.91Zm-15,11.16c0,2.94,2.34,4.8,6.12,4.8,5.16,0,9.18-2.58,9.18-9v-2.34C336.16,778.49,330.88,779.87,330.88,784.07Z"/><path class="cls-2" d="M387.58,760.61v28.5c0,5.94-1.26,9.12-3.49,11.34-2.46,2.58-6.35,3.9-11.27,3.9-7.2,0-12.48-3.12-13.5-9.9h6.42c.66,2.94,2.52,4.68,7.2,4.68,3.06,0,5.16-.84,6.48-2.34s1.92-3.06,1.92-6.36V787c-2,3.3-5.22,5.34-10,5.34-7.5,0-13.74-5.94-13.74-16.2S363.88,760,371.38,760c4.74,0,8,2,10,5.34v-4.74ZM364.3,776.15c0,7,3.36,11.1,8.52,11.1,4.8,0,8.76-3.36,8.76-11.1s-4-11-8.76-11C367.66,765.17,364.3,769.25,364.3,776.15Z"/><path class="cls-2" d="M409.42,793.67c-7.62,0-15.66-5.16-15.66-16.8s8-16.86,15.66-16.86,15.71,5.16,15.71,16.86S417.09,793.67,409.42,793.67Zm9.12-16.8c0-8-4.38-11.58-9.12-11.58s-9.06,3.42-9.06,11.58c0,8,4.38,11.52,9.06,11.52S418.54,784.73,418.54,776.87Z"/><path class="cls-2" d="M447.75,760c7.8,0,10.8,5,10.8,12.54v20.34h-6.24V774.23c0-4.68-.78-9-6.66-9-5.4,0-8,3.9-8,10.32v17.34h-6.23V760.61h6.23v4.68C439.47,762.11,442.71,760,447.75,760Z"/></g></g></svg>